M48
; DRILL file {KiCad (5.1.4)-1} date 12/6/2019 11:04:53 AM
; FORMAT={-:-/ absolute / inch / decimal}
; #@! TF.CreationDate,2019-12-06T11:04:53-07:00
; #@! TF.GenerationSoftware,Kicad,Pcbnew,(5.1.4)-1
; #@! TF.FileFunction,Plated,1,2,PTH
FMAT,2
INCH
T1C0.0157
T2C0.0315
T3C0.0354
T4C0.0394
%
G90
G05
T1
X4.325Y-2.55
X4.325Y-3.125
X4.5Y-2.55
X4.825Y-2.6
X4.875Y-3.075
X4.95Y-3.35
T2
X4.025Y-1.425
X4.1234Y-1.425
X4.25Y-0.9
X4.35Y-0.9
X4.45Y-0.9
X4.65Y-2.125
X4.75Y-2.125
X4.85Y-2.125
X4.65Y-0.9
X5.05Y-0.9
X4.425Y-3.275
X4.525Y-3.275
X4.625Y-3.275
X5.0Y-2.2
X5.0Y-2.6
X4.65Y-3.45
X4.75Y-3.45
X4.85Y-3.45
X4.5Y-2.375
X4.5Y-2.775
X4.025Y-1.625
X4.1037Y-1.625
X4.775Y-1.75
X4.8537Y-1.75
X5.0Y-2.7
X5.0Y-3.1
X4.3766Y-2.125
X4.475Y-2.125
X4.05Y-1.1
X4.45Y-1.1
X4.65Y-1.1
X5.05Y-1.1
X3.925Y-3.025
X3.925Y-3.425
X4.425Y-3.025
X4.5234Y-3.025
X5.025Y-1.7
X5.025Y-2.1
T3
X4.125Y-3.275
X4.225Y-3.275
X3.9Y-0.9
X4.0Y-0.9
T4
X4.2Y-2.375
X4.2Y-2.475
X4.2Y-2.575
X4.2Y-2.675
X4.2Y-2.775
X4.2Y-2.875
X4.2Y-2.975
X4.2Y-3.075
X4.6921Y-2.375
X4.6921Y-2.475
X4.6921Y-2.575
X4.6921Y-2.675
X4.6921Y-2.775
X4.6921Y-2.875
X4.6921Y-2.975
X4.6921Y-3.075
X3.95Y-2.75
X3.95Y-2.85
X4.675Y-3.65
X4.675Y-3.75
X4.075Y-3.525
X4.075Y-3.625
X4.175Y-3.525
X4.175Y-3.625
X4.275Y-3.525
X4.275Y-3.625
X4.375Y-3.525
X4.375Y-3.625
X4.475Y-3.525
X4.475Y-3.625
X4.825Y-3.65
X4.825Y-3.75
X4.025Y-2.075
X4.125Y-2.075
X4.025Y-1.85
X4.125Y-1.85
X3.95Y-2.4
X3.95Y-2.5
X4.375Y-1.95
X4.475Y-1.95
X4.575Y-1.95
T0
M30
