G04 #@! TF.FileFunction,Copper,L1,Top,Signal*
%FSLAX46Y46*%
G04 Gerber Fmt 4.6, Leading zero omitted, Abs format (unit mm)*
G04 Created by KiCad (PCBNEW 4.0.7) date 04/16/18 14:41:09*
%MOMM*%
%LPD*%
G01*
G04 APERTURE LIST*
%ADD10C,0.100000*%
%ADD11C,1.600000*%
%ADD12R,1.700000X1.700000*%
%ADD13O,1.700000X1.700000*%
%ADD14R,1.800000X1.800000*%
%ADD15O,1.800000X1.800000*%
%ADD16O,0.900000X1.500000*%
%ADD17R,0.900000X1.500000*%
%ADD18R,1.600000X1.600000*%
%ADD19C,1.800000*%
%ADD20C,1.700000*%
%ADD21O,1.600000X1.600000*%
%ADD22C,0.600000*%
%ADD23C,0.250000*%
%ADD24C,0.550000*%
%ADD25C,0.750000*%
%ADD26C,0.254000*%
G04 APERTURE END LIST*
D10*
D11*
X112395000Y-76835000D03*
X114895000Y-76835000D03*
D12*
X100330000Y-60960000D03*
D13*
X100330000Y-63500000D03*
D12*
X100330000Y-72390000D03*
D13*
X100330000Y-69850000D03*
D14*
X111125000Y-49530000D03*
D15*
X113665000Y-49530000D03*
X116205000Y-49530000D03*
D16*
X113665000Y-83185000D03*
X114935000Y-83185000D03*
D17*
X112395000Y-83185000D03*
D18*
X102235000Y-41275000D03*
D11*
X104235000Y-41275000D03*
D14*
X104775000Y-83185000D03*
D19*
X107315000Y-83185000D03*
D12*
X122555000Y-92075000D03*
D13*
X122555000Y-89535000D03*
D12*
X118745000Y-92075000D03*
D13*
X118745000Y-89535000D03*
D11*
X113665000Y-53975000D03*
X111165000Y-53975000D03*
X102235000Y-36195000D03*
X104735000Y-36195000D03*
D18*
X121285000Y-44450000D03*
D11*
X123285000Y-44450000D03*
D12*
X103505000Y-92075000D03*
D13*
X103505000Y-89535000D03*
X106045000Y-92075000D03*
X106045000Y-89535000D03*
X108585000Y-92075000D03*
X108585000Y-89535000D03*
X111125000Y-92075000D03*
X111125000Y-89535000D03*
X113665000Y-92075000D03*
X113665000Y-89535000D03*
D12*
X104775000Y-52705000D03*
D13*
X102235000Y-52705000D03*
D16*
X121285000Y-83185000D03*
X120015000Y-83185000D03*
D17*
X122555000Y-83185000D03*
D16*
X119380000Y-53975000D03*
X120650000Y-53975000D03*
D17*
X118110000Y-53975000D03*
D12*
X102235000Y-46990000D03*
D13*
X104775000Y-46990000D03*
X119180000Y-78105000D03*
X119180000Y-75565000D03*
X119180000Y-73025000D03*
X119180000Y-70485000D03*
X119180000Y-67945000D03*
X119180000Y-65405000D03*
X119180000Y-62865000D03*
D20*
X119180000Y-60325000D03*
D12*
X106680000Y-60325000D03*
D13*
X106680000Y-62865000D03*
X106680000Y-65405000D03*
X106680000Y-67945000D03*
X106680000Y-70485000D03*
X106680000Y-73025000D03*
X106680000Y-75565000D03*
X106680000Y-78105000D03*
D11*
X99695000Y-86995000D03*
D21*
X99695000Y-76835000D03*
D11*
X114300000Y-70485000D03*
D21*
X114300000Y-60325000D03*
D11*
X127635000Y-53340000D03*
D21*
X127635000Y-43180000D03*
D11*
X127000000Y-68580000D03*
D21*
X127000000Y-78740000D03*
D11*
X127000000Y-66040000D03*
D21*
X127000000Y-55880000D03*
D22*
X109855000Y-64770000D03*
X125730000Y-82550000D03*
X114300000Y-64770000D03*
X109855000Y-79375000D03*
X122555000Y-66040000D03*
X123825000Y-78105000D03*
D23*
X106680000Y-60325000D02*
X111125000Y-55880000D01*
X111125000Y-55880000D02*
X111125000Y-53975000D01*
X111125000Y-53975000D02*
X111165000Y-53975000D01*
X106680000Y-78105000D02*
X109855000Y-74930000D01*
X109855000Y-74930000D02*
X109855000Y-64770000D01*
X111165000Y-53975000D02*
X111125000Y-53975000D01*
X111125000Y-53975000D02*
X113665000Y-51435000D01*
X113665000Y-51435000D02*
X113665000Y-49530000D01*
X114895000Y-76835000D02*
X114935000Y-76835000D01*
X114935000Y-76835000D02*
X113665000Y-78105000D01*
X113665000Y-78105000D02*
X113665000Y-83185000D01*
X104235000Y-41275000D02*
X104140000Y-41275000D01*
X104140000Y-41275000D02*
X104775000Y-40640000D01*
X104775000Y-40640000D02*
X104775000Y-36195000D01*
X104775000Y-36195000D02*
X104735000Y-36195000D01*
X113665000Y-83185000D02*
X113665000Y-89535000D01*
X106680000Y-75565000D02*
X107950000Y-74295000D01*
X107950000Y-74295000D02*
X107950000Y-64135000D01*
X107950000Y-64135000D02*
X106680000Y-62865000D01*
D24*
X114935000Y-83185000D02*
X114935000Y-86360000D01*
X116205000Y-89535000D02*
X113665000Y-92075000D01*
X116205000Y-87630000D02*
X116205000Y-89535000D01*
X114935000Y-86360000D02*
X116205000Y-87630000D01*
X114935000Y-83185000D02*
X116840000Y-81280000D01*
X116840000Y-81280000D02*
X116840000Y-66040000D01*
X106680000Y-62865000D02*
X109855000Y-62865000D01*
X112395000Y-60325000D02*
X114300000Y-60325000D01*
X109855000Y-62865000D02*
X112395000Y-60325000D01*
X119180000Y-67945000D02*
X118745000Y-67945000D01*
X118745000Y-67945000D02*
X116840000Y-66040000D01*
X116840000Y-66040000D02*
X116840000Y-60325000D01*
X116840000Y-60325000D02*
X115570000Y-59055000D01*
X113665000Y-53975000D02*
X114300000Y-53975000D01*
X114300000Y-53975000D02*
X115570000Y-52705000D01*
X116205000Y-49530000D02*
X116205000Y-51435000D01*
X115570000Y-59055000D02*
X114300000Y-60325000D01*
X115570000Y-52070000D02*
X115570000Y-52705000D01*
X115570000Y-52705000D02*
X115570000Y-59055000D01*
X116205000Y-51435000D02*
X115570000Y-52070000D01*
X127635000Y-43180000D02*
X127635000Y-42545000D01*
X127635000Y-42545000D02*
X125730000Y-40640000D01*
X125730000Y-40640000D02*
X122555000Y-40640000D01*
X122555000Y-40640000D02*
X121285000Y-41910000D01*
X121285000Y-41910000D02*
X121285000Y-44450000D01*
X116205000Y-49530000D02*
X118110000Y-49530000D01*
X121285000Y-46355000D02*
X121285000Y-44450000D01*
X118110000Y-49530000D02*
X121285000Y-46355000D01*
X113665000Y-92075000D02*
X111125000Y-92075000D01*
D23*
X112395000Y-83185000D02*
X112395000Y-83820000D01*
X112395000Y-83820000D02*
X109855000Y-86360000D01*
X109855000Y-90805000D02*
X108585000Y-92075000D01*
X109855000Y-86360000D02*
X109855000Y-90805000D01*
X112395000Y-76835000D02*
X112395000Y-83185000D01*
X112395000Y-83185000D02*
X107315000Y-83185000D01*
X125730000Y-82550000D02*
X123825000Y-84455000D01*
X123825000Y-84455000D02*
X123825000Y-90805000D01*
X123825000Y-90805000D02*
X122555000Y-92075000D01*
X119180000Y-73025000D02*
X119380000Y-73025000D01*
X119380000Y-73025000D02*
X118110000Y-74295000D01*
X118110000Y-74295000D02*
X117475000Y-74295000D01*
X117475000Y-74295000D02*
X117475000Y-79375000D01*
X117475000Y-79375000D02*
X118745000Y-80645000D01*
X118745000Y-80645000D02*
X118745000Y-84455000D01*
X118745000Y-84455000D02*
X122555000Y-88265000D01*
X122555000Y-88265000D02*
X122555000Y-89535000D01*
X114300000Y-64770000D02*
X111125000Y-67945000D01*
X111125000Y-67945000D02*
X111125000Y-75565000D01*
X111125000Y-75565000D02*
X109855000Y-76835000D01*
X109855000Y-76835000D02*
X109855000Y-79375000D01*
X122555000Y-66040000D02*
X123825000Y-67310000D01*
X123825000Y-67310000D02*
X123825000Y-78105000D01*
X120015000Y-83185000D02*
X120015000Y-81915000D01*
X120015000Y-81915000D02*
X120650000Y-81280000D01*
X120650000Y-81280000D02*
X120650000Y-71755000D01*
X120650000Y-71755000D02*
X119380000Y-70485000D01*
X119380000Y-70485000D02*
X119180000Y-70485000D01*
X120650000Y-53975000D02*
X120650000Y-64135000D01*
X120650000Y-64135000D02*
X119380000Y-65405000D01*
X119380000Y-65405000D02*
X119180000Y-65405000D01*
X121285000Y-83185000D02*
X121285000Y-81915000D01*
X121285000Y-81915000D02*
X123825000Y-81915000D01*
X123825000Y-81915000D02*
X127000000Y-78740000D01*
D24*
X102235000Y-46990000D02*
X102235000Y-47625000D01*
X102235000Y-47625000D02*
X104140000Y-49530000D01*
X104140000Y-49530000D02*
X111125000Y-49530000D01*
X102235000Y-41275000D02*
X102235000Y-36195000D01*
X106045000Y-92075000D02*
X103505000Y-92075000D01*
X103505000Y-92075000D02*
X101600000Y-92075000D01*
X101600000Y-92075000D02*
X100965000Y-91440000D01*
X100965000Y-91440000D02*
X99695000Y-91440000D01*
X99695000Y-91440000D02*
X97790000Y-89535000D01*
X97790000Y-89535000D02*
X97790000Y-51435000D01*
X97790000Y-51435000D02*
X102235000Y-46990000D01*
X102235000Y-46990000D02*
X102235000Y-41275000D01*
D25*
X106680000Y-65405000D02*
X104775000Y-65405000D01*
X104775000Y-65405000D02*
X100330000Y-60960000D01*
X106680000Y-67945000D02*
X104775000Y-67945000D01*
X104775000Y-67945000D02*
X100330000Y-63500000D01*
X106680000Y-73025000D02*
X104140000Y-73025000D01*
X103505000Y-72390000D02*
X100330000Y-72390000D01*
X104140000Y-73025000D02*
X103505000Y-72390000D01*
X106680000Y-70485000D02*
X103505000Y-70485000D01*
X102870000Y-69850000D02*
X100330000Y-69850000D01*
X103505000Y-70485000D02*
X102870000Y-69850000D01*
D26*
G36*
X130100000Y-97715000D02*
X96595000Y-97715000D01*
X96595000Y-95593599D01*
X97324699Y-95593599D01*
X97588281Y-96231515D01*
X98075918Y-96720004D01*
X98713373Y-96984699D01*
X99403599Y-96985301D01*
X100041515Y-96721719D01*
X100530004Y-96234082D01*
X100794699Y-95596627D01*
X100794701Y-95593599D01*
X125899699Y-95593599D01*
X126163281Y-96231515D01*
X126650918Y-96720004D01*
X127288373Y-96984699D01*
X127978599Y-96985301D01*
X128616515Y-96721719D01*
X129105004Y-96234082D01*
X129369699Y-95596627D01*
X129370301Y-94906401D01*
X129106719Y-94268485D01*
X128619082Y-93779996D01*
X127981627Y-93515301D01*
X127291401Y-93514699D01*
X126653485Y-93778281D01*
X126164996Y-94265918D01*
X125900301Y-94903373D01*
X125899699Y-95593599D01*
X100794701Y-95593599D01*
X100795301Y-94906401D01*
X100531719Y-94268485D01*
X100044082Y-93779996D01*
X99406627Y-93515301D01*
X98716401Y-93514699D01*
X98078485Y-93778281D01*
X97589996Y-94265918D01*
X97325301Y-94903373D01*
X97324699Y-95593599D01*
X96595000Y-95593599D01*
X96595000Y-51435000D01*
X96880000Y-51435000D01*
X96880000Y-89535000D01*
X96949270Y-89883242D01*
X97146533Y-90178467D01*
X99051533Y-92083467D01*
X99346758Y-92280730D01*
X99695000Y-92350000D01*
X100588066Y-92350000D01*
X100956533Y-92718467D01*
X101251758Y-92915730D01*
X101600000Y-92985000D01*
X102018850Y-92985000D01*
X102051838Y-93160317D01*
X102190910Y-93376441D01*
X102403110Y-93521431D01*
X102655000Y-93572440D01*
X104355000Y-93572440D01*
X104590317Y-93528162D01*
X104806441Y-93389090D01*
X104951431Y-93176890D01*
X104965086Y-93109459D01*
X104994946Y-93154147D01*
X105476715Y-93476054D01*
X106045000Y-93589093D01*
X106613285Y-93476054D01*
X107095054Y-93154147D01*
X107315000Y-92824974D01*
X107534946Y-93154147D01*
X108016715Y-93476054D01*
X108585000Y-93589093D01*
X109153285Y-93476054D01*
X109635054Y-93154147D01*
X109855000Y-92824974D01*
X110074946Y-93154147D01*
X110556715Y-93476054D01*
X111125000Y-93589093D01*
X111693285Y-93476054D01*
X112175054Y-93154147D01*
X112288074Y-92985000D01*
X112501926Y-92985000D01*
X112614946Y-93154147D01*
X113096715Y-93476054D01*
X113665000Y-93589093D01*
X114233285Y-93476054D01*
X114715054Y-93154147D01*
X115036961Y-92672378D01*
X115150000Y-92104093D01*
X115150000Y-92045907D01*
X115121966Y-91904968D01*
X116848467Y-90178467D01*
X117045730Y-89883242D01*
X117057148Y-89825839D01*
X117115000Y-89535000D01*
X117230907Y-89535000D01*
X117343946Y-90103285D01*
X117665853Y-90585054D01*
X117707452Y-90612850D01*
X117659683Y-90621838D01*
X117443559Y-90760910D01*
X117298569Y-90973110D01*
X117247560Y-91225000D01*
X117247560Y-92925000D01*
X117291838Y-93160317D01*
X117430910Y-93376441D01*
X117643110Y-93521431D01*
X117895000Y-93572440D01*
X119595000Y-93572440D01*
X119830317Y-93528162D01*
X120046441Y-93389090D01*
X120191431Y-93176890D01*
X120242440Y-92925000D01*
X120242440Y-91225000D01*
X120198162Y-90989683D01*
X120059090Y-90773559D01*
X119846890Y-90628569D01*
X119779459Y-90614914D01*
X119824147Y-90585054D01*
X120146054Y-90103285D01*
X120259093Y-89535000D01*
X120146054Y-88966715D01*
X119824147Y-88484946D01*
X119342378Y-88163039D01*
X118774093Y-88050000D01*
X118715907Y-88050000D01*
X118147622Y-88163039D01*
X117665853Y-88484946D01*
X117343946Y-88966715D01*
X117230907Y-89535000D01*
X117115000Y-89535000D01*
X117115000Y-87630000D01*
X117045730Y-87281758D01*
X116848467Y-86986533D01*
X115845000Y-85983066D01*
X115845000Y-84065646D01*
X115937409Y-83927346D01*
X116020000Y-83512134D01*
X116020000Y-83386934D01*
X117483467Y-81923467D01*
X117540194Y-81838569D01*
X117680730Y-81628242D01*
X117750000Y-81280000D01*
X117750000Y-80724802D01*
X117985000Y-80959802D01*
X117985000Y-84455000D01*
X118042852Y-84745839D01*
X118207599Y-84992401D01*
X121610306Y-88395108D01*
X121475853Y-88484946D01*
X121153946Y-88966715D01*
X121040907Y-89535000D01*
X121153946Y-90103285D01*
X121475853Y-90585054D01*
X121517452Y-90612850D01*
X121469683Y-90621838D01*
X121253559Y-90760910D01*
X121108569Y-90973110D01*
X121057560Y-91225000D01*
X121057560Y-92925000D01*
X121101838Y-93160317D01*
X121240910Y-93376441D01*
X121453110Y-93521431D01*
X121705000Y-93572440D01*
X123405000Y-93572440D01*
X123640317Y-93528162D01*
X123856441Y-93389090D01*
X124001431Y-93176890D01*
X124052440Y-92925000D01*
X124052440Y-91652362D01*
X124362401Y-91342401D01*
X124527148Y-91095840D01*
X124585000Y-90805000D01*
X124585000Y-84769802D01*
X125869680Y-83485122D01*
X125915167Y-83485162D01*
X126258943Y-83343117D01*
X126522192Y-83080327D01*
X126664838Y-82736799D01*
X126665162Y-82364833D01*
X126523117Y-82021057D01*
X126260327Y-81757808D01*
X125916799Y-81615162D01*
X125544833Y-81614838D01*
X125201057Y-81756883D01*
X124937808Y-82019673D01*
X124795162Y-82363201D01*
X124795121Y-82410077D01*
X123640000Y-83565198D01*
X123640000Y-83470750D01*
X123481250Y-83312000D01*
X122682000Y-83312000D01*
X122682000Y-84411250D01*
X122840750Y-84570000D01*
X123065000Y-84570000D01*
X123065000Y-87700198D01*
X119948760Y-84583958D01*
X120015000Y-84597134D01*
X120430212Y-84514543D01*
X120650000Y-84367685D01*
X120869788Y-84514543D01*
X121285000Y-84597134D01*
X121700212Y-84514543D01*
X121755546Y-84477570D01*
X121978691Y-84570000D01*
X122269250Y-84570000D01*
X122428000Y-84411250D01*
X122428000Y-83312000D01*
X122408000Y-83312000D01*
X122408000Y-83058000D01*
X122428000Y-83058000D01*
X122428000Y-83038000D01*
X122682000Y-83038000D01*
X122682000Y-83058000D01*
X123481250Y-83058000D01*
X123640000Y-82899250D01*
X123640000Y-82675000D01*
X123825000Y-82675000D01*
X124115839Y-82617148D01*
X124362401Y-82452401D01*
X126676114Y-80138688D01*
X127000000Y-80203113D01*
X127549151Y-80093880D01*
X128014698Y-79782811D01*
X128325767Y-79317264D01*
X128435000Y-78768113D01*
X128435000Y-78711887D01*
X128325767Y-78162736D01*
X128014698Y-77697189D01*
X127549151Y-77386120D01*
X127000000Y-77276887D01*
X126450849Y-77386120D01*
X125985302Y-77697189D01*
X125674233Y-78162736D01*
X125565000Y-78711887D01*
X125565000Y-78768113D01*
X125620096Y-79045102D01*
X123510198Y-81155000D01*
X121410000Y-81155000D01*
X121410000Y-71755000D01*
X121389719Y-71653039D01*
X121352148Y-71464160D01*
X121187401Y-71217599D01*
X120654392Y-70684590D01*
X120694093Y-70485000D01*
X120581054Y-69916715D01*
X120259147Y-69434946D01*
X119929974Y-69215000D01*
X120259147Y-68995054D01*
X120581054Y-68513285D01*
X120694093Y-67945000D01*
X120581054Y-67376715D01*
X120259147Y-66894946D01*
X119929974Y-66675000D01*
X120259147Y-66455054D01*
X120412752Y-66225167D01*
X121619838Y-66225167D01*
X121761883Y-66568943D01*
X122024673Y-66832192D01*
X122368201Y-66974838D01*
X122415077Y-66974879D01*
X123065000Y-67624802D01*
X123065000Y-77542537D01*
X123032808Y-77574673D01*
X122890162Y-77918201D01*
X122889838Y-78290167D01*
X123031883Y-78633943D01*
X123294673Y-78897192D01*
X123638201Y-79039838D01*
X124010167Y-79040162D01*
X124353943Y-78898117D01*
X124617192Y-78635327D01*
X124759838Y-78291799D01*
X124760162Y-77919833D01*
X124618117Y-77576057D01*
X124585000Y-77542882D01*
X124585000Y-67310000D01*
X124552130Y-67144752D01*
X124527148Y-67019160D01*
X124362401Y-66772599D01*
X123913989Y-66324187D01*
X125564752Y-66324187D01*
X125782757Y-66851800D01*
X126186077Y-67255824D01*
X126316215Y-67309862D01*
X126188200Y-67362757D01*
X125784176Y-67766077D01*
X125565250Y-68293309D01*
X125564752Y-68864187D01*
X125782757Y-69391800D01*
X126186077Y-69795824D01*
X126713309Y-70014750D01*
X127284187Y-70015248D01*
X127811800Y-69797243D01*
X128215824Y-69393923D01*
X128434750Y-68866691D01*
X128435248Y-68295813D01*
X128217243Y-67768200D01*
X127813923Y-67364176D01*
X127683785Y-67310138D01*
X127811800Y-67257243D01*
X128215824Y-66853923D01*
X128434750Y-66326691D01*
X128435248Y-65755813D01*
X128217243Y-65228200D01*
X127813923Y-64824176D01*
X127286691Y-64605250D01*
X126715813Y-64604752D01*
X126188200Y-64822757D01*
X125784176Y-65226077D01*
X125565250Y-65753309D01*
X125564752Y-66324187D01*
X123913989Y-66324187D01*
X123490122Y-65900320D01*
X123490162Y-65854833D01*
X123348117Y-65511057D01*
X123085327Y-65247808D01*
X122741799Y-65105162D01*
X122369833Y-65104838D01*
X122026057Y-65246883D01*
X121762808Y-65509673D01*
X121620162Y-65853201D01*
X121619838Y-66225167D01*
X120412752Y-66225167D01*
X120581054Y-65973285D01*
X120694093Y-65405000D01*
X120654392Y-65205410D01*
X121187401Y-64672401D01*
X121352148Y-64425840D01*
X121410000Y-64135000D01*
X121410000Y-55851887D01*
X125565000Y-55851887D01*
X125565000Y-55908113D01*
X125674233Y-56457264D01*
X125985302Y-56922811D01*
X126450849Y-57233880D01*
X127000000Y-57343113D01*
X127549151Y-57233880D01*
X128014698Y-56922811D01*
X128325767Y-56457264D01*
X128435000Y-55908113D01*
X128435000Y-55851887D01*
X128325767Y-55302736D01*
X128014698Y-54837189D01*
X127920923Y-54774531D01*
X128446800Y-54557243D01*
X128850824Y-54153923D01*
X129069750Y-53626691D01*
X129070248Y-53055813D01*
X128852243Y-52528200D01*
X128448923Y-52124176D01*
X127921691Y-51905250D01*
X127350813Y-51904752D01*
X126823200Y-52122757D01*
X126419176Y-52526077D01*
X126200250Y-53053309D01*
X126199752Y-53624187D01*
X126417757Y-54151800D01*
X126735002Y-54469598D01*
X126450849Y-54526120D01*
X125985302Y-54837189D01*
X125674233Y-55302736D01*
X125565000Y-55851887D01*
X121410000Y-55851887D01*
X121410000Y-55074163D01*
X121417211Y-55069345D01*
X121652409Y-54717346D01*
X121735000Y-54302134D01*
X121735000Y-53647866D01*
X121652409Y-53232654D01*
X121417211Y-52880655D01*
X121065212Y-52645457D01*
X120650000Y-52562866D01*
X120234788Y-52645457D01*
X120015000Y-52792315D01*
X119795212Y-52645457D01*
X119380000Y-52562866D01*
X118964788Y-52645457D01*
X118909454Y-52682430D01*
X118686309Y-52590000D01*
X118395750Y-52590000D01*
X118237000Y-52748750D01*
X118237000Y-53848000D01*
X118257000Y-53848000D01*
X118257000Y-54102000D01*
X118237000Y-54102000D01*
X118237000Y-55201250D01*
X118395750Y-55360000D01*
X118686309Y-55360000D01*
X118909454Y-55267570D01*
X118964788Y-55304543D01*
X119380000Y-55387134D01*
X119795212Y-55304543D01*
X119890000Y-55241208D01*
X119890000Y-59011883D01*
X119476681Y-58840258D01*
X118885911Y-58839743D01*
X118339914Y-59065344D01*
X117921812Y-59482717D01*
X117695258Y-60028319D01*
X117695239Y-60049701D01*
X117680730Y-59976758D01*
X117483467Y-59681533D01*
X116480000Y-58678066D01*
X116480000Y-54260750D01*
X117025000Y-54260750D01*
X117025000Y-54851310D01*
X117121673Y-55084699D01*
X117300302Y-55263327D01*
X117533691Y-55360000D01*
X117824250Y-55360000D01*
X117983000Y-55201250D01*
X117983000Y-54102000D01*
X117183750Y-54102000D01*
X117025000Y-54260750D01*
X116480000Y-54260750D01*
X116480000Y-53098690D01*
X117025000Y-53098690D01*
X117025000Y-53689250D01*
X117183750Y-53848000D01*
X117983000Y-53848000D01*
X117983000Y-52748750D01*
X117824250Y-52590000D01*
X117533691Y-52590000D01*
X117300302Y-52686673D01*
X117121673Y-52865301D01*
X117025000Y-53098690D01*
X116480000Y-53098690D01*
X116480000Y-52446934D01*
X116848467Y-52078467D01*
X116859782Y-52061533D01*
X117045730Y-51783242D01*
X117115000Y-51435000D01*
X117115000Y-50752707D01*
X117320481Y-50615409D01*
X117437685Y-50440000D01*
X118110000Y-50440000D01*
X118458242Y-50370730D01*
X118753467Y-50173467D01*
X121928467Y-46998467D01*
X122125730Y-46703242D01*
X122195000Y-46355000D01*
X122195000Y-45876742D01*
X122320317Y-45853162D01*
X122536441Y-45714090D01*
X122540977Y-45707452D01*
X123068223Y-45896965D01*
X123638454Y-45869778D01*
X124039005Y-45703864D01*
X124113139Y-45457745D01*
X123285000Y-44629605D01*
X123270858Y-44643748D01*
X123091253Y-44464143D01*
X123105395Y-44450000D01*
X123464605Y-44450000D01*
X124292745Y-45278139D01*
X124538864Y-45204005D01*
X124731965Y-44666777D01*
X124704778Y-44096546D01*
X124538864Y-43695995D01*
X124292745Y-43621861D01*
X123464605Y-44450000D01*
X123105395Y-44450000D01*
X123091253Y-44435858D01*
X123270858Y-44256252D01*
X123285000Y-44270395D01*
X124113139Y-43442255D01*
X124039005Y-43196136D01*
X123501777Y-43003035D01*
X122931546Y-43030222D01*
X122540053Y-43192384D01*
X122336890Y-43053569D01*
X122195000Y-43024836D01*
X122195000Y-42286934D01*
X122931934Y-41550000D01*
X125353066Y-41550000D01*
X126347913Y-42544847D01*
X126309233Y-42602736D01*
X126200000Y-43151887D01*
X126200000Y-43208113D01*
X126309233Y-43757264D01*
X126620302Y-44222811D01*
X127085849Y-44533880D01*
X127635000Y-44643113D01*
X128184151Y-44533880D01*
X128649698Y-44222811D01*
X128960767Y-43757264D01*
X129070000Y-43208113D01*
X129070000Y-43151887D01*
X128960767Y-42602736D01*
X128649698Y-42137189D01*
X128241119Y-41864185D01*
X126373467Y-39996533D01*
X126078242Y-39799270D01*
X125730000Y-39730000D01*
X122555000Y-39730000D01*
X122206758Y-39799270D01*
X121911533Y-39996533D01*
X120641533Y-41266533D01*
X120444270Y-41561758D01*
X120375000Y-41910000D01*
X120375000Y-43023258D01*
X120249683Y-43046838D01*
X120033559Y-43185910D01*
X119888569Y-43398110D01*
X119837560Y-43650000D01*
X119837560Y-45250000D01*
X119881838Y-45485317D01*
X120020910Y-45701441D01*
X120233110Y-45846431D01*
X120375000Y-45875164D01*
X120375000Y-45978066D01*
X117733066Y-48620000D01*
X117437685Y-48620000D01*
X117320481Y-48444591D01*
X116822491Y-48111845D01*
X116235072Y-47995000D01*
X116174928Y-47995000D01*
X115587509Y-48111845D01*
X115089519Y-48444591D01*
X114930499Y-48682582D01*
X114572576Y-48292034D01*
X114029742Y-48038954D01*
X113792000Y-48159003D01*
X113792000Y-49403000D01*
X113812000Y-49403000D01*
X113812000Y-49657000D01*
X113792000Y-49657000D01*
X113792000Y-50900997D01*
X114029742Y-51021046D01*
X114572576Y-50767966D01*
X114930499Y-50377418D01*
X115089519Y-50615409D01*
X115295000Y-50752707D01*
X115295000Y-51058066D01*
X114926533Y-51426533D01*
X114729270Y-51721758D01*
X114660000Y-52070000D01*
X114660000Y-52328066D01*
X114302251Y-52685815D01*
X113951691Y-52540250D01*
X113380813Y-52539752D01*
X112853200Y-52757757D01*
X112449176Y-53161077D01*
X112421577Y-53227544D01*
X112418864Y-53220995D01*
X112172745Y-53146861D01*
X111344605Y-53975000D01*
X112172745Y-54803139D01*
X112418864Y-54729005D01*
X112421196Y-54722517D01*
X112447757Y-54786800D01*
X112851077Y-55190824D01*
X113378309Y-55409750D01*
X113949187Y-55410248D01*
X114476800Y-55192243D01*
X114660000Y-55009362D01*
X114660000Y-58678066D01*
X114446949Y-58891117D01*
X114300000Y-58861887D01*
X113750849Y-58971120D01*
X113285302Y-59282189D01*
X113196560Y-59415000D01*
X112395000Y-59415000D01*
X112046758Y-59484270D01*
X111751533Y-59681533D01*
X109478066Y-61955000D01*
X107852728Y-61955000D01*
X107759147Y-61814946D01*
X107715223Y-61785597D01*
X107889698Y-61713327D01*
X108068327Y-61534699D01*
X108165000Y-61301310D01*
X108165000Y-60610750D01*
X108006250Y-60452000D01*
X106807000Y-60452000D01*
X106807000Y-60472000D01*
X106553000Y-60472000D01*
X106553000Y-60452000D01*
X105353750Y-60452000D01*
X105195000Y-60610750D01*
X105195000Y-61301310D01*
X105291673Y-61534699D01*
X105470302Y-61713327D01*
X105644777Y-61785597D01*
X105600853Y-61814946D01*
X105278946Y-62296715D01*
X105165907Y-62865000D01*
X105278946Y-63433285D01*
X105600853Y-63915054D01*
X105930026Y-64135000D01*
X105600853Y-64354946D01*
X105574090Y-64395000D01*
X105193356Y-64395000D01*
X101827440Y-61029084D01*
X101827440Y-60110000D01*
X101783162Y-59874683D01*
X101644090Y-59658559D01*
X101431890Y-59513569D01*
X101180000Y-59462560D01*
X99480000Y-59462560D01*
X99244683Y-59506838D01*
X99028559Y-59645910D01*
X98883569Y-59858110D01*
X98832560Y-60110000D01*
X98832560Y-61810000D01*
X98876838Y-62045317D01*
X99015910Y-62261441D01*
X99228110Y-62406431D01*
X99295541Y-62420086D01*
X99250853Y-62449946D01*
X98928946Y-62931715D01*
X98815907Y-63500000D01*
X98928946Y-64068285D01*
X99250853Y-64550054D01*
X99732622Y-64871961D01*
X100300907Y-64985000D01*
X100359093Y-64985000D01*
X100382073Y-64980429D01*
X104060822Y-68659178D01*
X104388490Y-68878118D01*
X104775000Y-68955000D01*
X105574090Y-68955000D01*
X105600853Y-68995054D01*
X105930026Y-69215000D01*
X105600853Y-69434946D01*
X105574090Y-69475000D01*
X103923356Y-69475000D01*
X103584178Y-69135822D01*
X103256510Y-68916882D01*
X102870000Y-68840000D01*
X101435910Y-68840000D01*
X101409147Y-68799946D01*
X100927378Y-68478039D01*
X100359093Y-68365000D01*
X100300907Y-68365000D01*
X99732622Y-68478039D01*
X99250853Y-68799946D01*
X98928946Y-69281715D01*
X98815907Y-69850000D01*
X98928946Y-70418285D01*
X99250853Y-70900054D01*
X99292452Y-70927850D01*
X99244683Y-70936838D01*
X99028559Y-71075910D01*
X98883569Y-71288110D01*
X98832560Y-71540000D01*
X98832560Y-73240000D01*
X98876838Y-73475317D01*
X99015910Y-73691441D01*
X99228110Y-73836431D01*
X99480000Y-73887440D01*
X101180000Y-73887440D01*
X101415317Y-73843162D01*
X101631441Y-73704090D01*
X101776431Y-73491890D01*
X101795039Y-73400000D01*
X103086644Y-73400000D01*
X103425822Y-73739178D01*
X103753490Y-73958118D01*
X104140000Y-74035000D01*
X105574090Y-74035000D01*
X105600853Y-74075054D01*
X105930026Y-74295000D01*
X105600853Y-74514946D01*
X105278946Y-74996715D01*
X105165907Y-75565000D01*
X105278946Y-76133285D01*
X105600853Y-76615054D01*
X105941553Y-76842702D01*
X105798642Y-76909817D01*
X105408355Y-77338076D01*
X105238524Y-77748110D01*
X105359845Y-77978000D01*
X106553000Y-77978000D01*
X106553000Y-77958000D01*
X106807000Y-77958000D01*
X106807000Y-77978000D01*
X108000155Y-77978000D01*
X108121476Y-77748110D01*
X107951645Y-77338076D01*
X107561358Y-76909817D01*
X107418447Y-76842702D01*
X107759147Y-76615054D01*
X108081054Y-76133285D01*
X108194093Y-75565000D01*
X108121210Y-75198592D01*
X108487401Y-74832401D01*
X108652148Y-74585840D01*
X108710000Y-74295000D01*
X108710000Y-64135000D01*
X108678548Y-63976883D01*
X108652148Y-63844160D01*
X108605937Y-63775000D01*
X109855000Y-63775000D01*
X110203242Y-63705730D01*
X110498467Y-63508467D01*
X112771934Y-61235000D01*
X113196560Y-61235000D01*
X113285302Y-61367811D01*
X113750849Y-61678880D01*
X114300000Y-61788113D01*
X114849151Y-61678880D01*
X115314698Y-61367811D01*
X115625767Y-60902264D01*
X115709479Y-60481413D01*
X115930000Y-60701934D01*
X115930000Y-76015071D01*
X115902745Y-76006861D01*
X115074605Y-76835000D01*
X115902745Y-77663139D01*
X115930000Y-77654929D01*
X115930000Y-80903066D01*
X115039428Y-81793638D01*
X114935000Y-81772866D01*
X114519788Y-81855457D01*
X114295726Y-82005170D01*
X113959001Y-81840592D01*
X113792000Y-81967498D01*
X113792000Y-83058000D01*
X113812000Y-83058000D01*
X113812000Y-83312000D01*
X113792000Y-83312000D01*
X113792000Y-84402502D01*
X113959001Y-84529408D01*
X114025000Y-84497150D01*
X114025000Y-86360000D01*
X114094270Y-86708242D01*
X114291533Y-87003467D01*
X115295000Y-88006934D01*
X115295000Y-89158066D01*
X115045068Y-89407998D01*
X114985820Y-89407998D01*
X115106486Y-89178108D01*
X114860183Y-88653642D01*
X114431924Y-88263355D01*
X114021890Y-88093524D01*
X113792000Y-88214845D01*
X113792000Y-89408000D01*
X113812000Y-89408000D01*
X113812000Y-89662000D01*
X113792000Y-89662000D01*
X113792000Y-89682000D01*
X113538000Y-89682000D01*
X113538000Y-89662000D01*
X111252000Y-89662000D01*
X111252000Y-89682000D01*
X110998000Y-89682000D01*
X110998000Y-89662000D01*
X110978000Y-89662000D01*
X110978000Y-89408000D01*
X110998000Y-89408000D01*
X110998000Y-88214845D01*
X111252000Y-88214845D01*
X111252000Y-89408000D01*
X113538000Y-89408000D01*
X113538000Y-88214845D01*
X113308110Y-88093524D01*
X112898076Y-88263355D01*
X112469817Y-88653642D01*
X112395000Y-88812954D01*
X112320183Y-88653642D01*
X111891924Y-88263355D01*
X111481890Y-88093524D01*
X111252000Y-88214845D01*
X110998000Y-88214845D01*
X110768110Y-88093524D01*
X110615000Y-88156940D01*
X110615000Y-86674802D01*
X112707362Y-84582440D01*
X112845000Y-84582440D01*
X113080317Y-84538162D01*
X113213529Y-84452442D01*
X113370999Y-84529408D01*
X113538000Y-84402502D01*
X113538000Y-83312000D01*
X113518000Y-83312000D01*
X113518000Y-83058000D01*
X113538000Y-83058000D01*
X113538000Y-81967498D01*
X113370999Y-81840592D01*
X113212925Y-81917853D01*
X113155000Y-81878274D01*
X113155000Y-78073646D01*
X113206800Y-78052243D01*
X113416663Y-77842745D01*
X114066861Y-77842745D01*
X114140995Y-78088864D01*
X114678223Y-78281965D01*
X115248454Y-78254778D01*
X115649005Y-78088864D01*
X115723139Y-77842745D01*
X114895000Y-77014605D01*
X114066861Y-77842745D01*
X113416663Y-77842745D01*
X113610824Y-77648923D01*
X113638423Y-77582456D01*
X113641136Y-77589005D01*
X113887255Y-77663139D01*
X114715395Y-76835000D01*
X113887255Y-76006861D01*
X113641136Y-76080995D01*
X113638804Y-76087483D01*
X113612243Y-76023200D01*
X113416640Y-75827255D01*
X114066861Y-75827255D01*
X114895000Y-76655395D01*
X115723139Y-75827255D01*
X115649005Y-75581136D01*
X115111777Y-75388035D01*
X114541546Y-75415222D01*
X114140995Y-75581136D01*
X114066861Y-75827255D01*
X113416640Y-75827255D01*
X113208923Y-75619176D01*
X112681691Y-75400250D01*
X112110813Y-75399752D01*
X111885000Y-75493056D01*
X111885000Y-70769187D01*
X112864752Y-70769187D01*
X113082757Y-71296800D01*
X113486077Y-71700824D01*
X114013309Y-71919750D01*
X114584187Y-71920248D01*
X115111800Y-71702243D01*
X115515824Y-71298923D01*
X115734750Y-70771691D01*
X115735248Y-70200813D01*
X115517243Y-69673200D01*
X115113923Y-69269176D01*
X114586691Y-69050250D01*
X114015813Y-69049752D01*
X113488200Y-69267757D01*
X113084176Y-69671077D01*
X112865250Y-70198309D01*
X112864752Y-70769187D01*
X111885000Y-70769187D01*
X111885000Y-68259802D01*
X114439680Y-65705122D01*
X114485167Y-65705162D01*
X114828943Y-65563117D01*
X115092192Y-65300327D01*
X115234838Y-64956799D01*
X115235162Y-64584833D01*
X115093117Y-64241057D01*
X114830327Y-63977808D01*
X114486799Y-63835162D01*
X114114833Y-63834838D01*
X113771057Y-63976883D01*
X113507808Y-64239673D01*
X113365162Y-64583201D01*
X113365121Y-64630077D01*
X110587599Y-67407599D01*
X110422852Y-67654161D01*
X110365000Y-67945000D01*
X110365000Y-75250198D01*
X109317599Y-76297599D01*
X109152852Y-76544161D01*
X109095000Y-76835000D01*
X109095000Y-78812537D01*
X109062808Y-78844673D01*
X108920162Y-79188201D01*
X108919838Y-79560167D01*
X109061883Y-79903943D01*
X109324673Y-80167192D01*
X109668201Y-80309838D01*
X110040167Y-80310162D01*
X110383943Y-80168117D01*
X110647192Y-79905327D01*
X110789838Y-79561799D01*
X110790162Y-79189833D01*
X110648117Y-78846057D01*
X110615000Y-78812882D01*
X110615000Y-77149802D01*
X110960026Y-76804776D01*
X110959752Y-77119187D01*
X111177757Y-77646800D01*
X111581077Y-78050824D01*
X111635000Y-78073215D01*
X111635000Y-81879895D01*
X111493559Y-81970910D01*
X111348569Y-82183110D01*
X111299585Y-82425000D01*
X108661846Y-82425000D01*
X108617068Y-82316629D01*
X108185643Y-81884449D01*
X107621670Y-81650267D01*
X107011009Y-81649735D01*
X106446629Y-81882932D01*
X106278387Y-82050880D01*
X106278162Y-82049683D01*
X106139090Y-81833559D01*
X105926890Y-81688569D01*
X105675000Y-81637560D01*
X103875000Y-81637560D01*
X103639683Y-81681838D01*
X103423559Y-81820910D01*
X103278569Y-82033110D01*
X103227560Y-82285000D01*
X103227560Y-84085000D01*
X103271838Y-84320317D01*
X103410910Y-84536441D01*
X103623110Y-84681431D01*
X103875000Y-84732440D01*
X105675000Y-84732440D01*
X105910317Y-84688162D01*
X106126441Y-84549090D01*
X106271431Y-84336890D01*
X106275567Y-84316466D01*
X106444357Y-84485551D01*
X107008330Y-84719733D01*
X107618991Y-84720265D01*
X108183371Y-84487068D01*
X108615551Y-84055643D01*
X108661494Y-83945000D01*
X111195198Y-83945000D01*
X109317599Y-85822599D01*
X109152852Y-86069161D01*
X109095000Y-86360000D01*
X109095000Y-88156940D01*
X108941890Y-88093524D01*
X108712000Y-88214845D01*
X108712000Y-89408000D01*
X108732000Y-89408000D01*
X108732000Y-89662000D01*
X108712000Y-89662000D01*
X108712000Y-89682000D01*
X108458000Y-89682000D01*
X108458000Y-89662000D01*
X106172000Y-89662000D01*
X106172000Y-89682000D01*
X105918000Y-89682000D01*
X105918000Y-89662000D01*
X103632000Y-89662000D01*
X103632000Y-89682000D01*
X103378000Y-89682000D01*
X103378000Y-89662000D01*
X102184181Y-89662000D01*
X102063514Y-89891892D01*
X102309817Y-90416358D01*
X102515504Y-90603808D01*
X102419683Y-90621838D01*
X102203559Y-90760910D01*
X102058569Y-90973110D01*
X102019710Y-91165000D01*
X101976934Y-91165000D01*
X101608467Y-90796533D01*
X101313242Y-90599270D01*
X100965000Y-90530000D01*
X100071934Y-90530000D01*
X98720042Y-89178108D01*
X102063514Y-89178108D01*
X102184181Y-89408000D01*
X103378000Y-89408000D01*
X103378000Y-88214845D01*
X103632000Y-88214845D01*
X103632000Y-89408000D01*
X105918000Y-89408000D01*
X105918000Y-88214845D01*
X106172000Y-88214845D01*
X106172000Y-89408000D01*
X108458000Y-89408000D01*
X108458000Y-88214845D01*
X108228110Y-88093524D01*
X107818076Y-88263355D01*
X107389817Y-88653642D01*
X107315000Y-88812954D01*
X107240183Y-88653642D01*
X106811924Y-88263355D01*
X106401890Y-88093524D01*
X106172000Y-88214845D01*
X105918000Y-88214845D01*
X105688110Y-88093524D01*
X105278076Y-88263355D01*
X104849817Y-88653642D01*
X104775000Y-88812954D01*
X104700183Y-88653642D01*
X104271924Y-88263355D01*
X103861890Y-88093524D01*
X103632000Y-88214845D01*
X103378000Y-88214845D01*
X103148110Y-88093524D01*
X102738076Y-88263355D01*
X102309817Y-88653642D01*
X102063514Y-89178108D01*
X98720042Y-89178108D01*
X98700000Y-89158066D01*
X98700000Y-88029431D01*
X98881077Y-88210824D01*
X99408309Y-88429750D01*
X99979187Y-88430248D01*
X100506800Y-88212243D01*
X100910824Y-87808923D01*
X101129750Y-87281691D01*
X101130248Y-86710813D01*
X100912243Y-86183200D01*
X100508923Y-85779176D01*
X99981691Y-85560250D01*
X99410813Y-85559752D01*
X98883200Y-85777757D01*
X98700000Y-85960638D01*
X98700000Y-78461890D01*
X105238524Y-78461890D01*
X105408355Y-78871924D01*
X105798642Y-79300183D01*
X106323108Y-79546486D01*
X106553000Y-79425819D01*
X106553000Y-78232000D01*
X106807000Y-78232000D01*
X106807000Y-79425819D01*
X107036892Y-79546486D01*
X107561358Y-79300183D01*
X107951645Y-78871924D01*
X108121476Y-78461890D01*
X108000155Y-78232000D01*
X106807000Y-78232000D01*
X106553000Y-78232000D01*
X105359845Y-78232000D01*
X105238524Y-78461890D01*
X98700000Y-78461890D01*
X98700000Y-77832709D01*
X98957577Y-78066041D01*
X99345961Y-78226904D01*
X99568000Y-78104915D01*
X99568000Y-76962000D01*
X99822000Y-76962000D01*
X99822000Y-78104915D01*
X100044039Y-78226904D01*
X100432423Y-78066041D01*
X100847389Y-77690134D01*
X101086914Y-77184041D01*
X100965629Y-76962000D01*
X99822000Y-76962000D01*
X99568000Y-76962000D01*
X99548000Y-76962000D01*
X99548000Y-76708000D01*
X99568000Y-76708000D01*
X99568000Y-75565085D01*
X99822000Y-75565085D01*
X99822000Y-76708000D01*
X100965629Y-76708000D01*
X101086914Y-76485959D01*
X100847389Y-75979866D01*
X100432423Y-75603959D01*
X100044039Y-75443096D01*
X99822000Y-75565085D01*
X99568000Y-75565085D01*
X99345961Y-75443096D01*
X98957577Y-75603959D01*
X98700000Y-75837291D01*
X98700000Y-59348690D01*
X105195000Y-59348690D01*
X105195000Y-60039250D01*
X105353750Y-60198000D01*
X106553000Y-60198000D01*
X106553000Y-58998750D01*
X106807000Y-58998750D01*
X106807000Y-60198000D01*
X108006250Y-60198000D01*
X108165000Y-60039250D01*
X108165000Y-59348690D01*
X108068327Y-59115301D01*
X107889698Y-58936673D01*
X107656309Y-58840000D01*
X106965750Y-58840000D01*
X106807000Y-58998750D01*
X106553000Y-58998750D01*
X106394250Y-58840000D01*
X105703691Y-58840000D01*
X105470302Y-58936673D01*
X105291673Y-59115301D01*
X105195000Y-59348690D01*
X98700000Y-59348690D01*
X98700000Y-54982745D01*
X110336861Y-54982745D01*
X110410995Y-55228864D01*
X110948223Y-55421965D01*
X111518454Y-55394778D01*
X111919005Y-55228864D01*
X111993139Y-54982745D01*
X111165000Y-54154605D01*
X110336861Y-54982745D01*
X98700000Y-54982745D01*
X98700000Y-53061892D01*
X100793514Y-53061892D01*
X101039817Y-53586358D01*
X101468076Y-53976645D01*
X101878110Y-54146476D01*
X102108000Y-54025155D01*
X102108000Y-52832000D01*
X100914181Y-52832000D01*
X100793514Y-53061892D01*
X98700000Y-53061892D01*
X98700000Y-52348108D01*
X100793514Y-52348108D01*
X100914181Y-52578000D01*
X102108000Y-52578000D01*
X102108000Y-51384845D01*
X102362000Y-51384845D01*
X102362000Y-52578000D01*
X102382000Y-52578000D01*
X102382000Y-52832000D01*
X102362000Y-52832000D01*
X102362000Y-54025155D01*
X102591890Y-54146476D01*
X103001924Y-53976645D01*
X103304937Y-53700499D01*
X103321838Y-53790317D01*
X103460910Y-54006441D01*
X103673110Y-54151431D01*
X103925000Y-54202440D01*
X105625000Y-54202440D01*
X105860317Y-54158162D01*
X106076441Y-54019090D01*
X106221431Y-53806890D01*
X106231286Y-53758223D01*
X109718035Y-53758223D01*
X109745222Y-54328454D01*
X109911136Y-54729005D01*
X110157255Y-54803139D01*
X110985395Y-53975000D01*
X110157255Y-53146861D01*
X109911136Y-53220995D01*
X109718035Y-53758223D01*
X106231286Y-53758223D01*
X106272440Y-53555000D01*
X106272440Y-52967255D01*
X110336861Y-52967255D01*
X111165000Y-53795395D01*
X111993139Y-52967255D01*
X111919005Y-52721136D01*
X111381777Y-52528035D01*
X110811546Y-52555222D01*
X110410995Y-52721136D01*
X110336861Y-52967255D01*
X106272440Y-52967255D01*
X106272440Y-51855000D01*
X106228162Y-51619683D01*
X106089090Y-51403559D01*
X105876890Y-51258569D01*
X105625000Y-51207560D01*
X103925000Y-51207560D01*
X103689683Y-51251838D01*
X103473559Y-51390910D01*
X103328569Y-51603110D01*
X103306699Y-51711107D01*
X103001924Y-51433355D01*
X102591890Y-51263524D01*
X102362000Y-51384845D01*
X102108000Y-51384845D01*
X101878110Y-51263524D01*
X101468076Y-51433355D01*
X101039817Y-51823642D01*
X100793514Y-52348108D01*
X98700000Y-52348108D01*
X98700000Y-51811934D01*
X101917500Y-48594434D01*
X103496533Y-50173467D01*
X103791758Y-50370730D01*
X104140000Y-50440000D01*
X109579442Y-50440000D01*
X109621838Y-50665317D01*
X109760910Y-50881441D01*
X109973110Y-51026431D01*
X110225000Y-51077440D01*
X112025000Y-51077440D01*
X112260317Y-51033162D01*
X112476441Y-50894090D01*
X112621431Y-50681890D01*
X112631766Y-50630854D01*
X112757424Y-50767966D01*
X113300258Y-51021046D01*
X113538000Y-50900997D01*
X113538000Y-49657000D01*
X113518000Y-49657000D01*
X113518000Y-49403000D01*
X113538000Y-49403000D01*
X113538000Y-48159003D01*
X113300258Y-48038954D01*
X112757424Y-48292034D01*
X112634156Y-48426538D01*
X112628162Y-48394683D01*
X112489090Y-48178559D01*
X112276890Y-48033569D01*
X112025000Y-47982560D01*
X110225000Y-47982560D01*
X109989683Y-48026838D01*
X109773559Y-48165910D01*
X109628569Y-48378110D01*
X109579585Y-48620000D01*
X104516934Y-48620000D01*
X104308168Y-48411234D01*
X104775000Y-48504093D01*
X105343285Y-48391054D01*
X105825054Y-48069147D01*
X106146961Y-47587378D01*
X106260000Y-47019093D01*
X106260000Y-46960907D01*
X106146961Y-46392622D01*
X105825054Y-45910853D01*
X105343285Y-45588946D01*
X104775000Y-45475907D01*
X104206715Y-45588946D01*
X103724946Y-45910853D01*
X103697150Y-45952452D01*
X103688162Y-45904683D01*
X103549090Y-45688559D01*
X103336890Y-45543569D01*
X103145000Y-45504710D01*
X103145000Y-42701742D01*
X103270317Y-42678162D01*
X103486441Y-42539090D01*
X103490977Y-42532452D01*
X104018223Y-42721965D01*
X104588454Y-42694778D01*
X104989005Y-42528864D01*
X105063139Y-42282745D01*
X104235000Y-41454605D01*
X104220858Y-41468748D01*
X104041253Y-41289143D01*
X104055395Y-41275000D01*
X104414605Y-41275000D01*
X105242745Y-42103139D01*
X105488864Y-42029005D01*
X105681965Y-41491777D01*
X105654778Y-40921546D01*
X105488864Y-40520995D01*
X105242745Y-40446861D01*
X104414605Y-41275000D01*
X104055395Y-41275000D01*
X104041253Y-41260858D01*
X104220858Y-41081252D01*
X104235000Y-41095395D01*
X105063139Y-40267255D01*
X104989005Y-40021136D01*
X104451777Y-39828035D01*
X103881546Y-39855222D01*
X103490053Y-40017384D01*
X103286890Y-39878569D01*
X103145000Y-39849836D01*
X103145000Y-37314214D01*
X103256663Y-37202745D01*
X103906861Y-37202745D01*
X103980995Y-37448864D01*
X104518223Y-37641965D01*
X105088454Y-37614778D01*
X105489005Y-37448864D01*
X105563139Y-37202745D01*
X104735000Y-36374605D01*
X103906861Y-37202745D01*
X103256663Y-37202745D01*
X103450824Y-37008923D01*
X103478423Y-36942456D01*
X103481136Y-36949005D01*
X103727255Y-37023139D01*
X104555395Y-36195000D01*
X104914605Y-36195000D01*
X105742745Y-37023139D01*
X105988864Y-36949005D01*
X106181965Y-36411777D01*
X106154778Y-35841546D01*
X105988864Y-35440995D01*
X105742745Y-35366861D01*
X104914605Y-36195000D01*
X104555395Y-36195000D01*
X103727255Y-35366861D01*
X103481136Y-35440995D01*
X103478804Y-35447483D01*
X103452243Y-35383200D01*
X103256640Y-35187255D01*
X103906861Y-35187255D01*
X104735000Y-36015395D01*
X105563139Y-35187255D01*
X105489005Y-34941136D01*
X104951777Y-34748035D01*
X104381546Y-34775222D01*
X103980995Y-34941136D01*
X103906861Y-35187255D01*
X103256640Y-35187255D01*
X103048923Y-34979176D01*
X102521691Y-34760250D01*
X101950813Y-34759752D01*
X101423200Y-34977757D01*
X101019176Y-35381077D01*
X100800250Y-35908309D01*
X100799752Y-36479187D01*
X101017757Y-37006800D01*
X101325000Y-37314579D01*
X101325000Y-39848258D01*
X101199683Y-39871838D01*
X100983559Y-40010910D01*
X100838569Y-40223110D01*
X100787560Y-40475000D01*
X100787560Y-42075000D01*
X100831838Y-42310317D01*
X100970910Y-42526441D01*
X101183110Y-42671431D01*
X101325000Y-42700164D01*
X101325000Y-45503850D01*
X101149683Y-45536838D01*
X100933559Y-45675910D01*
X100788569Y-45888110D01*
X100737560Y-46140000D01*
X100737560Y-47200506D01*
X97146533Y-50791533D01*
X96949270Y-51086758D01*
X96880000Y-51435000D01*
X96595000Y-51435000D01*
X96595000Y-32728599D01*
X97324699Y-32728599D01*
X97588281Y-33366515D01*
X98075918Y-33855004D01*
X98713373Y-34119699D01*
X99403599Y-34120301D01*
X100041515Y-33856719D01*
X100530004Y-33369082D01*
X100737241Y-32870000D01*
X111233275Y-32870000D01*
X111414822Y-33782700D01*
X111931825Y-34556450D01*
X112705575Y-35073453D01*
X113618275Y-35255000D01*
X113711725Y-35255000D01*
X114624425Y-35073453D01*
X115398175Y-34556450D01*
X115915178Y-33782700D01*
X116096725Y-32870000D01*
X116068599Y-32728599D01*
X125899699Y-32728599D01*
X126163281Y-33366515D01*
X126650918Y-33855004D01*
X127288373Y-34119699D01*
X127978599Y-34120301D01*
X128616515Y-33856719D01*
X129105004Y-33369082D01*
X129369699Y-32731627D01*
X129370301Y-32041401D01*
X129106719Y-31403485D01*
X128619082Y-30914996D01*
X127981627Y-30650301D01*
X127291401Y-30649699D01*
X126653485Y-30913281D01*
X126164996Y-31400918D01*
X125900301Y-32038373D01*
X125899699Y-32728599D01*
X116068599Y-32728599D01*
X115915178Y-31957300D01*
X115398175Y-31183550D01*
X114624425Y-30666547D01*
X113711725Y-30485000D01*
X113618275Y-30485000D01*
X112705575Y-30666547D01*
X111931825Y-31183550D01*
X111414822Y-31957300D01*
X111233275Y-32870000D01*
X100737241Y-32870000D01*
X100794699Y-32731627D01*
X100795301Y-32041401D01*
X100531719Y-31403485D01*
X100044082Y-30914996D01*
X99406627Y-30650301D01*
X98716401Y-30649699D01*
X98078485Y-30913281D01*
X97589996Y-31400918D01*
X97325301Y-32038373D01*
X97324699Y-32728599D01*
X96595000Y-32728599D01*
X96595000Y-29920000D01*
X130100000Y-29920000D01*
X130100000Y-97715000D01*
X130100000Y-97715000D01*
G37*
X130100000Y-97715000D02*
X96595000Y-97715000D01*
X96595000Y-95593599D01*
X97324699Y-95593599D01*
X97588281Y-96231515D01*
X98075918Y-96720004D01*
X98713373Y-96984699D01*
X99403599Y-96985301D01*
X100041515Y-96721719D01*
X100530004Y-96234082D01*
X100794699Y-95596627D01*
X100794701Y-95593599D01*
X125899699Y-95593599D01*
X126163281Y-96231515D01*
X126650918Y-96720004D01*
X127288373Y-96984699D01*
X127978599Y-96985301D01*
X128616515Y-96721719D01*
X129105004Y-96234082D01*
X129369699Y-95596627D01*
X129370301Y-94906401D01*
X129106719Y-94268485D01*
X128619082Y-93779996D01*
X127981627Y-93515301D01*
X127291401Y-93514699D01*
X126653485Y-93778281D01*
X126164996Y-94265918D01*
X125900301Y-94903373D01*
X125899699Y-95593599D01*
X100794701Y-95593599D01*
X100795301Y-94906401D01*
X100531719Y-94268485D01*
X100044082Y-93779996D01*
X99406627Y-93515301D01*
X98716401Y-93514699D01*
X98078485Y-93778281D01*
X97589996Y-94265918D01*
X97325301Y-94903373D01*
X97324699Y-95593599D01*
X96595000Y-95593599D01*
X96595000Y-51435000D01*
X96880000Y-51435000D01*
X96880000Y-89535000D01*
X96949270Y-89883242D01*
X97146533Y-90178467D01*
X99051533Y-92083467D01*
X99346758Y-92280730D01*
X99695000Y-92350000D01*
X100588066Y-92350000D01*
X100956533Y-92718467D01*
X101251758Y-92915730D01*
X101600000Y-92985000D01*
X102018850Y-92985000D01*
X102051838Y-93160317D01*
X102190910Y-93376441D01*
X102403110Y-93521431D01*
X102655000Y-93572440D01*
X104355000Y-93572440D01*
X104590317Y-93528162D01*
X104806441Y-93389090D01*
X104951431Y-93176890D01*
X104965086Y-93109459D01*
X104994946Y-93154147D01*
X105476715Y-93476054D01*
X106045000Y-93589093D01*
X106613285Y-93476054D01*
X107095054Y-93154147D01*
X107315000Y-92824974D01*
X107534946Y-93154147D01*
X108016715Y-93476054D01*
X108585000Y-93589093D01*
X109153285Y-93476054D01*
X109635054Y-93154147D01*
X109855000Y-92824974D01*
X110074946Y-93154147D01*
X110556715Y-93476054D01*
X111125000Y-93589093D01*
X111693285Y-93476054D01*
X112175054Y-93154147D01*
X112288074Y-92985000D01*
X112501926Y-92985000D01*
X112614946Y-93154147D01*
X113096715Y-93476054D01*
X113665000Y-93589093D01*
X114233285Y-93476054D01*
X114715054Y-93154147D01*
X115036961Y-92672378D01*
X115150000Y-92104093D01*
X115150000Y-92045907D01*
X115121966Y-91904968D01*
X116848467Y-90178467D01*
X117045730Y-89883242D01*
X117057148Y-89825839D01*
X117115000Y-89535000D01*
X117230907Y-89535000D01*
X117343946Y-90103285D01*
X117665853Y-90585054D01*
X117707452Y-90612850D01*
X117659683Y-90621838D01*
X117443559Y-90760910D01*
X117298569Y-90973110D01*
X117247560Y-91225000D01*
X117247560Y-92925000D01*
X117291838Y-93160317D01*
X117430910Y-93376441D01*
X117643110Y-93521431D01*
X117895000Y-93572440D01*
X119595000Y-93572440D01*
X119830317Y-93528162D01*
X120046441Y-93389090D01*
X120191431Y-93176890D01*
X120242440Y-92925000D01*
X120242440Y-91225000D01*
X120198162Y-90989683D01*
X120059090Y-90773559D01*
X119846890Y-90628569D01*
X119779459Y-90614914D01*
X119824147Y-90585054D01*
X120146054Y-90103285D01*
X120259093Y-89535000D01*
X120146054Y-88966715D01*
X119824147Y-88484946D01*
X119342378Y-88163039D01*
X118774093Y-88050000D01*
X118715907Y-88050000D01*
X118147622Y-88163039D01*
X117665853Y-88484946D01*
X117343946Y-88966715D01*
X117230907Y-89535000D01*
X117115000Y-89535000D01*
X117115000Y-87630000D01*
X117045730Y-87281758D01*
X116848467Y-86986533D01*
X115845000Y-85983066D01*
X115845000Y-84065646D01*
X115937409Y-83927346D01*
X116020000Y-83512134D01*
X116020000Y-83386934D01*
X117483467Y-81923467D01*
X117540194Y-81838569D01*
X117680730Y-81628242D01*
X117750000Y-81280000D01*
X117750000Y-80724802D01*
X117985000Y-80959802D01*
X117985000Y-84455000D01*
X118042852Y-84745839D01*
X118207599Y-84992401D01*
X121610306Y-88395108D01*
X121475853Y-88484946D01*
X121153946Y-88966715D01*
X121040907Y-89535000D01*
X121153946Y-90103285D01*
X121475853Y-90585054D01*
X121517452Y-90612850D01*
X121469683Y-90621838D01*
X121253559Y-90760910D01*
X121108569Y-90973110D01*
X121057560Y-91225000D01*
X121057560Y-92925000D01*
X121101838Y-93160317D01*
X121240910Y-93376441D01*
X121453110Y-93521431D01*
X121705000Y-93572440D01*
X123405000Y-93572440D01*
X123640317Y-93528162D01*
X123856441Y-93389090D01*
X124001431Y-93176890D01*
X124052440Y-92925000D01*
X124052440Y-91652362D01*
X124362401Y-91342401D01*
X124527148Y-91095840D01*
X124585000Y-90805000D01*
X124585000Y-84769802D01*
X125869680Y-83485122D01*
X125915167Y-83485162D01*
X126258943Y-83343117D01*
X126522192Y-83080327D01*
X126664838Y-82736799D01*
X126665162Y-82364833D01*
X126523117Y-82021057D01*
X126260327Y-81757808D01*
X125916799Y-81615162D01*
X125544833Y-81614838D01*
X125201057Y-81756883D01*
X124937808Y-82019673D01*
X124795162Y-82363201D01*
X124795121Y-82410077D01*
X123640000Y-83565198D01*
X123640000Y-83470750D01*
X123481250Y-83312000D01*
X122682000Y-83312000D01*
X122682000Y-84411250D01*
X122840750Y-84570000D01*
X123065000Y-84570000D01*
X123065000Y-87700198D01*
X119948760Y-84583958D01*
X120015000Y-84597134D01*
X120430212Y-84514543D01*
X120650000Y-84367685D01*
X120869788Y-84514543D01*
X121285000Y-84597134D01*
X121700212Y-84514543D01*
X121755546Y-84477570D01*
X121978691Y-84570000D01*
X122269250Y-84570000D01*
X122428000Y-84411250D01*
X122428000Y-83312000D01*
X122408000Y-83312000D01*
X122408000Y-83058000D01*
X122428000Y-83058000D01*
X122428000Y-83038000D01*
X122682000Y-83038000D01*
X122682000Y-83058000D01*
X123481250Y-83058000D01*
X123640000Y-82899250D01*
X123640000Y-82675000D01*
X123825000Y-82675000D01*
X124115839Y-82617148D01*
X124362401Y-82452401D01*
X126676114Y-80138688D01*
X127000000Y-80203113D01*
X127549151Y-80093880D01*
X128014698Y-79782811D01*
X128325767Y-79317264D01*
X128435000Y-78768113D01*
X128435000Y-78711887D01*
X128325767Y-78162736D01*
X128014698Y-77697189D01*
X127549151Y-77386120D01*
X127000000Y-77276887D01*
X126450849Y-77386120D01*
X125985302Y-77697189D01*
X125674233Y-78162736D01*
X125565000Y-78711887D01*
X125565000Y-78768113D01*
X125620096Y-79045102D01*
X123510198Y-81155000D01*
X121410000Y-81155000D01*
X121410000Y-71755000D01*
X121389719Y-71653039D01*
X121352148Y-71464160D01*
X121187401Y-71217599D01*
X120654392Y-70684590D01*
X120694093Y-70485000D01*
X120581054Y-69916715D01*
X120259147Y-69434946D01*
X119929974Y-69215000D01*
X120259147Y-68995054D01*
X120581054Y-68513285D01*
X120694093Y-67945000D01*
X120581054Y-67376715D01*
X120259147Y-66894946D01*
X119929974Y-66675000D01*
X120259147Y-66455054D01*
X120412752Y-66225167D01*
X121619838Y-66225167D01*
X121761883Y-66568943D01*
X122024673Y-66832192D01*
X122368201Y-66974838D01*
X122415077Y-66974879D01*
X123065000Y-67624802D01*
X123065000Y-77542537D01*
X123032808Y-77574673D01*
X122890162Y-77918201D01*
X122889838Y-78290167D01*
X123031883Y-78633943D01*
X123294673Y-78897192D01*
X123638201Y-79039838D01*
X124010167Y-79040162D01*
X124353943Y-78898117D01*
X124617192Y-78635327D01*
X124759838Y-78291799D01*
X124760162Y-77919833D01*
X124618117Y-77576057D01*
X124585000Y-77542882D01*
X124585000Y-67310000D01*
X124552130Y-67144752D01*
X124527148Y-67019160D01*
X124362401Y-66772599D01*
X123913989Y-66324187D01*
X125564752Y-66324187D01*
X125782757Y-66851800D01*
X126186077Y-67255824D01*
X126316215Y-67309862D01*
X126188200Y-67362757D01*
X125784176Y-67766077D01*
X125565250Y-68293309D01*
X125564752Y-68864187D01*
X125782757Y-69391800D01*
X126186077Y-69795824D01*
X126713309Y-70014750D01*
X127284187Y-70015248D01*
X127811800Y-69797243D01*
X128215824Y-69393923D01*
X128434750Y-68866691D01*
X128435248Y-68295813D01*
X128217243Y-67768200D01*
X127813923Y-67364176D01*
X127683785Y-67310138D01*
X127811800Y-67257243D01*
X128215824Y-66853923D01*
X128434750Y-66326691D01*
X128435248Y-65755813D01*
X128217243Y-65228200D01*
X127813923Y-64824176D01*
X127286691Y-64605250D01*
X126715813Y-64604752D01*
X126188200Y-64822757D01*
X125784176Y-65226077D01*
X125565250Y-65753309D01*
X125564752Y-66324187D01*
X123913989Y-66324187D01*
X123490122Y-65900320D01*
X123490162Y-65854833D01*
X123348117Y-65511057D01*
X123085327Y-65247808D01*
X122741799Y-65105162D01*
X122369833Y-65104838D01*
X122026057Y-65246883D01*
X121762808Y-65509673D01*
X121620162Y-65853201D01*
X121619838Y-66225167D01*
X120412752Y-66225167D01*
X120581054Y-65973285D01*
X120694093Y-65405000D01*
X120654392Y-65205410D01*
X121187401Y-64672401D01*
X121352148Y-64425840D01*
X121410000Y-64135000D01*
X121410000Y-55851887D01*
X125565000Y-55851887D01*
X125565000Y-55908113D01*
X125674233Y-56457264D01*
X125985302Y-56922811D01*
X126450849Y-57233880D01*
X127000000Y-57343113D01*
X127549151Y-57233880D01*
X128014698Y-56922811D01*
X128325767Y-56457264D01*
X128435000Y-55908113D01*
X128435000Y-55851887D01*
X128325767Y-55302736D01*
X128014698Y-54837189D01*
X127920923Y-54774531D01*
X128446800Y-54557243D01*
X128850824Y-54153923D01*
X129069750Y-53626691D01*
X129070248Y-53055813D01*
X128852243Y-52528200D01*
X128448923Y-52124176D01*
X127921691Y-51905250D01*
X127350813Y-51904752D01*
X126823200Y-52122757D01*
X126419176Y-52526077D01*
X126200250Y-53053309D01*
X126199752Y-53624187D01*
X126417757Y-54151800D01*
X126735002Y-54469598D01*
X126450849Y-54526120D01*
X125985302Y-54837189D01*
X125674233Y-55302736D01*
X125565000Y-55851887D01*
X121410000Y-55851887D01*
X121410000Y-55074163D01*
X121417211Y-55069345D01*
X121652409Y-54717346D01*
X121735000Y-54302134D01*
X121735000Y-53647866D01*
X121652409Y-53232654D01*
X121417211Y-52880655D01*
X121065212Y-52645457D01*
X120650000Y-52562866D01*
X120234788Y-52645457D01*
X120015000Y-52792315D01*
X119795212Y-52645457D01*
X119380000Y-52562866D01*
X118964788Y-52645457D01*
X118909454Y-52682430D01*
X118686309Y-52590000D01*
X118395750Y-52590000D01*
X118237000Y-52748750D01*
X118237000Y-53848000D01*
X118257000Y-53848000D01*
X118257000Y-54102000D01*
X118237000Y-54102000D01*
X118237000Y-55201250D01*
X118395750Y-55360000D01*
X118686309Y-55360000D01*
X118909454Y-55267570D01*
X118964788Y-55304543D01*
X119380000Y-55387134D01*
X119795212Y-55304543D01*
X119890000Y-55241208D01*
X119890000Y-59011883D01*
X119476681Y-58840258D01*
X118885911Y-58839743D01*
X118339914Y-59065344D01*
X117921812Y-59482717D01*
X117695258Y-60028319D01*
X117695239Y-60049701D01*
X117680730Y-59976758D01*
X117483467Y-59681533D01*
X116480000Y-58678066D01*
X116480000Y-54260750D01*
X117025000Y-54260750D01*
X117025000Y-54851310D01*
X117121673Y-55084699D01*
X117300302Y-55263327D01*
X117533691Y-55360000D01*
X117824250Y-55360000D01*
X117983000Y-55201250D01*
X117983000Y-54102000D01*
X117183750Y-54102000D01*
X117025000Y-54260750D01*
X116480000Y-54260750D01*
X116480000Y-53098690D01*
X117025000Y-53098690D01*
X117025000Y-53689250D01*
X117183750Y-53848000D01*
X117983000Y-53848000D01*
X117983000Y-52748750D01*
X117824250Y-52590000D01*
X117533691Y-52590000D01*
X117300302Y-52686673D01*
X117121673Y-52865301D01*
X117025000Y-53098690D01*
X116480000Y-53098690D01*
X116480000Y-52446934D01*
X116848467Y-52078467D01*
X116859782Y-52061533D01*
X117045730Y-51783242D01*
X117115000Y-51435000D01*
X117115000Y-50752707D01*
X117320481Y-50615409D01*
X117437685Y-50440000D01*
X118110000Y-50440000D01*
X118458242Y-50370730D01*
X118753467Y-50173467D01*
X121928467Y-46998467D01*
X122125730Y-46703242D01*
X122195000Y-46355000D01*
X122195000Y-45876742D01*
X122320317Y-45853162D01*
X122536441Y-45714090D01*
X122540977Y-45707452D01*
X123068223Y-45896965D01*
X123638454Y-45869778D01*
X124039005Y-45703864D01*
X124113139Y-45457745D01*
X123285000Y-44629605D01*
X123270858Y-44643748D01*
X123091253Y-44464143D01*
X123105395Y-44450000D01*
X123464605Y-44450000D01*
X124292745Y-45278139D01*
X124538864Y-45204005D01*
X124731965Y-44666777D01*
X124704778Y-44096546D01*
X124538864Y-43695995D01*
X124292745Y-43621861D01*
X123464605Y-44450000D01*
X123105395Y-44450000D01*
X123091253Y-44435858D01*
X123270858Y-44256252D01*
X123285000Y-44270395D01*
X124113139Y-43442255D01*
X124039005Y-43196136D01*
X123501777Y-43003035D01*
X122931546Y-43030222D01*
X122540053Y-43192384D01*
X122336890Y-43053569D01*
X122195000Y-43024836D01*
X122195000Y-42286934D01*
X122931934Y-41550000D01*
X125353066Y-41550000D01*
X126347913Y-42544847D01*
X126309233Y-42602736D01*
X126200000Y-43151887D01*
X126200000Y-43208113D01*
X126309233Y-43757264D01*
X126620302Y-44222811D01*
X127085849Y-44533880D01*
X127635000Y-44643113D01*
X128184151Y-44533880D01*
X128649698Y-44222811D01*
X128960767Y-43757264D01*
X129070000Y-43208113D01*
X129070000Y-43151887D01*
X128960767Y-42602736D01*
X128649698Y-42137189D01*
X128241119Y-41864185D01*
X126373467Y-39996533D01*
X126078242Y-39799270D01*
X125730000Y-39730000D01*
X122555000Y-39730000D01*
X122206758Y-39799270D01*
X121911533Y-39996533D01*
X120641533Y-41266533D01*
X120444270Y-41561758D01*
X120375000Y-41910000D01*
X120375000Y-43023258D01*
X120249683Y-43046838D01*
X120033559Y-43185910D01*
X119888569Y-43398110D01*
X119837560Y-43650000D01*
X119837560Y-45250000D01*
X119881838Y-45485317D01*
X120020910Y-45701441D01*
X120233110Y-45846431D01*
X120375000Y-45875164D01*
X120375000Y-45978066D01*
X117733066Y-48620000D01*
X117437685Y-48620000D01*
X117320481Y-48444591D01*
X116822491Y-48111845D01*
X116235072Y-47995000D01*
X116174928Y-47995000D01*
X115587509Y-48111845D01*
X115089519Y-48444591D01*
X114930499Y-48682582D01*
X114572576Y-48292034D01*
X114029742Y-48038954D01*
X113792000Y-48159003D01*
X113792000Y-49403000D01*
X113812000Y-49403000D01*
X113812000Y-49657000D01*
X113792000Y-49657000D01*
X113792000Y-50900997D01*
X114029742Y-51021046D01*
X114572576Y-50767966D01*
X114930499Y-50377418D01*
X115089519Y-50615409D01*
X115295000Y-50752707D01*
X115295000Y-51058066D01*
X114926533Y-51426533D01*
X114729270Y-51721758D01*
X114660000Y-52070000D01*
X114660000Y-52328066D01*
X114302251Y-52685815D01*
X113951691Y-52540250D01*
X113380813Y-52539752D01*
X112853200Y-52757757D01*
X112449176Y-53161077D01*
X112421577Y-53227544D01*
X112418864Y-53220995D01*
X112172745Y-53146861D01*
X111344605Y-53975000D01*
X112172745Y-54803139D01*
X112418864Y-54729005D01*
X112421196Y-54722517D01*
X112447757Y-54786800D01*
X112851077Y-55190824D01*
X113378309Y-55409750D01*
X113949187Y-55410248D01*
X114476800Y-55192243D01*
X114660000Y-55009362D01*
X114660000Y-58678066D01*
X114446949Y-58891117D01*
X114300000Y-58861887D01*
X113750849Y-58971120D01*
X113285302Y-59282189D01*
X113196560Y-59415000D01*
X112395000Y-59415000D01*
X112046758Y-59484270D01*
X111751533Y-59681533D01*
X109478066Y-61955000D01*
X107852728Y-61955000D01*
X107759147Y-61814946D01*
X107715223Y-61785597D01*
X107889698Y-61713327D01*
X108068327Y-61534699D01*
X108165000Y-61301310D01*
X108165000Y-60610750D01*
X108006250Y-60452000D01*
X106807000Y-60452000D01*
X106807000Y-60472000D01*
X106553000Y-60472000D01*
X106553000Y-60452000D01*
X105353750Y-60452000D01*
X105195000Y-60610750D01*
X105195000Y-61301310D01*
X105291673Y-61534699D01*
X105470302Y-61713327D01*
X105644777Y-61785597D01*
X105600853Y-61814946D01*
X105278946Y-62296715D01*
X105165907Y-62865000D01*
X105278946Y-63433285D01*
X105600853Y-63915054D01*
X105930026Y-64135000D01*
X105600853Y-64354946D01*
X105574090Y-64395000D01*
X105193356Y-64395000D01*
X101827440Y-61029084D01*
X101827440Y-60110000D01*
X101783162Y-59874683D01*
X101644090Y-59658559D01*
X101431890Y-59513569D01*
X101180000Y-59462560D01*
X99480000Y-59462560D01*
X99244683Y-59506838D01*
X99028559Y-59645910D01*
X98883569Y-59858110D01*
X98832560Y-60110000D01*
X98832560Y-61810000D01*
X98876838Y-62045317D01*
X99015910Y-62261441D01*
X99228110Y-62406431D01*
X99295541Y-62420086D01*
X99250853Y-62449946D01*
X98928946Y-62931715D01*
X98815907Y-63500000D01*
X98928946Y-64068285D01*
X99250853Y-64550054D01*
X99732622Y-64871961D01*
X100300907Y-64985000D01*
X100359093Y-64985000D01*
X100382073Y-64980429D01*
X104060822Y-68659178D01*
X104388490Y-68878118D01*
X104775000Y-68955000D01*
X105574090Y-68955000D01*
X105600853Y-68995054D01*
X105930026Y-69215000D01*
X105600853Y-69434946D01*
X105574090Y-69475000D01*
X103923356Y-69475000D01*
X103584178Y-69135822D01*
X103256510Y-68916882D01*
X102870000Y-68840000D01*
X101435910Y-68840000D01*
X101409147Y-68799946D01*
X100927378Y-68478039D01*
X100359093Y-68365000D01*
X100300907Y-68365000D01*
X99732622Y-68478039D01*
X99250853Y-68799946D01*
X98928946Y-69281715D01*
X98815907Y-69850000D01*
X98928946Y-70418285D01*
X99250853Y-70900054D01*
X99292452Y-70927850D01*
X99244683Y-70936838D01*
X99028559Y-71075910D01*
X98883569Y-71288110D01*
X98832560Y-71540000D01*
X98832560Y-73240000D01*
X98876838Y-73475317D01*
X99015910Y-73691441D01*
X99228110Y-73836431D01*
X99480000Y-73887440D01*
X101180000Y-73887440D01*
X101415317Y-73843162D01*
X101631441Y-73704090D01*
X101776431Y-73491890D01*
X101795039Y-73400000D01*
X103086644Y-73400000D01*
X103425822Y-73739178D01*
X103753490Y-73958118D01*
X104140000Y-74035000D01*
X105574090Y-74035000D01*
X105600853Y-74075054D01*
X105930026Y-74295000D01*
X105600853Y-74514946D01*
X105278946Y-74996715D01*
X105165907Y-75565000D01*
X105278946Y-76133285D01*
X105600853Y-76615054D01*
X105941553Y-76842702D01*
X105798642Y-76909817D01*
X105408355Y-77338076D01*
X105238524Y-77748110D01*
X105359845Y-77978000D01*
X106553000Y-77978000D01*
X106553000Y-77958000D01*
X106807000Y-77958000D01*
X106807000Y-77978000D01*
X108000155Y-77978000D01*
X108121476Y-77748110D01*
X107951645Y-77338076D01*
X107561358Y-76909817D01*
X107418447Y-76842702D01*
X107759147Y-76615054D01*
X108081054Y-76133285D01*
X108194093Y-75565000D01*
X108121210Y-75198592D01*
X108487401Y-74832401D01*
X108652148Y-74585840D01*
X108710000Y-74295000D01*
X108710000Y-64135000D01*
X108678548Y-63976883D01*
X108652148Y-63844160D01*
X108605937Y-63775000D01*
X109855000Y-63775000D01*
X110203242Y-63705730D01*
X110498467Y-63508467D01*
X112771934Y-61235000D01*
X113196560Y-61235000D01*
X113285302Y-61367811D01*
X113750849Y-61678880D01*
X114300000Y-61788113D01*
X114849151Y-61678880D01*
X115314698Y-61367811D01*
X115625767Y-60902264D01*
X115709479Y-60481413D01*
X115930000Y-60701934D01*
X115930000Y-76015071D01*
X115902745Y-76006861D01*
X115074605Y-76835000D01*
X115902745Y-77663139D01*
X115930000Y-77654929D01*
X115930000Y-80903066D01*
X115039428Y-81793638D01*
X114935000Y-81772866D01*
X114519788Y-81855457D01*
X114295726Y-82005170D01*
X113959001Y-81840592D01*
X113792000Y-81967498D01*
X113792000Y-83058000D01*
X113812000Y-83058000D01*
X113812000Y-83312000D01*
X113792000Y-83312000D01*
X113792000Y-84402502D01*
X113959001Y-84529408D01*
X114025000Y-84497150D01*
X114025000Y-86360000D01*
X114094270Y-86708242D01*
X114291533Y-87003467D01*
X115295000Y-88006934D01*
X115295000Y-89158066D01*
X115045068Y-89407998D01*
X114985820Y-89407998D01*
X115106486Y-89178108D01*
X114860183Y-88653642D01*
X114431924Y-88263355D01*
X114021890Y-88093524D01*
X113792000Y-88214845D01*
X113792000Y-89408000D01*
X113812000Y-89408000D01*
X113812000Y-89662000D01*
X113792000Y-89662000D01*
X113792000Y-89682000D01*
X113538000Y-89682000D01*
X113538000Y-89662000D01*
X111252000Y-89662000D01*
X111252000Y-89682000D01*
X110998000Y-89682000D01*
X110998000Y-89662000D01*
X110978000Y-89662000D01*
X110978000Y-89408000D01*
X110998000Y-89408000D01*
X110998000Y-88214845D01*
X111252000Y-88214845D01*
X111252000Y-89408000D01*
X113538000Y-89408000D01*
X113538000Y-88214845D01*
X113308110Y-88093524D01*
X112898076Y-88263355D01*
X112469817Y-88653642D01*
X112395000Y-88812954D01*
X112320183Y-88653642D01*
X111891924Y-88263355D01*
X111481890Y-88093524D01*
X111252000Y-88214845D01*
X110998000Y-88214845D01*
X110768110Y-88093524D01*
X110615000Y-88156940D01*
X110615000Y-86674802D01*
X112707362Y-84582440D01*
X112845000Y-84582440D01*
X113080317Y-84538162D01*
X113213529Y-84452442D01*
X113370999Y-84529408D01*
X113538000Y-84402502D01*
X113538000Y-83312000D01*
X113518000Y-83312000D01*
X113518000Y-83058000D01*
X113538000Y-83058000D01*
X113538000Y-81967498D01*
X113370999Y-81840592D01*
X113212925Y-81917853D01*
X113155000Y-81878274D01*
X113155000Y-78073646D01*
X113206800Y-78052243D01*
X113416663Y-77842745D01*
X114066861Y-77842745D01*
X114140995Y-78088864D01*
X114678223Y-78281965D01*
X115248454Y-78254778D01*
X115649005Y-78088864D01*
X115723139Y-77842745D01*
X114895000Y-77014605D01*
X114066861Y-77842745D01*
X113416663Y-77842745D01*
X113610824Y-77648923D01*
X113638423Y-77582456D01*
X113641136Y-77589005D01*
X113887255Y-77663139D01*
X114715395Y-76835000D01*
X113887255Y-76006861D01*
X113641136Y-76080995D01*
X113638804Y-76087483D01*
X113612243Y-76023200D01*
X113416640Y-75827255D01*
X114066861Y-75827255D01*
X114895000Y-76655395D01*
X115723139Y-75827255D01*
X115649005Y-75581136D01*
X115111777Y-75388035D01*
X114541546Y-75415222D01*
X114140995Y-75581136D01*
X114066861Y-75827255D01*
X113416640Y-75827255D01*
X113208923Y-75619176D01*
X112681691Y-75400250D01*
X112110813Y-75399752D01*
X111885000Y-75493056D01*
X111885000Y-70769187D01*
X112864752Y-70769187D01*
X113082757Y-71296800D01*
X113486077Y-71700824D01*
X114013309Y-71919750D01*
X114584187Y-71920248D01*
X115111800Y-71702243D01*
X115515824Y-71298923D01*
X115734750Y-70771691D01*
X115735248Y-70200813D01*
X115517243Y-69673200D01*
X115113923Y-69269176D01*
X114586691Y-69050250D01*
X114015813Y-69049752D01*
X113488200Y-69267757D01*
X113084176Y-69671077D01*
X112865250Y-70198309D01*
X112864752Y-70769187D01*
X111885000Y-70769187D01*
X111885000Y-68259802D01*
X114439680Y-65705122D01*
X114485167Y-65705162D01*
X114828943Y-65563117D01*
X115092192Y-65300327D01*
X115234838Y-64956799D01*
X115235162Y-64584833D01*
X115093117Y-64241057D01*
X114830327Y-63977808D01*
X114486799Y-63835162D01*
X114114833Y-63834838D01*
X113771057Y-63976883D01*
X113507808Y-64239673D01*
X113365162Y-64583201D01*
X113365121Y-64630077D01*
X110587599Y-67407599D01*
X110422852Y-67654161D01*
X110365000Y-67945000D01*
X110365000Y-75250198D01*
X109317599Y-76297599D01*
X109152852Y-76544161D01*
X109095000Y-76835000D01*
X109095000Y-78812537D01*
X109062808Y-78844673D01*
X108920162Y-79188201D01*
X108919838Y-79560167D01*
X109061883Y-79903943D01*
X109324673Y-80167192D01*
X109668201Y-80309838D01*
X110040167Y-80310162D01*
X110383943Y-80168117D01*
X110647192Y-79905327D01*
X110789838Y-79561799D01*
X110790162Y-79189833D01*
X110648117Y-78846057D01*
X110615000Y-78812882D01*
X110615000Y-77149802D01*
X110960026Y-76804776D01*
X110959752Y-77119187D01*
X111177757Y-77646800D01*
X111581077Y-78050824D01*
X111635000Y-78073215D01*
X111635000Y-81879895D01*
X111493559Y-81970910D01*
X111348569Y-82183110D01*
X111299585Y-82425000D01*
X108661846Y-82425000D01*
X108617068Y-82316629D01*
X108185643Y-81884449D01*
X107621670Y-81650267D01*
X107011009Y-81649735D01*
X106446629Y-81882932D01*
X106278387Y-82050880D01*
X106278162Y-82049683D01*
X106139090Y-81833559D01*
X105926890Y-81688569D01*
X105675000Y-81637560D01*
X103875000Y-81637560D01*
X103639683Y-81681838D01*
X103423559Y-81820910D01*
X103278569Y-82033110D01*
X103227560Y-82285000D01*
X103227560Y-84085000D01*
X103271838Y-84320317D01*
X103410910Y-84536441D01*
X103623110Y-84681431D01*
X103875000Y-84732440D01*
X105675000Y-84732440D01*
X105910317Y-84688162D01*
X106126441Y-84549090D01*
X106271431Y-84336890D01*
X106275567Y-84316466D01*
X106444357Y-84485551D01*
X107008330Y-84719733D01*
X107618991Y-84720265D01*
X108183371Y-84487068D01*
X108615551Y-84055643D01*
X108661494Y-83945000D01*
X111195198Y-83945000D01*
X109317599Y-85822599D01*
X109152852Y-86069161D01*
X109095000Y-86360000D01*
X109095000Y-88156940D01*
X108941890Y-88093524D01*
X108712000Y-88214845D01*
X108712000Y-89408000D01*
X108732000Y-89408000D01*
X108732000Y-89662000D01*
X108712000Y-89662000D01*
X108712000Y-89682000D01*
X108458000Y-89682000D01*
X108458000Y-89662000D01*
X106172000Y-89662000D01*
X106172000Y-89682000D01*
X105918000Y-89682000D01*
X105918000Y-89662000D01*
X103632000Y-89662000D01*
X103632000Y-89682000D01*
X103378000Y-89682000D01*
X103378000Y-89662000D01*
X102184181Y-89662000D01*
X102063514Y-89891892D01*
X102309817Y-90416358D01*
X102515504Y-90603808D01*
X102419683Y-90621838D01*
X102203559Y-90760910D01*
X102058569Y-90973110D01*
X102019710Y-91165000D01*
X101976934Y-91165000D01*
X101608467Y-90796533D01*
X101313242Y-90599270D01*
X100965000Y-90530000D01*
X100071934Y-90530000D01*
X98720042Y-89178108D01*
X102063514Y-89178108D01*
X102184181Y-89408000D01*
X103378000Y-89408000D01*
X103378000Y-88214845D01*
X103632000Y-88214845D01*
X103632000Y-89408000D01*
X105918000Y-89408000D01*
X105918000Y-88214845D01*
X106172000Y-88214845D01*
X106172000Y-89408000D01*
X108458000Y-89408000D01*
X108458000Y-88214845D01*
X108228110Y-88093524D01*
X107818076Y-88263355D01*
X107389817Y-88653642D01*
X107315000Y-88812954D01*
X107240183Y-88653642D01*
X106811924Y-88263355D01*
X106401890Y-88093524D01*
X106172000Y-88214845D01*
X105918000Y-88214845D01*
X105688110Y-88093524D01*
X105278076Y-88263355D01*
X104849817Y-88653642D01*
X104775000Y-88812954D01*
X104700183Y-88653642D01*
X104271924Y-88263355D01*
X103861890Y-88093524D01*
X103632000Y-88214845D01*
X103378000Y-88214845D01*
X103148110Y-88093524D01*
X102738076Y-88263355D01*
X102309817Y-88653642D01*
X102063514Y-89178108D01*
X98720042Y-89178108D01*
X98700000Y-89158066D01*
X98700000Y-88029431D01*
X98881077Y-88210824D01*
X99408309Y-88429750D01*
X99979187Y-88430248D01*
X100506800Y-88212243D01*
X100910824Y-87808923D01*
X101129750Y-87281691D01*
X101130248Y-86710813D01*
X100912243Y-86183200D01*
X100508923Y-85779176D01*
X99981691Y-85560250D01*
X99410813Y-85559752D01*
X98883200Y-85777757D01*
X98700000Y-85960638D01*
X98700000Y-78461890D01*
X105238524Y-78461890D01*
X105408355Y-78871924D01*
X105798642Y-79300183D01*
X106323108Y-79546486D01*
X106553000Y-79425819D01*
X106553000Y-78232000D01*
X106807000Y-78232000D01*
X106807000Y-79425819D01*
X107036892Y-79546486D01*
X107561358Y-79300183D01*
X107951645Y-78871924D01*
X108121476Y-78461890D01*
X108000155Y-78232000D01*
X106807000Y-78232000D01*
X106553000Y-78232000D01*
X105359845Y-78232000D01*
X105238524Y-78461890D01*
X98700000Y-78461890D01*
X98700000Y-77832709D01*
X98957577Y-78066041D01*
X99345961Y-78226904D01*
X99568000Y-78104915D01*
X99568000Y-76962000D01*
X99822000Y-76962000D01*
X99822000Y-78104915D01*
X100044039Y-78226904D01*
X100432423Y-78066041D01*
X100847389Y-77690134D01*
X101086914Y-77184041D01*
X100965629Y-76962000D01*
X99822000Y-76962000D01*
X99568000Y-76962000D01*
X99548000Y-76962000D01*
X99548000Y-76708000D01*
X99568000Y-76708000D01*
X99568000Y-75565085D01*
X99822000Y-75565085D01*
X99822000Y-76708000D01*
X100965629Y-76708000D01*
X101086914Y-76485959D01*
X100847389Y-75979866D01*
X100432423Y-75603959D01*
X100044039Y-75443096D01*
X99822000Y-75565085D01*
X99568000Y-75565085D01*
X99345961Y-75443096D01*
X98957577Y-75603959D01*
X98700000Y-75837291D01*
X98700000Y-59348690D01*
X105195000Y-59348690D01*
X105195000Y-60039250D01*
X105353750Y-60198000D01*
X106553000Y-60198000D01*
X106553000Y-58998750D01*
X106807000Y-58998750D01*
X106807000Y-60198000D01*
X108006250Y-60198000D01*
X108165000Y-60039250D01*
X108165000Y-59348690D01*
X108068327Y-59115301D01*
X107889698Y-58936673D01*
X107656309Y-58840000D01*
X106965750Y-58840000D01*
X106807000Y-58998750D01*
X106553000Y-58998750D01*
X106394250Y-58840000D01*
X105703691Y-58840000D01*
X105470302Y-58936673D01*
X105291673Y-59115301D01*
X105195000Y-59348690D01*
X98700000Y-59348690D01*
X98700000Y-54982745D01*
X110336861Y-54982745D01*
X110410995Y-55228864D01*
X110948223Y-55421965D01*
X111518454Y-55394778D01*
X111919005Y-55228864D01*
X111993139Y-54982745D01*
X111165000Y-54154605D01*
X110336861Y-54982745D01*
X98700000Y-54982745D01*
X98700000Y-53061892D01*
X100793514Y-53061892D01*
X101039817Y-53586358D01*
X101468076Y-53976645D01*
X101878110Y-54146476D01*
X102108000Y-54025155D01*
X102108000Y-52832000D01*
X100914181Y-52832000D01*
X100793514Y-53061892D01*
X98700000Y-53061892D01*
X98700000Y-52348108D01*
X100793514Y-52348108D01*
X100914181Y-52578000D01*
X102108000Y-52578000D01*
X102108000Y-51384845D01*
X102362000Y-51384845D01*
X102362000Y-52578000D01*
X102382000Y-52578000D01*
X102382000Y-52832000D01*
X102362000Y-52832000D01*
X102362000Y-54025155D01*
X102591890Y-54146476D01*
X103001924Y-53976645D01*
X103304937Y-53700499D01*
X103321838Y-53790317D01*
X103460910Y-54006441D01*
X103673110Y-54151431D01*
X103925000Y-54202440D01*
X105625000Y-54202440D01*
X105860317Y-54158162D01*
X106076441Y-54019090D01*
X106221431Y-53806890D01*
X106231286Y-53758223D01*
X109718035Y-53758223D01*
X109745222Y-54328454D01*
X109911136Y-54729005D01*
X110157255Y-54803139D01*
X110985395Y-53975000D01*
X110157255Y-53146861D01*
X109911136Y-53220995D01*
X109718035Y-53758223D01*
X106231286Y-53758223D01*
X106272440Y-53555000D01*
X106272440Y-52967255D01*
X110336861Y-52967255D01*
X111165000Y-53795395D01*
X111993139Y-52967255D01*
X111919005Y-52721136D01*
X111381777Y-52528035D01*
X110811546Y-52555222D01*
X110410995Y-52721136D01*
X110336861Y-52967255D01*
X106272440Y-52967255D01*
X106272440Y-51855000D01*
X106228162Y-51619683D01*
X106089090Y-51403559D01*
X105876890Y-51258569D01*
X105625000Y-51207560D01*
X103925000Y-51207560D01*
X103689683Y-51251838D01*
X103473559Y-51390910D01*
X103328569Y-51603110D01*
X103306699Y-51711107D01*
X103001924Y-51433355D01*
X102591890Y-51263524D01*
X102362000Y-51384845D01*
X102108000Y-51384845D01*
X101878110Y-51263524D01*
X101468076Y-51433355D01*
X101039817Y-51823642D01*
X100793514Y-52348108D01*
X98700000Y-52348108D01*
X98700000Y-51811934D01*
X101917500Y-48594434D01*
X103496533Y-50173467D01*
X103791758Y-50370730D01*
X104140000Y-50440000D01*
X109579442Y-50440000D01*
X109621838Y-50665317D01*
X109760910Y-50881441D01*
X109973110Y-51026431D01*
X110225000Y-51077440D01*
X112025000Y-51077440D01*
X112260317Y-51033162D01*
X112476441Y-50894090D01*
X112621431Y-50681890D01*
X112631766Y-50630854D01*
X112757424Y-50767966D01*
X113300258Y-51021046D01*
X113538000Y-50900997D01*
X113538000Y-49657000D01*
X113518000Y-49657000D01*
X113518000Y-49403000D01*
X113538000Y-49403000D01*
X113538000Y-48159003D01*
X113300258Y-48038954D01*
X112757424Y-48292034D01*
X112634156Y-48426538D01*
X112628162Y-48394683D01*
X112489090Y-48178559D01*
X112276890Y-48033569D01*
X112025000Y-47982560D01*
X110225000Y-47982560D01*
X109989683Y-48026838D01*
X109773559Y-48165910D01*
X109628569Y-48378110D01*
X109579585Y-48620000D01*
X104516934Y-48620000D01*
X104308168Y-48411234D01*
X104775000Y-48504093D01*
X105343285Y-48391054D01*
X105825054Y-48069147D01*
X106146961Y-47587378D01*
X106260000Y-47019093D01*
X106260000Y-46960907D01*
X106146961Y-46392622D01*
X105825054Y-45910853D01*
X105343285Y-45588946D01*
X104775000Y-45475907D01*
X104206715Y-45588946D01*
X103724946Y-45910853D01*
X103697150Y-45952452D01*
X103688162Y-45904683D01*
X103549090Y-45688559D01*
X103336890Y-45543569D01*
X103145000Y-45504710D01*
X103145000Y-42701742D01*
X103270317Y-42678162D01*
X103486441Y-42539090D01*
X103490977Y-42532452D01*
X104018223Y-42721965D01*
X104588454Y-42694778D01*
X104989005Y-42528864D01*
X105063139Y-42282745D01*
X104235000Y-41454605D01*
X104220858Y-41468748D01*
X104041253Y-41289143D01*
X104055395Y-41275000D01*
X104414605Y-41275000D01*
X105242745Y-42103139D01*
X105488864Y-42029005D01*
X105681965Y-41491777D01*
X105654778Y-40921546D01*
X105488864Y-40520995D01*
X105242745Y-40446861D01*
X104414605Y-41275000D01*
X104055395Y-41275000D01*
X104041253Y-41260858D01*
X104220858Y-41081252D01*
X104235000Y-41095395D01*
X105063139Y-40267255D01*
X104989005Y-40021136D01*
X104451777Y-39828035D01*
X103881546Y-39855222D01*
X103490053Y-40017384D01*
X103286890Y-39878569D01*
X103145000Y-39849836D01*
X103145000Y-37314214D01*
X103256663Y-37202745D01*
X103906861Y-37202745D01*
X103980995Y-37448864D01*
X104518223Y-37641965D01*
X105088454Y-37614778D01*
X105489005Y-37448864D01*
X105563139Y-37202745D01*
X104735000Y-36374605D01*
X103906861Y-37202745D01*
X103256663Y-37202745D01*
X103450824Y-37008923D01*
X103478423Y-36942456D01*
X103481136Y-36949005D01*
X103727255Y-37023139D01*
X104555395Y-36195000D01*
X104914605Y-36195000D01*
X105742745Y-37023139D01*
X105988864Y-36949005D01*
X106181965Y-36411777D01*
X106154778Y-35841546D01*
X105988864Y-35440995D01*
X105742745Y-35366861D01*
X104914605Y-36195000D01*
X104555395Y-36195000D01*
X103727255Y-35366861D01*
X103481136Y-35440995D01*
X103478804Y-35447483D01*
X103452243Y-35383200D01*
X103256640Y-35187255D01*
X103906861Y-35187255D01*
X104735000Y-36015395D01*
X105563139Y-35187255D01*
X105489005Y-34941136D01*
X104951777Y-34748035D01*
X104381546Y-34775222D01*
X103980995Y-34941136D01*
X103906861Y-35187255D01*
X103256640Y-35187255D01*
X103048923Y-34979176D01*
X102521691Y-34760250D01*
X101950813Y-34759752D01*
X101423200Y-34977757D01*
X101019176Y-35381077D01*
X100800250Y-35908309D01*
X100799752Y-36479187D01*
X101017757Y-37006800D01*
X101325000Y-37314579D01*
X101325000Y-39848258D01*
X101199683Y-39871838D01*
X100983559Y-40010910D01*
X100838569Y-40223110D01*
X100787560Y-40475000D01*
X100787560Y-42075000D01*
X100831838Y-42310317D01*
X100970910Y-42526441D01*
X101183110Y-42671431D01*
X101325000Y-42700164D01*
X101325000Y-45503850D01*
X101149683Y-45536838D01*
X100933559Y-45675910D01*
X100788569Y-45888110D01*
X100737560Y-46140000D01*
X100737560Y-47200506D01*
X97146533Y-50791533D01*
X96949270Y-51086758D01*
X96880000Y-51435000D01*
X96595000Y-51435000D01*
X96595000Y-32728599D01*
X97324699Y-32728599D01*
X97588281Y-33366515D01*
X98075918Y-33855004D01*
X98713373Y-34119699D01*
X99403599Y-34120301D01*
X100041515Y-33856719D01*
X100530004Y-33369082D01*
X100737241Y-32870000D01*
X111233275Y-32870000D01*
X111414822Y-33782700D01*
X111931825Y-34556450D01*
X112705575Y-35073453D01*
X113618275Y-35255000D01*
X113711725Y-35255000D01*
X114624425Y-35073453D01*
X115398175Y-34556450D01*
X115915178Y-33782700D01*
X116096725Y-32870000D01*
X116068599Y-32728599D01*
X125899699Y-32728599D01*
X126163281Y-33366515D01*
X126650918Y-33855004D01*
X127288373Y-34119699D01*
X127978599Y-34120301D01*
X128616515Y-33856719D01*
X129105004Y-33369082D01*
X129369699Y-32731627D01*
X129370301Y-32041401D01*
X129106719Y-31403485D01*
X128619082Y-30914996D01*
X127981627Y-30650301D01*
X127291401Y-30649699D01*
X126653485Y-30913281D01*
X126164996Y-31400918D01*
X125900301Y-32038373D01*
X125899699Y-32728599D01*
X116068599Y-32728599D01*
X115915178Y-31957300D01*
X115398175Y-31183550D01*
X114624425Y-30666547D01*
X113711725Y-30485000D01*
X113618275Y-30485000D01*
X112705575Y-30666547D01*
X111931825Y-31183550D01*
X111414822Y-31957300D01*
X111233275Y-32870000D01*
X100737241Y-32870000D01*
X100794699Y-32731627D01*
X100795301Y-32041401D01*
X100531719Y-31403485D01*
X100044082Y-30914996D01*
X99406627Y-30650301D01*
X98716401Y-30649699D01*
X98078485Y-30913281D01*
X97589996Y-31400918D01*
X97325301Y-32038373D01*
X97324699Y-32728599D01*
X96595000Y-32728599D01*
X96595000Y-29920000D01*
X130100000Y-29920000D01*
X130100000Y-97715000D01*
G36*
X119307000Y-77978000D02*
X119327000Y-77978000D01*
X119327000Y-78232000D01*
X119307000Y-78232000D01*
X119307000Y-79425819D01*
X119536892Y-79546486D01*
X119890000Y-79380657D01*
X119890000Y-80965198D01*
X119505000Y-81350198D01*
X119505000Y-80645000D01*
X119480136Y-80520000D01*
X119447148Y-80354160D01*
X119282401Y-80107599D01*
X118631130Y-79456328D01*
X118823108Y-79546486D01*
X119053000Y-79425819D01*
X119053000Y-78232000D01*
X119033000Y-78232000D01*
X119033000Y-77978000D01*
X119053000Y-77978000D01*
X119053000Y-77958000D01*
X119307000Y-77958000D01*
X119307000Y-77978000D01*
X119307000Y-77978000D01*
G37*
X119307000Y-77978000D02*
X119327000Y-77978000D01*
X119327000Y-78232000D01*
X119307000Y-78232000D01*
X119307000Y-79425819D01*
X119536892Y-79546486D01*
X119890000Y-79380657D01*
X119890000Y-80965198D01*
X119505000Y-81350198D01*
X119505000Y-80645000D01*
X119480136Y-80520000D01*
X119447148Y-80354160D01*
X119282401Y-80107599D01*
X118631130Y-79456328D01*
X118823108Y-79546486D01*
X119053000Y-79425819D01*
X119053000Y-78232000D01*
X119033000Y-78232000D01*
X119033000Y-77978000D01*
X119053000Y-77978000D01*
X119053000Y-77958000D01*
X119307000Y-77958000D01*
X119307000Y-77978000D01*
M02*
