G04 #@! TF.GenerationSoftware,KiCad,Pcbnew,(5.1.4)-1*
G04 #@! TF.CreationDate,2020-01-08T12:54:44-07:00*
G04 #@! TF.ProjectId,robot,726f626f-742e-46b6-9963-61645f706362,rev?*
G04 #@! TF.SameCoordinates,Original*
G04 #@! TF.FileFunction,Legend,Top*
G04 #@! TF.FilePolarity,Positive*
%FSLAX46Y46*%
G04 Gerber Fmt 4.6, Leading zero omitted, Abs format (unit mm)*
G04 Created by KiCad (PCBNEW (5.1.4)-1) date 2020-01-08 12:54:44*
%MOMM*%
%LPD*%
G04 APERTURE LIST*
%ADD10C,0.300000*%
%ADD11C,0.150000*%
%ADD12C,0.200000*%
%ADD13C,0.120000*%
G04 APERTURE END LIST*
D10*
X129432857Y-91677142D02*
X129504285Y-91462857D01*
X129575714Y-91391428D01*
X129718571Y-91320000D01*
X129932857Y-91320000D01*
X130075714Y-91391428D01*
X130147142Y-91462857D01*
X130218571Y-91605714D01*
X130218571Y-92177142D01*
X128718571Y-92177142D01*
X128718571Y-91677142D01*
X128790000Y-91534285D01*
X128861428Y-91462857D01*
X129004285Y-91391428D01*
X129147142Y-91391428D01*
X129290000Y-91462857D01*
X129361428Y-91534285D01*
X129432857Y-91677142D01*
X129432857Y-92177142D01*
X130147142Y-90105714D02*
X130218571Y-90248571D01*
X130218571Y-90534285D01*
X130147142Y-90677142D01*
X130004285Y-90748571D01*
X129432857Y-90748571D01*
X129290000Y-90677142D01*
X129218571Y-90534285D01*
X129218571Y-90248571D01*
X129290000Y-90105714D01*
X129432857Y-90034285D01*
X129575714Y-90034285D01*
X129718571Y-90748571D01*
X129218571Y-89534285D02*
X130218571Y-89177142D01*
X129218571Y-88820000D02*
X130218571Y-89177142D01*
X130575714Y-89320000D01*
X130647142Y-89391428D01*
X130718571Y-89534285D01*
X130147142Y-87677142D02*
X130218571Y-87820000D01*
X130218571Y-88105714D01*
X130147142Y-88248571D01*
X130004285Y-88320000D01*
X129432857Y-88320000D01*
X129290000Y-88248571D01*
X129218571Y-88105714D01*
X129218571Y-87820000D01*
X129290000Y-87677142D01*
X129432857Y-87605714D01*
X129575714Y-87605714D01*
X129718571Y-88320000D01*
X130218571Y-86962857D02*
X129218571Y-86962857D01*
X129504285Y-86962857D02*
X129361428Y-86891428D01*
X129290000Y-86820000D01*
X129218571Y-86677142D01*
X129218571Y-86534285D01*
X130790000Y-84462857D02*
X130718571Y-84534285D01*
X130504285Y-84677142D01*
X130361428Y-84748571D01*
X130147142Y-84820000D01*
X129790000Y-84891428D01*
X129504285Y-84891428D01*
X129147142Y-84820000D01*
X128932857Y-84748571D01*
X128790000Y-84677142D01*
X128575714Y-84534285D01*
X128504285Y-84462857D01*
X130147142Y-83248571D02*
X130218571Y-83391428D01*
X130218571Y-83677142D01*
X130147142Y-83820000D01*
X130075714Y-83891428D01*
X129932857Y-83962857D01*
X129504285Y-83962857D01*
X129361428Y-83891428D01*
X129290000Y-83820000D01*
X129218571Y-83677142D01*
X129218571Y-83391428D01*
X129290000Y-83248571D01*
X130790000Y-82748571D02*
X130718571Y-82677142D01*
X130504285Y-82534285D01*
X130361428Y-82462857D01*
X130147142Y-82391428D01*
X129790000Y-82320000D01*
X129504285Y-82320000D01*
X129147142Y-82391428D01*
X128932857Y-82462857D01*
X128790000Y-82534285D01*
X128575714Y-82677142D01*
X128504285Y-82748571D01*
X128861428Y-80534285D02*
X128790000Y-80462857D01*
X128718571Y-80320000D01*
X128718571Y-79962857D01*
X128790000Y-79820000D01*
X128861428Y-79748571D01*
X129004285Y-79677142D01*
X129147142Y-79677142D01*
X129361428Y-79748571D01*
X130218571Y-80605714D01*
X130218571Y-79677142D01*
X128718571Y-78748571D02*
X128718571Y-78605714D01*
X128790000Y-78462857D01*
X128861428Y-78391428D01*
X129004285Y-78320000D01*
X129290000Y-78248571D01*
X129647142Y-78248571D01*
X129932857Y-78320000D01*
X130075714Y-78391428D01*
X130147142Y-78462857D01*
X130218571Y-78605714D01*
X130218571Y-78748571D01*
X130147142Y-78891428D01*
X130075714Y-78962857D01*
X129932857Y-79034285D01*
X129647142Y-79105714D01*
X129290000Y-79105714D01*
X129004285Y-79034285D01*
X128861428Y-78962857D01*
X128790000Y-78891428D01*
X128718571Y-78748571D01*
X130218571Y-76820000D02*
X130218571Y-77677142D01*
X130218571Y-77248571D02*
X128718571Y-77248571D01*
X128932857Y-77391428D01*
X129075714Y-77534285D01*
X129147142Y-77677142D01*
X130218571Y-76105714D02*
X130218571Y-75820000D01*
X130147142Y-75677142D01*
X130075714Y-75605714D01*
X129861428Y-75462857D01*
X129575714Y-75391428D01*
X129004285Y-75391428D01*
X128861428Y-75462857D01*
X128790000Y-75534285D01*
X128718571Y-75677142D01*
X128718571Y-75962857D01*
X128790000Y-76105714D01*
X128861428Y-76177142D01*
X129004285Y-76248571D01*
X129361428Y-76248571D01*
X129504285Y-76177142D01*
X129575714Y-76105714D01*
X129647142Y-75962857D01*
X129647142Y-75677142D01*
X129575714Y-75534285D01*
X129504285Y-75462857D01*
X129361428Y-75391428D01*
D11*
X124340952Y-23312380D02*
X123769523Y-23312380D01*
X124055238Y-23312380D02*
X124055238Y-22312380D01*
X123960000Y-22455238D01*
X123864761Y-22550476D01*
X123769523Y-22598095D01*
X124769523Y-23312380D02*
X124769523Y-22312380D01*
X124864761Y-22931428D02*
X125150476Y-23312380D01*
X125150476Y-22645714D02*
X124769523Y-23026666D01*
X123864761Y-28392380D02*
X123293333Y-28392380D01*
X123579047Y-28392380D02*
X123579047Y-27392380D01*
X123483809Y-27535238D01*
X123388571Y-27630476D01*
X123293333Y-27678095D01*
X124198095Y-27392380D02*
X124817142Y-27392380D01*
X124483809Y-27773333D01*
X124626666Y-27773333D01*
X124721904Y-27820952D01*
X124769523Y-27868571D01*
X124817142Y-27963809D01*
X124817142Y-28201904D01*
X124769523Y-28297142D01*
X124721904Y-28344761D01*
X124626666Y-28392380D01*
X124340952Y-28392380D01*
X124245714Y-28344761D01*
X124198095Y-28297142D01*
X125245714Y-28392380D02*
X125245714Y-27392380D01*
X125340952Y-28011428D02*
X125626666Y-28392380D01*
X125626666Y-27725714D02*
X125245714Y-28106666D01*
D10*
X97917142Y-88785000D02*
X97774285Y-88713571D01*
X97560000Y-88713571D01*
X97345714Y-88785000D01*
X97202857Y-88927857D01*
X97131428Y-89070714D01*
X97060000Y-89356428D01*
X97060000Y-89570714D01*
X97131428Y-89856428D01*
X97202857Y-89999285D01*
X97345714Y-90142142D01*
X97560000Y-90213571D01*
X97702857Y-90213571D01*
X97917142Y-90142142D01*
X97988571Y-90070714D01*
X97988571Y-89570714D01*
X97702857Y-89570714D01*
X98631428Y-90213571D02*
X98631428Y-88713571D01*
X99488571Y-90213571D01*
X99488571Y-88713571D01*
X100202857Y-90213571D02*
X100202857Y-88713571D01*
X100560000Y-88713571D01*
X100774285Y-88785000D01*
X100917142Y-88927857D01*
X100988571Y-89070714D01*
X101060000Y-89356428D01*
X101060000Y-89570714D01*
X100988571Y-89856428D01*
X100917142Y-89999285D01*
X100774285Y-90142142D01*
X100560000Y-90213571D01*
X100202857Y-90213571D01*
D12*
X101600000Y-87630000D02*
X101600000Y-90805000D01*
X115570000Y-87630000D02*
X101600000Y-87630000D01*
X115570000Y-90805000D02*
X115570000Y-87630000D01*
X101600000Y-90805000D02*
X115570000Y-90805000D01*
D10*
X110283571Y-61003571D02*
X109426428Y-61003571D01*
X109855000Y-61003571D02*
X109855000Y-59503571D01*
X109712142Y-59717857D01*
X109569285Y-59860714D01*
X109426428Y-59932142D01*
D12*
X104775000Y-58420000D02*
X104775000Y-61595000D01*
X108585000Y-58420000D02*
X108585000Y-61595000D01*
X104775000Y-58420000D02*
X108585000Y-58420000D01*
D10*
X119625000Y-100881428D02*
X119625000Y-100167142D01*
X120053571Y-101024285D02*
X118553571Y-100524285D01*
X120053571Y-100024285D01*
X120053571Y-99524285D02*
X118553571Y-99524285D01*
X118553571Y-98952857D01*
X118625000Y-98810000D01*
X118696428Y-98738571D01*
X118839285Y-98667142D01*
X119053571Y-98667142D01*
X119196428Y-98738571D01*
X119267857Y-98810000D01*
X119339285Y-98952857D01*
X119339285Y-99524285D01*
X119982142Y-98095714D02*
X120053571Y-97881428D01*
X120053571Y-97524285D01*
X119982142Y-97381428D01*
X119910714Y-97310000D01*
X119767857Y-97238571D01*
X119625000Y-97238571D01*
X119482142Y-97310000D01*
X119410714Y-97381428D01*
X119339285Y-97524285D01*
X119267857Y-97810000D01*
X119196428Y-97952857D01*
X119125000Y-98024285D01*
X118982142Y-98095714D01*
X118839285Y-98095714D01*
X118696428Y-98024285D01*
X118625000Y-97952857D01*
X118553571Y-97810000D01*
X118553571Y-97452857D01*
X118625000Y-97238571D01*
X121817857Y-100417142D02*
X121889285Y-100202857D01*
X121960714Y-100131428D01*
X122103571Y-100060000D01*
X122317857Y-100060000D01*
X122460714Y-100131428D01*
X122532142Y-100202857D01*
X122603571Y-100345714D01*
X122603571Y-100917142D01*
X121103571Y-100917142D01*
X121103571Y-100417142D01*
X121175000Y-100274285D01*
X121246428Y-100202857D01*
X121389285Y-100131428D01*
X121532142Y-100131428D01*
X121675000Y-100202857D01*
X121746428Y-100274285D01*
X121817857Y-100417142D01*
X121817857Y-100917142D01*
X122603571Y-99417142D02*
X121103571Y-99417142D01*
X121103571Y-98845714D01*
X121175000Y-98702857D01*
X121246428Y-98631428D01*
X121389285Y-98560000D01*
X121603571Y-98560000D01*
X121746428Y-98631428D01*
X121817857Y-98702857D01*
X121889285Y-98845714D01*
X121889285Y-99417142D01*
X122532142Y-97988571D02*
X122603571Y-97774285D01*
X122603571Y-97417142D01*
X122532142Y-97274285D01*
X122460714Y-97202857D01*
X122317857Y-97131428D01*
X122175000Y-97131428D01*
X122032142Y-97202857D01*
X121960714Y-97274285D01*
X121889285Y-97417142D01*
X121817857Y-97702857D01*
X121746428Y-97845714D01*
X121675000Y-97917142D01*
X121532142Y-97988571D01*
X121389285Y-97988571D01*
X121246428Y-97917142D01*
X121175000Y-97845714D01*
X121103571Y-97702857D01*
X121103571Y-97345714D01*
X121175000Y-97131428D01*
X103377857Y-96992142D02*
X103449285Y-96777857D01*
X103520714Y-96706428D01*
X103663571Y-96635000D01*
X103877857Y-96635000D01*
X104020714Y-96706428D01*
X104092142Y-96777857D01*
X104163571Y-96920714D01*
X104163571Y-97492142D01*
X102663571Y-97492142D01*
X102663571Y-96992142D01*
X102735000Y-96849285D01*
X102806428Y-96777857D01*
X102949285Y-96706428D01*
X103092142Y-96706428D01*
X103235000Y-96777857D01*
X103306428Y-96849285D01*
X103377857Y-96992142D01*
X103377857Y-97492142D01*
X103735000Y-96063571D02*
X103735000Y-95349285D01*
X104163571Y-96206428D02*
X102663571Y-95706428D01*
X104163571Y-95206428D01*
X102663571Y-94920714D02*
X102663571Y-94063571D01*
X104163571Y-94492142D02*
X102663571Y-94492142D01*
X105927857Y-96992142D02*
X105999285Y-96777857D01*
X106070714Y-96706428D01*
X106213571Y-96635000D01*
X106427857Y-96635000D01*
X106570714Y-96706428D01*
X106642142Y-96777857D01*
X106713571Y-96920714D01*
X106713571Y-97492142D01*
X105213571Y-97492142D01*
X105213571Y-96992142D01*
X105285000Y-96849285D01*
X105356428Y-96777857D01*
X105499285Y-96706428D01*
X105642142Y-96706428D01*
X105785000Y-96777857D01*
X105856428Y-96849285D01*
X105927857Y-96992142D01*
X105927857Y-97492142D01*
X106285000Y-96063571D02*
X106285000Y-95349285D01*
X106713571Y-96206428D02*
X105213571Y-95706428D01*
X106713571Y-95206428D01*
X105213571Y-94920714D02*
X105213571Y-94063571D01*
X106713571Y-94492142D02*
X105213571Y-94492142D01*
X107763571Y-97742142D02*
X107763571Y-96813571D01*
X108335000Y-97313571D01*
X108335000Y-97099285D01*
X108406428Y-96956428D01*
X108477857Y-96885000D01*
X108620714Y-96813571D01*
X108977857Y-96813571D01*
X109120714Y-96885000D01*
X109192142Y-96956428D01*
X109263571Y-97099285D01*
X109263571Y-97527857D01*
X109192142Y-97670714D01*
X109120714Y-97742142D01*
X107763571Y-96385000D02*
X109263571Y-95885000D01*
X107763571Y-95385000D01*
X107763571Y-95027857D02*
X107763571Y-94099285D01*
X108335000Y-94599285D01*
X108335000Y-94385000D01*
X108406428Y-94242142D01*
X108477857Y-94170714D01*
X108620714Y-94099285D01*
X108977857Y-94099285D01*
X109120714Y-94170714D01*
X109192142Y-94242142D01*
X109263571Y-94385000D01*
X109263571Y-94813571D01*
X109192142Y-94956428D01*
X109120714Y-95027857D01*
X110313571Y-95599285D02*
X110313571Y-96313571D01*
X111027857Y-96385000D01*
X110956428Y-96313571D01*
X110885000Y-96170714D01*
X110885000Y-95813571D01*
X110956428Y-95670714D01*
X111027857Y-95599285D01*
X111170714Y-95527857D01*
X111527857Y-95527857D01*
X111670714Y-95599285D01*
X111742142Y-95670714D01*
X111813571Y-95813571D01*
X111813571Y-96170714D01*
X111742142Y-96313571D01*
X111670714Y-96385000D01*
X110313571Y-95099285D02*
X111813571Y-94599285D01*
X110313571Y-94099285D01*
X112863571Y-95599285D02*
X112863571Y-96313571D01*
X113577857Y-96385000D01*
X113506428Y-96313571D01*
X113435000Y-96170714D01*
X113435000Y-95813571D01*
X113506428Y-95670714D01*
X113577857Y-95599285D01*
X113720714Y-95527857D01*
X114077857Y-95527857D01*
X114220714Y-95599285D01*
X114292142Y-95670714D01*
X114363571Y-95813571D01*
X114363571Y-96170714D01*
X114292142Y-96313571D01*
X114220714Y-96385000D01*
X112863571Y-95099285D02*
X114363571Y-94599285D01*
X112863571Y-94099285D01*
D13*
X112814184Y-23982795D02*
G75*
G02X112290000Y-24710000I-2324184J1122795D01*
G01*
X112846400Y-21761193D02*
G75*
G03X110490000Y-20260000I-2356400J-1098807D01*
G01*
X108133600Y-21761193D02*
G75*
G02X110490000Y-20260000I2356400J-1098807D01*
G01*
X108165816Y-23982795D02*
G75*
G03X108690000Y-24710000I2324184J1122795D01*
G01*
X108690000Y-24710000D02*
X112290000Y-24710000D01*
X127230000Y-22860000D02*
X126460000Y-22860000D01*
X119150000Y-22860000D02*
X119920000Y-22860000D01*
X126460000Y-21490000D02*
X119920000Y-21490000D01*
X126460000Y-24230000D02*
X126460000Y-21490000D01*
X119920000Y-24230000D02*
X126460000Y-24230000D01*
X119920000Y-21490000D02*
X119920000Y-24230000D01*
X127230000Y-27940000D02*
X126460000Y-27940000D01*
X119150000Y-27940000D02*
X119920000Y-27940000D01*
X126460000Y-26570000D02*
X119920000Y-26570000D01*
X126460000Y-29310000D02*
X126460000Y-26570000D01*
X119920000Y-29310000D02*
X126460000Y-29310000D01*
X119920000Y-26570000D02*
X119920000Y-29310000D01*
X111990000Y-27940000D02*
X111220000Y-27940000D01*
X103910000Y-27940000D02*
X104680000Y-27940000D01*
X111220000Y-26570000D02*
X104680000Y-26570000D01*
X111220000Y-29310000D02*
X111220000Y-26570000D01*
X104680000Y-29310000D02*
X111220000Y-29310000D01*
X104680000Y-26570000D02*
X104680000Y-29310000D01*
X98770000Y-23940000D02*
X98770000Y-24096000D01*
X98770000Y-21624000D02*
X98770000Y-21780000D01*
X101371130Y-23939837D02*
G75*
G02X99289039Y-23940000I-1041130J1079837D01*
G01*
X101371130Y-21780163D02*
G75*
G03X99289039Y-21780000I-1041130J-1079837D01*
G01*
X102002335Y-23938608D02*
G75*
G02X98770000Y-24095516I-1672335J1078608D01*
G01*
X102002335Y-21781392D02*
G75*
G03X98770000Y-21624484I-1672335J-1078608D01*
G01*
X117237383Y-84297264D02*
G75*
G02X116845000Y-84885000I-2302383J1112264D01*
G01*
X117291400Y-82086193D02*
G75*
G03X114935000Y-80585000I-2356400J-1098807D01*
G01*
X112578600Y-82086193D02*
G75*
G02X114935000Y-80585000I2356400J-1098807D01*
G01*
X112612369Y-84307045D02*
G75*
G03X112995000Y-84885000I2322631J1122045D01*
G01*
X112995000Y-84885000D02*
X116845000Y-84885000D01*
X122952383Y-55087264D02*
G75*
G02X122560000Y-55675000I-2302383J1112264D01*
G01*
X123006400Y-52876193D02*
G75*
G03X120650000Y-51375000I-2356400J-1098807D01*
G01*
X118293600Y-52876193D02*
G75*
G02X120650000Y-51375000I2356400J-1098807D01*
G01*
X118327369Y-55097045D02*
G75*
G03X118710000Y-55675000I2322631J1122045D01*
G01*
X118710000Y-55675000D02*
X122560000Y-55675000D01*
X118347617Y-86517736D02*
G75*
G02X118740000Y-85930000I2302383J-1112264D01*
G01*
X118293600Y-88728807D02*
G75*
G03X120650000Y-90230000I2356400J1098807D01*
G01*
X123006400Y-88728807D02*
G75*
G02X120650000Y-90230000I-2356400J1098807D01*
G01*
X122972631Y-86507955D02*
G75*
G03X122590000Y-85930000I-2322631J-1122045D01*
G01*
X122590000Y-85930000D02*
X118740000Y-85930000D01*
X111685000Y-75475000D02*
X115605000Y-75475000D01*
X111685000Y-78195000D02*
X115605000Y-78195000D01*
X111685000Y-75475000D02*
X111685000Y-76085000D01*
X111685000Y-77585000D02*
X111685000Y-78195000D01*
X115605000Y-75475000D02*
X115605000Y-76085000D01*
X115605000Y-77585000D02*
X115605000Y-78195000D01*
X99000000Y-64830000D02*
X101660000Y-64830000D01*
X99000000Y-62230000D02*
X99000000Y-64830000D01*
X101660000Y-62230000D02*
X101660000Y-64830000D01*
X99000000Y-62230000D02*
X101660000Y-62230000D01*
X99000000Y-60960000D02*
X99000000Y-59630000D01*
X99000000Y-59630000D02*
X100330000Y-59630000D01*
X101660000Y-68520000D02*
X99000000Y-68520000D01*
X101660000Y-71120000D02*
X101660000Y-68520000D01*
X99000000Y-71120000D02*
X99000000Y-68520000D01*
X101660000Y-71120000D02*
X99000000Y-71120000D01*
X101660000Y-72390000D02*
X101660000Y-73720000D01*
X101660000Y-73720000D02*
X100330000Y-73720000D01*
X108545000Y-45840000D02*
X118785000Y-45840000D01*
X108545000Y-29950000D02*
X118785000Y-29950000D01*
X108545000Y-29950000D02*
X108545000Y-45840000D01*
X118785000Y-29950000D02*
X118785000Y-45840000D01*
X111125000Y-45840000D02*
X111125000Y-48480000D01*
X113665000Y-45840000D02*
X113665000Y-48464000D01*
X116205000Y-45840000D02*
X116205000Y-48464000D01*
X105540722Y-40095277D02*
G75*
G03X100929420Y-40095000I-2305722J-1179723D01*
G01*
X105540722Y-42454723D02*
G75*
G02X100929420Y-42455000I-2305722J1179723D01*
G01*
X105540722Y-42454723D02*
G75*
G03X105540580Y-40095000I-2305722J1179723D01*
G01*
X103235000Y-38725000D02*
X103235000Y-43825000D01*
X103275000Y-38725000D02*
X103275000Y-40295000D01*
X103275000Y-42255000D02*
X103275000Y-43825000D01*
X103315000Y-38726000D02*
X103315000Y-40295000D01*
X103315000Y-42255000D02*
X103315000Y-43824000D01*
X103355000Y-38727000D02*
X103355000Y-40295000D01*
X103355000Y-42255000D02*
X103355000Y-43823000D01*
X103395000Y-38729000D02*
X103395000Y-40295000D01*
X103395000Y-42255000D02*
X103395000Y-43821000D01*
X103435000Y-38732000D02*
X103435000Y-40295000D01*
X103435000Y-42255000D02*
X103435000Y-43818000D01*
X103475000Y-38736000D02*
X103475000Y-40295000D01*
X103475000Y-42255000D02*
X103475000Y-43814000D01*
X103515000Y-38740000D02*
X103515000Y-40295000D01*
X103515000Y-42255000D02*
X103515000Y-43810000D01*
X103555000Y-38744000D02*
X103555000Y-40295000D01*
X103555000Y-42255000D02*
X103555000Y-43806000D01*
X103595000Y-38750000D02*
X103595000Y-40295000D01*
X103595000Y-42255000D02*
X103595000Y-43800000D01*
X103635000Y-38756000D02*
X103635000Y-40295000D01*
X103635000Y-42255000D02*
X103635000Y-43794000D01*
X103675000Y-38762000D02*
X103675000Y-40295000D01*
X103675000Y-42255000D02*
X103675000Y-43788000D01*
X103715000Y-38769000D02*
X103715000Y-40295000D01*
X103715000Y-42255000D02*
X103715000Y-43781000D01*
X103755000Y-38777000D02*
X103755000Y-40295000D01*
X103755000Y-42255000D02*
X103755000Y-43773000D01*
X103795000Y-38786000D02*
X103795000Y-40295000D01*
X103795000Y-42255000D02*
X103795000Y-43764000D01*
X103835000Y-38795000D02*
X103835000Y-40295000D01*
X103835000Y-42255000D02*
X103835000Y-43755000D01*
X103875000Y-38805000D02*
X103875000Y-40295000D01*
X103875000Y-42255000D02*
X103875000Y-43745000D01*
X103915000Y-38815000D02*
X103915000Y-40295000D01*
X103915000Y-42255000D02*
X103915000Y-43735000D01*
X103956000Y-38827000D02*
X103956000Y-40295000D01*
X103956000Y-42255000D02*
X103956000Y-43723000D01*
X103996000Y-38839000D02*
X103996000Y-40295000D01*
X103996000Y-42255000D02*
X103996000Y-43711000D01*
X104036000Y-38851000D02*
X104036000Y-40295000D01*
X104036000Y-42255000D02*
X104036000Y-43699000D01*
X104076000Y-38865000D02*
X104076000Y-40295000D01*
X104076000Y-42255000D02*
X104076000Y-43685000D01*
X104116000Y-38879000D02*
X104116000Y-40295000D01*
X104116000Y-42255000D02*
X104116000Y-43671000D01*
X104156000Y-38893000D02*
X104156000Y-40295000D01*
X104156000Y-42255000D02*
X104156000Y-43657000D01*
X104196000Y-38909000D02*
X104196000Y-40295000D01*
X104196000Y-42255000D02*
X104196000Y-43641000D01*
X104236000Y-38925000D02*
X104236000Y-40295000D01*
X104236000Y-42255000D02*
X104236000Y-43625000D01*
X104276000Y-38942000D02*
X104276000Y-40295000D01*
X104276000Y-42255000D02*
X104276000Y-43608000D01*
X104316000Y-38960000D02*
X104316000Y-40295000D01*
X104316000Y-42255000D02*
X104316000Y-43590000D01*
X104356000Y-38979000D02*
X104356000Y-40295000D01*
X104356000Y-42255000D02*
X104356000Y-43571000D01*
X104396000Y-38999000D02*
X104396000Y-40295000D01*
X104396000Y-42255000D02*
X104396000Y-43551000D01*
X104436000Y-39019000D02*
X104436000Y-40295000D01*
X104436000Y-42255000D02*
X104436000Y-43531000D01*
X104476000Y-39041000D02*
X104476000Y-40295000D01*
X104476000Y-42255000D02*
X104476000Y-43509000D01*
X104516000Y-39063000D02*
X104516000Y-40295000D01*
X104516000Y-42255000D02*
X104516000Y-43487000D01*
X104556000Y-39086000D02*
X104556000Y-40295000D01*
X104556000Y-42255000D02*
X104556000Y-43464000D01*
X104596000Y-39110000D02*
X104596000Y-40295000D01*
X104596000Y-42255000D02*
X104596000Y-43440000D01*
X104636000Y-39135000D02*
X104636000Y-40295000D01*
X104636000Y-42255000D02*
X104636000Y-43415000D01*
X104676000Y-39162000D02*
X104676000Y-40295000D01*
X104676000Y-42255000D02*
X104676000Y-43388000D01*
X104716000Y-39189000D02*
X104716000Y-40295000D01*
X104716000Y-42255000D02*
X104716000Y-43361000D01*
X104756000Y-39217000D02*
X104756000Y-40295000D01*
X104756000Y-42255000D02*
X104756000Y-43333000D01*
X104796000Y-39247000D02*
X104796000Y-40295000D01*
X104796000Y-42255000D02*
X104796000Y-43303000D01*
X104836000Y-39278000D02*
X104836000Y-40295000D01*
X104836000Y-42255000D02*
X104836000Y-43272000D01*
X104876000Y-39310000D02*
X104876000Y-40295000D01*
X104876000Y-42255000D02*
X104876000Y-43240000D01*
X104916000Y-39343000D02*
X104916000Y-40295000D01*
X104916000Y-42255000D02*
X104916000Y-43207000D01*
X104956000Y-39378000D02*
X104956000Y-40295000D01*
X104956000Y-42255000D02*
X104956000Y-43172000D01*
X104996000Y-39414000D02*
X104996000Y-40295000D01*
X104996000Y-42255000D02*
X104996000Y-43136000D01*
X105036000Y-39452000D02*
X105036000Y-40295000D01*
X105036000Y-42255000D02*
X105036000Y-43098000D01*
X105076000Y-39492000D02*
X105076000Y-40295000D01*
X105076000Y-42255000D02*
X105076000Y-43058000D01*
X105116000Y-39533000D02*
X105116000Y-40295000D01*
X105116000Y-42255000D02*
X105116000Y-43017000D01*
X105156000Y-39576000D02*
X105156000Y-40295000D01*
X105156000Y-42255000D02*
X105156000Y-42974000D01*
X105196000Y-39621000D02*
X105196000Y-40295000D01*
X105196000Y-42255000D02*
X105196000Y-42929000D01*
X105236000Y-39669000D02*
X105236000Y-42881000D01*
X105276000Y-39719000D02*
X105276000Y-42831000D01*
X105316000Y-39771000D02*
X105316000Y-42779000D01*
X105356000Y-39827000D02*
X105356000Y-42723000D01*
X105396000Y-39885000D02*
X105396000Y-42665000D01*
X105436000Y-39948000D02*
X105436000Y-42602000D01*
X105476000Y-40014000D02*
X105476000Y-42536000D01*
X105516000Y-40086000D02*
X105516000Y-42464000D01*
X105556000Y-40163000D02*
X105556000Y-42387000D01*
X105596000Y-40247000D02*
X105596000Y-42303000D01*
X105636000Y-40341000D02*
X105636000Y-42209000D01*
X105676000Y-40446000D02*
X105676000Y-42104000D01*
X105716000Y-40568000D02*
X105716000Y-41982000D01*
X105756000Y-40716000D02*
X105756000Y-41834000D01*
X105796000Y-40921000D02*
X105796000Y-41629000D01*
X100035000Y-41275000D02*
X101235000Y-41275000D01*
X100635000Y-40625000D02*
X100635000Y-41925000D01*
X107717335Y-82106392D02*
G75*
G03X104485000Y-81949484I-1672335J-1078608D01*
G01*
X107717335Y-84263608D02*
G75*
G02X104485000Y-84420516I-1672335J1078608D01*
G01*
X107086130Y-82105163D02*
G75*
G03X105004039Y-82105000I-1041130J-1079837D01*
G01*
X107086130Y-84264837D02*
G75*
G02X105004039Y-84265000I-1041130J1079837D01*
G01*
X104485000Y-81949000D02*
X104485000Y-82105000D01*
X104485000Y-84265000D02*
X104485000Y-84421000D01*
X123885000Y-91380000D02*
X121225000Y-91380000D01*
X123885000Y-93980000D02*
X123885000Y-91380000D01*
X121225000Y-93980000D02*
X121225000Y-91380000D01*
X123885000Y-93980000D02*
X121225000Y-93980000D01*
X123885000Y-95250000D02*
X123885000Y-96580000D01*
X123885000Y-96580000D02*
X122555000Y-96580000D01*
X120075000Y-91380000D02*
X117415000Y-91380000D01*
X120075000Y-93980000D02*
X120075000Y-91380000D01*
X117415000Y-93980000D02*
X117415000Y-91380000D01*
X120075000Y-93980000D02*
X117415000Y-93980000D01*
X120075000Y-95250000D02*
X120075000Y-96580000D01*
X120075000Y-96580000D02*
X118745000Y-96580000D01*
X114375000Y-55335000D02*
X110455000Y-55335000D01*
X114375000Y-52615000D02*
X110455000Y-52615000D01*
X114375000Y-55335000D02*
X114375000Y-54725000D01*
X114375000Y-53225000D02*
X114375000Y-52615000D01*
X110455000Y-55335000D02*
X110455000Y-54725000D01*
X110455000Y-53225000D02*
X110455000Y-52615000D01*
X101525000Y-34835000D02*
X105445000Y-34835000D01*
X101525000Y-37555000D02*
X105445000Y-37555000D01*
X101525000Y-34835000D02*
X101525000Y-35445000D01*
X101525000Y-36945000D02*
X101525000Y-37555000D01*
X105445000Y-34835000D02*
X105445000Y-35445000D01*
X105445000Y-36945000D02*
X105445000Y-37555000D01*
X124590722Y-43270277D02*
G75*
G03X119979420Y-43270000I-2305722J-1179723D01*
G01*
X124590722Y-45629723D02*
G75*
G02X119979420Y-45630000I-2305722J1179723D01*
G01*
X124590722Y-45629723D02*
G75*
G03X124590580Y-43270000I-2305722J1179723D01*
G01*
X122285000Y-41900000D02*
X122285000Y-47000000D01*
X122325000Y-41900000D02*
X122325000Y-43470000D01*
X122325000Y-45430000D02*
X122325000Y-47000000D01*
X122365000Y-41901000D02*
X122365000Y-43470000D01*
X122365000Y-45430000D02*
X122365000Y-46999000D01*
X122405000Y-41902000D02*
X122405000Y-43470000D01*
X122405000Y-45430000D02*
X122405000Y-46998000D01*
X122445000Y-41904000D02*
X122445000Y-43470000D01*
X122445000Y-45430000D02*
X122445000Y-46996000D01*
X122485000Y-41907000D02*
X122485000Y-43470000D01*
X122485000Y-45430000D02*
X122485000Y-46993000D01*
X122525000Y-41911000D02*
X122525000Y-43470000D01*
X122525000Y-45430000D02*
X122525000Y-46989000D01*
X122565000Y-41915000D02*
X122565000Y-43470000D01*
X122565000Y-45430000D02*
X122565000Y-46985000D01*
X122605000Y-41919000D02*
X122605000Y-43470000D01*
X122605000Y-45430000D02*
X122605000Y-46981000D01*
X122645000Y-41925000D02*
X122645000Y-43470000D01*
X122645000Y-45430000D02*
X122645000Y-46975000D01*
X122685000Y-41931000D02*
X122685000Y-43470000D01*
X122685000Y-45430000D02*
X122685000Y-46969000D01*
X122725000Y-41937000D02*
X122725000Y-43470000D01*
X122725000Y-45430000D02*
X122725000Y-46963000D01*
X122765000Y-41944000D02*
X122765000Y-43470000D01*
X122765000Y-45430000D02*
X122765000Y-46956000D01*
X122805000Y-41952000D02*
X122805000Y-43470000D01*
X122805000Y-45430000D02*
X122805000Y-46948000D01*
X122845000Y-41961000D02*
X122845000Y-43470000D01*
X122845000Y-45430000D02*
X122845000Y-46939000D01*
X122885000Y-41970000D02*
X122885000Y-43470000D01*
X122885000Y-45430000D02*
X122885000Y-46930000D01*
X122925000Y-41980000D02*
X122925000Y-43470000D01*
X122925000Y-45430000D02*
X122925000Y-46920000D01*
X122965000Y-41990000D02*
X122965000Y-43470000D01*
X122965000Y-45430000D02*
X122965000Y-46910000D01*
X123006000Y-42002000D02*
X123006000Y-43470000D01*
X123006000Y-45430000D02*
X123006000Y-46898000D01*
X123046000Y-42014000D02*
X123046000Y-43470000D01*
X123046000Y-45430000D02*
X123046000Y-46886000D01*
X123086000Y-42026000D02*
X123086000Y-43470000D01*
X123086000Y-45430000D02*
X123086000Y-46874000D01*
X123126000Y-42040000D02*
X123126000Y-43470000D01*
X123126000Y-45430000D02*
X123126000Y-46860000D01*
X123166000Y-42054000D02*
X123166000Y-43470000D01*
X123166000Y-45430000D02*
X123166000Y-46846000D01*
X123206000Y-42068000D02*
X123206000Y-43470000D01*
X123206000Y-45430000D02*
X123206000Y-46832000D01*
X123246000Y-42084000D02*
X123246000Y-43470000D01*
X123246000Y-45430000D02*
X123246000Y-46816000D01*
X123286000Y-42100000D02*
X123286000Y-43470000D01*
X123286000Y-45430000D02*
X123286000Y-46800000D01*
X123326000Y-42117000D02*
X123326000Y-43470000D01*
X123326000Y-45430000D02*
X123326000Y-46783000D01*
X123366000Y-42135000D02*
X123366000Y-43470000D01*
X123366000Y-45430000D02*
X123366000Y-46765000D01*
X123406000Y-42154000D02*
X123406000Y-43470000D01*
X123406000Y-45430000D02*
X123406000Y-46746000D01*
X123446000Y-42174000D02*
X123446000Y-43470000D01*
X123446000Y-45430000D02*
X123446000Y-46726000D01*
X123486000Y-42194000D02*
X123486000Y-43470000D01*
X123486000Y-45430000D02*
X123486000Y-46706000D01*
X123526000Y-42216000D02*
X123526000Y-43470000D01*
X123526000Y-45430000D02*
X123526000Y-46684000D01*
X123566000Y-42238000D02*
X123566000Y-43470000D01*
X123566000Y-45430000D02*
X123566000Y-46662000D01*
X123606000Y-42261000D02*
X123606000Y-43470000D01*
X123606000Y-45430000D02*
X123606000Y-46639000D01*
X123646000Y-42285000D02*
X123646000Y-43470000D01*
X123646000Y-45430000D02*
X123646000Y-46615000D01*
X123686000Y-42310000D02*
X123686000Y-43470000D01*
X123686000Y-45430000D02*
X123686000Y-46590000D01*
X123726000Y-42337000D02*
X123726000Y-43470000D01*
X123726000Y-45430000D02*
X123726000Y-46563000D01*
X123766000Y-42364000D02*
X123766000Y-43470000D01*
X123766000Y-45430000D02*
X123766000Y-46536000D01*
X123806000Y-42392000D02*
X123806000Y-43470000D01*
X123806000Y-45430000D02*
X123806000Y-46508000D01*
X123846000Y-42422000D02*
X123846000Y-43470000D01*
X123846000Y-45430000D02*
X123846000Y-46478000D01*
X123886000Y-42453000D02*
X123886000Y-43470000D01*
X123886000Y-45430000D02*
X123886000Y-46447000D01*
X123926000Y-42485000D02*
X123926000Y-43470000D01*
X123926000Y-45430000D02*
X123926000Y-46415000D01*
X123966000Y-42518000D02*
X123966000Y-43470000D01*
X123966000Y-45430000D02*
X123966000Y-46382000D01*
X124006000Y-42553000D02*
X124006000Y-43470000D01*
X124006000Y-45430000D02*
X124006000Y-46347000D01*
X124046000Y-42589000D02*
X124046000Y-43470000D01*
X124046000Y-45430000D02*
X124046000Y-46311000D01*
X124086000Y-42627000D02*
X124086000Y-43470000D01*
X124086000Y-45430000D02*
X124086000Y-46273000D01*
X124126000Y-42667000D02*
X124126000Y-43470000D01*
X124126000Y-45430000D02*
X124126000Y-46233000D01*
X124166000Y-42708000D02*
X124166000Y-43470000D01*
X124166000Y-45430000D02*
X124166000Y-46192000D01*
X124206000Y-42751000D02*
X124206000Y-43470000D01*
X124206000Y-45430000D02*
X124206000Y-46149000D01*
X124246000Y-42796000D02*
X124246000Y-43470000D01*
X124246000Y-45430000D02*
X124246000Y-46104000D01*
X124286000Y-42844000D02*
X124286000Y-46056000D01*
X124326000Y-42894000D02*
X124326000Y-46006000D01*
X124366000Y-42946000D02*
X124366000Y-45954000D01*
X124406000Y-43002000D02*
X124406000Y-45898000D01*
X124446000Y-43060000D02*
X124446000Y-45840000D01*
X124486000Y-43123000D02*
X124486000Y-45777000D01*
X124526000Y-43189000D02*
X124526000Y-45711000D01*
X124566000Y-43261000D02*
X124566000Y-45639000D01*
X124606000Y-43338000D02*
X124606000Y-45562000D01*
X124646000Y-43422000D02*
X124646000Y-45478000D01*
X124686000Y-43516000D02*
X124686000Y-45384000D01*
X124726000Y-43621000D02*
X124726000Y-45279000D01*
X124766000Y-43743000D02*
X124766000Y-45157000D01*
X124806000Y-43891000D02*
X124806000Y-45009000D01*
X124846000Y-44096000D02*
X124846000Y-44804000D01*
X119085000Y-44450000D02*
X120285000Y-44450000D01*
X119685000Y-43800000D02*
X119685000Y-45100000D01*
X114995000Y-93405000D02*
X114995000Y-88205000D01*
X104775000Y-93405000D02*
X114995000Y-93405000D01*
X102175000Y-88205000D02*
X114995000Y-88205000D01*
X104775000Y-93405000D02*
X104775000Y-90805000D01*
X104775000Y-90805000D02*
X102175000Y-90805000D01*
X102175000Y-90805000D02*
X102175000Y-88205000D01*
X103505000Y-93405000D02*
X102175000Y-93405000D01*
X102175000Y-93405000D02*
X102175000Y-92075000D01*
X100905000Y-51375000D02*
X100905000Y-54035000D01*
X103505000Y-51375000D02*
X100905000Y-51375000D01*
X103505000Y-54035000D02*
X100905000Y-54035000D01*
X103505000Y-51375000D02*
X103505000Y-54035000D01*
X104775000Y-51375000D02*
X106105000Y-51375000D01*
X106105000Y-51375000D02*
X106105000Y-52705000D01*
X106105000Y-48320000D02*
X106105000Y-45660000D01*
X103505000Y-48320000D02*
X106105000Y-48320000D01*
X103505000Y-45660000D02*
X106105000Y-45660000D01*
X103505000Y-48320000D02*
X103505000Y-45660000D01*
X102235000Y-48320000D02*
X100905000Y-48320000D01*
X100905000Y-48320000D02*
X100905000Y-46990000D01*
X117850000Y-58995000D02*
X119180000Y-58995000D01*
X117850000Y-60325000D02*
X117850000Y-58995000D01*
X120510000Y-61595000D02*
X117850000Y-61595000D01*
X120510000Y-79435000D02*
X120510000Y-61595000D01*
X117850000Y-79435000D02*
X120510000Y-79435000D01*
X117850000Y-61595000D02*
X117850000Y-79435000D01*
X105350000Y-61595000D02*
X105350000Y-79435000D01*
X105350000Y-79435000D02*
X108010000Y-79435000D01*
X108010000Y-79435000D02*
X108010000Y-61595000D01*
X108010000Y-61595000D02*
X105350000Y-61595000D01*
X105350000Y-60325000D02*
X105350000Y-58995000D01*
X105350000Y-58995000D02*
X106680000Y-58995000D01*
X98385000Y-85125000D02*
X101005000Y-85125000D01*
X101005000Y-85125000D02*
X101005000Y-78705000D01*
X101005000Y-78705000D02*
X98385000Y-78705000D01*
X98385000Y-78705000D02*
X98385000Y-85125000D01*
X99695000Y-86015000D02*
X99695000Y-85125000D01*
X99695000Y-77815000D02*
X99695000Y-78705000D01*
X112990000Y-68615000D02*
X115610000Y-68615000D01*
X115610000Y-68615000D02*
X115610000Y-62195000D01*
X115610000Y-62195000D02*
X112990000Y-62195000D01*
X112990000Y-62195000D02*
X112990000Y-68615000D01*
X114300000Y-69505000D02*
X114300000Y-68615000D01*
X114300000Y-61305000D02*
X114300000Y-62195000D01*
X126325000Y-51470000D02*
X128945000Y-51470000D01*
X128945000Y-51470000D02*
X128945000Y-45050000D01*
X128945000Y-45050000D02*
X126325000Y-45050000D01*
X126325000Y-45050000D02*
X126325000Y-51470000D01*
X127635000Y-52360000D02*
X127635000Y-51470000D01*
X127635000Y-44160000D02*
X127635000Y-45050000D01*
X128310000Y-70450000D02*
X125690000Y-70450000D01*
X125690000Y-70450000D02*
X125690000Y-76870000D01*
X125690000Y-76870000D02*
X128310000Y-76870000D01*
X128310000Y-76870000D02*
X128310000Y-70450000D01*
X127000000Y-69560000D02*
X127000000Y-70450000D01*
X127000000Y-77760000D02*
X127000000Y-76870000D01*
X125690000Y-64170000D02*
X128310000Y-64170000D01*
X128310000Y-64170000D02*
X128310000Y-57750000D01*
X128310000Y-57750000D02*
X125690000Y-57750000D01*
X125690000Y-57750000D02*
X125690000Y-64170000D01*
X127000000Y-65060000D02*
X127000000Y-64170000D01*
X127000000Y-56860000D02*
X127000000Y-57750000D01*
D11*
X108624761Y-28392380D02*
X108053333Y-28392380D01*
X108339047Y-28392380D02*
X108339047Y-27392380D01*
X108243809Y-27535238D01*
X108148571Y-27630476D01*
X108053333Y-27678095D01*
X109243809Y-27392380D02*
X109339047Y-27392380D01*
X109434285Y-27440000D01*
X109481904Y-27487619D01*
X109529523Y-27582857D01*
X109577142Y-27773333D01*
X109577142Y-28011428D01*
X109529523Y-28201904D01*
X109481904Y-28297142D01*
X109434285Y-28344761D01*
X109339047Y-28392380D01*
X109243809Y-28392380D01*
X109148571Y-28344761D01*
X109100952Y-28297142D01*
X109053333Y-28201904D01*
X109005714Y-28011428D01*
X109005714Y-27773333D01*
X109053333Y-27582857D01*
X109100952Y-27487619D01*
X109148571Y-27440000D01*
X109243809Y-27392380D01*
X110005714Y-28392380D02*
X110005714Y-27392380D01*
X110100952Y-28011428D02*
X110386666Y-28392380D01*
X110386666Y-27725714D02*
X110005714Y-28106666D01*
X105314761Y-22137619D02*
X105219523Y-22090000D01*
X105124285Y-21994761D01*
X104981428Y-21851904D01*
X104886190Y-21804285D01*
X104790952Y-21804285D01*
X104838571Y-22042380D02*
X104743333Y-21994761D01*
X104648095Y-21899523D01*
X104600476Y-21709047D01*
X104600476Y-21375714D01*
X104648095Y-21185238D01*
X104743333Y-21090000D01*
X104838571Y-21042380D01*
X105029047Y-21042380D01*
X105124285Y-21090000D01*
X105219523Y-21185238D01*
X105267142Y-21375714D01*
X105267142Y-21709047D01*
X105219523Y-21899523D01*
X105124285Y-21994761D01*
X105029047Y-22042380D01*
X104838571Y-22042380D01*
X105600476Y-21042380D02*
X106219523Y-21042380D01*
X105886190Y-21423333D01*
X106029047Y-21423333D01*
X106124285Y-21470952D01*
X106171904Y-21518571D01*
X106219523Y-21613809D01*
X106219523Y-21851904D01*
X106171904Y-21947142D01*
X106124285Y-21994761D01*
X106029047Y-22042380D01*
X105743333Y-22042380D01*
X105648095Y-21994761D01*
X105600476Y-21947142D01*
X121753333Y-23312380D02*
X121420000Y-22836190D01*
X121181904Y-23312380D02*
X121181904Y-22312380D01*
X121562857Y-22312380D01*
X121658095Y-22360000D01*
X121705714Y-22407619D01*
X121753333Y-22502857D01*
X121753333Y-22645714D01*
X121705714Y-22740952D01*
X121658095Y-22788571D01*
X121562857Y-22836190D01*
X121181904Y-22836190D01*
X122324761Y-22740952D02*
X122229523Y-22693333D01*
X122181904Y-22645714D01*
X122134285Y-22550476D01*
X122134285Y-22502857D01*
X122181904Y-22407619D01*
X122229523Y-22360000D01*
X122324761Y-22312380D01*
X122515238Y-22312380D01*
X122610476Y-22360000D01*
X122658095Y-22407619D01*
X122705714Y-22502857D01*
X122705714Y-22550476D01*
X122658095Y-22645714D01*
X122610476Y-22693333D01*
X122515238Y-22740952D01*
X122324761Y-22740952D01*
X122229523Y-22788571D01*
X122181904Y-22836190D01*
X122134285Y-22931428D01*
X122134285Y-23121904D01*
X122181904Y-23217142D01*
X122229523Y-23264761D01*
X122324761Y-23312380D01*
X122515238Y-23312380D01*
X122610476Y-23264761D01*
X122658095Y-23217142D01*
X122705714Y-23121904D01*
X122705714Y-22931428D01*
X122658095Y-22836190D01*
X122610476Y-22788571D01*
X122515238Y-22740952D01*
X121753333Y-28392380D02*
X121420000Y-27916190D01*
X121181904Y-28392380D02*
X121181904Y-27392380D01*
X121562857Y-27392380D01*
X121658095Y-27440000D01*
X121705714Y-27487619D01*
X121753333Y-27582857D01*
X121753333Y-27725714D01*
X121705714Y-27820952D01*
X121658095Y-27868571D01*
X121562857Y-27916190D01*
X121181904Y-27916190D01*
X122086666Y-27392380D02*
X122753333Y-27392380D01*
X122324761Y-28392380D01*
X106513333Y-28392380D02*
X106180000Y-27916190D01*
X105941904Y-28392380D02*
X105941904Y-27392380D01*
X106322857Y-27392380D01*
X106418095Y-27440000D01*
X106465714Y-27487619D01*
X106513333Y-27582857D01*
X106513333Y-27725714D01*
X106465714Y-27820952D01*
X106418095Y-27868571D01*
X106322857Y-27916190D01*
X105941904Y-27916190D01*
X106894285Y-27487619D02*
X106941904Y-27440000D01*
X107037142Y-27392380D01*
X107275238Y-27392380D01*
X107370476Y-27440000D01*
X107418095Y-27487619D01*
X107465714Y-27582857D01*
X107465714Y-27678095D01*
X107418095Y-27820952D01*
X106846666Y-28392380D01*
X107465714Y-28392380D01*
X103401904Y-24582380D02*
X103401904Y-23582380D01*
X103640000Y-23582380D01*
X103782857Y-23630000D01*
X103878095Y-23725238D01*
X103925714Y-23820476D01*
X103973333Y-24010952D01*
X103973333Y-24153809D01*
X103925714Y-24344285D01*
X103878095Y-24439523D01*
X103782857Y-24534761D01*
X103640000Y-24582380D01*
X103401904Y-24582380D01*
X104354285Y-23677619D02*
X104401904Y-23630000D01*
X104497142Y-23582380D01*
X104735238Y-23582380D01*
X104830476Y-23630000D01*
X104878095Y-23677619D01*
X104925714Y-23772857D01*
X104925714Y-23868095D01*
X104878095Y-24010952D01*
X104306666Y-24582380D01*
X104925714Y-24582380D01*
X114173095Y-79077380D02*
X114173095Y-79886904D01*
X114220714Y-79982142D01*
X114268333Y-80029761D01*
X114363571Y-80077380D01*
X114554047Y-80077380D01*
X114649285Y-80029761D01*
X114696904Y-79982142D01*
X114744523Y-79886904D01*
X114744523Y-79077380D01*
X115125476Y-79077380D02*
X115744523Y-79077380D01*
X115411190Y-79458333D01*
X115554047Y-79458333D01*
X115649285Y-79505952D01*
X115696904Y-79553571D01*
X115744523Y-79648809D01*
X115744523Y-79886904D01*
X115696904Y-79982142D01*
X115649285Y-80029761D01*
X115554047Y-80077380D01*
X115268333Y-80077380D01*
X115173095Y-80029761D01*
X115125476Y-79982142D01*
X120554761Y-50962619D02*
X120459523Y-50915000D01*
X120364285Y-50819761D01*
X120221428Y-50676904D01*
X120126190Y-50629285D01*
X120030952Y-50629285D01*
X120078571Y-50867380D02*
X119983333Y-50819761D01*
X119888095Y-50724523D01*
X119840476Y-50534047D01*
X119840476Y-50200714D01*
X119888095Y-50010238D01*
X119983333Y-49915000D01*
X120078571Y-49867380D01*
X120269047Y-49867380D01*
X120364285Y-49915000D01*
X120459523Y-50010238D01*
X120507142Y-50200714D01*
X120507142Y-50534047D01*
X120459523Y-50724523D01*
X120364285Y-50819761D01*
X120269047Y-50867380D01*
X120078571Y-50867380D01*
X120888095Y-49962619D02*
X120935714Y-49915000D01*
X121030952Y-49867380D01*
X121269047Y-49867380D01*
X121364285Y-49915000D01*
X121411904Y-49962619D01*
X121459523Y-50057857D01*
X121459523Y-50153095D01*
X121411904Y-50295952D01*
X120840476Y-50867380D01*
X121459523Y-50867380D01*
X120554761Y-91737619D02*
X120459523Y-91690000D01*
X120364285Y-91594761D01*
X120221428Y-91451904D01*
X120126190Y-91404285D01*
X120030952Y-91404285D01*
X120078571Y-91642380D02*
X119983333Y-91594761D01*
X119888095Y-91499523D01*
X119840476Y-91309047D01*
X119840476Y-90975714D01*
X119888095Y-90785238D01*
X119983333Y-90690000D01*
X120078571Y-90642380D01*
X120269047Y-90642380D01*
X120364285Y-90690000D01*
X120459523Y-90785238D01*
X120507142Y-90975714D01*
X120507142Y-91309047D01*
X120459523Y-91499523D01*
X120364285Y-91594761D01*
X120269047Y-91642380D01*
X120078571Y-91642380D01*
X121459523Y-91642380D02*
X120888095Y-91642380D01*
X121173809Y-91642380D02*
X121173809Y-90642380D01*
X121078571Y-90785238D01*
X120983333Y-90880476D01*
X120888095Y-90928095D01*
X113478333Y-74582142D02*
X113430714Y-74629761D01*
X113287857Y-74677380D01*
X113192619Y-74677380D01*
X113049761Y-74629761D01*
X112954523Y-74534523D01*
X112906904Y-74439285D01*
X112859285Y-74248809D01*
X112859285Y-74105952D01*
X112906904Y-73915476D01*
X112954523Y-73820238D01*
X113049761Y-73725000D01*
X113192619Y-73677380D01*
X113287857Y-73677380D01*
X113430714Y-73725000D01*
X113478333Y-73772619D01*
X114335476Y-74010714D02*
X114335476Y-74677380D01*
X114097380Y-73629761D02*
X113859285Y-74344047D01*
X114478333Y-74344047D01*
X99996666Y-58082380D02*
X99996666Y-58796666D01*
X99949047Y-58939523D01*
X99853809Y-59034761D01*
X99710952Y-59082380D01*
X99615714Y-59082380D01*
X100996666Y-59082380D02*
X100425238Y-59082380D01*
X100710952Y-59082380D02*
X100710952Y-58082380D01*
X100615714Y-58225238D01*
X100520476Y-58320476D01*
X100425238Y-58368095D01*
X103322380Y-64991904D02*
X102322380Y-64991904D01*
X103036666Y-64658571D01*
X102322380Y-64325238D01*
X103322380Y-64325238D01*
X103322380Y-63325238D02*
X103322380Y-63896666D01*
X103322380Y-63610952D02*
X102322380Y-63610952D01*
X102465238Y-63706190D01*
X102560476Y-63801428D01*
X102608095Y-63896666D01*
X103322380Y-62134761D02*
X102322380Y-62134761D01*
X102322380Y-61753809D01*
X102370000Y-61658571D01*
X102417619Y-61610952D01*
X102512857Y-61563333D01*
X102655714Y-61563333D01*
X102750952Y-61610952D01*
X102798571Y-61658571D01*
X102846190Y-61753809D01*
X102846190Y-62134761D01*
X102322380Y-61230000D02*
X103322380Y-60991904D01*
X102608095Y-60801428D01*
X103322380Y-60610952D01*
X102322380Y-60372857D01*
X103322380Y-59420476D02*
X102846190Y-59753809D01*
X103322380Y-59991904D02*
X102322380Y-59991904D01*
X102322380Y-59610952D01*
X102370000Y-59515714D01*
X102417619Y-59468095D01*
X102512857Y-59420476D01*
X102655714Y-59420476D01*
X102750952Y-59468095D01*
X102798571Y-59515714D01*
X102846190Y-59610952D01*
X102846190Y-59991904D01*
X99996666Y-74172380D02*
X99996666Y-74886666D01*
X99949047Y-75029523D01*
X99853809Y-75124761D01*
X99710952Y-75172380D01*
X99615714Y-75172380D01*
X100425238Y-74267619D02*
X100472857Y-74220000D01*
X100568095Y-74172380D01*
X100806190Y-74172380D01*
X100901428Y-74220000D01*
X100949047Y-74267619D01*
X100996666Y-74362857D01*
X100996666Y-74458095D01*
X100949047Y-74600952D01*
X100377619Y-75172380D01*
X100996666Y-75172380D01*
X103322380Y-73881904D02*
X102322380Y-73881904D01*
X103036666Y-73548571D01*
X102322380Y-73215238D01*
X103322380Y-73215238D01*
X102417619Y-72786666D02*
X102370000Y-72739047D01*
X102322380Y-72643809D01*
X102322380Y-72405714D01*
X102370000Y-72310476D01*
X102417619Y-72262857D01*
X102512857Y-72215238D01*
X102608095Y-72215238D01*
X102750952Y-72262857D01*
X103322380Y-72834285D01*
X103322380Y-72215238D01*
X103322380Y-71024761D02*
X102322380Y-71024761D01*
X102322380Y-70643809D01*
X102370000Y-70548571D01*
X102417619Y-70500952D01*
X102512857Y-70453333D01*
X102655714Y-70453333D01*
X102750952Y-70500952D01*
X102798571Y-70548571D01*
X102846190Y-70643809D01*
X102846190Y-71024761D01*
X102322380Y-70120000D02*
X103322380Y-69881904D01*
X102608095Y-69691428D01*
X103322380Y-69500952D01*
X102322380Y-69262857D01*
X103322380Y-68310476D02*
X102846190Y-68643809D01*
X103322380Y-68881904D02*
X102322380Y-68881904D01*
X102322380Y-68500952D01*
X102370000Y-68405714D01*
X102417619Y-68358095D01*
X102512857Y-68310476D01*
X102655714Y-68310476D01*
X102750952Y-68358095D01*
X102798571Y-68405714D01*
X102846190Y-68500952D01*
X102846190Y-68881904D01*
X112268095Y-37552380D02*
X112268095Y-38361904D01*
X112315714Y-38457142D01*
X112363333Y-38504761D01*
X112458571Y-38552380D01*
X112649047Y-38552380D01*
X112744285Y-38504761D01*
X112791904Y-38457142D01*
X112839523Y-38361904D01*
X112839523Y-37552380D01*
X113268095Y-37647619D02*
X113315714Y-37600000D01*
X113410952Y-37552380D01*
X113649047Y-37552380D01*
X113744285Y-37600000D01*
X113791904Y-37647619D01*
X113839523Y-37742857D01*
X113839523Y-37838095D01*
X113791904Y-37980952D01*
X113220476Y-38552380D01*
X113839523Y-38552380D01*
X112069761Y-42997380D02*
X111593571Y-42997380D01*
X111593571Y-41997380D01*
X112307857Y-41997380D02*
X112974523Y-41997380D01*
X112545952Y-42997380D01*
X113498333Y-42425952D02*
X113403095Y-42378333D01*
X113355476Y-42330714D01*
X113307857Y-42235476D01*
X113307857Y-42187857D01*
X113355476Y-42092619D01*
X113403095Y-42045000D01*
X113498333Y-41997380D01*
X113688809Y-41997380D01*
X113784047Y-42045000D01*
X113831666Y-42092619D01*
X113879285Y-42187857D01*
X113879285Y-42235476D01*
X113831666Y-42330714D01*
X113784047Y-42378333D01*
X113688809Y-42425952D01*
X113498333Y-42425952D01*
X113403095Y-42473571D01*
X113355476Y-42521190D01*
X113307857Y-42616428D01*
X113307857Y-42806904D01*
X113355476Y-42902142D01*
X113403095Y-42949761D01*
X113498333Y-42997380D01*
X113688809Y-42997380D01*
X113784047Y-42949761D01*
X113831666Y-42902142D01*
X113879285Y-42806904D01*
X113879285Y-42616428D01*
X113831666Y-42521190D01*
X113784047Y-42473571D01*
X113688809Y-42425952D01*
X114498333Y-41997380D02*
X114593571Y-41997380D01*
X114688809Y-42045000D01*
X114736428Y-42092619D01*
X114784047Y-42187857D01*
X114831666Y-42378333D01*
X114831666Y-42616428D01*
X114784047Y-42806904D01*
X114736428Y-42902142D01*
X114688809Y-42949761D01*
X114593571Y-42997380D01*
X114498333Y-42997380D01*
X114403095Y-42949761D01*
X114355476Y-42902142D01*
X114307857Y-42806904D01*
X114260238Y-42616428D01*
X114260238Y-42378333D01*
X114307857Y-42187857D01*
X114355476Y-42092619D01*
X114403095Y-42045000D01*
X114498333Y-41997380D01*
X115736428Y-41997380D02*
X115260238Y-41997380D01*
X115212619Y-42473571D01*
X115260238Y-42425952D01*
X115355476Y-42378333D01*
X115593571Y-42378333D01*
X115688809Y-42425952D01*
X115736428Y-42473571D01*
X115784047Y-42568809D01*
X115784047Y-42806904D01*
X115736428Y-42902142D01*
X115688809Y-42949761D01*
X115593571Y-42997380D01*
X115355476Y-42997380D01*
X115260238Y-42949761D01*
X115212619Y-42902142D01*
X103068333Y-37822142D02*
X103020714Y-37869761D01*
X102877857Y-37917380D01*
X102782619Y-37917380D01*
X102639761Y-37869761D01*
X102544523Y-37774523D01*
X102496904Y-37679285D01*
X102449285Y-37488809D01*
X102449285Y-37345952D01*
X102496904Y-37155476D01*
X102544523Y-37060238D01*
X102639761Y-36965000D01*
X102782619Y-36917380D01*
X102877857Y-36917380D01*
X103020714Y-36965000D01*
X103068333Y-37012619D01*
X103925476Y-36917380D02*
X103735000Y-36917380D01*
X103639761Y-36965000D01*
X103592142Y-37012619D01*
X103496904Y-37155476D01*
X103449285Y-37345952D01*
X103449285Y-37726904D01*
X103496904Y-37822142D01*
X103544523Y-37869761D01*
X103639761Y-37917380D01*
X103830238Y-37917380D01*
X103925476Y-37869761D01*
X103973095Y-37822142D01*
X104020714Y-37726904D01*
X104020714Y-37488809D01*
X103973095Y-37393571D01*
X103925476Y-37345952D01*
X103830238Y-37298333D01*
X103639761Y-37298333D01*
X103544523Y-37345952D01*
X103496904Y-37393571D01*
X103449285Y-37488809D01*
X105306904Y-80677380D02*
X105306904Y-79677380D01*
X105545000Y-79677380D01*
X105687857Y-79725000D01*
X105783095Y-79820238D01*
X105830714Y-79915476D01*
X105878333Y-80105952D01*
X105878333Y-80248809D01*
X105830714Y-80439285D01*
X105783095Y-80534523D01*
X105687857Y-80629761D01*
X105545000Y-80677380D01*
X105306904Y-80677380D01*
X106830714Y-80677380D02*
X106259285Y-80677380D01*
X106545000Y-80677380D02*
X106545000Y-79677380D01*
X106449761Y-79820238D01*
X106354523Y-79915476D01*
X106259285Y-79963095D01*
X109672380Y-84518333D02*
X108672380Y-84518333D01*
X108672380Y-84137380D01*
X108720000Y-84042142D01*
X108767619Y-83994523D01*
X108862857Y-83946904D01*
X109005714Y-83946904D01*
X109100952Y-83994523D01*
X109148571Y-84042142D01*
X109196190Y-84137380D01*
X109196190Y-84518333D01*
X108672380Y-83613571D02*
X109672380Y-83375476D01*
X108958095Y-83185000D01*
X109672380Y-82994523D01*
X108672380Y-82756428D01*
X109672380Y-81804047D02*
X109196190Y-82137380D01*
X109672380Y-82375476D02*
X108672380Y-82375476D01*
X108672380Y-81994523D01*
X108720000Y-81899285D01*
X108767619Y-81851666D01*
X108862857Y-81804047D01*
X109005714Y-81804047D01*
X109100952Y-81851666D01*
X109148571Y-81899285D01*
X109196190Y-81994523D01*
X109196190Y-82375476D01*
X121745476Y-89622380D02*
X121745476Y-90336666D01*
X121697857Y-90479523D01*
X121602619Y-90574761D01*
X121459761Y-90622380D01*
X121364523Y-90622380D01*
X122745476Y-90622380D02*
X122174047Y-90622380D01*
X122459761Y-90622380D02*
X122459761Y-89622380D01*
X122364523Y-89765238D01*
X122269285Y-89860476D01*
X122174047Y-89908095D01*
X123697857Y-90622380D02*
X123126428Y-90622380D01*
X123412142Y-90622380D02*
X123412142Y-89622380D01*
X123316904Y-89765238D01*
X123221666Y-89860476D01*
X123126428Y-89908095D01*
X125547380Y-96980000D02*
X124547380Y-96980000D01*
X125261666Y-96646666D01*
X124547380Y-96313333D01*
X125547380Y-96313333D01*
X125023571Y-95503809D02*
X125071190Y-95360952D01*
X125118809Y-95313333D01*
X125214047Y-95265714D01*
X125356904Y-95265714D01*
X125452142Y-95313333D01*
X125499761Y-95360952D01*
X125547380Y-95456190D01*
X125547380Y-95837142D01*
X124547380Y-95837142D01*
X124547380Y-95503809D01*
X124595000Y-95408571D01*
X124642619Y-95360952D01*
X124737857Y-95313333D01*
X124833095Y-95313333D01*
X124928333Y-95360952D01*
X124975952Y-95408571D01*
X125023571Y-95503809D01*
X125023571Y-95837142D01*
X125452142Y-93503809D02*
X125499761Y-93551428D01*
X125547380Y-93694285D01*
X125547380Y-93789523D01*
X125499761Y-93932380D01*
X125404523Y-94027619D01*
X125309285Y-94075238D01*
X125118809Y-94122857D01*
X124975952Y-94122857D01*
X124785476Y-94075238D01*
X124690238Y-94027619D01*
X124595000Y-93932380D01*
X124547380Y-93789523D01*
X124547380Y-93694285D01*
X124595000Y-93551428D01*
X124642619Y-93503809D01*
X124547380Y-93218095D02*
X124547380Y-92646666D01*
X125547380Y-92932380D02*
X124547380Y-92932380D01*
X125547380Y-91741904D02*
X125071190Y-92075238D01*
X125547380Y-92313333D02*
X124547380Y-92313333D01*
X124547380Y-91932380D01*
X124595000Y-91837142D01*
X124642619Y-91789523D01*
X124737857Y-91741904D01*
X124880714Y-91741904D01*
X124975952Y-91789523D01*
X125023571Y-91837142D01*
X125071190Y-91932380D01*
X125071190Y-92313333D01*
X125547380Y-90837142D02*
X125547380Y-91313333D01*
X124547380Y-91313333D01*
X117935476Y-89622380D02*
X117935476Y-90336666D01*
X117887857Y-90479523D01*
X117792619Y-90574761D01*
X117649761Y-90622380D01*
X117554523Y-90622380D01*
X118935476Y-90622380D02*
X118364047Y-90622380D01*
X118649761Y-90622380D02*
X118649761Y-89622380D01*
X118554523Y-89765238D01*
X118459285Y-89860476D01*
X118364047Y-89908095D01*
X119316428Y-89717619D02*
X119364047Y-89670000D01*
X119459285Y-89622380D01*
X119697380Y-89622380D01*
X119792619Y-89670000D01*
X119840238Y-89717619D01*
X119887857Y-89812857D01*
X119887857Y-89908095D01*
X119840238Y-90050952D01*
X119268809Y-90622380D01*
X119887857Y-90622380D01*
X116657380Y-96908571D02*
X115657380Y-96908571D01*
X116371666Y-96575238D01*
X115657380Y-96241904D01*
X116657380Y-96241904D01*
X116371666Y-95813333D02*
X116371666Y-95337142D01*
X116657380Y-95908571D02*
X115657380Y-95575238D01*
X116657380Y-95241904D01*
X116562142Y-93575238D02*
X116609761Y-93622857D01*
X116657380Y-93765714D01*
X116657380Y-93860952D01*
X116609761Y-94003809D01*
X116514523Y-94099047D01*
X116419285Y-94146666D01*
X116228809Y-94194285D01*
X116085952Y-94194285D01*
X115895476Y-94146666D01*
X115800238Y-94099047D01*
X115705000Y-94003809D01*
X115657380Y-93860952D01*
X115657380Y-93765714D01*
X115705000Y-93622857D01*
X115752619Y-93575238D01*
X115657380Y-93289523D02*
X115657380Y-92718095D01*
X116657380Y-93003809D02*
X115657380Y-93003809D01*
X116657380Y-91813333D02*
X116181190Y-92146666D01*
X116657380Y-92384761D02*
X115657380Y-92384761D01*
X115657380Y-92003809D01*
X115705000Y-91908571D01*
X115752619Y-91860952D01*
X115847857Y-91813333D01*
X115990714Y-91813333D01*
X116085952Y-91860952D01*
X116133571Y-91908571D01*
X116181190Y-92003809D01*
X116181190Y-92384761D01*
X116657380Y-90908571D02*
X116657380Y-91384761D01*
X115657380Y-91384761D01*
X112248333Y-56942142D02*
X112200714Y-56989761D01*
X112057857Y-57037380D01*
X111962619Y-57037380D01*
X111819761Y-56989761D01*
X111724523Y-56894523D01*
X111676904Y-56799285D01*
X111629285Y-56608809D01*
X111629285Y-56465952D01*
X111676904Y-56275476D01*
X111724523Y-56180238D01*
X111819761Y-56085000D01*
X111962619Y-56037380D01*
X112057857Y-56037380D01*
X112200714Y-56085000D01*
X112248333Y-56132619D01*
X113200714Y-57037380D02*
X112629285Y-57037380D01*
X112915000Y-57037380D02*
X112915000Y-56037380D01*
X112819761Y-56180238D01*
X112724523Y-56275476D01*
X112629285Y-56323095D01*
X103318333Y-33942142D02*
X103270714Y-33989761D01*
X103127857Y-34037380D01*
X103032619Y-34037380D01*
X102889761Y-33989761D01*
X102794523Y-33894523D01*
X102746904Y-33799285D01*
X102699285Y-33608809D01*
X102699285Y-33465952D01*
X102746904Y-33275476D01*
X102794523Y-33180238D01*
X102889761Y-33085000D01*
X103032619Y-33037380D01*
X103127857Y-33037380D01*
X103270714Y-33085000D01*
X103318333Y-33132619D01*
X103699285Y-33132619D02*
X103746904Y-33085000D01*
X103842142Y-33037380D01*
X104080238Y-33037380D01*
X104175476Y-33085000D01*
X104223095Y-33132619D01*
X104270714Y-33227857D01*
X104270714Y-33323095D01*
X104223095Y-33465952D01*
X103651666Y-34037380D01*
X104270714Y-34037380D01*
X122118333Y-40997142D02*
X122070714Y-41044761D01*
X121927857Y-41092380D01*
X121832619Y-41092380D01*
X121689761Y-41044761D01*
X121594523Y-40949523D01*
X121546904Y-40854285D01*
X121499285Y-40663809D01*
X121499285Y-40520952D01*
X121546904Y-40330476D01*
X121594523Y-40235238D01*
X121689761Y-40140000D01*
X121832619Y-40092380D01*
X121927857Y-40092380D01*
X122070714Y-40140000D01*
X122118333Y-40187619D01*
X122451666Y-40092380D02*
X123070714Y-40092380D01*
X122737380Y-40473333D01*
X122880238Y-40473333D01*
X122975476Y-40520952D01*
X123023095Y-40568571D01*
X123070714Y-40663809D01*
X123070714Y-40901904D01*
X123023095Y-40997142D01*
X122975476Y-41044761D01*
X122880238Y-41092380D01*
X122594523Y-41092380D01*
X122499285Y-41044761D01*
X122451666Y-40997142D01*
X100417380Y-92408333D02*
X101131666Y-92408333D01*
X101274523Y-92455952D01*
X101369761Y-92551190D01*
X101417380Y-92694047D01*
X101417380Y-92789285D01*
X100417380Y-92027380D02*
X100417380Y-91408333D01*
X100798333Y-91741666D01*
X100798333Y-91598809D01*
X100845952Y-91503571D01*
X100893571Y-91455952D01*
X100988809Y-91408333D01*
X101226904Y-91408333D01*
X101322142Y-91455952D01*
X101369761Y-91503571D01*
X101417380Y-91598809D01*
X101417380Y-91884523D01*
X101369761Y-91979761D01*
X101322142Y-92027380D01*
X102465952Y-87447380D02*
X102465952Y-86447380D01*
X102846904Y-86447380D01*
X102942142Y-86495000D01*
X102989761Y-86542619D01*
X103037380Y-86637857D01*
X103037380Y-86780714D01*
X102989761Y-86875952D01*
X102942142Y-86923571D01*
X102846904Y-86971190D01*
X102465952Y-86971190D01*
X103608809Y-87447380D02*
X103513571Y-87399761D01*
X103465952Y-87352142D01*
X103418333Y-87256904D01*
X103418333Y-86971190D01*
X103465952Y-86875952D01*
X103513571Y-86828333D01*
X103608809Y-86780714D01*
X103751666Y-86780714D01*
X103846904Y-86828333D01*
X103894523Y-86875952D01*
X103942142Y-86971190D01*
X103942142Y-87256904D01*
X103894523Y-87352142D01*
X103846904Y-87399761D01*
X103751666Y-87447380D01*
X103608809Y-87447380D01*
X104275476Y-86780714D02*
X104465952Y-87447380D01*
X104656428Y-86971190D01*
X104846904Y-87447380D01*
X105037380Y-86780714D01*
X105799285Y-87399761D02*
X105704047Y-87447380D01*
X105513571Y-87447380D01*
X105418333Y-87399761D01*
X105370714Y-87304523D01*
X105370714Y-86923571D01*
X105418333Y-86828333D01*
X105513571Y-86780714D01*
X105704047Y-86780714D01*
X105799285Y-86828333D01*
X105846904Y-86923571D01*
X105846904Y-87018809D01*
X105370714Y-87114047D01*
X106275476Y-87447380D02*
X106275476Y-86780714D01*
X106275476Y-86971190D02*
X106323095Y-86875952D01*
X106370714Y-86828333D01*
X106465952Y-86780714D01*
X106561190Y-86780714D01*
X108227857Y-87352142D02*
X108180238Y-87399761D01*
X108037380Y-87447380D01*
X107942142Y-87447380D01*
X107799285Y-87399761D01*
X107704047Y-87304523D01*
X107656428Y-87209285D01*
X107608809Y-87018809D01*
X107608809Y-86875952D01*
X107656428Y-86685476D01*
X107704047Y-86590238D01*
X107799285Y-86495000D01*
X107942142Y-86447380D01*
X108037380Y-86447380D01*
X108180238Y-86495000D01*
X108227857Y-86542619D01*
X108799285Y-87447380D02*
X108704047Y-87399761D01*
X108656428Y-87352142D01*
X108608809Y-87256904D01*
X108608809Y-86971190D01*
X108656428Y-86875952D01*
X108704047Y-86828333D01*
X108799285Y-86780714D01*
X108942142Y-86780714D01*
X109037380Y-86828333D01*
X109085000Y-86875952D01*
X109132619Y-86971190D01*
X109132619Y-87256904D01*
X109085000Y-87352142D01*
X109037380Y-87399761D01*
X108942142Y-87447380D01*
X108799285Y-87447380D01*
X109561190Y-86780714D02*
X109561190Y-87447380D01*
X109561190Y-86875952D02*
X109608809Y-86828333D01*
X109704047Y-86780714D01*
X109846904Y-86780714D01*
X109942142Y-86828333D01*
X109989761Y-86923571D01*
X109989761Y-87447380D01*
X110465952Y-86780714D02*
X110465952Y-87447380D01*
X110465952Y-86875952D02*
X110513571Y-86828333D01*
X110608809Y-86780714D01*
X110751666Y-86780714D01*
X110846904Y-86828333D01*
X110894523Y-86923571D01*
X110894523Y-87447380D01*
X111751666Y-87399761D02*
X111656428Y-87447380D01*
X111465952Y-87447380D01*
X111370714Y-87399761D01*
X111323095Y-87304523D01*
X111323095Y-86923571D01*
X111370714Y-86828333D01*
X111465952Y-86780714D01*
X111656428Y-86780714D01*
X111751666Y-86828333D01*
X111799285Y-86923571D01*
X111799285Y-87018809D01*
X111323095Y-87114047D01*
X112656428Y-87399761D02*
X112561190Y-87447380D01*
X112370714Y-87447380D01*
X112275476Y-87399761D01*
X112227857Y-87352142D01*
X112180238Y-87256904D01*
X112180238Y-86971190D01*
X112227857Y-86875952D01*
X112275476Y-86828333D01*
X112370714Y-86780714D01*
X112561190Y-86780714D01*
X112656428Y-86828333D01*
X112942142Y-86780714D02*
X113323095Y-86780714D01*
X113085000Y-86447380D02*
X113085000Y-87304523D01*
X113132619Y-87399761D01*
X113227857Y-87447380D01*
X113323095Y-87447380D01*
X113799285Y-87447380D02*
X113704047Y-87399761D01*
X113656428Y-87352142D01*
X113608809Y-87256904D01*
X113608809Y-86971190D01*
X113656428Y-86875952D01*
X113704047Y-86828333D01*
X113799285Y-86780714D01*
X113942142Y-86780714D01*
X114037380Y-86828333D01*
X114085000Y-86875952D01*
X114132619Y-86971190D01*
X114132619Y-87256904D01*
X114085000Y-87352142D01*
X114037380Y-87399761D01*
X113942142Y-87447380D01*
X113799285Y-87447380D01*
X114561190Y-87447380D02*
X114561190Y-86780714D01*
X114561190Y-86971190D02*
X114608809Y-86875952D01*
X114656428Y-86828333D01*
X114751666Y-86780714D01*
X114846904Y-86780714D01*
X106557380Y-53038333D02*
X107271666Y-53038333D01*
X107414523Y-53085952D01*
X107509761Y-53181190D01*
X107557380Y-53324047D01*
X107557380Y-53419285D01*
X106890714Y-52133571D02*
X107557380Y-52133571D01*
X106509761Y-52371666D02*
X107224047Y-52609761D01*
X107224047Y-51990714D01*
X99833571Y-53824047D02*
X99881190Y-53681190D01*
X99928809Y-53633571D01*
X100024047Y-53585952D01*
X100166904Y-53585952D01*
X100262142Y-53633571D01*
X100309761Y-53681190D01*
X100357380Y-53776428D01*
X100357380Y-54157380D01*
X99357380Y-54157380D01*
X99357380Y-53824047D01*
X99405000Y-53728809D01*
X99452619Y-53681190D01*
X99547857Y-53633571D01*
X99643095Y-53633571D01*
X99738333Y-53681190D01*
X99785952Y-53728809D01*
X99833571Y-53824047D01*
X99833571Y-54157380D01*
X100071666Y-53205000D02*
X100071666Y-52728809D01*
X100357380Y-53300238D02*
X99357380Y-52966904D01*
X100357380Y-52633571D01*
X99357380Y-52443095D02*
X99357380Y-51871666D01*
X100357380Y-52157380D02*
X99357380Y-52157380D01*
X99357380Y-51681190D02*
X99357380Y-51109761D01*
X100357380Y-51395476D02*
X99357380Y-51395476D01*
X99357380Y-47323333D02*
X100071666Y-47323333D01*
X100214523Y-47370952D01*
X100309761Y-47466190D01*
X100357380Y-47609047D01*
X100357380Y-47704285D01*
X99357380Y-46942380D02*
X99357380Y-46275714D01*
X100357380Y-46704285D01*
X107557380Y-48323333D02*
X106557380Y-48323333D01*
X106557380Y-47942380D01*
X106605000Y-47847142D01*
X106652619Y-47799523D01*
X106747857Y-47751904D01*
X106890714Y-47751904D01*
X106985952Y-47799523D01*
X107033571Y-47847142D01*
X107081190Y-47942380D01*
X107081190Y-48323333D01*
X106557380Y-47418571D02*
X107557380Y-47180476D01*
X106843095Y-46990000D01*
X107557380Y-46799523D01*
X106557380Y-46561428D01*
X107557380Y-45609047D02*
X107081190Y-45942380D01*
X107557380Y-46180476D02*
X106557380Y-46180476D01*
X106557380Y-45799523D01*
X106605000Y-45704285D01*
X106652619Y-45656666D01*
X106747857Y-45609047D01*
X106890714Y-45609047D01*
X106985952Y-45656666D01*
X107033571Y-45704285D01*
X107081190Y-45799523D01*
X107081190Y-46180476D01*
X113346666Y-68277380D02*
X113346666Y-68991666D01*
X113299047Y-69134523D01*
X113203809Y-69229761D01*
X113060952Y-69277380D01*
X112965714Y-69277380D01*
X114299047Y-68277380D02*
X113822857Y-68277380D01*
X113775238Y-68753571D01*
X113822857Y-68705952D01*
X113918095Y-68658333D01*
X114156190Y-68658333D01*
X114251428Y-68705952D01*
X114299047Y-68753571D01*
X114346666Y-68848809D01*
X114346666Y-69086904D01*
X114299047Y-69182142D01*
X114251428Y-69229761D01*
X114156190Y-69277380D01*
X113918095Y-69277380D01*
X113822857Y-69229761D01*
X113775238Y-69182142D01*
X100147380Y-83986666D02*
X99671190Y-84320000D01*
X100147380Y-84558095D02*
X99147380Y-84558095D01*
X99147380Y-84177142D01*
X99195000Y-84081904D01*
X99242619Y-84034285D01*
X99337857Y-83986666D01*
X99480714Y-83986666D01*
X99575952Y-84034285D01*
X99623571Y-84081904D01*
X99671190Y-84177142D01*
X99671190Y-84558095D01*
X100147380Y-83034285D02*
X100147380Y-83605714D01*
X100147380Y-83320000D02*
X99147380Y-83320000D01*
X99290238Y-83415238D01*
X99385476Y-83510476D01*
X99433095Y-83605714D01*
X99147380Y-81930714D02*
X99147380Y-81311666D01*
X99528333Y-81645000D01*
X99528333Y-81502142D01*
X99575952Y-81406904D01*
X99623571Y-81359285D01*
X99718809Y-81311666D01*
X99956904Y-81311666D01*
X100052142Y-81359285D01*
X100099761Y-81406904D01*
X100147380Y-81502142D01*
X100147380Y-81787857D01*
X100099761Y-81883095D01*
X100052142Y-81930714D01*
X99147380Y-80978333D02*
X99147380Y-80359285D01*
X99528333Y-80692619D01*
X99528333Y-80549761D01*
X99575952Y-80454523D01*
X99623571Y-80406904D01*
X99718809Y-80359285D01*
X99956904Y-80359285D01*
X100052142Y-80406904D01*
X100099761Y-80454523D01*
X100147380Y-80549761D01*
X100147380Y-80835476D01*
X100099761Y-80930714D01*
X100052142Y-80978333D01*
X99147380Y-79740238D02*
X99147380Y-79645000D01*
X99195000Y-79549761D01*
X99242619Y-79502142D01*
X99337857Y-79454523D01*
X99528333Y-79406904D01*
X99766428Y-79406904D01*
X99956904Y-79454523D01*
X100052142Y-79502142D01*
X100099761Y-79549761D01*
X100147380Y-79645000D01*
X100147380Y-79740238D01*
X100099761Y-79835476D01*
X100052142Y-79883095D01*
X99956904Y-79930714D01*
X99766428Y-79978333D01*
X99528333Y-79978333D01*
X99337857Y-79930714D01*
X99242619Y-79883095D01*
X99195000Y-79835476D01*
X99147380Y-79740238D01*
X114752380Y-66841666D02*
X114276190Y-67175000D01*
X114752380Y-67413095D02*
X113752380Y-67413095D01*
X113752380Y-67032142D01*
X113800000Y-66936904D01*
X113847619Y-66889285D01*
X113942857Y-66841666D01*
X114085714Y-66841666D01*
X114180952Y-66889285D01*
X114228571Y-66936904D01*
X114276190Y-67032142D01*
X114276190Y-67413095D01*
X113752380Y-66508333D02*
X113752380Y-65889285D01*
X114133333Y-66222619D01*
X114133333Y-66079761D01*
X114180952Y-65984523D01*
X114228571Y-65936904D01*
X114323809Y-65889285D01*
X114561904Y-65889285D01*
X114657142Y-65936904D01*
X114704761Y-65984523D01*
X114752380Y-66079761D01*
X114752380Y-66365476D01*
X114704761Y-66460714D01*
X114657142Y-66508333D01*
X114752380Y-64730238D02*
X114752380Y-65301666D01*
X114752380Y-65015952D02*
X113752380Y-65015952D01*
X113895238Y-65111190D01*
X113990476Y-65206428D01*
X114038095Y-65301666D01*
X113752380Y-64111190D02*
X113752380Y-64015952D01*
X113800000Y-63920714D01*
X113847619Y-63873095D01*
X113942857Y-63825476D01*
X114133333Y-63777857D01*
X114371428Y-63777857D01*
X114561904Y-63825476D01*
X114657142Y-63873095D01*
X114704761Y-63920714D01*
X114752380Y-64015952D01*
X114752380Y-64111190D01*
X114704761Y-64206428D01*
X114657142Y-64254047D01*
X114561904Y-64301666D01*
X114371428Y-64349285D01*
X114133333Y-64349285D01*
X113942857Y-64301666D01*
X113847619Y-64254047D01*
X113800000Y-64206428D01*
X113752380Y-64111190D01*
X114752380Y-63349285D02*
X113752380Y-63349285D01*
X114371428Y-63254047D02*
X114752380Y-62968333D01*
X114085714Y-62968333D02*
X114466666Y-63349285D01*
X128087380Y-50331666D02*
X127611190Y-50665000D01*
X128087380Y-50903095D02*
X127087380Y-50903095D01*
X127087380Y-50522142D01*
X127135000Y-50426904D01*
X127182619Y-50379285D01*
X127277857Y-50331666D01*
X127420714Y-50331666D01*
X127515952Y-50379285D01*
X127563571Y-50426904D01*
X127611190Y-50522142D01*
X127611190Y-50903095D01*
X127420714Y-49474523D02*
X128087380Y-49474523D01*
X127039761Y-49712619D02*
X127754047Y-49950714D01*
X127754047Y-49331666D01*
X128087380Y-47585238D02*
X128087380Y-48156666D01*
X128087380Y-47870952D02*
X127087380Y-47870952D01*
X127230238Y-47966190D01*
X127325476Y-48061428D01*
X127373095Y-48156666D01*
X127087380Y-46966190D02*
X127087380Y-46870952D01*
X127135000Y-46775714D01*
X127182619Y-46728095D01*
X127277857Y-46680476D01*
X127468333Y-46632857D01*
X127706428Y-46632857D01*
X127896904Y-46680476D01*
X127992142Y-46728095D01*
X128039761Y-46775714D01*
X128087380Y-46870952D01*
X128087380Y-46966190D01*
X128039761Y-47061428D01*
X127992142Y-47109047D01*
X127896904Y-47156666D01*
X127706428Y-47204285D01*
X127468333Y-47204285D01*
X127277857Y-47156666D01*
X127182619Y-47109047D01*
X127135000Y-47061428D01*
X127087380Y-46966190D01*
X128087380Y-46204285D02*
X127087380Y-46204285D01*
X127706428Y-46109047D02*
X128087380Y-45823333D01*
X127420714Y-45823333D02*
X127801666Y-46204285D01*
X127452380Y-75731666D02*
X126976190Y-76065000D01*
X127452380Y-76303095D02*
X126452380Y-76303095D01*
X126452380Y-75922142D01*
X126500000Y-75826904D01*
X126547619Y-75779285D01*
X126642857Y-75731666D01*
X126785714Y-75731666D01*
X126880952Y-75779285D01*
X126928571Y-75826904D01*
X126976190Y-75922142D01*
X126976190Y-76303095D01*
X126452380Y-74826904D02*
X126452380Y-75303095D01*
X126928571Y-75350714D01*
X126880952Y-75303095D01*
X126833333Y-75207857D01*
X126833333Y-74969761D01*
X126880952Y-74874523D01*
X126928571Y-74826904D01*
X127023809Y-74779285D01*
X127261904Y-74779285D01*
X127357142Y-74826904D01*
X127404761Y-74874523D01*
X127452380Y-74969761D01*
X127452380Y-75207857D01*
X127404761Y-75303095D01*
X127357142Y-75350714D01*
X127452380Y-72985238D02*
X127452380Y-73556666D01*
X127452380Y-73270952D02*
X126452380Y-73270952D01*
X126595238Y-73366190D01*
X126690476Y-73461428D01*
X126738095Y-73556666D01*
X126452380Y-72366190D02*
X126452380Y-72270952D01*
X126500000Y-72175714D01*
X126547619Y-72128095D01*
X126642857Y-72080476D01*
X126833333Y-72032857D01*
X127071428Y-72032857D01*
X127261904Y-72080476D01*
X127357142Y-72128095D01*
X127404761Y-72175714D01*
X127452380Y-72270952D01*
X127452380Y-72366190D01*
X127404761Y-72461428D01*
X127357142Y-72509047D01*
X127261904Y-72556666D01*
X127071428Y-72604285D01*
X126833333Y-72604285D01*
X126642857Y-72556666D01*
X126547619Y-72509047D01*
X126500000Y-72461428D01*
X126452380Y-72366190D01*
X127452380Y-71604285D02*
X126452380Y-71604285D01*
X127071428Y-71509047D02*
X127452380Y-71223333D01*
X126785714Y-71223333D02*
X127166666Y-71604285D01*
X127452380Y-63031666D02*
X126976190Y-63365000D01*
X127452380Y-63603095D02*
X126452380Y-63603095D01*
X126452380Y-63222142D01*
X126500000Y-63126904D01*
X126547619Y-63079285D01*
X126642857Y-63031666D01*
X126785714Y-63031666D01*
X126880952Y-63079285D01*
X126928571Y-63126904D01*
X126976190Y-63222142D01*
X126976190Y-63603095D01*
X126452380Y-62174523D02*
X126452380Y-62365000D01*
X126500000Y-62460238D01*
X126547619Y-62507857D01*
X126690476Y-62603095D01*
X126880952Y-62650714D01*
X127261904Y-62650714D01*
X127357142Y-62603095D01*
X127404761Y-62555476D01*
X127452380Y-62460238D01*
X127452380Y-62269761D01*
X127404761Y-62174523D01*
X127357142Y-62126904D01*
X127261904Y-62079285D01*
X127023809Y-62079285D01*
X126928571Y-62126904D01*
X126880952Y-62174523D01*
X126833333Y-62269761D01*
X126833333Y-62460238D01*
X126880952Y-62555476D01*
X126928571Y-62603095D01*
X127023809Y-62650714D01*
X127452380Y-60285238D02*
X127452380Y-60856666D01*
X127452380Y-60570952D02*
X126452380Y-60570952D01*
X126595238Y-60666190D01*
X126690476Y-60761428D01*
X126738095Y-60856666D01*
X126452380Y-59666190D02*
X126452380Y-59570952D01*
X126500000Y-59475714D01*
X126547619Y-59428095D01*
X126642857Y-59380476D01*
X126833333Y-59332857D01*
X127071428Y-59332857D01*
X127261904Y-59380476D01*
X127357142Y-59428095D01*
X127404761Y-59475714D01*
X127452380Y-59570952D01*
X127452380Y-59666190D01*
X127404761Y-59761428D01*
X127357142Y-59809047D01*
X127261904Y-59856666D01*
X127071428Y-59904285D01*
X126833333Y-59904285D01*
X126642857Y-59856666D01*
X126547619Y-59809047D01*
X126500000Y-59761428D01*
X126452380Y-59666190D01*
X127452380Y-58904285D02*
X126452380Y-58904285D01*
X127071428Y-58809047D02*
X127452380Y-58523333D01*
X126785714Y-58523333D02*
X127166666Y-58904285D01*
M02*
