M48
INCH,TZ
T1C0.0157
T2C0.0315
T3C0.0354
T4C0.0394
T5C0.0433
T6C0.0866
T7C0.1378
%
G90
G05
T1
X43250Y-25500
X43250Y-31250
X45000Y-25500
X48250Y-26000
X48750Y-30750
X49500Y-33500
T2
X44250Y-32750
X45250Y-32750
X46250Y-32750
X46500Y-9000
X50500Y-9000
X40250Y-16250
X41037Y-16250
X40500Y-11000
X44500Y-11000
X43766Y-21250
X44750Y-21250
X50000Y-22000
X50000Y-26000
X42500Y-9000
X43500Y-9000
X44500Y-9000
X47750Y-17500
X48537Y-17500
X50000Y-27000
X50000Y-31000
X39250Y-30250
X39250Y-34250
X46500Y-34500
X47500Y-34500
X48500Y-34500
X50250Y-17000
X50250Y-21000
X45000Y-23750
X45000Y-27750
X40250Y-14250
X41234Y-14250
X44250Y-30250
X45234Y-30250
X46500Y-21250
X47500Y-21250
X48500Y-21250
X46500Y-11000
X50500Y-11000
T3
X39000Y-9000
X40000Y-9000
X41250Y-32750
X42250Y-32750
T4
X42000Y-23750
X42000Y-24750
X42000Y-25750
X42000Y-26750
X42000Y-27750
X42000Y-28750
X42000Y-29750
X42000Y-30750
X46921Y-23750
X46921Y-24750
X46921Y-25750
X46921Y-26750
X46921Y-27750
X46921Y-28750
X46921Y-29750
X46921Y-30750
X40250Y-18500
X41250Y-18500
X39500Y-27500
X39500Y-28500
X39500Y-24000
X39500Y-25000
X46750Y-36500
X46750Y-37500
X40250Y-20750
X41250Y-20750
X40750Y-35138
X40750Y-36138
X41750Y-35138
X41750Y-36138
X42750Y-35138
X42750Y-36138
X43750Y-35138
X43750Y-36138
X44750Y-35138
X44750Y-36138
X48250Y-36500
X48250Y-37500
T5
X43750Y-19500
X44750Y-19500
X45750Y-19500
T6
X39000Y-37500
X50250Y-37500
X50250Y-12750
X39000Y-12750
T7
X44750Y-12941
T0
M30
