M48
;DRILL file {KiCad 4.0.7} date 04/16/18 14:41:12
;FORMAT={-:-/ absolute / inch / decimal}
FMAT,2
INCH,TZ
T1C0.016
T2C0.024
T3C0.031
T4C0.035
T5C0.039
%
G90
G05
M72
T1
X4.325Y-2.55
X4.325Y-3.125
X4.5Y-2.55
X4.825Y-2.6
X4.875Y-3.075
X4.95Y-3.25
T2
X4.425Y-3.275
X4.475Y-3.275
X4.525Y-3.275
X4.65Y-2.125
X4.7Y-2.125
X4.725Y-3.275
X4.75Y-2.125
X4.775Y-3.275
X4.825Y-3.275
T3
X3.925Y-3.025
X3.925Y-3.425
X4.025Y-1.425
X4.025Y-1.625
X4.1037Y-1.625
X4.1234Y-1.425
X4.3766Y-2.125
X4.425Y-3.025
X4.475Y-2.125
X4.5Y-2.375
X4.5Y-2.775
X4.5234Y-3.025
X4.775Y-1.75
X4.8537Y-1.75
X5.Y-2.2
X5.Y-2.6
X5.Y-2.7
X5.Y-3.1
X5.025Y-1.7
X5.025Y-2.1
T4
X4.125Y-3.275
X4.225Y-3.275
T5
X3.95Y-2.4
X3.95Y-2.5
X3.95Y-2.75
X3.95Y-2.85
X4.025Y-1.85
X4.025Y-2.075
X4.075Y-3.525
X4.075Y-3.625
X4.125Y-1.85
X4.125Y-2.075
X4.175Y-3.525
X4.175Y-3.625
X4.2Y-2.375
X4.2Y-2.475
X4.2Y-2.575
X4.2Y-2.675
X4.2Y-2.775
X4.2Y-2.875
X4.2Y-2.975
X4.2Y-3.075
X4.275Y-3.525
X4.275Y-3.625
X4.375Y-1.95
X4.375Y-3.525
X4.375Y-3.625
X4.475Y-1.95
X4.475Y-3.525
X4.475Y-3.625
X4.575Y-1.95
X4.675Y-3.525
X4.675Y-3.625
X4.6921Y-2.375
X4.6921Y-2.475
X4.6921Y-2.575
X4.6921Y-2.675
X4.6921Y-2.775
X4.6921Y-2.875
X4.6921Y-2.975
X4.6921Y-3.075
X4.825Y-3.525
X4.825Y-3.625
T0
M30
