G04 #@! TF.GenerationSoftware,KiCad,Pcbnew,(5.1.4)-1*
G04 #@! TF.CreationDate,2020-04-28T16:39:32-06:00*
G04 #@! TF.ProjectId,robot,726f626f-742e-46b6-9963-61645f706362,rev?*
G04 #@! TF.SameCoordinates,Original*
G04 #@! TF.FileFunction,Legend,Top*
G04 #@! TF.FilePolarity,Positive*
%FSLAX46Y46*%
G04 Gerber Fmt 4.6, Leading zero omitted, Abs format (unit mm)*
G04 Created by KiCad (PCBNEW (5.1.4)-1) date 2020-04-28 16:39:32*
%MOMM*%
%LPD*%
G04 APERTURE LIST*
%ADD10C,0.200000*%
%ADD11C,0.300000*%
%ADD12C,0.120000*%
%ADD13C,0.150000*%
G04 APERTURE END LIST*
D10*
X115570000Y-87630000D02*
X101600000Y-87630000D01*
X101600000Y-87630000D02*
X101600000Y-90805000D01*
X115570000Y-90805000D02*
X115570000Y-87630000D01*
X101600000Y-90805000D02*
X115570000Y-90805000D01*
D11*
X129432857Y-91677142D02*
X129504285Y-91462857D01*
X129575714Y-91391428D01*
X129718571Y-91320000D01*
X129932857Y-91320000D01*
X130075714Y-91391428D01*
X130147142Y-91462857D01*
X130218571Y-91605714D01*
X130218571Y-92177142D01*
X128718571Y-92177142D01*
X128718571Y-91677142D01*
X128790000Y-91534285D01*
X128861428Y-91462857D01*
X129004285Y-91391428D01*
X129147142Y-91391428D01*
X129290000Y-91462857D01*
X129361428Y-91534285D01*
X129432857Y-91677142D01*
X129432857Y-92177142D01*
X130147142Y-90105714D02*
X130218571Y-90248571D01*
X130218571Y-90534285D01*
X130147142Y-90677142D01*
X130004285Y-90748571D01*
X129432857Y-90748571D01*
X129290000Y-90677142D01*
X129218571Y-90534285D01*
X129218571Y-90248571D01*
X129290000Y-90105714D01*
X129432857Y-90034285D01*
X129575714Y-90034285D01*
X129718571Y-90748571D01*
X129218571Y-89534285D02*
X130218571Y-89177142D01*
X129218571Y-88820000D02*
X130218571Y-89177142D01*
X130575714Y-89320000D01*
X130647142Y-89391428D01*
X130718571Y-89534285D01*
X130147142Y-87677142D02*
X130218571Y-87820000D01*
X130218571Y-88105714D01*
X130147142Y-88248571D01*
X130004285Y-88320000D01*
X129432857Y-88320000D01*
X129290000Y-88248571D01*
X129218571Y-88105714D01*
X129218571Y-87820000D01*
X129290000Y-87677142D01*
X129432857Y-87605714D01*
X129575714Y-87605714D01*
X129718571Y-88320000D01*
X130218571Y-86962857D02*
X129218571Y-86962857D01*
X129504285Y-86962857D02*
X129361428Y-86891428D01*
X129290000Y-86820000D01*
X129218571Y-86677142D01*
X129218571Y-86534285D01*
X130790000Y-84462857D02*
X130718571Y-84534285D01*
X130504285Y-84677142D01*
X130361428Y-84748571D01*
X130147142Y-84820000D01*
X129790000Y-84891428D01*
X129504285Y-84891428D01*
X129147142Y-84820000D01*
X128932857Y-84748571D01*
X128790000Y-84677142D01*
X128575714Y-84534285D01*
X128504285Y-84462857D01*
X130147142Y-83248571D02*
X130218571Y-83391428D01*
X130218571Y-83677142D01*
X130147142Y-83820000D01*
X130075714Y-83891428D01*
X129932857Y-83962857D01*
X129504285Y-83962857D01*
X129361428Y-83891428D01*
X129290000Y-83820000D01*
X129218571Y-83677142D01*
X129218571Y-83391428D01*
X129290000Y-83248571D01*
X130790000Y-82748571D02*
X130718571Y-82677142D01*
X130504285Y-82534285D01*
X130361428Y-82462857D01*
X130147142Y-82391428D01*
X129790000Y-82320000D01*
X129504285Y-82320000D01*
X129147142Y-82391428D01*
X128932857Y-82462857D01*
X128790000Y-82534285D01*
X128575714Y-82677142D01*
X128504285Y-82748571D01*
X128861428Y-80534285D02*
X128790000Y-80462857D01*
X128718571Y-80320000D01*
X128718571Y-79962857D01*
X128790000Y-79820000D01*
X128861428Y-79748571D01*
X129004285Y-79677142D01*
X129147142Y-79677142D01*
X129361428Y-79748571D01*
X130218571Y-80605714D01*
X130218571Y-79677142D01*
X128718571Y-78748571D02*
X128718571Y-78605714D01*
X128790000Y-78462857D01*
X128861428Y-78391428D01*
X129004285Y-78320000D01*
X129290000Y-78248571D01*
X129647142Y-78248571D01*
X129932857Y-78320000D01*
X130075714Y-78391428D01*
X130147142Y-78462857D01*
X130218571Y-78605714D01*
X130218571Y-78748571D01*
X130147142Y-78891428D01*
X130075714Y-78962857D01*
X129932857Y-79034285D01*
X129647142Y-79105714D01*
X129290000Y-79105714D01*
X129004285Y-79034285D01*
X128861428Y-78962857D01*
X128790000Y-78891428D01*
X128718571Y-78748571D01*
X128861428Y-77677142D02*
X128790000Y-77605714D01*
X128718571Y-77462857D01*
X128718571Y-77105714D01*
X128790000Y-76962857D01*
X128861428Y-76891428D01*
X129004285Y-76820000D01*
X129147142Y-76820000D01*
X129361428Y-76891428D01*
X130218571Y-77748571D01*
X130218571Y-76820000D01*
X128718571Y-75891428D02*
X128718571Y-75748571D01*
X128790000Y-75605714D01*
X128861428Y-75534285D01*
X129004285Y-75462857D01*
X129290000Y-75391428D01*
X129647142Y-75391428D01*
X129932857Y-75462857D01*
X130075714Y-75534285D01*
X130147142Y-75605714D01*
X130218571Y-75748571D01*
X130218571Y-75891428D01*
X130147142Y-76034285D01*
X130075714Y-76105714D01*
X129932857Y-76177142D01*
X129647142Y-76248571D01*
X129290000Y-76248571D01*
X129004285Y-76177142D01*
X128861428Y-76105714D01*
X128790000Y-76034285D01*
X128718571Y-75891428D01*
X97917142Y-89420000D02*
X97774285Y-89348571D01*
X97560000Y-89348571D01*
X97345714Y-89420000D01*
X97202857Y-89562857D01*
X97131428Y-89705714D01*
X97060000Y-89991428D01*
X97060000Y-90205714D01*
X97131428Y-90491428D01*
X97202857Y-90634285D01*
X97345714Y-90777142D01*
X97560000Y-90848571D01*
X97702857Y-90848571D01*
X97917142Y-90777142D01*
X97988571Y-90705714D01*
X97988571Y-90205714D01*
X97702857Y-90205714D01*
X98631428Y-90848571D02*
X98631428Y-89348571D01*
X99488571Y-90848571D01*
X99488571Y-89348571D01*
X100202857Y-90848571D02*
X100202857Y-89348571D01*
X100560000Y-89348571D01*
X100774285Y-89420000D01*
X100917142Y-89562857D01*
X100988571Y-89705714D01*
X101060000Y-89991428D01*
X101060000Y-90205714D01*
X100988571Y-90491428D01*
X100917142Y-90634285D01*
X100774285Y-90777142D01*
X100560000Y-90848571D01*
X100202857Y-90848571D01*
X110283571Y-61003571D02*
X109426428Y-61003571D01*
X109855000Y-61003571D02*
X109855000Y-59503571D01*
X109712142Y-59717857D01*
X109569285Y-59860714D01*
X109426428Y-59932142D01*
D10*
X104775000Y-58420000D02*
X104775000Y-61595000D01*
X108585000Y-58420000D02*
X108585000Y-61595000D01*
X104775000Y-58420000D02*
X108585000Y-58420000D01*
D11*
X119625000Y-100881428D02*
X119625000Y-100167142D01*
X120053571Y-101024285D02*
X118553571Y-100524285D01*
X120053571Y-100024285D01*
X120053571Y-99524285D02*
X118553571Y-99524285D01*
X118553571Y-98952857D01*
X118625000Y-98810000D01*
X118696428Y-98738571D01*
X118839285Y-98667142D01*
X119053571Y-98667142D01*
X119196428Y-98738571D01*
X119267857Y-98810000D01*
X119339285Y-98952857D01*
X119339285Y-99524285D01*
X119982142Y-98095714D02*
X120053571Y-97881428D01*
X120053571Y-97524285D01*
X119982142Y-97381428D01*
X119910714Y-97310000D01*
X119767857Y-97238571D01*
X119625000Y-97238571D01*
X119482142Y-97310000D01*
X119410714Y-97381428D01*
X119339285Y-97524285D01*
X119267857Y-97810000D01*
X119196428Y-97952857D01*
X119125000Y-98024285D01*
X118982142Y-98095714D01*
X118839285Y-98095714D01*
X118696428Y-98024285D01*
X118625000Y-97952857D01*
X118553571Y-97810000D01*
X118553571Y-97452857D01*
X118625000Y-97238571D01*
X121817857Y-100417142D02*
X121889285Y-100202857D01*
X121960714Y-100131428D01*
X122103571Y-100060000D01*
X122317857Y-100060000D01*
X122460714Y-100131428D01*
X122532142Y-100202857D01*
X122603571Y-100345714D01*
X122603571Y-100917142D01*
X121103571Y-100917142D01*
X121103571Y-100417142D01*
X121175000Y-100274285D01*
X121246428Y-100202857D01*
X121389285Y-100131428D01*
X121532142Y-100131428D01*
X121675000Y-100202857D01*
X121746428Y-100274285D01*
X121817857Y-100417142D01*
X121817857Y-100917142D01*
X122603571Y-99417142D02*
X121103571Y-99417142D01*
X121103571Y-98845714D01*
X121175000Y-98702857D01*
X121246428Y-98631428D01*
X121389285Y-98560000D01*
X121603571Y-98560000D01*
X121746428Y-98631428D01*
X121817857Y-98702857D01*
X121889285Y-98845714D01*
X121889285Y-99417142D01*
X122532142Y-97988571D02*
X122603571Y-97774285D01*
X122603571Y-97417142D01*
X122532142Y-97274285D01*
X122460714Y-97202857D01*
X122317857Y-97131428D01*
X122175000Y-97131428D01*
X122032142Y-97202857D01*
X121960714Y-97274285D01*
X121889285Y-97417142D01*
X121817857Y-97702857D01*
X121746428Y-97845714D01*
X121675000Y-97917142D01*
X121532142Y-97988571D01*
X121389285Y-97988571D01*
X121246428Y-97917142D01*
X121175000Y-97845714D01*
X121103571Y-97702857D01*
X121103571Y-97345714D01*
X121175000Y-97131428D01*
X103377857Y-96992142D02*
X103449285Y-96777857D01*
X103520714Y-96706428D01*
X103663571Y-96635000D01*
X103877857Y-96635000D01*
X104020714Y-96706428D01*
X104092142Y-96777857D01*
X104163571Y-96920714D01*
X104163571Y-97492142D01*
X102663571Y-97492142D01*
X102663571Y-96992142D01*
X102735000Y-96849285D01*
X102806428Y-96777857D01*
X102949285Y-96706428D01*
X103092142Y-96706428D01*
X103235000Y-96777857D01*
X103306428Y-96849285D01*
X103377857Y-96992142D01*
X103377857Y-97492142D01*
X103735000Y-96063571D02*
X103735000Y-95349285D01*
X104163571Y-96206428D02*
X102663571Y-95706428D01*
X104163571Y-95206428D01*
X102663571Y-94920714D02*
X102663571Y-94063571D01*
X104163571Y-94492142D02*
X102663571Y-94492142D01*
X105927857Y-96992142D02*
X105999285Y-96777857D01*
X106070714Y-96706428D01*
X106213571Y-96635000D01*
X106427857Y-96635000D01*
X106570714Y-96706428D01*
X106642142Y-96777857D01*
X106713571Y-96920714D01*
X106713571Y-97492142D01*
X105213571Y-97492142D01*
X105213571Y-96992142D01*
X105285000Y-96849285D01*
X105356428Y-96777857D01*
X105499285Y-96706428D01*
X105642142Y-96706428D01*
X105785000Y-96777857D01*
X105856428Y-96849285D01*
X105927857Y-96992142D01*
X105927857Y-97492142D01*
X106285000Y-96063571D02*
X106285000Y-95349285D01*
X106713571Y-96206428D02*
X105213571Y-95706428D01*
X106713571Y-95206428D01*
X105213571Y-94920714D02*
X105213571Y-94063571D01*
X106713571Y-94492142D02*
X105213571Y-94492142D01*
X107763571Y-97742142D02*
X107763571Y-96813571D01*
X108335000Y-97313571D01*
X108335000Y-97099285D01*
X108406428Y-96956428D01*
X108477857Y-96885000D01*
X108620714Y-96813571D01*
X108977857Y-96813571D01*
X109120714Y-96885000D01*
X109192142Y-96956428D01*
X109263571Y-97099285D01*
X109263571Y-97527857D01*
X109192142Y-97670714D01*
X109120714Y-97742142D01*
X107763571Y-96385000D02*
X109263571Y-95885000D01*
X107763571Y-95385000D01*
X107763571Y-95027857D02*
X107763571Y-94099285D01*
X108335000Y-94599285D01*
X108335000Y-94385000D01*
X108406428Y-94242142D01*
X108477857Y-94170714D01*
X108620714Y-94099285D01*
X108977857Y-94099285D01*
X109120714Y-94170714D01*
X109192142Y-94242142D01*
X109263571Y-94385000D01*
X109263571Y-94813571D01*
X109192142Y-94956428D01*
X109120714Y-95027857D01*
X110313571Y-95599285D02*
X110313571Y-96313571D01*
X111027857Y-96385000D01*
X110956428Y-96313571D01*
X110885000Y-96170714D01*
X110885000Y-95813571D01*
X110956428Y-95670714D01*
X111027857Y-95599285D01*
X111170714Y-95527857D01*
X111527857Y-95527857D01*
X111670714Y-95599285D01*
X111742142Y-95670714D01*
X111813571Y-95813571D01*
X111813571Y-96170714D01*
X111742142Y-96313571D01*
X111670714Y-96385000D01*
X110313571Y-95099285D02*
X111813571Y-94599285D01*
X110313571Y-94099285D01*
X112863571Y-95599285D02*
X112863571Y-96313571D01*
X113577857Y-96385000D01*
X113506428Y-96313571D01*
X113435000Y-96170714D01*
X113435000Y-95813571D01*
X113506428Y-95670714D01*
X113577857Y-95599285D01*
X113720714Y-95527857D01*
X114077857Y-95527857D01*
X114220714Y-95599285D01*
X114292142Y-95670714D01*
X114363571Y-95813571D01*
X114363571Y-96170714D01*
X114292142Y-96313571D01*
X114220714Y-96385000D01*
X112863571Y-95099285D02*
X114363571Y-94599285D01*
X112863571Y-94099285D01*
D12*
X105350000Y-58995000D02*
X106680000Y-58995000D01*
X105350000Y-60325000D02*
X105350000Y-58995000D01*
X108010000Y-61595000D02*
X105350000Y-61595000D01*
X108010000Y-79435000D02*
X108010000Y-61595000D01*
X105350000Y-79435000D02*
X108010000Y-79435000D01*
X105350000Y-61595000D02*
X105350000Y-79435000D01*
X117850000Y-61595000D02*
X117850000Y-79435000D01*
X117850000Y-79435000D02*
X120510000Y-79435000D01*
X120510000Y-79435000D02*
X120510000Y-61595000D01*
X120510000Y-61595000D02*
X117850000Y-61595000D01*
X117850000Y-60325000D02*
X117850000Y-58995000D01*
X117850000Y-58995000D02*
X119180000Y-58995000D01*
X116205000Y-45840000D02*
X116205000Y-48380000D01*
X113665000Y-45840000D02*
X113665000Y-48380000D01*
X111125000Y-45840000D02*
X111125000Y-48380000D01*
X118785000Y-29950000D02*
X118785000Y-45840000D01*
X108545000Y-29950000D02*
X108545000Y-45840000D01*
X108545000Y-29950000D02*
X118785000Y-29950000D01*
X108545000Y-45840000D02*
X118785000Y-45840000D01*
X106105000Y-51375000D02*
X106105000Y-52705000D01*
X104775000Y-51375000D02*
X106105000Y-51375000D01*
X103505000Y-51375000D02*
X103505000Y-54035000D01*
X103505000Y-54035000D02*
X100905000Y-54035000D01*
X103505000Y-51375000D02*
X100905000Y-51375000D01*
X100905000Y-51375000D02*
X100905000Y-54035000D01*
X100905000Y-48320000D02*
X100905000Y-46990000D01*
X102235000Y-48320000D02*
X100905000Y-48320000D01*
X103505000Y-48320000D02*
X103505000Y-45660000D01*
X103505000Y-45660000D02*
X106105000Y-45660000D01*
X103505000Y-48320000D02*
X106105000Y-48320000D01*
X106105000Y-48320000D02*
X106105000Y-45660000D01*
X102175000Y-89250000D02*
X102175000Y-87920000D01*
X102175000Y-87920000D02*
X103505000Y-87920000D01*
X102175000Y-90520000D02*
X104775000Y-90520000D01*
X104775000Y-90520000D02*
X104775000Y-87920000D01*
X104775000Y-87920000D02*
X114995000Y-87920000D01*
X114995000Y-93120000D02*
X114995000Y-87920000D01*
X102175000Y-93120000D02*
X114995000Y-93120000D01*
X102175000Y-93120000D02*
X102175000Y-90520000D01*
X120075000Y-96580000D02*
X118745000Y-96580000D01*
X120075000Y-95250000D02*
X120075000Y-96580000D01*
X120075000Y-93980000D02*
X117415000Y-93980000D01*
X117415000Y-93980000D02*
X117415000Y-91380000D01*
X120075000Y-93980000D02*
X120075000Y-91380000D01*
X120075000Y-91380000D02*
X117415000Y-91380000D01*
X123885000Y-96580000D02*
X122555000Y-96580000D01*
X123885000Y-95250000D02*
X123885000Y-96580000D01*
X123885000Y-93980000D02*
X121225000Y-93980000D01*
X121225000Y-93980000D02*
X121225000Y-91380000D01*
X123885000Y-93980000D02*
X123885000Y-91380000D01*
X123885000Y-91380000D02*
X121225000Y-91380000D01*
X100330000Y-73720000D02*
X99000000Y-73720000D01*
X99000000Y-73720000D02*
X99000000Y-72390000D01*
X99000000Y-71120000D02*
X99000000Y-68520000D01*
X101660000Y-68520000D02*
X99000000Y-68520000D01*
X101660000Y-71120000D02*
X101660000Y-68520000D01*
X101660000Y-71120000D02*
X99000000Y-71120000D01*
X100330000Y-59630000D02*
X101660000Y-59630000D01*
X101660000Y-59630000D02*
X101660000Y-60960000D01*
X101660000Y-62230000D02*
X101660000Y-64830000D01*
X99000000Y-64830000D02*
X101660000Y-64830000D01*
X99000000Y-62230000D02*
X99000000Y-64830000D01*
X99000000Y-62230000D02*
X101660000Y-62230000D01*
X104485000Y-84265000D02*
X104485000Y-84421000D01*
X104485000Y-81949000D02*
X104485000Y-82105000D01*
X107086130Y-84264837D02*
G75*
G02X105004039Y-84265000I-1041130J1079837D01*
G01*
X107086130Y-82105163D02*
G75*
G03X105004039Y-82105000I-1041130J-1079837D01*
G01*
X107717335Y-84263608D02*
G75*
G02X104485000Y-84420516I-1672335J1078608D01*
G01*
X107717335Y-82106392D02*
G75*
G03X104485000Y-81949484I-1672335J-1078608D01*
G01*
X119730225Y-42725000D02*
X119730225Y-43225000D01*
X119480225Y-42975000D02*
X119980225Y-42975000D01*
X124886000Y-44166000D02*
X124886000Y-44734000D01*
X124846000Y-43932000D02*
X124846000Y-44968000D01*
X124806000Y-43773000D02*
X124806000Y-45127000D01*
X124766000Y-43645000D02*
X124766000Y-45255000D01*
X124726000Y-43535000D02*
X124726000Y-45365000D01*
X124686000Y-43439000D02*
X124686000Y-45461000D01*
X124646000Y-43352000D02*
X124646000Y-45548000D01*
X124606000Y-43272000D02*
X124606000Y-45628000D01*
X124566000Y-43199000D02*
X124566000Y-45701000D01*
X124526000Y-43131000D02*
X124526000Y-45769000D01*
X124486000Y-43067000D02*
X124486000Y-45833000D01*
X124446000Y-43007000D02*
X124446000Y-45893000D01*
X124406000Y-42950000D02*
X124406000Y-45950000D01*
X124366000Y-42896000D02*
X124366000Y-46004000D01*
X124326000Y-42845000D02*
X124326000Y-46055000D01*
X124286000Y-45490000D02*
X124286000Y-46103000D01*
X124286000Y-42797000D02*
X124286000Y-43410000D01*
X124246000Y-45490000D02*
X124246000Y-46149000D01*
X124246000Y-42751000D02*
X124246000Y-43410000D01*
X124206000Y-45490000D02*
X124206000Y-46193000D01*
X124206000Y-42707000D02*
X124206000Y-43410000D01*
X124166000Y-45490000D02*
X124166000Y-46235000D01*
X124166000Y-42665000D02*
X124166000Y-43410000D01*
X124126000Y-45490000D02*
X124126000Y-46276000D01*
X124126000Y-42624000D02*
X124126000Y-43410000D01*
X124086000Y-45490000D02*
X124086000Y-46314000D01*
X124086000Y-42586000D02*
X124086000Y-43410000D01*
X124046000Y-45490000D02*
X124046000Y-46351000D01*
X124046000Y-42549000D02*
X124046000Y-43410000D01*
X124006000Y-45490000D02*
X124006000Y-46387000D01*
X124006000Y-42513000D02*
X124006000Y-43410000D01*
X123966000Y-45490000D02*
X123966000Y-46421000D01*
X123966000Y-42479000D02*
X123966000Y-43410000D01*
X123926000Y-45490000D02*
X123926000Y-46454000D01*
X123926000Y-42446000D02*
X123926000Y-43410000D01*
X123886000Y-45490000D02*
X123886000Y-46485000D01*
X123886000Y-42415000D02*
X123886000Y-43410000D01*
X123846000Y-45490000D02*
X123846000Y-46515000D01*
X123846000Y-42385000D02*
X123846000Y-43410000D01*
X123806000Y-45490000D02*
X123806000Y-46545000D01*
X123806000Y-42355000D02*
X123806000Y-43410000D01*
X123766000Y-45490000D02*
X123766000Y-46572000D01*
X123766000Y-42328000D02*
X123766000Y-43410000D01*
X123726000Y-45490000D02*
X123726000Y-46599000D01*
X123726000Y-42301000D02*
X123726000Y-43410000D01*
X123686000Y-45490000D02*
X123686000Y-46625000D01*
X123686000Y-42275000D02*
X123686000Y-43410000D01*
X123646000Y-45490000D02*
X123646000Y-46650000D01*
X123646000Y-42250000D02*
X123646000Y-43410000D01*
X123606000Y-45490000D02*
X123606000Y-46674000D01*
X123606000Y-42226000D02*
X123606000Y-43410000D01*
X123566000Y-45490000D02*
X123566000Y-46697000D01*
X123566000Y-42203000D02*
X123566000Y-43410000D01*
X123526000Y-45490000D02*
X123526000Y-46718000D01*
X123526000Y-42182000D02*
X123526000Y-43410000D01*
X123486000Y-45490000D02*
X123486000Y-46740000D01*
X123486000Y-42160000D02*
X123486000Y-43410000D01*
X123446000Y-45490000D02*
X123446000Y-46760000D01*
X123446000Y-42140000D02*
X123446000Y-43410000D01*
X123406000Y-45490000D02*
X123406000Y-46779000D01*
X123406000Y-42121000D02*
X123406000Y-43410000D01*
X123366000Y-45490000D02*
X123366000Y-46798000D01*
X123366000Y-42102000D02*
X123366000Y-43410000D01*
X123326000Y-45490000D02*
X123326000Y-46815000D01*
X123326000Y-42085000D02*
X123326000Y-43410000D01*
X123286000Y-45490000D02*
X123286000Y-46832000D01*
X123286000Y-42068000D02*
X123286000Y-43410000D01*
X123246000Y-45490000D02*
X123246000Y-46848000D01*
X123246000Y-42052000D02*
X123246000Y-43410000D01*
X123206000Y-45490000D02*
X123206000Y-46864000D01*
X123206000Y-42036000D02*
X123206000Y-43410000D01*
X123166000Y-45490000D02*
X123166000Y-46878000D01*
X123166000Y-42022000D02*
X123166000Y-43410000D01*
X123126000Y-45490000D02*
X123126000Y-46892000D01*
X123126000Y-42008000D02*
X123126000Y-43410000D01*
X123086000Y-45490000D02*
X123086000Y-46905000D01*
X123086000Y-41995000D02*
X123086000Y-43410000D01*
X123046000Y-45490000D02*
X123046000Y-46918000D01*
X123046000Y-41982000D02*
X123046000Y-43410000D01*
X123006000Y-45490000D02*
X123006000Y-46930000D01*
X123006000Y-41970000D02*
X123006000Y-43410000D01*
X122965000Y-45490000D02*
X122965000Y-46941000D01*
X122965000Y-41959000D02*
X122965000Y-43410000D01*
X122925000Y-45490000D02*
X122925000Y-46951000D01*
X122925000Y-41949000D02*
X122925000Y-43410000D01*
X122885000Y-45490000D02*
X122885000Y-46961000D01*
X122885000Y-41939000D02*
X122885000Y-43410000D01*
X122845000Y-45490000D02*
X122845000Y-46970000D01*
X122845000Y-41930000D02*
X122845000Y-43410000D01*
X122805000Y-45490000D02*
X122805000Y-46978000D01*
X122805000Y-41922000D02*
X122805000Y-43410000D01*
X122765000Y-45490000D02*
X122765000Y-46986000D01*
X122765000Y-41914000D02*
X122765000Y-43410000D01*
X122725000Y-45490000D02*
X122725000Y-46993000D01*
X122725000Y-41907000D02*
X122725000Y-43410000D01*
X122685000Y-45490000D02*
X122685000Y-47000000D01*
X122685000Y-41900000D02*
X122685000Y-43410000D01*
X122645000Y-45490000D02*
X122645000Y-47006000D01*
X122645000Y-41894000D02*
X122645000Y-43410000D01*
X122605000Y-45490000D02*
X122605000Y-47011000D01*
X122605000Y-41889000D02*
X122605000Y-43410000D01*
X122565000Y-45490000D02*
X122565000Y-47015000D01*
X122565000Y-41885000D02*
X122565000Y-43410000D01*
X122525000Y-45490000D02*
X122525000Y-47019000D01*
X122525000Y-41881000D02*
X122525000Y-43410000D01*
X122485000Y-45490000D02*
X122485000Y-47023000D01*
X122485000Y-41877000D02*
X122485000Y-43410000D01*
X122445000Y-45490000D02*
X122445000Y-47026000D01*
X122445000Y-41874000D02*
X122445000Y-43410000D01*
X122405000Y-45490000D02*
X122405000Y-47028000D01*
X122405000Y-41872000D02*
X122405000Y-43410000D01*
X122365000Y-45490000D02*
X122365000Y-47029000D01*
X122365000Y-41871000D02*
X122365000Y-43410000D01*
X122325000Y-41870000D02*
X122325000Y-43410000D01*
X122325000Y-45490000D02*
X122325000Y-47030000D01*
X122285000Y-41870000D02*
X122285000Y-43410000D01*
X122285000Y-45490000D02*
X122285000Y-47030000D01*
X124905000Y-44450000D02*
G75*
G03X124905000Y-44450000I-2620000J0D01*
G01*
X105505000Y-36990000D02*
X105505000Y-37615000D01*
X105505000Y-34775000D02*
X105505000Y-35400000D01*
X101465000Y-36990000D02*
X101465000Y-37615000D01*
X101465000Y-34775000D02*
X101465000Y-35400000D01*
X101465000Y-37615000D02*
X105505000Y-37615000D01*
X101465000Y-34775000D02*
X105505000Y-34775000D01*
X115665000Y-77630000D02*
X115665000Y-78255000D01*
X115665000Y-75415000D02*
X115665000Y-76040000D01*
X111625000Y-77630000D02*
X111625000Y-78255000D01*
X111625000Y-75415000D02*
X111625000Y-76040000D01*
X111625000Y-78255000D02*
X115665000Y-78255000D01*
X111625000Y-75415000D02*
X115665000Y-75415000D01*
X110395000Y-53180000D02*
X110395000Y-52555000D01*
X110395000Y-55395000D02*
X110395000Y-54770000D01*
X114435000Y-53180000D02*
X114435000Y-52555000D01*
X114435000Y-55395000D02*
X114435000Y-54770000D01*
X114435000Y-52555000D02*
X110395000Y-52555000D01*
X114435000Y-55395000D02*
X110395000Y-55395000D01*
X100680225Y-39550000D02*
X100680225Y-40050000D01*
X100430225Y-39800000D02*
X100930225Y-39800000D01*
X105836000Y-40991000D02*
X105836000Y-41559000D01*
X105796000Y-40757000D02*
X105796000Y-41793000D01*
X105756000Y-40598000D02*
X105756000Y-41952000D01*
X105716000Y-40470000D02*
X105716000Y-42080000D01*
X105676000Y-40360000D02*
X105676000Y-42190000D01*
X105636000Y-40264000D02*
X105636000Y-42286000D01*
X105596000Y-40177000D02*
X105596000Y-42373000D01*
X105556000Y-40097000D02*
X105556000Y-42453000D01*
X105516000Y-40024000D02*
X105516000Y-42526000D01*
X105476000Y-39956000D02*
X105476000Y-42594000D01*
X105436000Y-39892000D02*
X105436000Y-42658000D01*
X105396000Y-39832000D02*
X105396000Y-42718000D01*
X105356000Y-39775000D02*
X105356000Y-42775000D01*
X105316000Y-39721000D02*
X105316000Y-42829000D01*
X105276000Y-39670000D02*
X105276000Y-42880000D01*
X105236000Y-42315000D02*
X105236000Y-42928000D01*
X105236000Y-39622000D02*
X105236000Y-40235000D01*
X105196000Y-42315000D02*
X105196000Y-42974000D01*
X105196000Y-39576000D02*
X105196000Y-40235000D01*
X105156000Y-42315000D02*
X105156000Y-43018000D01*
X105156000Y-39532000D02*
X105156000Y-40235000D01*
X105116000Y-42315000D02*
X105116000Y-43060000D01*
X105116000Y-39490000D02*
X105116000Y-40235000D01*
X105076000Y-42315000D02*
X105076000Y-43101000D01*
X105076000Y-39449000D02*
X105076000Y-40235000D01*
X105036000Y-42315000D02*
X105036000Y-43139000D01*
X105036000Y-39411000D02*
X105036000Y-40235000D01*
X104996000Y-42315000D02*
X104996000Y-43176000D01*
X104996000Y-39374000D02*
X104996000Y-40235000D01*
X104956000Y-42315000D02*
X104956000Y-43212000D01*
X104956000Y-39338000D02*
X104956000Y-40235000D01*
X104916000Y-42315000D02*
X104916000Y-43246000D01*
X104916000Y-39304000D02*
X104916000Y-40235000D01*
X104876000Y-42315000D02*
X104876000Y-43279000D01*
X104876000Y-39271000D02*
X104876000Y-40235000D01*
X104836000Y-42315000D02*
X104836000Y-43310000D01*
X104836000Y-39240000D02*
X104836000Y-40235000D01*
X104796000Y-42315000D02*
X104796000Y-43340000D01*
X104796000Y-39210000D02*
X104796000Y-40235000D01*
X104756000Y-42315000D02*
X104756000Y-43370000D01*
X104756000Y-39180000D02*
X104756000Y-40235000D01*
X104716000Y-42315000D02*
X104716000Y-43397000D01*
X104716000Y-39153000D02*
X104716000Y-40235000D01*
X104676000Y-42315000D02*
X104676000Y-43424000D01*
X104676000Y-39126000D02*
X104676000Y-40235000D01*
X104636000Y-42315000D02*
X104636000Y-43450000D01*
X104636000Y-39100000D02*
X104636000Y-40235000D01*
X104596000Y-42315000D02*
X104596000Y-43475000D01*
X104596000Y-39075000D02*
X104596000Y-40235000D01*
X104556000Y-42315000D02*
X104556000Y-43499000D01*
X104556000Y-39051000D02*
X104556000Y-40235000D01*
X104516000Y-42315000D02*
X104516000Y-43522000D01*
X104516000Y-39028000D02*
X104516000Y-40235000D01*
X104476000Y-42315000D02*
X104476000Y-43543000D01*
X104476000Y-39007000D02*
X104476000Y-40235000D01*
X104436000Y-42315000D02*
X104436000Y-43565000D01*
X104436000Y-38985000D02*
X104436000Y-40235000D01*
X104396000Y-42315000D02*
X104396000Y-43585000D01*
X104396000Y-38965000D02*
X104396000Y-40235000D01*
X104356000Y-42315000D02*
X104356000Y-43604000D01*
X104356000Y-38946000D02*
X104356000Y-40235000D01*
X104316000Y-42315000D02*
X104316000Y-43623000D01*
X104316000Y-38927000D02*
X104316000Y-40235000D01*
X104276000Y-42315000D02*
X104276000Y-43640000D01*
X104276000Y-38910000D02*
X104276000Y-40235000D01*
X104236000Y-42315000D02*
X104236000Y-43657000D01*
X104236000Y-38893000D02*
X104236000Y-40235000D01*
X104196000Y-42315000D02*
X104196000Y-43673000D01*
X104196000Y-38877000D02*
X104196000Y-40235000D01*
X104156000Y-42315000D02*
X104156000Y-43689000D01*
X104156000Y-38861000D02*
X104156000Y-40235000D01*
X104116000Y-42315000D02*
X104116000Y-43703000D01*
X104116000Y-38847000D02*
X104116000Y-40235000D01*
X104076000Y-42315000D02*
X104076000Y-43717000D01*
X104076000Y-38833000D02*
X104076000Y-40235000D01*
X104036000Y-42315000D02*
X104036000Y-43730000D01*
X104036000Y-38820000D02*
X104036000Y-40235000D01*
X103996000Y-42315000D02*
X103996000Y-43743000D01*
X103996000Y-38807000D02*
X103996000Y-40235000D01*
X103956000Y-42315000D02*
X103956000Y-43755000D01*
X103956000Y-38795000D02*
X103956000Y-40235000D01*
X103915000Y-42315000D02*
X103915000Y-43766000D01*
X103915000Y-38784000D02*
X103915000Y-40235000D01*
X103875000Y-42315000D02*
X103875000Y-43776000D01*
X103875000Y-38774000D02*
X103875000Y-40235000D01*
X103835000Y-42315000D02*
X103835000Y-43786000D01*
X103835000Y-38764000D02*
X103835000Y-40235000D01*
X103795000Y-42315000D02*
X103795000Y-43795000D01*
X103795000Y-38755000D02*
X103795000Y-40235000D01*
X103755000Y-42315000D02*
X103755000Y-43803000D01*
X103755000Y-38747000D02*
X103755000Y-40235000D01*
X103715000Y-42315000D02*
X103715000Y-43811000D01*
X103715000Y-38739000D02*
X103715000Y-40235000D01*
X103675000Y-42315000D02*
X103675000Y-43818000D01*
X103675000Y-38732000D02*
X103675000Y-40235000D01*
X103635000Y-42315000D02*
X103635000Y-43825000D01*
X103635000Y-38725000D02*
X103635000Y-40235000D01*
X103595000Y-42315000D02*
X103595000Y-43831000D01*
X103595000Y-38719000D02*
X103595000Y-40235000D01*
X103555000Y-42315000D02*
X103555000Y-43836000D01*
X103555000Y-38714000D02*
X103555000Y-40235000D01*
X103515000Y-42315000D02*
X103515000Y-43840000D01*
X103515000Y-38710000D02*
X103515000Y-40235000D01*
X103475000Y-42315000D02*
X103475000Y-43844000D01*
X103475000Y-38706000D02*
X103475000Y-40235000D01*
X103435000Y-42315000D02*
X103435000Y-43848000D01*
X103435000Y-38702000D02*
X103435000Y-40235000D01*
X103395000Y-42315000D02*
X103395000Y-43851000D01*
X103395000Y-38699000D02*
X103395000Y-40235000D01*
X103355000Y-42315000D02*
X103355000Y-43853000D01*
X103355000Y-38697000D02*
X103355000Y-40235000D01*
X103315000Y-42315000D02*
X103315000Y-43854000D01*
X103315000Y-38696000D02*
X103315000Y-40235000D01*
X103275000Y-38695000D02*
X103275000Y-40235000D01*
X103275000Y-42315000D02*
X103275000Y-43855000D01*
X103235000Y-38695000D02*
X103235000Y-40235000D01*
X103235000Y-42315000D02*
X103235000Y-43855000D01*
X105855000Y-41275000D02*
G75*
G03X105855000Y-41275000I-2620000J0D01*
G01*
X127000000Y-56920000D02*
X127000000Y-57690000D01*
X127000000Y-65000000D02*
X127000000Y-64230000D01*
X125630000Y-57690000D02*
X125630000Y-64230000D01*
X128370000Y-57690000D02*
X125630000Y-57690000D01*
X128370000Y-64230000D02*
X128370000Y-57690000D01*
X125630000Y-64230000D02*
X128370000Y-64230000D01*
X127000000Y-77700000D02*
X127000000Y-76930000D01*
X127000000Y-69620000D02*
X127000000Y-70390000D01*
X128370000Y-76930000D02*
X128370000Y-70390000D01*
X125630000Y-76930000D02*
X128370000Y-76930000D01*
X125630000Y-70390000D02*
X125630000Y-76930000D01*
X128370000Y-70390000D02*
X125630000Y-70390000D01*
X127635000Y-44220000D02*
X127635000Y-44990000D01*
X127635000Y-52300000D02*
X127635000Y-51530000D01*
X126265000Y-44990000D02*
X126265000Y-51530000D01*
X129005000Y-44990000D02*
X126265000Y-44990000D01*
X129005000Y-51530000D02*
X129005000Y-44990000D01*
X126265000Y-51530000D02*
X129005000Y-51530000D01*
X114300000Y-61365000D02*
X114300000Y-62135000D01*
X114300000Y-69445000D02*
X114300000Y-68675000D01*
X112930000Y-62135000D02*
X112930000Y-68675000D01*
X115670000Y-62135000D02*
X112930000Y-62135000D01*
X115670000Y-68675000D02*
X115670000Y-62135000D01*
X112930000Y-68675000D02*
X115670000Y-68675000D01*
X111990000Y-27940000D02*
X111220000Y-27940000D01*
X103910000Y-27940000D02*
X104680000Y-27940000D01*
X111220000Y-26570000D02*
X104680000Y-26570000D01*
X111220000Y-29310000D02*
X111220000Y-26570000D01*
X104680000Y-29310000D02*
X111220000Y-29310000D01*
X104680000Y-26570000D02*
X104680000Y-29310000D01*
X99695000Y-77875000D02*
X99695000Y-78645000D01*
X99695000Y-85955000D02*
X99695000Y-85185000D01*
X98325000Y-78645000D02*
X98325000Y-85185000D01*
X101065000Y-78645000D02*
X98325000Y-78645000D01*
X101065000Y-85185000D02*
X101065000Y-78645000D01*
X98325000Y-85185000D02*
X101065000Y-85185000D01*
X112814184Y-23982795D02*
G75*
G02X112290000Y-24710000I-2324184J1122795D01*
G01*
X112846400Y-21761193D02*
G75*
G03X110490000Y-20260000I-2356400J-1098807D01*
G01*
X108133600Y-21761193D02*
G75*
G02X110490000Y-20260000I2356400J-1098807D01*
G01*
X108165816Y-23982795D02*
G75*
G03X108690000Y-24710000I2324184J1122795D01*
G01*
X108690000Y-24710000D02*
X112290000Y-24710000D01*
X127230000Y-22860000D02*
X126460000Y-22860000D01*
X119150000Y-22860000D02*
X119920000Y-22860000D01*
X126460000Y-21490000D02*
X119920000Y-21490000D01*
X126460000Y-24230000D02*
X126460000Y-21490000D01*
X119920000Y-24230000D02*
X126460000Y-24230000D01*
X119920000Y-21490000D02*
X119920000Y-24230000D01*
X119920000Y-26570000D02*
X119920000Y-29310000D01*
X119920000Y-29310000D02*
X126460000Y-29310000D01*
X126460000Y-29310000D02*
X126460000Y-26570000D01*
X126460000Y-26570000D02*
X119920000Y-26570000D01*
X119150000Y-27940000D02*
X119920000Y-27940000D01*
X127230000Y-27940000D02*
X126460000Y-27940000D01*
X98770000Y-23940000D02*
X98770000Y-24096000D01*
X98770000Y-21624000D02*
X98770000Y-21780000D01*
X101371130Y-23939837D02*
G75*
G02X99289039Y-23940000I-1041130J1079837D01*
G01*
X101371130Y-21780163D02*
G75*
G03X99289039Y-21780000I-1041130J-1079837D01*
G01*
X102002335Y-23938608D02*
G75*
G02X98770000Y-24095516I-1672335J1078608D01*
G01*
X102002335Y-21781392D02*
G75*
G03X98770000Y-21624484I-1672335J-1078608D01*
G01*
X117237383Y-84297264D02*
G75*
G02X116845000Y-84885000I-2302383J1112264D01*
G01*
X117291400Y-82086193D02*
G75*
G03X114935000Y-80585000I-2356400J-1098807D01*
G01*
X112578600Y-82086193D02*
G75*
G02X114935000Y-80585000I2356400J-1098807D01*
G01*
X112612369Y-84307045D02*
G75*
G03X112995000Y-84885000I2322631J1122045D01*
G01*
X112995000Y-84885000D02*
X116845000Y-84885000D01*
X122952383Y-55087264D02*
G75*
G02X122560000Y-55675000I-2302383J1112264D01*
G01*
X123006400Y-52876193D02*
G75*
G03X120650000Y-51375000I-2356400J-1098807D01*
G01*
X118293600Y-52876193D02*
G75*
G02X120650000Y-51375000I2356400J-1098807D01*
G01*
X118327369Y-55097045D02*
G75*
G03X118710000Y-55675000I2322631J1122045D01*
G01*
X118710000Y-55675000D02*
X122560000Y-55675000D01*
X118347617Y-86517736D02*
G75*
G02X118740000Y-85930000I2302383J-1112264D01*
G01*
X118293600Y-88728807D02*
G75*
G03X120650000Y-90230000I2356400J1098807D01*
G01*
X123006400Y-88728807D02*
G75*
G02X120650000Y-90230000I-2356400J1098807D01*
G01*
X122972631Y-86507955D02*
G75*
G03X122590000Y-85930000I-2322631J-1122045D01*
G01*
X122590000Y-85930000D02*
X118740000Y-85930000D01*
D13*
X113346666Y-68277380D02*
X113346666Y-68991666D01*
X113299047Y-69134523D01*
X113203809Y-69229761D01*
X113060952Y-69277380D01*
X112965714Y-69277380D01*
X114299047Y-68277380D02*
X113822857Y-68277380D01*
X113775238Y-68753571D01*
X113822857Y-68705952D01*
X113918095Y-68658333D01*
X114156190Y-68658333D01*
X114251428Y-68705952D01*
X114299047Y-68753571D01*
X114346666Y-68848809D01*
X114346666Y-69086904D01*
X114299047Y-69182142D01*
X114251428Y-69229761D01*
X114156190Y-69277380D01*
X113918095Y-69277380D01*
X113822857Y-69229761D01*
X113775238Y-69182142D01*
X112268095Y-37552380D02*
X112268095Y-38361904D01*
X112315714Y-38457142D01*
X112363333Y-38504761D01*
X112458571Y-38552380D01*
X112649047Y-38552380D01*
X112744285Y-38504761D01*
X112791904Y-38457142D01*
X112839523Y-38361904D01*
X112839523Y-37552380D01*
X113839523Y-38552380D02*
X113268095Y-38552380D01*
X113553809Y-38552380D02*
X113553809Y-37552380D01*
X113458571Y-37695238D01*
X113363333Y-37790476D01*
X113268095Y-37838095D01*
X112069761Y-42362380D02*
X111593571Y-42362380D01*
X111593571Y-41362380D01*
X112307857Y-41362380D02*
X112974523Y-41362380D01*
X112545952Y-42362380D01*
X113498333Y-41790952D02*
X113403095Y-41743333D01*
X113355476Y-41695714D01*
X113307857Y-41600476D01*
X113307857Y-41552857D01*
X113355476Y-41457619D01*
X113403095Y-41410000D01*
X113498333Y-41362380D01*
X113688809Y-41362380D01*
X113784047Y-41410000D01*
X113831666Y-41457619D01*
X113879285Y-41552857D01*
X113879285Y-41600476D01*
X113831666Y-41695714D01*
X113784047Y-41743333D01*
X113688809Y-41790952D01*
X113498333Y-41790952D01*
X113403095Y-41838571D01*
X113355476Y-41886190D01*
X113307857Y-41981428D01*
X113307857Y-42171904D01*
X113355476Y-42267142D01*
X113403095Y-42314761D01*
X113498333Y-42362380D01*
X113688809Y-42362380D01*
X113784047Y-42314761D01*
X113831666Y-42267142D01*
X113879285Y-42171904D01*
X113879285Y-41981428D01*
X113831666Y-41886190D01*
X113784047Y-41838571D01*
X113688809Y-41790952D01*
X114498333Y-41362380D02*
X114593571Y-41362380D01*
X114688809Y-41410000D01*
X114736428Y-41457619D01*
X114784047Y-41552857D01*
X114831666Y-41743333D01*
X114831666Y-41981428D01*
X114784047Y-42171904D01*
X114736428Y-42267142D01*
X114688809Y-42314761D01*
X114593571Y-42362380D01*
X114498333Y-42362380D01*
X114403095Y-42314761D01*
X114355476Y-42267142D01*
X114307857Y-42171904D01*
X114260238Y-41981428D01*
X114260238Y-41743333D01*
X114307857Y-41552857D01*
X114355476Y-41457619D01*
X114403095Y-41410000D01*
X114498333Y-41362380D01*
X115736428Y-41362380D02*
X115260238Y-41362380D01*
X115212619Y-41838571D01*
X115260238Y-41790952D01*
X115355476Y-41743333D01*
X115593571Y-41743333D01*
X115688809Y-41790952D01*
X115736428Y-41838571D01*
X115784047Y-41933809D01*
X115784047Y-42171904D01*
X115736428Y-42267142D01*
X115688809Y-42314761D01*
X115593571Y-42362380D01*
X115355476Y-42362380D01*
X115260238Y-42314761D01*
X115212619Y-42267142D01*
X106557380Y-53038333D02*
X107271666Y-53038333D01*
X107414523Y-53085952D01*
X107509761Y-53181190D01*
X107557380Y-53324047D01*
X107557380Y-53419285D01*
X106890714Y-52133571D02*
X107557380Y-52133571D01*
X106509761Y-52371666D02*
X107224047Y-52609761D01*
X107224047Y-51990714D01*
X99833571Y-53824047D02*
X99881190Y-53681190D01*
X99928809Y-53633571D01*
X100024047Y-53585952D01*
X100166904Y-53585952D01*
X100262142Y-53633571D01*
X100309761Y-53681190D01*
X100357380Y-53776428D01*
X100357380Y-54157380D01*
X99357380Y-54157380D01*
X99357380Y-53824047D01*
X99405000Y-53728809D01*
X99452619Y-53681190D01*
X99547857Y-53633571D01*
X99643095Y-53633571D01*
X99738333Y-53681190D01*
X99785952Y-53728809D01*
X99833571Y-53824047D01*
X99833571Y-54157380D01*
X100071666Y-53205000D02*
X100071666Y-52728809D01*
X100357380Y-53300238D02*
X99357380Y-52966904D01*
X100357380Y-52633571D01*
X99357380Y-52443095D02*
X99357380Y-51871666D01*
X100357380Y-52157380D02*
X99357380Y-52157380D01*
X99357380Y-51681190D02*
X99357380Y-51109761D01*
X100357380Y-51395476D02*
X99357380Y-51395476D01*
X101743095Y-54500000D02*
X101647857Y-54452380D01*
X101505000Y-54452380D01*
X101362142Y-54500000D01*
X101266904Y-54595238D01*
X101219285Y-54690476D01*
X101171666Y-54880952D01*
X101171666Y-55023809D01*
X101219285Y-55214285D01*
X101266904Y-55309523D01*
X101362142Y-55404761D01*
X101505000Y-55452380D01*
X101600238Y-55452380D01*
X101743095Y-55404761D01*
X101790714Y-55357142D01*
X101790714Y-55023809D01*
X101600238Y-55023809D01*
X102219285Y-55452380D02*
X102219285Y-54452380D01*
X102790714Y-55452380D01*
X102790714Y-54452380D01*
X103266904Y-55452380D02*
X103266904Y-54452380D01*
X103505000Y-54452380D01*
X103647857Y-54500000D01*
X103743095Y-54595238D01*
X103790714Y-54690476D01*
X103838333Y-54880952D01*
X103838333Y-55023809D01*
X103790714Y-55214285D01*
X103743095Y-55309523D01*
X103647857Y-55404761D01*
X103505000Y-55452380D01*
X103266904Y-55452380D01*
X105028809Y-55071428D02*
X105790714Y-55071428D01*
X105409761Y-55452380D02*
X105409761Y-54690476D01*
X99357380Y-47323333D02*
X100071666Y-47323333D01*
X100214523Y-47370952D01*
X100309761Y-47466190D01*
X100357380Y-47609047D01*
X100357380Y-47704285D01*
X99357380Y-46942380D02*
X99357380Y-46275714D01*
X100357380Y-46704285D01*
X107509761Y-49490000D02*
X107557380Y-49347142D01*
X107557380Y-49109047D01*
X107509761Y-49013809D01*
X107462142Y-48966190D01*
X107366904Y-48918571D01*
X107271666Y-48918571D01*
X107176428Y-48966190D01*
X107128809Y-49013809D01*
X107081190Y-49109047D01*
X107033571Y-49299523D01*
X106985952Y-49394761D01*
X106938333Y-49442380D01*
X106843095Y-49490000D01*
X106747857Y-49490000D01*
X106652619Y-49442380D01*
X106605000Y-49394761D01*
X106557380Y-49299523D01*
X106557380Y-49061428D01*
X106605000Y-48918571D01*
X106557380Y-48585238D02*
X107557380Y-48347142D01*
X106843095Y-48156666D01*
X107557380Y-47966190D01*
X106557380Y-47728095D01*
X107557380Y-47347142D02*
X106557380Y-47347142D01*
X106557380Y-47013809D02*
X106557380Y-46442380D01*
X107557380Y-46728095D02*
X106557380Y-46728095D01*
X107462142Y-45537619D02*
X107509761Y-45585238D01*
X107557380Y-45728095D01*
X107557380Y-45823333D01*
X107509761Y-45966190D01*
X107414523Y-46061428D01*
X107319285Y-46109047D01*
X107128809Y-46156666D01*
X106985952Y-46156666D01*
X106795476Y-46109047D01*
X106700238Y-46061428D01*
X106605000Y-45966190D01*
X106557380Y-45823333D01*
X106557380Y-45728095D01*
X106605000Y-45585238D01*
X106652619Y-45537619D01*
X107557380Y-45109047D02*
X106557380Y-45109047D01*
X107033571Y-45109047D02*
X107033571Y-44537619D01*
X107557380Y-44537619D02*
X106557380Y-44537619D01*
X101743095Y-49030000D02*
X101647857Y-48982380D01*
X101505000Y-48982380D01*
X101362142Y-49030000D01*
X101266904Y-49125238D01*
X101219285Y-49220476D01*
X101171666Y-49410952D01*
X101171666Y-49553809D01*
X101219285Y-49744285D01*
X101266904Y-49839523D01*
X101362142Y-49934761D01*
X101505000Y-49982380D01*
X101600238Y-49982380D01*
X101743095Y-49934761D01*
X101790714Y-49887142D01*
X101790714Y-49553809D01*
X101600238Y-49553809D01*
X102219285Y-49982380D02*
X102219285Y-48982380D01*
X102790714Y-49982380D01*
X102790714Y-48982380D01*
X103266904Y-49982380D02*
X103266904Y-48982380D01*
X103505000Y-48982380D01*
X103647857Y-49030000D01*
X103743095Y-49125238D01*
X103790714Y-49220476D01*
X103838333Y-49410952D01*
X103838333Y-49553809D01*
X103790714Y-49744285D01*
X103743095Y-49839523D01*
X103647857Y-49934761D01*
X103505000Y-49982380D01*
X103266904Y-49982380D01*
X105028809Y-49601428D02*
X105790714Y-49601428D01*
X105409761Y-49982380D02*
X105409761Y-49220476D01*
X101830952Y-87202380D02*
X101830952Y-86202380D01*
X102211904Y-86202380D01*
X102307142Y-86250000D01*
X102354761Y-86297619D01*
X102402380Y-86392857D01*
X102402380Y-86535714D01*
X102354761Y-86630952D01*
X102307142Y-86678571D01*
X102211904Y-86726190D01*
X101830952Y-86726190D01*
X102973809Y-87202380D02*
X102878571Y-87154761D01*
X102830952Y-87107142D01*
X102783333Y-87011904D01*
X102783333Y-86726190D01*
X102830952Y-86630952D01*
X102878571Y-86583333D01*
X102973809Y-86535714D01*
X103116666Y-86535714D01*
X103211904Y-86583333D01*
X103259523Y-86630952D01*
X103307142Y-86726190D01*
X103307142Y-87011904D01*
X103259523Y-87107142D01*
X103211904Y-87154761D01*
X103116666Y-87202380D01*
X102973809Y-87202380D01*
X103640476Y-86535714D02*
X103830952Y-87202380D01*
X104021428Y-86726190D01*
X104211904Y-87202380D01*
X104402380Y-86535714D01*
X105164285Y-87154761D02*
X105069047Y-87202380D01*
X104878571Y-87202380D01*
X104783333Y-87154761D01*
X104735714Y-87059523D01*
X104735714Y-86678571D01*
X104783333Y-86583333D01*
X104878571Y-86535714D01*
X105069047Y-86535714D01*
X105164285Y-86583333D01*
X105211904Y-86678571D01*
X105211904Y-86773809D01*
X104735714Y-86869047D01*
X105640476Y-87202380D02*
X105640476Y-86535714D01*
X105640476Y-86726190D02*
X105688095Y-86630952D01*
X105735714Y-86583333D01*
X105830952Y-86535714D01*
X105926190Y-86535714D01*
X107592857Y-87107142D02*
X107545238Y-87154761D01*
X107402380Y-87202380D01*
X107307142Y-87202380D01*
X107164285Y-87154761D01*
X107069047Y-87059523D01*
X107021428Y-86964285D01*
X106973809Y-86773809D01*
X106973809Y-86630952D01*
X107021428Y-86440476D01*
X107069047Y-86345238D01*
X107164285Y-86250000D01*
X107307142Y-86202380D01*
X107402380Y-86202380D01*
X107545238Y-86250000D01*
X107592857Y-86297619D01*
X108164285Y-87202380D02*
X108069047Y-87154761D01*
X108021428Y-87107142D01*
X107973809Y-87011904D01*
X107973809Y-86726190D01*
X108021428Y-86630952D01*
X108069047Y-86583333D01*
X108164285Y-86535714D01*
X108307142Y-86535714D01*
X108402380Y-86583333D01*
X108450000Y-86630952D01*
X108497619Y-86726190D01*
X108497619Y-87011904D01*
X108450000Y-87107142D01*
X108402380Y-87154761D01*
X108307142Y-87202380D01*
X108164285Y-87202380D01*
X108926190Y-86535714D02*
X108926190Y-87202380D01*
X108926190Y-86630952D02*
X108973809Y-86583333D01*
X109069047Y-86535714D01*
X109211904Y-86535714D01*
X109307142Y-86583333D01*
X109354761Y-86678571D01*
X109354761Y-87202380D01*
X109830952Y-86535714D02*
X109830952Y-87202380D01*
X109830952Y-86630952D02*
X109878571Y-86583333D01*
X109973809Y-86535714D01*
X110116666Y-86535714D01*
X110211904Y-86583333D01*
X110259523Y-86678571D01*
X110259523Y-87202380D01*
X111116666Y-87154761D02*
X111021428Y-87202380D01*
X110830952Y-87202380D01*
X110735714Y-87154761D01*
X110688095Y-87059523D01*
X110688095Y-86678571D01*
X110735714Y-86583333D01*
X110830952Y-86535714D01*
X111021428Y-86535714D01*
X111116666Y-86583333D01*
X111164285Y-86678571D01*
X111164285Y-86773809D01*
X110688095Y-86869047D01*
X112021428Y-87154761D02*
X111926190Y-87202380D01*
X111735714Y-87202380D01*
X111640476Y-87154761D01*
X111592857Y-87107142D01*
X111545238Y-87011904D01*
X111545238Y-86726190D01*
X111592857Y-86630952D01*
X111640476Y-86583333D01*
X111735714Y-86535714D01*
X111926190Y-86535714D01*
X112021428Y-86583333D01*
X112307142Y-86535714D02*
X112688095Y-86535714D01*
X112450000Y-86202380D02*
X112450000Y-87059523D01*
X112497619Y-87154761D01*
X112592857Y-87202380D01*
X112688095Y-87202380D01*
X113164285Y-87202380D02*
X113069047Y-87154761D01*
X113021428Y-87107142D01*
X112973809Y-87011904D01*
X112973809Y-86726190D01*
X113021428Y-86630952D01*
X113069047Y-86583333D01*
X113164285Y-86535714D01*
X113307142Y-86535714D01*
X113402380Y-86583333D01*
X113450000Y-86630952D01*
X113497619Y-86726190D01*
X113497619Y-87011904D01*
X113450000Y-87107142D01*
X113402380Y-87154761D01*
X113307142Y-87202380D01*
X113164285Y-87202380D01*
X113926190Y-87202380D02*
X113926190Y-86535714D01*
X113926190Y-86726190D02*
X113973809Y-86630952D01*
X114021428Y-86583333D01*
X114116666Y-86535714D01*
X114211904Y-86535714D01*
X116952380Y-96908571D02*
X115952380Y-96908571D01*
X116666666Y-96575238D01*
X115952380Y-96241904D01*
X116952380Y-96241904D01*
X116666666Y-95813333D02*
X116666666Y-95337142D01*
X116952380Y-95908571D02*
X115952380Y-95575238D01*
X116952380Y-95241904D01*
X116857142Y-93575238D02*
X116904761Y-93622857D01*
X116952380Y-93765714D01*
X116952380Y-93860952D01*
X116904761Y-94003809D01*
X116809523Y-94099047D01*
X116714285Y-94146666D01*
X116523809Y-94194285D01*
X116380952Y-94194285D01*
X116190476Y-94146666D01*
X116095238Y-94099047D01*
X116000000Y-94003809D01*
X115952380Y-93860952D01*
X115952380Y-93765714D01*
X116000000Y-93622857D01*
X116047619Y-93575238D01*
X115952380Y-93289523D02*
X115952380Y-92718095D01*
X116952380Y-93003809D02*
X115952380Y-93003809D01*
X116952380Y-91813333D02*
X116476190Y-92146666D01*
X116952380Y-92384761D02*
X115952380Y-92384761D01*
X115952380Y-92003809D01*
X116000000Y-91908571D01*
X116047619Y-91860952D01*
X116142857Y-91813333D01*
X116285714Y-91813333D01*
X116380952Y-91860952D01*
X116428571Y-91908571D01*
X116476190Y-92003809D01*
X116476190Y-92384761D01*
X116952380Y-90908571D02*
X116952380Y-91384761D01*
X115952380Y-91384761D01*
X125452380Y-96980000D02*
X124452380Y-96980000D01*
X125166666Y-96646666D01*
X124452380Y-96313333D01*
X125452380Y-96313333D01*
X124928571Y-95503809D02*
X124976190Y-95360952D01*
X125023809Y-95313333D01*
X125119047Y-95265714D01*
X125261904Y-95265714D01*
X125357142Y-95313333D01*
X125404761Y-95360952D01*
X125452380Y-95456190D01*
X125452380Y-95837142D01*
X124452380Y-95837142D01*
X124452380Y-95503809D01*
X124500000Y-95408571D01*
X124547619Y-95360952D01*
X124642857Y-95313333D01*
X124738095Y-95313333D01*
X124833333Y-95360952D01*
X124880952Y-95408571D01*
X124928571Y-95503809D01*
X124928571Y-95837142D01*
X125357142Y-93503809D02*
X125404761Y-93551428D01*
X125452380Y-93694285D01*
X125452380Y-93789523D01*
X125404761Y-93932380D01*
X125309523Y-94027619D01*
X125214285Y-94075238D01*
X125023809Y-94122857D01*
X124880952Y-94122857D01*
X124690476Y-94075238D01*
X124595238Y-94027619D01*
X124500000Y-93932380D01*
X124452380Y-93789523D01*
X124452380Y-93694285D01*
X124500000Y-93551428D01*
X124547619Y-93503809D01*
X124452380Y-93218095D02*
X124452380Y-92646666D01*
X125452380Y-92932380D02*
X124452380Y-92932380D01*
X125452380Y-91741904D02*
X124976190Y-92075238D01*
X125452380Y-92313333D02*
X124452380Y-92313333D01*
X124452380Y-91932380D01*
X124500000Y-91837142D01*
X124547619Y-91789523D01*
X124642857Y-91741904D01*
X124785714Y-91741904D01*
X124880952Y-91789523D01*
X124928571Y-91837142D01*
X124976190Y-91932380D01*
X124976190Y-92313333D01*
X125452380Y-90837142D02*
X125452380Y-91313333D01*
X124452380Y-91313333D01*
X99996666Y-66762380D02*
X99996666Y-67476666D01*
X99949047Y-67619523D01*
X99853809Y-67714761D01*
X99710952Y-67762380D01*
X99615714Y-67762380D01*
X100425238Y-66857619D02*
X100472857Y-66810000D01*
X100568095Y-66762380D01*
X100806190Y-66762380D01*
X100901428Y-66810000D01*
X100949047Y-66857619D01*
X100996666Y-66952857D01*
X100996666Y-67048095D01*
X100949047Y-67190952D01*
X100377619Y-67762380D01*
X100996666Y-67762380D01*
X103322380Y-73881904D02*
X102322380Y-73881904D01*
X103036666Y-73548571D01*
X102322380Y-73215238D01*
X103322380Y-73215238D01*
X102417619Y-72786666D02*
X102370000Y-72739047D01*
X102322380Y-72643809D01*
X102322380Y-72405714D01*
X102370000Y-72310476D01*
X102417619Y-72262857D01*
X102512857Y-72215238D01*
X102608095Y-72215238D01*
X102750952Y-72262857D01*
X103322380Y-72834285D01*
X103322380Y-72215238D01*
X103322380Y-71024761D02*
X102322380Y-71024761D01*
X102322380Y-70643809D01*
X102370000Y-70548571D01*
X102417619Y-70500952D01*
X102512857Y-70453333D01*
X102655714Y-70453333D01*
X102750952Y-70500952D01*
X102798571Y-70548571D01*
X102846190Y-70643809D01*
X102846190Y-71024761D01*
X102322380Y-70120000D02*
X103322380Y-69881904D01*
X102608095Y-69691428D01*
X103322380Y-69500952D01*
X102322380Y-69262857D01*
X103322380Y-68310476D02*
X102846190Y-68643809D01*
X103322380Y-68881904D02*
X102322380Y-68881904D01*
X102322380Y-68500952D01*
X102370000Y-68405714D01*
X102417619Y-68358095D01*
X102512857Y-68310476D01*
X102655714Y-68310476D01*
X102750952Y-68358095D01*
X102798571Y-68405714D01*
X102846190Y-68500952D01*
X102846190Y-68881904D01*
X99996666Y-57642380D02*
X99996666Y-58356666D01*
X99949047Y-58499523D01*
X99853809Y-58594761D01*
X99710952Y-58642380D01*
X99615714Y-58642380D01*
X100996666Y-58642380D02*
X100425238Y-58642380D01*
X100710952Y-58642380D02*
X100710952Y-57642380D01*
X100615714Y-57785238D01*
X100520476Y-57880476D01*
X100425238Y-57928095D01*
X103322380Y-64991904D02*
X102322380Y-64991904D01*
X103036666Y-64658571D01*
X102322380Y-64325238D01*
X103322380Y-64325238D01*
X103322380Y-63325238D02*
X103322380Y-63896666D01*
X103322380Y-63610952D02*
X102322380Y-63610952D01*
X102465238Y-63706190D01*
X102560476Y-63801428D01*
X102608095Y-63896666D01*
X103322380Y-62134761D02*
X102322380Y-62134761D01*
X102322380Y-61753809D01*
X102370000Y-61658571D01*
X102417619Y-61610952D01*
X102512857Y-61563333D01*
X102655714Y-61563333D01*
X102750952Y-61610952D01*
X102798571Y-61658571D01*
X102846190Y-61753809D01*
X102846190Y-62134761D01*
X102322380Y-61230000D02*
X103322380Y-60991904D01*
X102608095Y-60801428D01*
X103322380Y-60610952D01*
X102322380Y-60372857D01*
X103322380Y-59420476D02*
X102846190Y-59753809D01*
X103322380Y-59991904D02*
X102322380Y-59991904D01*
X102322380Y-59610952D01*
X102370000Y-59515714D01*
X102417619Y-59468095D01*
X102512857Y-59420476D01*
X102655714Y-59420476D01*
X102750952Y-59468095D01*
X102798571Y-59515714D01*
X102846190Y-59610952D01*
X102846190Y-59991904D01*
X104619047Y-80821428D02*
X105380952Y-80821428D01*
X106619047Y-80821428D02*
X107380952Y-80821428D01*
X107000000Y-81202380D02*
X107000000Y-80440476D01*
X121213571Y-41092380D02*
X120642142Y-41092380D01*
X120927857Y-41092380D02*
X120927857Y-40092380D01*
X120832619Y-40235238D01*
X120737380Y-40330476D01*
X120642142Y-40378095D01*
X121832619Y-40092380D02*
X121927857Y-40092380D01*
X122023095Y-40140000D01*
X122070714Y-40187619D01*
X122118333Y-40282857D01*
X122165952Y-40473333D01*
X122165952Y-40711428D01*
X122118333Y-40901904D01*
X122070714Y-40997142D01*
X122023095Y-41044761D01*
X121927857Y-41092380D01*
X121832619Y-41092380D01*
X121737380Y-41044761D01*
X121689761Y-40997142D01*
X121642142Y-40901904D01*
X121594523Y-40711428D01*
X121594523Y-40473333D01*
X121642142Y-40282857D01*
X121689761Y-40187619D01*
X121737380Y-40140000D01*
X121832619Y-40092380D01*
X123023095Y-40425714D02*
X123023095Y-41092380D01*
X122594523Y-40425714D02*
X122594523Y-40949523D01*
X122642142Y-41044761D01*
X122737380Y-41092380D01*
X122880238Y-41092380D01*
X122975476Y-41044761D01*
X123023095Y-40997142D01*
X123832619Y-40568571D02*
X123499285Y-40568571D01*
X123499285Y-41092380D02*
X123499285Y-40092380D01*
X123975476Y-40092380D01*
X103318333Y-34002142D02*
X103270714Y-34049761D01*
X103127857Y-34097380D01*
X103032619Y-34097380D01*
X102889761Y-34049761D01*
X102794523Y-33954523D01*
X102746904Y-33859285D01*
X102699285Y-33668809D01*
X102699285Y-33525952D01*
X102746904Y-33335476D01*
X102794523Y-33240238D01*
X102889761Y-33145000D01*
X103032619Y-33097380D01*
X103127857Y-33097380D01*
X103270714Y-33145000D01*
X103318333Y-33192619D01*
X103651666Y-33097380D02*
X104270714Y-33097380D01*
X103937380Y-33478333D01*
X104080238Y-33478333D01*
X104175476Y-33525952D01*
X104223095Y-33573571D01*
X104270714Y-33668809D01*
X104270714Y-33906904D01*
X104223095Y-34002142D01*
X104175476Y-34049761D01*
X104080238Y-34097380D01*
X103794523Y-34097380D01*
X103699285Y-34049761D01*
X103651666Y-34002142D01*
X113478333Y-74642142D02*
X113430714Y-74689761D01*
X113287857Y-74737380D01*
X113192619Y-74737380D01*
X113049761Y-74689761D01*
X112954523Y-74594523D01*
X112906904Y-74499285D01*
X112859285Y-74308809D01*
X112859285Y-74165952D01*
X112906904Y-73975476D01*
X112954523Y-73880238D01*
X113049761Y-73785000D01*
X113192619Y-73737380D01*
X113287857Y-73737380D01*
X113430714Y-73785000D01*
X113478333Y-73832619D01*
X113859285Y-73832619D02*
X113906904Y-73785000D01*
X114002142Y-73737380D01*
X114240238Y-73737380D01*
X114335476Y-73785000D01*
X114383095Y-73832619D01*
X114430714Y-73927857D01*
X114430714Y-74023095D01*
X114383095Y-74165952D01*
X113811666Y-74737380D01*
X114430714Y-74737380D01*
X112248333Y-56882142D02*
X112200714Y-56929761D01*
X112057857Y-56977380D01*
X111962619Y-56977380D01*
X111819761Y-56929761D01*
X111724523Y-56834523D01*
X111676904Y-56739285D01*
X111629285Y-56548809D01*
X111629285Y-56405952D01*
X111676904Y-56215476D01*
X111724523Y-56120238D01*
X111819761Y-56025000D01*
X111962619Y-55977380D01*
X112057857Y-55977380D01*
X112200714Y-56025000D01*
X112248333Y-56072619D01*
X113200714Y-56977380D02*
X112629285Y-56977380D01*
X112915000Y-56977380D02*
X112915000Y-55977380D01*
X112819761Y-56120238D01*
X112724523Y-56215476D01*
X112629285Y-56263095D01*
X96809523Y-40952380D02*
X97428571Y-40952380D01*
X97095238Y-41333333D01*
X97238095Y-41333333D01*
X97333333Y-41380952D01*
X97380952Y-41428571D01*
X97428571Y-41523809D01*
X97428571Y-41761904D01*
X97380952Y-41857142D01*
X97333333Y-41904761D01*
X97238095Y-41952380D01*
X96952380Y-41952380D01*
X96857142Y-41904761D01*
X96809523Y-41857142D01*
X97761904Y-40952380D02*
X98380952Y-40952380D01*
X98047619Y-41333333D01*
X98190476Y-41333333D01*
X98285714Y-41380952D01*
X98333333Y-41428571D01*
X98380952Y-41523809D01*
X98380952Y-41761904D01*
X98333333Y-41857142D01*
X98285714Y-41904761D01*
X98190476Y-41952380D01*
X97904761Y-41952380D01*
X97809523Y-41904761D01*
X97761904Y-41857142D01*
X99238095Y-41285714D02*
X99238095Y-41952380D01*
X98809523Y-41285714D02*
X98809523Y-41809523D01*
X98857142Y-41904761D01*
X98952380Y-41952380D01*
X99095238Y-41952380D01*
X99190476Y-41904761D01*
X99238095Y-41857142D01*
X100047619Y-41428571D02*
X99714285Y-41428571D01*
X99714285Y-41952380D02*
X99714285Y-40952380D01*
X100190476Y-40952380D01*
X125082380Y-61126666D02*
X124606190Y-61460000D01*
X125082380Y-61698095D02*
X124082380Y-61698095D01*
X124082380Y-61317142D01*
X124130000Y-61221904D01*
X124177619Y-61174285D01*
X124272857Y-61126666D01*
X124415714Y-61126666D01*
X124510952Y-61174285D01*
X124558571Y-61221904D01*
X124606190Y-61317142D01*
X124606190Y-61698095D01*
X124082380Y-60269523D02*
X124082380Y-60460000D01*
X124130000Y-60555238D01*
X124177619Y-60602857D01*
X124320476Y-60698095D01*
X124510952Y-60745714D01*
X124891904Y-60745714D01*
X124987142Y-60698095D01*
X125034761Y-60650476D01*
X125082380Y-60555238D01*
X125082380Y-60364761D01*
X125034761Y-60269523D01*
X124987142Y-60221904D01*
X124891904Y-60174285D01*
X124653809Y-60174285D01*
X124558571Y-60221904D01*
X124510952Y-60269523D01*
X124463333Y-60364761D01*
X124463333Y-60555238D01*
X124510952Y-60650476D01*
X124558571Y-60698095D01*
X124653809Y-60745714D01*
X129822380Y-61555238D02*
X129822380Y-62126666D01*
X129822380Y-61840952D02*
X128822380Y-61840952D01*
X128965238Y-61936190D01*
X129060476Y-62031428D01*
X129108095Y-62126666D01*
X128822380Y-60936190D02*
X128822380Y-60840952D01*
X128870000Y-60745714D01*
X128917619Y-60698095D01*
X129012857Y-60650476D01*
X129203333Y-60602857D01*
X129441428Y-60602857D01*
X129631904Y-60650476D01*
X129727142Y-60698095D01*
X129774761Y-60745714D01*
X129822380Y-60840952D01*
X129822380Y-60936190D01*
X129774761Y-61031428D01*
X129727142Y-61079047D01*
X129631904Y-61126666D01*
X129441428Y-61174285D01*
X129203333Y-61174285D01*
X129012857Y-61126666D01*
X128917619Y-61079047D01*
X128870000Y-61031428D01*
X128822380Y-60936190D01*
X129822380Y-60174285D02*
X128822380Y-60174285D01*
X129441428Y-60079047D02*
X129822380Y-59793333D01*
X129155714Y-59793333D02*
X129536666Y-60174285D01*
X129822380Y-73826666D02*
X129346190Y-74160000D01*
X129822380Y-74398095D02*
X128822380Y-74398095D01*
X128822380Y-74017142D01*
X128870000Y-73921904D01*
X128917619Y-73874285D01*
X129012857Y-73826666D01*
X129155714Y-73826666D01*
X129250952Y-73874285D01*
X129298571Y-73921904D01*
X129346190Y-74017142D01*
X129346190Y-74398095D01*
X128822380Y-72921904D02*
X128822380Y-73398095D01*
X129298571Y-73445714D01*
X129250952Y-73398095D01*
X129203333Y-73302857D01*
X129203333Y-73064761D01*
X129250952Y-72969523D01*
X129298571Y-72921904D01*
X129393809Y-72874285D01*
X129631904Y-72874285D01*
X129727142Y-72921904D01*
X129774761Y-72969523D01*
X129822380Y-73064761D01*
X129822380Y-73302857D01*
X129774761Y-73398095D01*
X129727142Y-73445714D01*
X125082380Y-74255238D02*
X125082380Y-74826666D01*
X125082380Y-74540952D02*
X124082380Y-74540952D01*
X124225238Y-74636190D01*
X124320476Y-74731428D01*
X124368095Y-74826666D01*
X124082380Y-73636190D02*
X124082380Y-73540952D01*
X124130000Y-73445714D01*
X124177619Y-73398095D01*
X124272857Y-73350476D01*
X124463333Y-73302857D01*
X124701428Y-73302857D01*
X124891904Y-73350476D01*
X124987142Y-73398095D01*
X125034761Y-73445714D01*
X125082380Y-73540952D01*
X125082380Y-73636190D01*
X125034761Y-73731428D01*
X124987142Y-73779047D01*
X124891904Y-73826666D01*
X124701428Y-73874285D01*
X124463333Y-73874285D01*
X124272857Y-73826666D01*
X124177619Y-73779047D01*
X124130000Y-73731428D01*
X124082380Y-73636190D01*
X125082380Y-72874285D02*
X124082380Y-72874285D01*
X124701428Y-72779047D02*
X125082380Y-72493333D01*
X124415714Y-72493333D02*
X124796666Y-72874285D01*
X125717380Y-48426666D02*
X125241190Y-48760000D01*
X125717380Y-48998095D02*
X124717380Y-48998095D01*
X124717380Y-48617142D01*
X124765000Y-48521904D01*
X124812619Y-48474285D01*
X124907857Y-48426666D01*
X125050714Y-48426666D01*
X125145952Y-48474285D01*
X125193571Y-48521904D01*
X125241190Y-48617142D01*
X125241190Y-48998095D01*
X125050714Y-47569523D02*
X125717380Y-47569523D01*
X124669761Y-47807619D02*
X125384047Y-48045714D01*
X125384047Y-47426666D01*
X130457380Y-48855238D02*
X130457380Y-49426666D01*
X130457380Y-49140952D02*
X129457380Y-49140952D01*
X129600238Y-49236190D01*
X129695476Y-49331428D01*
X129743095Y-49426666D01*
X129457380Y-48236190D02*
X129457380Y-48140952D01*
X129505000Y-48045714D01*
X129552619Y-47998095D01*
X129647857Y-47950476D01*
X129838333Y-47902857D01*
X130076428Y-47902857D01*
X130266904Y-47950476D01*
X130362142Y-47998095D01*
X130409761Y-48045714D01*
X130457380Y-48140952D01*
X130457380Y-48236190D01*
X130409761Y-48331428D01*
X130362142Y-48379047D01*
X130266904Y-48426666D01*
X130076428Y-48474285D01*
X129838333Y-48474285D01*
X129647857Y-48426666D01*
X129552619Y-48379047D01*
X129505000Y-48331428D01*
X129457380Y-48236190D01*
X130457380Y-47474285D02*
X129457380Y-47474285D01*
X130076428Y-47379047D02*
X130457380Y-47093333D01*
X129790714Y-47093333D02*
X130171666Y-47474285D01*
X112382380Y-65571666D02*
X111906190Y-65905000D01*
X112382380Y-66143095D02*
X111382380Y-66143095D01*
X111382380Y-65762142D01*
X111430000Y-65666904D01*
X111477619Y-65619285D01*
X111572857Y-65571666D01*
X111715714Y-65571666D01*
X111810952Y-65619285D01*
X111858571Y-65666904D01*
X111906190Y-65762142D01*
X111906190Y-66143095D01*
X111382380Y-65238333D02*
X111382380Y-64619285D01*
X111763333Y-64952619D01*
X111763333Y-64809761D01*
X111810952Y-64714523D01*
X111858571Y-64666904D01*
X111953809Y-64619285D01*
X112191904Y-64619285D01*
X112287142Y-64666904D01*
X112334761Y-64714523D01*
X112382380Y-64809761D01*
X112382380Y-65095476D01*
X112334761Y-65190714D01*
X112287142Y-65238333D01*
X117122380Y-66000238D02*
X117122380Y-66571666D01*
X117122380Y-66285952D02*
X116122380Y-66285952D01*
X116265238Y-66381190D01*
X116360476Y-66476428D01*
X116408095Y-66571666D01*
X116122380Y-65381190D02*
X116122380Y-65285952D01*
X116170000Y-65190714D01*
X116217619Y-65143095D01*
X116312857Y-65095476D01*
X116503333Y-65047857D01*
X116741428Y-65047857D01*
X116931904Y-65095476D01*
X117027142Y-65143095D01*
X117074761Y-65190714D01*
X117122380Y-65285952D01*
X117122380Y-65381190D01*
X117074761Y-65476428D01*
X117027142Y-65524047D01*
X116931904Y-65571666D01*
X116741428Y-65619285D01*
X116503333Y-65619285D01*
X116312857Y-65571666D01*
X116217619Y-65524047D01*
X116170000Y-65476428D01*
X116122380Y-65381190D01*
X117122380Y-64619285D02*
X116122380Y-64619285D01*
X116741428Y-64524047D02*
X117122380Y-64238333D01*
X116455714Y-64238333D02*
X116836666Y-64619285D01*
X105243333Y-25852380D02*
X104910000Y-25376190D01*
X104671904Y-25852380D02*
X104671904Y-24852380D01*
X105052857Y-24852380D01*
X105148095Y-24900000D01*
X105195714Y-24947619D01*
X105243333Y-25042857D01*
X105243333Y-25185714D01*
X105195714Y-25280952D01*
X105148095Y-25328571D01*
X105052857Y-25376190D01*
X104671904Y-25376190D01*
X105624285Y-24947619D02*
X105671904Y-24900000D01*
X105767142Y-24852380D01*
X106005238Y-24852380D01*
X106100476Y-24900000D01*
X106148095Y-24947619D01*
X106195714Y-25042857D01*
X106195714Y-25138095D01*
X106148095Y-25280952D01*
X105576666Y-25852380D01*
X106195714Y-25852380D01*
X104814761Y-30932380D02*
X104243333Y-30932380D01*
X104529047Y-30932380D02*
X104529047Y-29932380D01*
X104433809Y-30075238D01*
X104338571Y-30170476D01*
X104243333Y-30218095D01*
X105433809Y-29932380D02*
X105529047Y-29932380D01*
X105624285Y-29980000D01*
X105671904Y-30027619D01*
X105719523Y-30122857D01*
X105767142Y-30313333D01*
X105767142Y-30551428D01*
X105719523Y-30741904D01*
X105671904Y-30837142D01*
X105624285Y-30884761D01*
X105529047Y-30932380D01*
X105433809Y-30932380D01*
X105338571Y-30884761D01*
X105290952Y-30837142D01*
X105243333Y-30741904D01*
X105195714Y-30551428D01*
X105195714Y-30313333D01*
X105243333Y-30122857D01*
X105290952Y-30027619D01*
X105338571Y-29980000D01*
X105433809Y-29932380D01*
X106195714Y-30932380D02*
X106195714Y-29932380D01*
X106290952Y-30551428D02*
X106576666Y-30932380D01*
X106576666Y-30265714D02*
X106195714Y-30646666D01*
X97777380Y-82081666D02*
X97301190Y-82415000D01*
X97777380Y-82653095D02*
X96777380Y-82653095D01*
X96777380Y-82272142D01*
X96825000Y-82176904D01*
X96872619Y-82129285D01*
X96967857Y-82081666D01*
X97110714Y-82081666D01*
X97205952Y-82129285D01*
X97253571Y-82176904D01*
X97301190Y-82272142D01*
X97301190Y-82653095D01*
X97777380Y-81129285D02*
X97777380Y-81700714D01*
X97777380Y-81415000D02*
X96777380Y-81415000D01*
X96920238Y-81510238D01*
X97015476Y-81605476D01*
X97063095Y-81700714D01*
X101517380Y-83200714D02*
X101517380Y-82581666D01*
X101898333Y-82915000D01*
X101898333Y-82772142D01*
X101945952Y-82676904D01*
X101993571Y-82629285D01*
X102088809Y-82581666D01*
X102326904Y-82581666D01*
X102422142Y-82629285D01*
X102469761Y-82676904D01*
X102517380Y-82772142D01*
X102517380Y-83057857D01*
X102469761Y-83153095D01*
X102422142Y-83200714D01*
X101517380Y-82248333D02*
X101517380Y-81629285D01*
X101898333Y-81962619D01*
X101898333Y-81819761D01*
X101945952Y-81724523D01*
X101993571Y-81676904D01*
X102088809Y-81629285D01*
X102326904Y-81629285D01*
X102422142Y-81676904D01*
X102469761Y-81724523D01*
X102517380Y-81819761D01*
X102517380Y-82105476D01*
X102469761Y-82200714D01*
X102422142Y-82248333D01*
X101517380Y-81010238D02*
X101517380Y-80915000D01*
X101565000Y-80819761D01*
X101612619Y-80772142D01*
X101707857Y-80724523D01*
X101898333Y-80676904D01*
X102136428Y-80676904D01*
X102326904Y-80724523D01*
X102422142Y-80772142D01*
X102469761Y-80819761D01*
X102517380Y-80915000D01*
X102517380Y-81010238D01*
X102469761Y-81105476D01*
X102422142Y-81153095D01*
X102326904Y-81200714D01*
X102136428Y-81248333D01*
X101898333Y-81248333D01*
X101707857Y-81200714D01*
X101612619Y-81153095D01*
X101565000Y-81105476D01*
X101517380Y-81010238D01*
X107775714Y-25197619D02*
X107823333Y-25150000D01*
X107918571Y-25102380D01*
X108156666Y-25102380D01*
X108251904Y-25150000D01*
X108299523Y-25197619D01*
X108347142Y-25292857D01*
X108347142Y-25388095D01*
X108299523Y-25530952D01*
X107728095Y-26102380D01*
X108347142Y-26102380D01*
X108775714Y-26102380D02*
X108775714Y-25102380D01*
X109347142Y-26102380D01*
X109347142Y-25102380D01*
X109728095Y-25102380D02*
X110347142Y-25102380D01*
X110013809Y-25483333D01*
X110156666Y-25483333D01*
X110251904Y-25530952D01*
X110299523Y-25578571D01*
X110347142Y-25673809D01*
X110347142Y-25911904D01*
X110299523Y-26007142D01*
X110251904Y-26054761D01*
X110156666Y-26102380D01*
X109870952Y-26102380D01*
X109775714Y-26054761D01*
X109728095Y-26007142D01*
X110823333Y-26102380D02*
X111013809Y-26102380D01*
X111109047Y-26054761D01*
X111156666Y-26007142D01*
X111251904Y-25864285D01*
X111299523Y-25673809D01*
X111299523Y-25292857D01*
X111251904Y-25197619D01*
X111204285Y-25150000D01*
X111109047Y-25102380D01*
X110918571Y-25102380D01*
X110823333Y-25150000D01*
X110775714Y-25197619D01*
X110728095Y-25292857D01*
X110728095Y-25530952D01*
X110775714Y-25626190D01*
X110823333Y-25673809D01*
X110918571Y-25721428D01*
X111109047Y-25721428D01*
X111204285Y-25673809D01*
X111251904Y-25626190D01*
X111299523Y-25530952D01*
X111918571Y-25102380D02*
X112013809Y-25102380D01*
X112109047Y-25150000D01*
X112156666Y-25197619D01*
X112204285Y-25292857D01*
X112251904Y-25483333D01*
X112251904Y-25721428D01*
X112204285Y-25911904D01*
X112156666Y-26007142D01*
X112109047Y-26054761D01*
X112013809Y-26102380D01*
X111918571Y-26102380D01*
X111823333Y-26054761D01*
X111775714Y-26007142D01*
X111728095Y-25911904D01*
X111680476Y-25721428D01*
X111680476Y-25483333D01*
X111728095Y-25292857D01*
X111775714Y-25197619D01*
X111823333Y-25150000D01*
X111918571Y-25102380D01*
X113109047Y-25102380D02*
X112918571Y-25102380D01*
X112823333Y-25150000D01*
X112775714Y-25197619D01*
X112680476Y-25340476D01*
X112632857Y-25530952D01*
X112632857Y-25911904D01*
X112680476Y-26007142D01*
X112728095Y-26054761D01*
X112823333Y-26102380D01*
X113013809Y-26102380D01*
X113109047Y-26054761D01*
X113156666Y-26007142D01*
X113204285Y-25911904D01*
X113204285Y-25673809D01*
X113156666Y-25578571D01*
X113109047Y-25530952D01*
X113013809Y-25483333D01*
X112823333Y-25483333D01*
X112728095Y-25530952D01*
X112680476Y-25578571D01*
X112632857Y-25673809D01*
X121753333Y-20852380D02*
X121420000Y-20376190D01*
X121181904Y-20852380D02*
X121181904Y-19852380D01*
X121562857Y-19852380D01*
X121658095Y-19900000D01*
X121705714Y-19947619D01*
X121753333Y-20042857D01*
X121753333Y-20185714D01*
X121705714Y-20280952D01*
X121658095Y-20328571D01*
X121562857Y-20376190D01*
X121181904Y-20376190D01*
X122324761Y-20280952D02*
X122229523Y-20233333D01*
X122181904Y-20185714D01*
X122134285Y-20090476D01*
X122134285Y-20042857D01*
X122181904Y-19947619D01*
X122229523Y-19900000D01*
X122324761Y-19852380D01*
X122515238Y-19852380D01*
X122610476Y-19900000D01*
X122658095Y-19947619D01*
X122705714Y-20042857D01*
X122705714Y-20090476D01*
X122658095Y-20185714D01*
X122610476Y-20233333D01*
X122515238Y-20280952D01*
X122324761Y-20280952D01*
X122229523Y-20328571D01*
X122181904Y-20376190D01*
X122134285Y-20471428D01*
X122134285Y-20661904D01*
X122181904Y-20757142D01*
X122229523Y-20804761D01*
X122324761Y-20852380D01*
X122515238Y-20852380D01*
X122610476Y-20804761D01*
X122658095Y-20757142D01*
X122705714Y-20661904D01*
X122705714Y-20471428D01*
X122658095Y-20376190D01*
X122610476Y-20328571D01*
X122515238Y-20280952D01*
X124340952Y-20852380D02*
X123769523Y-20852380D01*
X124055238Y-20852380D02*
X124055238Y-19852380D01*
X123960000Y-19995238D01*
X123864761Y-20090476D01*
X123769523Y-20138095D01*
X124769523Y-20852380D02*
X124769523Y-19852380D01*
X124864761Y-20471428D02*
X125150476Y-20852380D01*
X125150476Y-20185714D02*
X124769523Y-20566666D01*
X121753333Y-30932380D02*
X121420000Y-30456190D01*
X121181904Y-30932380D02*
X121181904Y-29932380D01*
X121562857Y-29932380D01*
X121658095Y-29980000D01*
X121705714Y-30027619D01*
X121753333Y-30122857D01*
X121753333Y-30265714D01*
X121705714Y-30360952D01*
X121658095Y-30408571D01*
X121562857Y-30456190D01*
X121181904Y-30456190D01*
X122086666Y-29932380D02*
X122753333Y-29932380D01*
X122324761Y-30932380D01*
X124404761Y-30932380D02*
X123833333Y-30932380D01*
X124119047Y-30932380D02*
X124119047Y-29932380D01*
X124023809Y-30075238D01*
X123928571Y-30170476D01*
X123833333Y-30218095D01*
X124738095Y-29932380D02*
X125357142Y-29932380D01*
X125023809Y-30313333D01*
X125166666Y-30313333D01*
X125261904Y-30360952D01*
X125309523Y-30408571D01*
X125357142Y-30503809D01*
X125357142Y-30741904D01*
X125309523Y-30837142D01*
X125261904Y-30884761D01*
X125166666Y-30932380D01*
X124880952Y-30932380D01*
X124785714Y-30884761D01*
X124738095Y-30837142D01*
X125785714Y-30932380D02*
X125785714Y-29932380D01*
X125880952Y-30551428D02*
X126166666Y-30932380D01*
X126166666Y-30265714D02*
X125785714Y-30646666D01*
X98949047Y-25891428D02*
X99710952Y-25891428D01*
X100949047Y-25891428D02*
X101710952Y-25891428D01*
X101330000Y-26272380D02*
X101330000Y-25510476D01*
X112935000Y-80202380D02*
X112458809Y-80202380D01*
X112458809Y-79202380D01*
X113173095Y-79202380D02*
X113839761Y-79202380D01*
X113411190Y-80202380D01*
X114363571Y-79630952D02*
X114268333Y-79583333D01*
X114220714Y-79535714D01*
X114173095Y-79440476D01*
X114173095Y-79392857D01*
X114220714Y-79297619D01*
X114268333Y-79250000D01*
X114363571Y-79202380D01*
X114554047Y-79202380D01*
X114649285Y-79250000D01*
X114696904Y-79297619D01*
X114744523Y-79392857D01*
X114744523Y-79440476D01*
X114696904Y-79535714D01*
X114649285Y-79583333D01*
X114554047Y-79630952D01*
X114363571Y-79630952D01*
X114268333Y-79678571D01*
X114220714Y-79726190D01*
X114173095Y-79821428D01*
X114173095Y-80011904D01*
X114220714Y-80107142D01*
X114268333Y-80154761D01*
X114363571Y-80202380D01*
X114554047Y-80202380D01*
X114649285Y-80154761D01*
X114696904Y-80107142D01*
X114744523Y-80011904D01*
X114744523Y-79821428D01*
X114696904Y-79726190D01*
X114649285Y-79678571D01*
X114554047Y-79630952D01*
X115649285Y-80202380D02*
X115173095Y-80202380D01*
X115173095Y-79202380D01*
X115887380Y-79202380D02*
X116506428Y-79202380D01*
X116173095Y-79583333D01*
X116315952Y-79583333D01*
X116411190Y-79630952D01*
X116458809Y-79678571D01*
X116506428Y-79773809D01*
X116506428Y-80011904D01*
X116458809Y-80107142D01*
X116411190Y-80154761D01*
X116315952Y-80202380D01*
X116030238Y-80202380D01*
X115935000Y-80154761D01*
X115887380Y-80107142D01*
X116839761Y-79202380D02*
X117458809Y-79202380D01*
X117125476Y-79583333D01*
X117268333Y-79583333D01*
X117363571Y-79630952D01*
X117411190Y-79678571D01*
X117458809Y-79773809D01*
X117458809Y-80011904D01*
X117411190Y-80107142D01*
X117363571Y-80154761D01*
X117268333Y-80202380D01*
X116982619Y-80202380D01*
X116887380Y-80154761D01*
X116839761Y-80107142D01*
X120554761Y-50962619D02*
X120459523Y-50915000D01*
X120364285Y-50819761D01*
X120221428Y-50676904D01*
X120126190Y-50629285D01*
X120030952Y-50629285D01*
X120078571Y-50867380D02*
X119983333Y-50819761D01*
X119888095Y-50724523D01*
X119840476Y-50534047D01*
X119840476Y-50200714D01*
X119888095Y-50010238D01*
X119983333Y-49915000D01*
X120078571Y-49867380D01*
X120269047Y-49867380D01*
X120364285Y-49915000D01*
X120459523Y-50010238D01*
X120507142Y-50200714D01*
X120507142Y-50534047D01*
X120459523Y-50724523D01*
X120364285Y-50819761D01*
X120269047Y-50867380D01*
X120078571Y-50867380D01*
X120888095Y-49962619D02*
X120935714Y-49915000D01*
X121030952Y-49867380D01*
X121269047Y-49867380D01*
X121364285Y-49915000D01*
X121411904Y-49962619D01*
X121459523Y-50057857D01*
X121459523Y-50153095D01*
X121411904Y-50295952D01*
X120840476Y-50867380D01*
X121459523Y-50867380D01*
X117935714Y-56312619D02*
X117983333Y-56265000D01*
X118078571Y-56217380D01*
X118316666Y-56217380D01*
X118411904Y-56265000D01*
X118459523Y-56312619D01*
X118507142Y-56407857D01*
X118507142Y-56503095D01*
X118459523Y-56645952D01*
X117888095Y-57217380D01*
X118507142Y-57217380D01*
X118935714Y-57217380D02*
X118935714Y-56217380D01*
X119507142Y-57217380D01*
X119507142Y-56217380D01*
X119888095Y-56217380D02*
X120507142Y-56217380D01*
X120173809Y-56598333D01*
X120316666Y-56598333D01*
X120411904Y-56645952D01*
X120459523Y-56693571D01*
X120507142Y-56788809D01*
X120507142Y-57026904D01*
X120459523Y-57122142D01*
X120411904Y-57169761D01*
X120316666Y-57217380D01*
X120030952Y-57217380D01*
X119935714Y-57169761D01*
X119888095Y-57122142D01*
X120983333Y-57217380D02*
X121173809Y-57217380D01*
X121269047Y-57169761D01*
X121316666Y-57122142D01*
X121411904Y-56979285D01*
X121459523Y-56788809D01*
X121459523Y-56407857D01*
X121411904Y-56312619D01*
X121364285Y-56265000D01*
X121269047Y-56217380D01*
X121078571Y-56217380D01*
X120983333Y-56265000D01*
X120935714Y-56312619D01*
X120888095Y-56407857D01*
X120888095Y-56645952D01*
X120935714Y-56741190D01*
X120983333Y-56788809D01*
X121078571Y-56836428D01*
X121269047Y-56836428D01*
X121364285Y-56788809D01*
X121411904Y-56741190D01*
X121459523Y-56645952D01*
X122078571Y-56217380D02*
X122173809Y-56217380D01*
X122269047Y-56265000D01*
X122316666Y-56312619D01*
X122364285Y-56407857D01*
X122411904Y-56598333D01*
X122411904Y-56836428D01*
X122364285Y-57026904D01*
X122316666Y-57122142D01*
X122269047Y-57169761D01*
X122173809Y-57217380D01*
X122078571Y-57217380D01*
X121983333Y-57169761D01*
X121935714Y-57122142D01*
X121888095Y-57026904D01*
X121840476Y-56836428D01*
X121840476Y-56598333D01*
X121888095Y-56407857D01*
X121935714Y-56312619D01*
X121983333Y-56265000D01*
X122078571Y-56217380D01*
X123269047Y-56550714D02*
X123269047Y-57217380D01*
X123030952Y-56169761D02*
X122792857Y-56884047D01*
X123411904Y-56884047D01*
X120554761Y-91047619D02*
X120459523Y-91000000D01*
X120364285Y-90904761D01*
X120221428Y-90761904D01*
X120126190Y-90714285D01*
X120030952Y-90714285D01*
X120078571Y-90952380D02*
X119983333Y-90904761D01*
X119888095Y-90809523D01*
X119840476Y-90619047D01*
X119840476Y-90285714D01*
X119888095Y-90095238D01*
X119983333Y-90000000D01*
X120078571Y-89952380D01*
X120269047Y-89952380D01*
X120364285Y-90000000D01*
X120459523Y-90095238D01*
X120507142Y-90285714D01*
X120507142Y-90619047D01*
X120459523Y-90809523D01*
X120364285Y-90904761D01*
X120269047Y-90952380D01*
X120078571Y-90952380D01*
X121459523Y-90952380D02*
X120888095Y-90952380D01*
X121173809Y-90952380D02*
X121173809Y-89952380D01*
X121078571Y-90095238D01*
X120983333Y-90190476D01*
X120888095Y-90238095D01*
X117935714Y-84637619D02*
X117983333Y-84590000D01*
X118078571Y-84542380D01*
X118316666Y-84542380D01*
X118411904Y-84590000D01*
X118459523Y-84637619D01*
X118507142Y-84732857D01*
X118507142Y-84828095D01*
X118459523Y-84970952D01*
X117888095Y-85542380D01*
X118507142Y-85542380D01*
X118935714Y-85542380D02*
X118935714Y-84542380D01*
X119507142Y-85542380D01*
X119507142Y-84542380D01*
X119888095Y-84542380D02*
X120507142Y-84542380D01*
X120173809Y-84923333D01*
X120316666Y-84923333D01*
X120411904Y-84970952D01*
X120459523Y-85018571D01*
X120507142Y-85113809D01*
X120507142Y-85351904D01*
X120459523Y-85447142D01*
X120411904Y-85494761D01*
X120316666Y-85542380D01*
X120030952Y-85542380D01*
X119935714Y-85494761D01*
X119888095Y-85447142D01*
X120983333Y-85542380D02*
X121173809Y-85542380D01*
X121269047Y-85494761D01*
X121316666Y-85447142D01*
X121411904Y-85304285D01*
X121459523Y-85113809D01*
X121459523Y-84732857D01*
X121411904Y-84637619D01*
X121364285Y-84590000D01*
X121269047Y-84542380D01*
X121078571Y-84542380D01*
X120983333Y-84590000D01*
X120935714Y-84637619D01*
X120888095Y-84732857D01*
X120888095Y-84970952D01*
X120935714Y-85066190D01*
X120983333Y-85113809D01*
X121078571Y-85161428D01*
X121269047Y-85161428D01*
X121364285Y-85113809D01*
X121411904Y-85066190D01*
X121459523Y-84970952D01*
X122078571Y-84542380D02*
X122173809Y-84542380D01*
X122269047Y-84590000D01*
X122316666Y-84637619D01*
X122364285Y-84732857D01*
X122411904Y-84923333D01*
X122411904Y-85161428D01*
X122364285Y-85351904D01*
X122316666Y-85447142D01*
X122269047Y-85494761D01*
X122173809Y-85542380D01*
X122078571Y-85542380D01*
X121983333Y-85494761D01*
X121935714Y-85447142D01*
X121888095Y-85351904D01*
X121840476Y-85161428D01*
X121840476Y-84923333D01*
X121888095Y-84732857D01*
X121935714Y-84637619D01*
X121983333Y-84590000D01*
X122078571Y-84542380D01*
X123269047Y-84875714D02*
X123269047Y-85542380D01*
X123030952Y-84494761D02*
X122792857Y-85209047D01*
X123411904Y-85209047D01*
M02*
