M48
; DRILL file {KiCad (5.1.4)-1} date 4/28/2020 5:34:23 PM
; FORMAT={3:3/ absolute / metric / suppress leading zeros}
; #@! TF.CreationDate,2020-04-28T17:34:23-06:00
; #@! TF.GenerationSoftware,Kicad,Pcbnew,(5.1.4)-1
FMAT,2
METRIC,TZ
T1C0.400
T2C0.800
T3C0.900
T4C1.000
T5C1.100
T6C2.200
T7C3.500
%
G90
G05
T1
X109855Y-64770
X109855Y-79375
X114300Y-64770
X122555Y-66040
X123825Y-78105
X125730Y-85090
T2
X102870Y-27940
X113030Y-27940
X107950Y-22860
X110490Y-22860
X113030Y-22860
X102235Y-36195
X104735Y-36195
X127635Y-43180
X127635Y-53340
X118110Y-53975
X120650Y-53975
X123190Y-53975
X118110Y-22860
X128270Y-22860
X127000Y-55880
X127000Y-66040
X112395Y-83185
X114935Y-83185
X117475Y-83185
X102235Y-41275
X104235Y-41275
X112395Y-76835
X114895Y-76835
X118110Y-87630
X120650Y-87630
X123190Y-87630
X111165Y-53975
X113665Y-53975
X118110Y-27940
X128270Y-27940
X114300Y-60325
X114300Y-70485
X127000Y-68580
X127000Y-78740
X121285Y-44450
X123285Y-44450
X99695Y-76835
X99695Y-86995
T3
X99060Y-22860
X101600Y-22860
X104775Y-83185
X107315Y-83185
T4
X103505Y-89250
X103505Y-91790
X106045Y-89250
X106045Y-91790
X108585Y-89250
X108585Y-91790
X111125Y-89250
X111125Y-91790
X113665Y-89250
X113665Y-91790
X102235Y-52705
X104775Y-52705
X102235Y-46990
X104775Y-46990
X100330Y-60960
X100330Y-63500
X106680Y-60325
X106680Y-62865
X106680Y-65405
X106680Y-67945
X106680Y-70485
X106680Y-73025
X106680Y-75565
X106680Y-78105
X119180Y-60325
X119180Y-62865
X119180Y-65405
X119180Y-67945
X119180Y-70485
X119180Y-73025
X119180Y-75565
X119180Y-78105
X122555Y-92710
X122555Y-95250
X118745Y-92710
X118745Y-95250
X100330Y-69850
X100330Y-72390
T5
X111125Y-49530
X113665Y-49530
X116205Y-49530
T6
X99060Y-32385
X127635Y-32385
X99060Y-95250
X127635Y-95250
T7
X113665Y-32870
T0
M30
