G04 #@! TF.GenerationSoftware,KiCad,Pcbnew,(5.1.4)-1*
G04 #@! TF.CreationDate,2020-04-28T17:34:27-06:00*
G04 #@! TF.ProjectId,robot,726f626f-742e-46b6-9963-61645f706362,rev?*
G04 #@! TF.SameCoordinates,Original*
G04 #@! TF.FileFunction,Copper,L1,Top*
G04 #@! TF.FilePolarity,Positive*
%FSLAX46Y46*%
G04 Gerber Fmt 4.6, Leading zero omitted, Abs format (unit mm)*
G04 Created by KiCad (PCBNEW (5.1.4)-1) date 2020-04-28 17:34:27*
%MOMM*%
%LPD*%
G04 APERTURE LIST*
%ADD10O,1.700000X1.700000*%
%ADD11R,1.700000X1.700000*%
%ADD12C,1.700000*%
%ADD13O,1.905000X2.000000*%
%ADD14R,1.905000X2.000000*%
%ADD15C,1.800000*%
%ADD16R,1.800000X1.800000*%
%ADD17C,1.600000*%
%ADD18R,1.600000X1.600000*%
%ADD19O,1.600000X1.600000*%
%ADD20R,1.500000X1.500000*%
%ADD21C,1.500000*%
%ADD22C,0.600000*%
%ADD23C,0.250000*%
%ADD24C,0.550000*%
%ADD25C,0.750000*%
%ADD26C,0.254000*%
G04 APERTURE END LIST*
D10*
X106680000Y-78105000D03*
X106680000Y-75565000D03*
X106680000Y-73025000D03*
X106680000Y-70485000D03*
X106680000Y-67945000D03*
X106680000Y-65405000D03*
X106680000Y-62865000D03*
D11*
X106680000Y-60325000D03*
D12*
X119180000Y-60325000D03*
D10*
X119180000Y-62865000D03*
X119180000Y-65405000D03*
X119180000Y-67945000D03*
X119180000Y-70485000D03*
X119180000Y-73025000D03*
X119180000Y-75565000D03*
X119180000Y-78105000D03*
D13*
X116205000Y-49530000D03*
X113665000Y-49530000D03*
D14*
X111125000Y-49530000D03*
D10*
X102235000Y-52705000D03*
D11*
X104775000Y-52705000D03*
X104775000Y-46990000D03*
D10*
X102235000Y-46990000D03*
X113665000Y-91790000D03*
X113665000Y-89250000D03*
X111125000Y-91790000D03*
X111125000Y-89250000D03*
X108585000Y-91790000D03*
X108585000Y-89250000D03*
X106045000Y-91790000D03*
X106045000Y-89250000D03*
X103505000Y-91790000D03*
D11*
X103505000Y-89250000D03*
D10*
X118745000Y-92710000D03*
D11*
X118745000Y-95250000D03*
D10*
X122555000Y-92710000D03*
D11*
X122555000Y-95250000D03*
D10*
X100330000Y-69850000D03*
D11*
X100330000Y-72390000D03*
X100330000Y-63500000D03*
D10*
X100330000Y-60960000D03*
D15*
X107315000Y-83185000D03*
D16*
X104775000Y-83185000D03*
D17*
X123285000Y-44450000D03*
D18*
X121285000Y-44450000D03*
D17*
X104735000Y-36195000D03*
X102235000Y-36195000D03*
X114895000Y-76835000D03*
X112395000Y-76835000D03*
X111165000Y-53975000D03*
X113665000Y-53975000D03*
X104235000Y-41275000D03*
D18*
X102235000Y-41275000D03*
D19*
X127000000Y-55880000D03*
D17*
X127000000Y-66040000D03*
D19*
X127000000Y-78740000D03*
D17*
X127000000Y-68580000D03*
D19*
X127635000Y-43180000D03*
D17*
X127635000Y-53340000D03*
D19*
X114300000Y-60325000D03*
D17*
X114300000Y-70485000D03*
D19*
X113030000Y-27940000D03*
D17*
X102870000Y-27940000D03*
D19*
X99695000Y-76835000D03*
D17*
X99695000Y-86995000D03*
D20*
X107950000Y-22860000D03*
D21*
X113030000Y-22860000D03*
X110490000Y-22860000D03*
D19*
X128270000Y-22860000D03*
D17*
X118110000Y-22860000D03*
X118110000Y-27940000D03*
D19*
X128270000Y-27940000D03*
D15*
X101600000Y-22860000D03*
D16*
X99060000Y-22860000D03*
D20*
X112395000Y-83185000D03*
D21*
X117475000Y-83185000D03*
X114935000Y-83185000D03*
D20*
X118110000Y-53975000D03*
D21*
X123190000Y-53975000D03*
X120650000Y-53975000D03*
D20*
X123190000Y-87630000D03*
D21*
X118110000Y-87630000D03*
X120650000Y-87630000D03*
D22*
X109855000Y-64770000D03*
X125730000Y-85090000D03*
X114300000Y-64770000D03*
X109855000Y-79375000D03*
X122555000Y-66040000D03*
X123825000Y-78105000D03*
D23*
X106680000Y-60325000D02*
X111125000Y-55880000D01*
X111125000Y-55880000D02*
X111125000Y-53975000D01*
X111125000Y-53975000D02*
X111165000Y-53975000D01*
X106680000Y-78105000D02*
X109855000Y-74930000D01*
X109855000Y-74930000D02*
X109855000Y-64770000D01*
X111165000Y-53975000D02*
X111125000Y-53975000D01*
X111125000Y-53975000D02*
X113665000Y-51435000D01*
X113665000Y-51435000D02*
X113665000Y-49530000D01*
X114895000Y-76835000D02*
X114935000Y-76835000D01*
X114935000Y-76835000D02*
X113665000Y-78105000D01*
X104235000Y-41275000D02*
X104140000Y-41275000D01*
X104140000Y-41275000D02*
X104775000Y-40640000D01*
X104775000Y-40640000D02*
X104775000Y-36195000D01*
X104775000Y-36195000D02*
X104735000Y-36195000D01*
X113665000Y-81915000D02*
X114935000Y-83185000D01*
X113665000Y-78105000D02*
X113665000Y-81915000D01*
X114935000Y-88265000D02*
X113665000Y-89535000D01*
X114935000Y-83185000D02*
X114935000Y-88265000D01*
X99060000Y-22860000D02*
X99060000Y-27940000D01*
X104735000Y-33615000D02*
X104735000Y-36195000D01*
X99060000Y-27940000D02*
X104735000Y-33615000D01*
X106680000Y-75565000D02*
X107950000Y-74295000D01*
X107950000Y-74295000D02*
X107950000Y-64135000D01*
X107950000Y-64135000D02*
X106680000Y-62865000D01*
D24*
X116840000Y-81280000D02*
X116840000Y-66040000D01*
X106680000Y-62865000D02*
X109855000Y-62865000D01*
X112395000Y-60325000D02*
X114300000Y-60325000D01*
X109855000Y-62865000D02*
X112395000Y-60325000D01*
X119180000Y-67945000D02*
X118745000Y-67945000D01*
X118745000Y-67945000D02*
X116840000Y-66040000D01*
X116840000Y-66040000D02*
X116840000Y-60325000D01*
X116840000Y-60325000D02*
X115570000Y-59055000D01*
X113665000Y-53975000D02*
X114300000Y-53975000D01*
X114300000Y-53975000D02*
X115570000Y-52705000D01*
X116205000Y-49530000D02*
X116205000Y-51435000D01*
X115570000Y-59055000D02*
X114300000Y-60325000D01*
X115570000Y-52070000D02*
X115570000Y-52705000D01*
X115570000Y-52705000D02*
X115570000Y-59055000D01*
X116205000Y-51435000D02*
X115570000Y-52070000D01*
X127635000Y-43180000D02*
X127635000Y-42545000D01*
X127635000Y-42545000D02*
X125730000Y-40640000D01*
X125730000Y-40640000D02*
X122555000Y-40640000D01*
X122555000Y-40640000D02*
X121285000Y-41910000D01*
X116205000Y-49530000D02*
X118110000Y-49530000D01*
X121285000Y-46355000D02*
X121285000Y-44450000D01*
X118110000Y-49530000D02*
X121285000Y-46355000D01*
X113665000Y-92075000D02*
X111125000Y-92075000D01*
X117475000Y-81915000D02*
X117475000Y-83185000D01*
X116840000Y-81280000D02*
X117475000Y-81915000D01*
X116205000Y-89535000D02*
X113665000Y-92075000D01*
X117475000Y-83185000D02*
X116205000Y-84455000D01*
X116205000Y-84455000D02*
X116205000Y-89535000D01*
X120650000Y-27940000D02*
X120650000Y-41910000D01*
X121285000Y-42545000D02*
X121285000Y-44450000D01*
X118110000Y-25400000D02*
X120650000Y-27940000D01*
X121285000Y-41910000D02*
X121285000Y-42545000D01*
X120650000Y-41910000D02*
X121285000Y-42545000D01*
X107950000Y-24160000D02*
X107950000Y-22860000D01*
X109190000Y-25400000D02*
X107950000Y-24160000D01*
X118110000Y-25400000D02*
X109190000Y-25400000D01*
D23*
X112395000Y-83185000D02*
X112395000Y-83820000D01*
X112395000Y-83820000D02*
X109855000Y-86360000D01*
X109855000Y-90805000D02*
X108585000Y-92075000D01*
X109855000Y-86360000D02*
X109855000Y-90805000D01*
X112395000Y-76835000D02*
X112395000Y-83185000D01*
X112395000Y-83185000D02*
X107315000Y-83185000D01*
X123655000Y-95250000D02*
X122555000Y-95250000D01*
X125730000Y-93175000D02*
X123655000Y-95250000D01*
X125730000Y-85090000D02*
X125730000Y-93175000D01*
X119180000Y-73025000D02*
X119380000Y-73025000D01*
X119380000Y-73025000D02*
X118110000Y-74295000D01*
X118110000Y-74295000D02*
X117475000Y-74295000D01*
X117475000Y-74295000D02*
X117475000Y-79375000D01*
X117475000Y-79375000D02*
X118745000Y-80645000D01*
X118745000Y-80645000D02*
X118745000Y-84455000D01*
X118745000Y-84455000D02*
X116840000Y-86360000D01*
X116840000Y-86360000D02*
X116840000Y-88900000D01*
X116840000Y-88900000D02*
X118110000Y-90170000D01*
X120015000Y-90170000D02*
X122555000Y-92710000D01*
X118110000Y-90170000D02*
X120015000Y-90170000D01*
X114300000Y-64770000D02*
X111125000Y-67945000D01*
X111125000Y-67945000D02*
X111125000Y-75565000D01*
X111125000Y-75565000D02*
X109855000Y-76835000D01*
X109855000Y-76835000D02*
X109855000Y-79375000D01*
X122555000Y-66040000D02*
X123825000Y-67310000D01*
X123825000Y-67310000D02*
X123825000Y-78105000D01*
X120650000Y-85090000D02*
X118110000Y-87630000D01*
X120650000Y-71755000D02*
X120650000Y-85090000D01*
X119180000Y-70485000D02*
X119380000Y-70485000D01*
X119380000Y-70485000D02*
X120650000Y-71755000D01*
X120650000Y-64135000D02*
X119380000Y-65405000D01*
X119380000Y-65405000D02*
X119180000Y-65405000D01*
X120650000Y-56515000D02*
X123190000Y-53975000D01*
X120650000Y-64135000D02*
X120650000Y-56515000D01*
X127000000Y-81280000D02*
X120650000Y-87630000D01*
X127000000Y-78740000D02*
X127000000Y-81280000D01*
D24*
X102235000Y-46990000D02*
X102235000Y-47625000D01*
X102235000Y-47625000D02*
X104140000Y-49530000D01*
X104140000Y-49530000D02*
X111125000Y-49530000D01*
X102235000Y-41275000D02*
X102235000Y-36195000D01*
X106045000Y-92075000D02*
X103505000Y-92075000D01*
X103505000Y-92075000D02*
X101600000Y-92075000D01*
X101600000Y-92075000D02*
X100965000Y-91440000D01*
X100965000Y-91440000D02*
X99695000Y-91440000D01*
X99695000Y-91440000D02*
X97790000Y-89535000D01*
X97790000Y-89535000D02*
X97790000Y-51435000D01*
X97790000Y-51435000D02*
X102235000Y-46990000D01*
X102235000Y-46990000D02*
X102235000Y-41275000D01*
D25*
X106680000Y-65405000D02*
X104775000Y-65405000D01*
X104775000Y-65405000D02*
X100330000Y-60960000D01*
X106680000Y-67945000D02*
X104775000Y-67945000D01*
X104775000Y-67945000D02*
X100330000Y-63500000D01*
X106680000Y-73025000D02*
X104140000Y-73025000D01*
X103505000Y-72390000D02*
X100330000Y-72390000D01*
X104140000Y-73025000D02*
X103505000Y-72390000D01*
X106680000Y-70485000D02*
X103505000Y-70485000D01*
X102870000Y-69850000D02*
X100330000Y-69850000D01*
X103505000Y-70485000D02*
X102870000Y-69850000D01*
D26*
G36*
X130100001Y-77435123D02*
G01*
X130100000Y-93945123D01*
X130100000Y-93945124D01*
X130100001Y-100890000D01*
X96595000Y-100890000D01*
X96595000Y-95079117D01*
X97325000Y-95079117D01*
X97325000Y-95420883D01*
X97391675Y-95756081D01*
X97522463Y-96071831D01*
X97712337Y-96355998D01*
X97954002Y-96597663D01*
X98238169Y-96787537D01*
X98553919Y-96918325D01*
X98889117Y-96985000D01*
X99230883Y-96985000D01*
X99566081Y-96918325D01*
X99881831Y-96787537D01*
X100165998Y-96597663D01*
X100407663Y-96355998D01*
X100597537Y-96071831D01*
X100728325Y-95756081D01*
X100795000Y-95420883D01*
X100795000Y-95079117D01*
X100728325Y-94743919D01*
X100597537Y-94428169D01*
X100407663Y-94144002D01*
X100165998Y-93902337D01*
X99881831Y-93712463D01*
X99566081Y-93581675D01*
X99230883Y-93515000D01*
X98889117Y-93515000D01*
X98553919Y-93581675D01*
X98238169Y-93712463D01*
X97954002Y-93902337D01*
X97712337Y-94144002D01*
X97522463Y-94428169D01*
X97391675Y-94743919D01*
X97325000Y-95079117D01*
X96595000Y-95079117D01*
X96595000Y-51435000D01*
X96875597Y-51435000D01*
X96880001Y-51479712D01*
X96880000Y-89490298D01*
X96875597Y-89535000D01*
X96880000Y-89579702D01*
X96880000Y-89579703D01*
X96893167Y-89713390D01*
X96925821Y-89821034D01*
X96945202Y-89884926D01*
X97029702Y-90043015D01*
X97058953Y-90078657D01*
X97143419Y-90181581D01*
X97178154Y-90210087D01*
X99019918Y-92051851D01*
X99048419Y-92086581D01*
X99121908Y-92146891D01*
X99186984Y-92200298D01*
X99345073Y-92284798D01*
X99516609Y-92336833D01*
X99650296Y-92350000D01*
X99650298Y-92350000D01*
X99695000Y-92354403D01*
X99739702Y-92350000D01*
X100588067Y-92350000D01*
X100924917Y-92686851D01*
X100953419Y-92721581D01*
X101091985Y-92835298D01*
X101250073Y-92919798D01*
X101421609Y-92971833D01*
X101555296Y-92985000D01*
X101555298Y-92985000D01*
X101600000Y-92989403D01*
X101644702Y-92985000D01*
X102635329Y-92985000D01*
X102738080Y-93061641D01*
X103000901Y-93186825D01*
X103148110Y-93231476D01*
X103378000Y-93110155D01*
X103378000Y-92985000D01*
X103632000Y-92985000D01*
X103632000Y-93110155D01*
X103861890Y-93231476D01*
X104009099Y-93186825D01*
X104271920Y-93061641D01*
X104374671Y-92985000D01*
X105175329Y-92985000D01*
X105278080Y-93061641D01*
X105540901Y-93186825D01*
X105688110Y-93231476D01*
X105918000Y-93110155D01*
X105918000Y-92985000D01*
X106089704Y-92985000D01*
X106172000Y-92976895D01*
X106172000Y-93110155D01*
X106401890Y-93231476D01*
X106549099Y-93186825D01*
X106811920Y-93061641D01*
X107045269Y-92887588D01*
X107240178Y-92671355D01*
X107315000Y-92545745D01*
X107389822Y-92671355D01*
X107584731Y-92887588D01*
X107818080Y-93061641D01*
X108080901Y-93186825D01*
X108228110Y-93231476D01*
X108458000Y-93110155D01*
X108458000Y-92826167D01*
X108585000Y-92838676D01*
X108712000Y-92826167D01*
X108712000Y-93110155D01*
X108941890Y-93231476D01*
X109089099Y-93186825D01*
X109351920Y-93061641D01*
X109585269Y-92887588D01*
X109780178Y-92671355D01*
X109855000Y-92545745D01*
X109929822Y-92671355D01*
X110124731Y-92887588D01*
X110358080Y-93061641D01*
X110620901Y-93186825D01*
X110768110Y-93231476D01*
X110998000Y-93110155D01*
X110998000Y-92976895D01*
X111080296Y-92985000D01*
X111252000Y-92985000D01*
X111252000Y-93110155D01*
X111481890Y-93231476D01*
X111629099Y-93186825D01*
X111891920Y-93061641D01*
X111994671Y-92985000D01*
X112795329Y-92985000D01*
X112898080Y-93061641D01*
X113160901Y-93186825D01*
X113308110Y-93231476D01*
X113538000Y-93110155D01*
X113538000Y-92985000D01*
X113620298Y-92985000D01*
X113665000Y-92989403D01*
X113709702Y-92985000D01*
X113709704Y-92985000D01*
X113792000Y-92976895D01*
X113792000Y-93110155D01*
X114021890Y-93231476D01*
X114169099Y-93186825D01*
X114431920Y-93061641D01*
X114665269Y-92887588D01*
X114825344Y-92710000D01*
X117252815Y-92710000D01*
X117281487Y-93001111D01*
X117366401Y-93281034D01*
X117504294Y-93539014D01*
X117689866Y-93765134D01*
X117719687Y-93789607D01*
X117650820Y-93810498D01*
X117540506Y-93869463D01*
X117443815Y-93948815D01*
X117364463Y-94045506D01*
X117305498Y-94155820D01*
X117269188Y-94275518D01*
X117256928Y-94400000D01*
X117256928Y-96100000D01*
X117269188Y-96224482D01*
X117305498Y-96344180D01*
X117364463Y-96454494D01*
X117443815Y-96551185D01*
X117540506Y-96630537D01*
X117650820Y-96689502D01*
X117770518Y-96725812D01*
X117895000Y-96738072D01*
X119595000Y-96738072D01*
X119719482Y-96725812D01*
X119839180Y-96689502D01*
X119949494Y-96630537D01*
X120046185Y-96551185D01*
X120125537Y-96454494D01*
X120184502Y-96344180D01*
X120220812Y-96224482D01*
X120233072Y-96100000D01*
X120233072Y-94400000D01*
X120220812Y-94275518D01*
X120184502Y-94155820D01*
X120125537Y-94045506D01*
X120046185Y-93948815D01*
X119949494Y-93869463D01*
X119839180Y-93810498D01*
X119770313Y-93789607D01*
X119800134Y-93765134D01*
X119985706Y-93539014D01*
X120123599Y-93281034D01*
X120208513Y-93001111D01*
X120237185Y-92710000D01*
X120208513Y-92418889D01*
X120123599Y-92138966D01*
X119985706Y-91880986D01*
X119800134Y-91654866D01*
X119574014Y-91469294D01*
X119316034Y-91331401D01*
X119036111Y-91246487D01*
X118817950Y-91225000D01*
X118672050Y-91225000D01*
X118453889Y-91246487D01*
X118173966Y-91331401D01*
X117915986Y-91469294D01*
X117689866Y-91654866D01*
X117504294Y-91880986D01*
X117366401Y-92138966D01*
X117281487Y-92418889D01*
X117252815Y-92710000D01*
X114825344Y-92710000D01*
X114860178Y-92671355D01*
X115009157Y-92421252D01*
X115106481Y-92146891D01*
X115028538Y-91998396D01*
X115109932Y-91917002D01*
X115150000Y-91917002D01*
X115150000Y-91876934D01*
X116816852Y-90210082D01*
X116851581Y-90181581D01*
X116939567Y-90074369D01*
X117546200Y-90681002D01*
X117569999Y-90710001D01*
X117685724Y-90804974D01*
X117817753Y-90875546D01*
X117961014Y-90919003D01*
X118072667Y-90930000D01*
X118072676Y-90930000D01*
X118109999Y-90933676D01*
X118147322Y-90930000D01*
X119700199Y-90930000D01*
X121114203Y-92344005D01*
X121091487Y-92418889D01*
X121062815Y-92710000D01*
X121091487Y-93001111D01*
X121176401Y-93281034D01*
X121314294Y-93539014D01*
X121499866Y-93765134D01*
X121529687Y-93789607D01*
X121460820Y-93810498D01*
X121350506Y-93869463D01*
X121253815Y-93948815D01*
X121174463Y-94045506D01*
X121115498Y-94155820D01*
X121079188Y-94275518D01*
X121066928Y-94400000D01*
X121066928Y-96100000D01*
X121079188Y-96224482D01*
X121115498Y-96344180D01*
X121174463Y-96454494D01*
X121253815Y-96551185D01*
X121350506Y-96630537D01*
X121460820Y-96689502D01*
X121580518Y-96725812D01*
X121705000Y-96738072D01*
X123405000Y-96738072D01*
X123529482Y-96725812D01*
X123649180Y-96689502D01*
X123759494Y-96630537D01*
X123856185Y-96551185D01*
X123935537Y-96454494D01*
X123994502Y-96344180D01*
X124030812Y-96224482D01*
X124043072Y-96100000D01*
X124043072Y-95904326D01*
X124079276Y-95884974D01*
X124195001Y-95790001D01*
X124218804Y-95760997D01*
X124900684Y-95079117D01*
X125900000Y-95079117D01*
X125900000Y-95420883D01*
X125966675Y-95756081D01*
X126097463Y-96071831D01*
X126287337Y-96355998D01*
X126529002Y-96597663D01*
X126813169Y-96787537D01*
X127128919Y-96918325D01*
X127464117Y-96985000D01*
X127805883Y-96985000D01*
X128141081Y-96918325D01*
X128456831Y-96787537D01*
X128740998Y-96597663D01*
X128982663Y-96355998D01*
X129172537Y-96071831D01*
X129303325Y-95756081D01*
X129370000Y-95420883D01*
X129370000Y-95079117D01*
X129303325Y-94743919D01*
X129172537Y-94428169D01*
X128982663Y-94144002D01*
X128740998Y-93902337D01*
X128456831Y-93712463D01*
X128141081Y-93581675D01*
X127805883Y-93515000D01*
X127464117Y-93515000D01*
X127128919Y-93581675D01*
X126813169Y-93712463D01*
X126529002Y-93902337D01*
X126287337Y-94144002D01*
X126097463Y-94428169D01*
X125966675Y-94743919D01*
X125900000Y-95079117D01*
X124900684Y-95079117D01*
X126241003Y-93738799D01*
X126270001Y-93715001D01*
X126296332Y-93682917D01*
X126364974Y-93599277D01*
X126435546Y-93467247D01*
X126459949Y-93386800D01*
X126479003Y-93323986D01*
X126490000Y-93212333D01*
X126490000Y-93212324D01*
X126493676Y-93175001D01*
X126490000Y-93137678D01*
X126490000Y-85635535D01*
X126558586Y-85532889D01*
X126629068Y-85362729D01*
X126665000Y-85182089D01*
X126665000Y-84997911D01*
X126629068Y-84817271D01*
X126558586Y-84647111D01*
X126456262Y-84493972D01*
X126326028Y-84363738D01*
X126172889Y-84261414D01*
X126002729Y-84190932D01*
X125822089Y-84155000D01*
X125637911Y-84155000D01*
X125457271Y-84190932D01*
X125287111Y-84261414D01*
X125133972Y-84363738D01*
X125003738Y-84493972D01*
X124901414Y-84647111D01*
X124830932Y-84817271D01*
X124795000Y-84997911D01*
X124795000Y-85182089D01*
X124830932Y-85362729D01*
X124901414Y-85532889D01*
X124970000Y-85635536D01*
X124970001Y-92860197D01*
X123867543Y-93962655D01*
X123856185Y-93948815D01*
X123759494Y-93869463D01*
X123649180Y-93810498D01*
X123580313Y-93789607D01*
X123610134Y-93765134D01*
X123795706Y-93539014D01*
X123933599Y-93281034D01*
X124018513Y-93001111D01*
X124047185Y-92710000D01*
X124018513Y-92418889D01*
X123933599Y-92138966D01*
X123795706Y-91880986D01*
X123610134Y-91654866D01*
X123384014Y-91469294D01*
X123126034Y-91331401D01*
X122846111Y-91246487D01*
X122627950Y-91225000D01*
X122482050Y-91225000D01*
X122263889Y-91246487D01*
X122189005Y-91269203D01*
X120578804Y-89659003D01*
X120555001Y-89629999D01*
X120439276Y-89535026D01*
X120307247Y-89464454D01*
X120163986Y-89420997D01*
X120052333Y-89410000D01*
X120052322Y-89410000D01*
X120015000Y-89406324D01*
X119977678Y-89410000D01*
X118424802Y-89410000D01*
X118029802Y-89015000D01*
X118246411Y-89015000D01*
X118513989Y-88961775D01*
X118766043Y-88857371D01*
X118992886Y-88705799D01*
X119185799Y-88512886D01*
X119337371Y-88286043D01*
X119380000Y-88183127D01*
X119422629Y-88286043D01*
X119574201Y-88512886D01*
X119767114Y-88705799D01*
X119993957Y-88857371D01*
X120246011Y-88961775D01*
X120513589Y-89015000D01*
X120786411Y-89015000D01*
X121053989Y-88961775D01*
X121306043Y-88857371D01*
X121532886Y-88705799D01*
X121725799Y-88512886D01*
X121803555Y-88396517D01*
X121814188Y-88504482D01*
X121850498Y-88624180D01*
X121909463Y-88734494D01*
X121988815Y-88831185D01*
X122085506Y-88910537D01*
X122195820Y-88969502D01*
X122315518Y-89005812D01*
X122440000Y-89018072D01*
X122904250Y-89015000D01*
X123063000Y-88856250D01*
X123063000Y-87757000D01*
X123317000Y-87757000D01*
X123317000Y-88856250D01*
X123475750Y-89015000D01*
X123940000Y-89018072D01*
X124064482Y-89005812D01*
X124184180Y-88969502D01*
X124294494Y-88910537D01*
X124391185Y-88831185D01*
X124470537Y-88734494D01*
X124529502Y-88624180D01*
X124565812Y-88504482D01*
X124578072Y-88380000D01*
X124575000Y-87915750D01*
X124416250Y-87757000D01*
X123317000Y-87757000D01*
X123063000Y-87757000D01*
X123043000Y-87757000D01*
X123043000Y-87503000D01*
X123063000Y-87503000D01*
X123063000Y-86403750D01*
X123317000Y-86403750D01*
X123317000Y-87503000D01*
X124416250Y-87503000D01*
X124575000Y-87344250D01*
X124578072Y-86880000D01*
X124565812Y-86755518D01*
X124529502Y-86635820D01*
X124470537Y-86525506D01*
X124391185Y-86428815D01*
X124294494Y-86349463D01*
X124184180Y-86290498D01*
X124064482Y-86254188D01*
X123940000Y-86241928D01*
X123475750Y-86245000D01*
X123317000Y-86403750D01*
X123063000Y-86403750D01*
X123007026Y-86347776D01*
X127511003Y-81843799D01*
X127540001Y-81820001D01*
X127593787Y-81754463D01*
X127634974Y-81704277D01*
X127705546Y-81572247D01*
X127740083Y-81458391D01*
X127749003Y-81428986D01*
X127760000Y-81317333D01*
X127760000Y-81317324D01*
X127763676Y-81280001D01*
X127760000Y-81242678D01*
X127760000Y-79960901D01*
X127801101Y-79938932D01*
X128019608Y-79759608D01*
X128198932Y-79541101D01*
X128332182Y-79291808D01*
X128414236Y-79021309D01*
X128441943Y-78740000D01*
X128414236Y-78458691D01*
X128332182Y-78188192D01*
X128198932Y-77938899D01*
X128019608Y-77720392D01*
X127801101Y-77541068D01*
X127551808Y-77407818D01*
X127281309Y-77325764D01*
X127070492Y-77305000D01*
X126929508Y-77305000D01*
X126718691Y-77325764D01*
X126448192Y-77407818D01*
X126198899Y-77541068D01*
X125980392Y-77720392D01*
X125801068Y-77938899D01*
X125667818Y-78188192D01*
X125585764Y-78458691D01*
X125558057Y-78740000D01*
X125585764Y-79021309D01*
X125667818Y-79291808D01*
X125801068Y-79541101D01*
X125980392Y-79759608D01*
X126198899Y-79938932D01*
X126240000Y-79960901D01*
X126240001Y-80965197D01*
X120931365Y-86273833D01*
X120786411Y-86245000D01*
X120569803Y-86245000D01*
X121161008Y-85653795D01*
X121190001Y-85630001D01*
X121213795Y-85601008D01*
X121213799Y-85601004D01*
X121284973Y-85514277D01*
X121284974Y-85514276D01*
X121355546Y-85382247D01*
X121399003Y-85238986D01*
X121410000Y-85127333D01*
X121410000Y-85127324D01*
X121413676Y-85090001D01*
X121410000Y-85052678D01*
X121410000Y-71792322D01*
X121413676Y-71754999D01*
X121410000Y-71717676D01*
X121410000Y-71717667D01*
X121399003Y-71606014D01*
X121355546Y-71462753D01*
X121284974Y-71330724D01*
X121190001Y-71214999D01*
X121161004Y-71191202D01*
X120652694Y-70682893D01*
X120672185Y-70485000D01*
X120643513Y-70193889D01*
X120558599Y-69913966D01*
X120420706Y-69655986D01*
X120235134Y-69429866D01*
X120009014Y-69244294D01*
X119954209Y-69215000D01*
X120009014Y-69185706D01*
X120235134Y-69000134D01*
X120420706Y-68774014D01*
X120558599Y-68516034D01*
X120643513Y-68236111D01*
X120672185Y-67945000D01*
X120643513Y-67653889D01*
X120558599Y-67373966D01*
X120420706Y-67115986D01*
X120235134Y-66889866D01*
X120009014Y-66704294D01*
X119954209Y-66675000D01*
X120009014Y-66645706D01*
X120235134Y-66460134D01*
X120420706Y-66234014D01*
X120558599Y-65976034D01*
X120567130Y-65947911D01*
X121620000Y-65947911D01*
X121620000Y-66132089D01*
X121655932Y-66312729D01*
X121726414Y-66482889D01*
X121828738Y-66636028D01*
X121958972Y-66766262D01*
X122112111Y-66868586D01*
X122282271Y-66939068D01*
X122403351Y-66963153D01*
X123065000Y-67624802D01*
X123065001Y-77559463D01*
X122996414Y-77662111D01*
X122925932Y-77832271D01*
X122890000Y-78012911D01*
X122890000Y-78197089D01*
X122925932Y-78377729D01*
X122996414Y-78547889D01*
X123098738Y-78701028D01*
X123228972Y-78831262D01*
X123382111Y-78933586D01*
X123552271Y-79004068D01*
X123732911Y-79040000D01*
X123917089Y-79040000D01*
X124097729Y-79004068D01*
X124267889Y-78933586D01*
X124421028Y-78831262D01*
X124551262Y-78701028D01*
X124653586Y-78547889D01*
X124724068Y-78377729D01*
X124760000Y-78197089D01*
X124760000Y-78012911D01*
X124724068Y-77832271D01*
X124653586Y-77662111D01*
X124585000Y-77559465D01*
X124585000Y-67347322D01*
X124588676Y-67309999D01*
X124585000Y-67272676D01*
X124585000Y-67272667D01*
X124574003Y-67161014D01*
X124530546Y-67017753D01*
X124459974Y-66885724D01*
X124365001Y-66769999D01*
X124336004Y-66746202D01*
X123488467Y-65898665D01*
X125565000Y-65898665D01*
X125565000Y-66181335D01*
X125620147Y-66458574D01*
X125728320Y-66719727D01*
X125885363Y-66954759D01*
X126085241Y-67154637D01*
X126317759Y-67310000D01*
X126085241Y-67465363D01*
X125885363Y-67665241D01*
X125728320Y-67900273D01*
X125620147Y-68161426D01*
X125565000Y-68438665D01*
X125565000Y-68721335D01*
X125620147Y-68998574D01*
X125728320Y-69259727D01*
X125885363Y-69494759D01*
X126085241Y-69694637D01*
X126320273Y-69851680D01*
X126581426Y-69959853D01*
X126858665Y-70015000D01*
X127141335Y-70015000D01*
X127418574Y-69959853D01*
X127679727Y-69851680D01*
X127914759Y-69694637D01*
X128114637Y-69494759D01*
X128271680Y-69259727D01*
X128379853Y-68998574D01*
X128435000Y-68721335D01*
X128435000Y-68438665D01*
X128379853Y-68161426D01*
X128271680Y-67900273D01*
X128114637Y-67665241D01*
X127914759Y-67465363D01*
X127682241Y-67310000D01*
X127914759Y-67154637D01*
X128114637Y-66954759D01*
X128271680Y-66719727D01*
X128379853Y-66458574D01*
X128435000Y-66181335D01*
X128435000Y-65898665D01*
X128379853Y-65621426D01*
X128271680Y-65360273D01*
X128114637Y-65125241D01*
X127914759Y-64925363D01*
X127679727Y-64768320D01*
X127418574Y-64660147D01*
X127141335Y-64605000D01*
X126858665Y-64605000D01*
X126581426Y-64660147D01*
X126320273Y-64768320D01*
X126085241Y-64925363D01*
X125885363Y-65125241D01*
X125728320Y-65360273D01*
X125620147Y-65621426D01*
X125565000Y-65898665D01*
X123488467Y-65898665D01*
X123478153Y-65888351D01*
X123454068Y-65767271D01*
X123383586Y-65597111D01*
X123281262Y-65443972D01*
X123151028Y-65313738D01*
X122997889Y-65211414D01*
X122827729Y-65140932D01*
X122647089Y-65105000D01*
X122462911Y-65105000D01*
X122282271Y-65140932D01*
X122112111Y-65211414D01*
X121958972Y-65313738D01*
X121828738Y-65443972D01*
X121726414Y-65597111D01*
X121655932Y-65767271D01*
X121620000Y-65947911D01*
X120567130Y-65947911D01*
X120643513Y-65696111D01*
X120672185Y-65405000D01*
X120652694Y-65207107D01*
X121161004Y-64698798D01*
X121190001Y-64675001D01*
X121284974Y-64559276D01*
X121355546Y-64427247D01*
X121399003Y-64283986D01*
X121410000Y-64172333D01*
X121410000Y-64172324D01*
X121413676Y-64135001D01*
X121410000Y-64097678D01*
X121410000Y-56829801D01*
X122359802Y-55880000D01*
X125558057Y-55880000D01*
X125585764Y-56161309D01*
X125667818Y-56431808D01*
X125801068Y-56681101D01*
X125980392Y-56899608D01*
X126198899Y-57078932D01*
X126448192Y-57212182D01*
X126718691Y-57294236D01*
X126929508Y-57315000D01*
X127070492Y-57315000D01*
X127281309Y-57294236D01*
X127551808Y-57212182D01*
X127801101Y-57078932D01*
X128019608Y-56899608D01*
X128198932Y-56681101D01*
X128332182Y-56431808D01*
X128414236Y-56161309D01*
X128441943Y-55880000D01*
X128414236Y-55598691D01*
X128332182Y-55328192D01*
X128198932Y-55078899D01*
X128019608Y-54860392D01*
X127888396Y-54752709D01*
X128053574Y-54719853D01*
X128314727Y-54611680D01*
X128549759Y-54454637D01*
X128749637Y-54254759D01*
X128906680Y-54019727D01*
X129014853Y-53758574D01*
X129070000Y-53481335D01*
X129070000Y-53198665D01*
X129014853Y-52921426D01*
X128906680Y-52660273D01*
X128749637Y-52425241D01*
X128549759Y-52225363D01*
X128314727Y-52068320D01*
X128053574Y-51960147D01*
X127776335Y-51905000D01*
X127493665Y-51905000D01*
X127216426Y-51960147D01*
X126955273Y-52068320D01*
X126720241Y-52225363D01*
X126520363Y-52425241D01*
X126363320Y-52660273D01*
X126255147Y-52921426D01*
X126200000Y-53198665D01*
X126200000Y-53481335D01*
X126255147Y-53758574D01*
X126363320Y-54019727D01*
X126520363Y-54254759D01*
X126720241Y-54454637D01*
X126734555Y-54464201D01*
X126718691Y-54465764D01*
X126448192Y-54547818D01*
X126198899Y-54681068D01*
X125980392Y-54860392D01*
X125801068Y-55078899D01*
X125667818Y-55328192D01*
X125585764Y-55598691D01*
X125558057Y-55880000D01*
X122359802Y-55880000D01*
X122908636Y-55331167D01*
X123053589Y-55360000D01*
X123326411Y-55360000D01*
X123593989Y-55306775D01*
X123846043Y-55202371D01*
X124072886Y-55050799D01*
X124265799Y-54857886D01*
X124417371Y-54631043D01*
X124521775Y-54378989D01*
X124575000Y-54111411D01*
X124575000Y-53838589D01*
X124521775Y-53571011D01*
X124417371Y-53318957D01*
X124265799Y-53092114D01*
X124072886Y-52899201D01*
X123846043Y-52747629D01*
X123593989Y-52643225D01*
X123326411Y-52590000D01*
X123053589Y-52590000D01*
X122786011Y-52643225D01*
X122533957Y-52747629D01*
X122307114Y-52899201D01*
X122114201Y-53092114D01*
X121962629Y-53318957D01*
X121920000Y-53421873D01*
X121877371Y-53318957D01*
X121725799Y-53092114D01*
X121532886Y-52899201D01*
X121306043Y-52747629D01*
X121053989Y-52643225D01*
X120786411Y-52590000D01*
X120513589Y-52590000D01*
X120246011Y-52643225D01*
X119993957Y-52747629D01*
X119767114Y-52899201D01*
X119574201Y-53092114D01*
X119496445Y-53208483D01*
X119485812Y-53100518D01*
X119449502Y-52980820D01*
X119390537Y-52870506D01*
X119311185Y-52773815D01*
X119214494Y-52694463D01*
X119104180Y-52635498D01*
X118984482Y-52599188D01*
X118860000Y-52586928D01*
X118395750Y-52590000D01*
X118237000Y-52748750D01*
X118237000Y-53848000D01*
X118257000Y-53848000D01*
X118257000Y-54102000D01*
X118237000Y-54102000D01*
X118237000Y-55201250D01*
X118395750Y-55360000D01*
X118860000Y-55363072D01*
X118984482Y-55350812D01*
X119104180Y-55314502D01*
X119214494Y-55255537D01*
X119311185Y-55176185D01*
X119390537Y-55079494D01*
X119449502Y-54969180D01*
X119485812Y-54849482D01*
X119496445Y-54741517D01*
X119574201Y-54857886D01*
X119767114Y-55050799D01*
X119993957Y-55202371D01*
X120246011Y-55306775D01*
X120513589Y-55360000D01*
X120730199Y-55360000D01*
X120138998Y-55951201D01*
X120110000Y-55974999D01*
X120086202Y-56003997D01*
X120086201Y-56003998D01*
X120015026Y-56090724D01*
X119944454Y-56222754D01*
X119900998Y-56366015D01*
X119886324Y-56515000D01*
X119890001Y-56552332D01*
X119890001Y-59013413D01*
X119883411Y-59009010D01*
X119613158Y-58897068D01*
X119326260Y-58840000D01*
X119033740Y-58840000D01*
X118746842Y-58897068D01*
X118476589Y-59009010D01*
X118233368Y-59171525D01*
X118026525Y-59378368D01*
X117864010Y-59621589D01*
X117752068Y-59891842D01*
X117715428Y-60076045D01*
X117684798Y-59975073D01*
X117600299Y-59816986D01*
X117600298Y-59816984D01*
X117560918Y-59768999D01*
X117486581Y-59678419D01*
X117451851Y-59649917D01*
X116480000Y-58678067D01*
X116480000Y-54725000D01*
X116721928Y-54725000D01*
X116734188Y-54849482D01*
X116770498Y-54969180D01*
X116829463Y-55079494D01*
X116908815Y-55176185D01*
X117005506Y-55255537D01*
X117115820Y-55314502D01*
X117235518Y-55350812D01*
X117360000Y-55363072D01*
X117824250Y-55360000D01*
X117983000Y-55201250D01*
X117983000Y-54102000D01*
X116883750Y-54102000D01*
X116725000Y-54260750D01*
X116721928Y-54725000D01*
X116480000Y-54725000D01*
X116480000Y-53225000D01*
X116721928Y-53225000D01*
X116725000Y-53689250D01*
X116883750Y-53848000D01*
X117983000Y-53848000D01*
X117983000Y-52748750D01*
X117824250Y-52590000D01*
X117360000Y-52586928D01*
X117235518Y-52599188D01*
X117115820Y-52635498D01*
X117005506Y-52694463D01*
X116908815Y-52773815D01*
X116829463Y-52870506D01*
X116770498Y-52980820D01*
X116734188Y-53100518D01*
X116721928Y-53225000D01*
X116480000Y-53225000D01*
X116480000Y-52749703D01*
X116484403Y-52705001D01*
X116480000Y-52660296D01*
X116480000Y-52446933D01*
X116816851Y-52110083D01*
X116851581Y-52081581D01*
X116965298Y-51943015D01*
X117049798Y-51784927D01*
X117101833Y-51613391D01*
X117115000Y-51479704D01*
X117115000Y-51479702D01*
X117119403Y-51435000D01*
X117115000Y-51390296D01*
X117115000Y-50884341D01*
X117332963Y-50705463D01*
X117531345Y-50463734D01*
X117544031Y-50440000D01*
X118065298Y-50440000D01*
X118110000Y-50444403D01*
X118154702Y-50440000D01*
X118154704Y-50440000D01*
X118288391Y-50426833D01*
X118459927Y-50374798D01*
X118618015Y-50290298D01*
X118756581Y-50176581D01*
X118785087Y-50141846D01*
X121896853Y-47030081D01*
X121931581Y-47001581D01*
X122043914Y-46864702D01*
X122045298Y-46863016D01*
X122129798Y-46704927D01*
X122149471Y-46640073D01*
X122181833Y-46533391D01*
X122195000Y-46399704D01*
X122195000Y-46399703D01*
X122199403Y-46355001D01*
X122195000Y-46310299D01*
X122195000Y-45877238D01*
X122209482Y-45875812D01*
X122329180Y-45839502D01*
X122439494Y-45780537D01*
X122536185Y-45701185D01*
X122546807Y-45688242D01*
X122798996Y-45807571D01*
X123073184Y-45876300D01*
X123355512Y-45890217D01*
X123635130Y-45848787D01*
X123901292Y-45753603D01*
X124026514Y-45686671D01*
X124098097Y-45442702D01*
X123285000Y-44629605D01*
X123270858Y-44643748D01*
X123091253Y-44464143D01*
X123105395Y-44450000D01*
X123464605Y-44450000D01*
X124277702Y-45263097D01*
X124521671Y-45191514D01*
X124642571Y-44936004D01*
X124711300Y-44661816D01*
X124725217Y-44379488D01*
X124683787Y-44099870D01*
X124588603Y-43833708D01*
X124521671Y-43708486D01*
X124277702Y-43636903D01*
X123464605Y-44450000D01*
X123105395Y-44450000D01*
X123091253Y-44435858D01*
X123270858Y-44256253D01*
X123285000Y-44270395D01*
X124098097Y-43457298D01*
X124026514Y-43213329D01*
X123771004Y-43092429D01*
X123496816Y-43023700D01*
X123214488Y-43009783D01*
X122934870Y-43051213D01*
X122668708Y-43146397D01*
X122546691Y-43211616D01*
X122536185Y-43198815D01*
X122439494Y-43119463D01*
X122329180Y-43060498D01*
X122209482Y-43024188D01*
X122195000Y-43022762D01*
X122195000Y-42589702D01*
X122199403Y-42545000D01*
X122195000Y-42500296D01*
X122195000Y-42286933D01*
X122931934Y-41550000D01*
X125353067Y-41550000D01*
X126347557Y-42544491D01*
X126302818Y-42628192D01*
X126220764Y-42898691D01*
X126193057Y-43180000D01*
X126220764Y-43461309D01*
X126302818Y-43731808D01*
X126436068Y-43981101D01*
X126615392Y-44199608D01*
X126833899Y-44378932D01*
X127083192Y-44512182D01*
X127353691Y-44594236D01*
X127564508Y-44615000D01*
X127705492Y-44615000D01*
X127916309Y-44594236D01*
X128186808Y-44512182D01*
X128436101Y-44378932D01*
X128654608Y-44199608D01*
X128833932Y-43981101D01*
X128967182Y-43731808D01*
X129049236Y-43461309D01*
X129076943Y-43180000D01*
X129049236Y-42898691D01*
X128967182Y-42628192D01*
X128833932Y-42378899D01*
X128654608Y-42160392D01*
X128436101Y-41981068D01*
X128281663Y-41898519D01*
X128281581Y-41898419D01*
X128246851Y-41869918D01*
X126405087Y-40028154D01*
X126376581Y-39993419D01*
X126238015Y-39879702D01*
X126079927Y-39795202D01*
X125908391Y-39743167D01*
X125774704Y-39730000D01*
X125774702Y-39730000D01*
X125730000Y-39725597D01*
X125685298Y-39730000D01*
X122599701Y-39730000D01*
X122554999Y-39725597D01*
X122510297Y-39730000D01*
X122510296Y-39730000D01*
X122376609Y-39743167D01*
X122205073Y-39795202D01*
X122104986Y-39848700D01*
X122046984Y-39879702D01*
X122039922Y-39885498D01*
X121908419Y-39993419D01*
X121879917Y-40028149D01*
X121560000Y-40348066D01*
X121560000Y-32214117D01*
X125900000Y-32214117D01*
X125900000Y-32555883D01*
X125966675Y-32891081D01*
X126097463Y-33206831D01*
X126287337Y-33490998D01*
X126529002Y-33732663D01*
X126813169Y-33922537D01*
X127128919Y-34053325D01*
X127464117Y-34120000D01*
X127805883Y-34120000D01*
X128141081Y-34053325D01*
X128456831Y-33922537D01*
X128740998Y-33732663D01*
X128982663Y-33490998D01*
X129172537Y-33206831D01*
X129303325Y-32891081D01*
X129370000Y-32555883D01*
X129370000Y-32214117D01*
X129303325Y-31878919D01*
X129172537Y-31563169D01*
X128982663Y-31279002D01*
X128740998Y-31037337D01*
X128456831Y-30847463D01*
X128141081Y-30716675D01*
X127805883Y-30650000D01*
X127464117Y-30650000D01*
X127128919Y-30716675D01*
X126813169Y-30847463D01*
X126529002Y-31037337D01*
X126287337Y-31279002D01*
X126097463Y-31563169D01*
X125966675Y-31878919D01*
X125900000Y-32214117D01*
X121560000Y-32214117D01*
X121560000Y-27984701D01*
X121564402Y-27940000D01*
X126828057Y-27940000D01*
X126855764Y-28221309D01*
X126937818Y-28491808D01*
X127071068Y-28741101D01*
X127250392Y-28959608D01*
X127468899Y-29138932D01*
X127718192Y-29272182D01*
X127988691Y-29354236D01*
X128199508Y-29375000D01*
X128340492Y-29375000D01*
X128551309Y-29354236D01*
X128821808Y-29272182D01*
X129071101Y-29138932D01*
X129289608Y-28959608D01*
X129468932Y-28741101D01*
X129602182Y-28491808D01*
X129684236Y-28221309D01*
X129711943Y-27940000D01*
X129684236Y-27658691D01*
X129602182Y-27388192D01*
X129468932Y-27138899D01*
X129289608Y-26920392D01*
X129071101Y-26741068D01*
X128821808Y-26607818D01*
X128551309Y-26525764D01*
X128340492Y-26505000D01*
X128199508Y-26505000D01*
X127988691Y-26525764D01*
X127718192Y-26607818D01*
X127468899Y-26741068D01*
X127250392Y-26920392D01*
X127071068Y-27138899D01*
X126937818Y-27388192D01*
X126855764Y-27658691D01*
X126828057Y-27940000D01*
X121564402Y-27940000D01*
X121564403Y-27939999D01*
X121560000Y-27895296D01*
X121546833Y-27761609D01*
X121494798Y-27590073D01*
X121410298Y-27431985D01*
X121296581Y-27293419D01*
X121261853Y-27264919D01*
X118785087Y-24788154D01*
X118756581Y-24753419D01*
X118618015Y-24639702D01*
X118459927Y-24555202D01*
X118288391Y-24503167D01*
X118154704Y-24490000D01*
X118154702Y-24490000D01*
X118110000Y-24485597D01*
X118065298Y-24490000D01*
X109566934Y-24490000D01*
X109144008Y-24067075D01*
X109151185Y-24061185D01*
X109230537Y-23964494D01*
X109289502Y-23854180D01*
X109325812Y-23734482D01*
X109336445Y-23626517D01*
X109414201Y-23742886D01*
X109607114Y-23935799D01*
X109833957Y-24087371D01*
X110086011Y-24191775D01*
X110353589Y-24245000D01*
X110626411Y-24245000D01*
X110893989Y-24191775D01*
X111146043Y-24087371D01*
X111372886Y-23935799D01*
X111565799Y-23742886D01*
X111717371Y-23516043D01*
X111760000Y-23413127D01*
X111802629Y-23516043D01*
X111954201Y-23742886D01*
X112147114Y-23935799D01*
X112373957Y-24087371D01*
X112626011Y-24191775D01*
X112893589Y-24245000D01*
X113166411Y-24245000D01*
X113433989Y-24191775D01*
X113686043Y-24087371D01*
X113912886Y-23935799D01*
X114105799Y-23742886D01*
X114257371Y-23516043D01*
X114361775Y-23263989D01*
X114415000Y-22996411D01*
X114415000Y-22723589D01*
X114414021Y-22718665D01*
X116675000Y-22718665D01*
X116675000Y-23001335D01*
X116730147Y-23278574D01*
X116838320Y-23539727D01*
X116995363Y-23774759D01*
X117195241Y-23974637D01*
X117430273Y-24131680D01*
X117691426Y-24239853D01*
X117968665Y-24295000D01*
X118251335Y-24295000D01*
X118528574Y-24239853D01*
X118789727Y-24131680D01*
X119024759Y-23974637D01*
X119224637Y-23774759D01*
X119381680Y-23539727D01*
X119489853Y-23278574D01*
X119545000Y-23001335D01*
X119545000Y-22860000D01*
X126828057Y-22860000D01*
X126855764Y-23141309D01*
X126937818Y-23411808D01*
X127071068Y-23661101D01*
X127250392Y-23879608D01*
X127468899Y-24058932D01*
X127718192Y-24192182D01*
X127988691Y-24274236D01*
X128199508Y-24295000D01*
X128340492Y-24295000D01*
X128551309Y-24274236D01*
X128821808Y-24192182D01*
X129071101Y-24058932D01*
X129289608Y-23879608D01*
X129468932Y-23661101D01*
X129602182Y-23411808D01*
X129684236Y-23141309D01*
X129711943Y-22860000D01*
X129684236Y-22578691D01*
X129602182Y-22308192D01*
X129468932Y-22058899D01*
X129289608Y-21840392D01*
X129071101Y-21661068D01*
X128821808Y-21527818D01*
X128551309Y-21445764D01*
X128340492Y-21425000D01*
X128199508Y-21425000D01*
X127988691Y-21445764D01*
X127718192Y-21527818D01*
X127468899Y-21661068D01*
X127250392Y-21840392D01*
X127071068Y-22058899D01*
X126937818Y-22308192D01*
X126855764Y-22578691D01*
X126828057Y-22860000D01*
X119545000Y-22860000D01*
X119545000Y-22718665D01*
X119489853Y-22441426D01*
X119381680Y-22180273D01*
X119224637Y-21945241D01*
X119024759Y-21745363D01*
X118789727Y-21588320D01*
X118528574Y-21480147D01*
X118251335Y-21425000D01*
X117968665Y-21425000D01*
X117691426Y-21480147D01*
X117430273Y-21588320D01*
X117195241Y-21745363D01*
X116995363Y-21945241D01*
X116838320Y-22180273D01*
X116730147Y-22441426D01*
X116675000Y-22718665D01*
X114414021Y-22718665D01*
X114361775Y-22456011D01*
X114257371Y-22203957D01*
X114105799Y-21977114D01*
X113912886Y-21784201D01*
X113686043Y-21632629D01*
X113433989Y-21528225D01*
X113166411Y-21475000D01*
X112893589Y-21475000D01*
X112626011Y-21528225D01*
X112373957Y-21632629D01*
X112147114Y-21784201D01*
X111954201Y-21977114D01*
X111802629Y-22203957D01*
X111760000Y-22306873D01*
X111717371Y-22203957D01*
X111565799Y-21977114D01*
X111372886Y-21784201D01*
X111146043Y-21632629D01*
X110893989Y-21528225D01*
X110626411Y-21475000D01*
X110353589Y-21475000D01*
X110086011Y-21528225D01*
X109833957Y-21632629D01*
X109607114Y-21784201D01*
X109414201Y-21977114D01*
X109336445Y-22093483D01*
X109325812Y-21985518D01*
X109289502Y-21865820D01*
X109230537Y-21755506D01*
X109151185Y-21658815D01*
X109054494Y-21579463D01*
X108944180Y-21520498D01*
X108824482Y-21484188D01*
X108700000Y-21471928D01*
X107200000Y-21471928D01*
X107075518Y-21484188D01*
X106955820Y-21520498D01*
X106845506Y-21579463D01*
X106748815Y-21658815D01*
X106669463Y-21755506D01*
X106610498Y-21865820D01*
X106574188Y-21985518D01*
X106561928Y-22110000D01*
X106561928Y-23610000D01*
X106574188Y-23734482D01*
X106610498Y-23854180D01*
X106669463Y-23964494D01*
X106748815Y-24061185D01*
X106845506Y-24140537D01*
X106955820Y-24199502D01*
X107042064Y-24225664D01*
X107053167Y-24338390D01*
X107103152Y-24503167D01*
X107105202Y-24509926D01*
X107189702Y-24668015D01*
X107218953Y-24703657D01*
X107303419Y-24806581D01*
X107338154Y-24835087D01*
X108514917Y-26011851D01*
X108543419Y-26046581D01*
X108633999Y-26120918D01*
X108681984Y-26160298D01*
X108840073Y-26244798D01*
X109011609Y-26296833D01*
X109145296Y-26310000D01*
X109145298Y-26310000D01*
X109190000Y-26314403D01*
X109234702Y-26310000D01*
X117733067Y-26310000D01*
X117934803Y-26511736D01*
X117691426Y-26560147D01*
X117430273Y-26668320D01*
X117195241Y-26825363D01*
X116995363Y-27025241D01*
X116838320Y-27260273D01*
X116730147Y-27521426D01*
X116675000Y-27798665D01*
X116675000Y-28081335D01*
X116730147Y-28358574D01*
X116838320Y-28619727D01*
X116995363Y-28854759D01*
X117195241Y-29054637D01*
X117430273Y-29211680D01*
X117691426Y-29319853D01*
X117968665Y-29375000D01*
X118251335Y-29375000D01*
X118528574Y-29319853D01*
X118789727Y-29211680D01*
X119024759Y-29054637D01*
X119224637Y-28854759D01*
X119381680Y-28619727D01*
X119489853Y-28358574D01*
X119538264Y-28115198D01*
X119740000Y-28316934D01*
X119740001Y-41865288D01*
X119735597Y-41910000D01*
X119753168Y-42088391D01*
X119805202Y-42259926D01*
X119889702Y-42418015D01*
X119899123Y-42429494D01*
X120003420Y-42556581D01*
X120038149Y-42585082D01*
X120375000Y-42921934D01*
X120375000Y-43022762D01*
X120360518Y-43024188D01*
X120240820Y-43060498D01*
X120130506Y-43119463D01*
X120033815Y-43198815D01*
X119954463Y-43295506D01*
X119895498Y-43405820D01*
X119859188Y-43525518D01*
X119846928Y-43650000D01*
X119846928Y-45250000D01*
X119859188Y-45374482D01*
X119895498Y-45494180D01*
X119954463Y-45604494D01*
X120033815Y-45701185D01*
X120130506Y-45780537D01*
X120240820Y-45839502D01*
X120360518Y-45875812D01*
X120375000Y-45877238D01*
X120375000Y-45978066D01*
X117733067Y-48620000D01*
X117544032Y-48620000D01*
X117531345Y-48596265D01*
X117332963Y-48354537D01*
X117091234Y-48156155D01*
X116815448Y-48008745D01*
X116516203Y-47917970D01*
X116205000Y-47887319D01*
X115893796Y-47917970D01*
X115594551Y-48008745D01*
X115318765Y-48156155D01*
X115077037Y-48354537D01*
X114929838Y-48533900D01*
X114774437Y-48348685D01*
X114531923Y-48154031D01*
X114256094Y-48010429D01*
X114037980Y-47939437D01*
X113792000Y-48059406D01*
X113792000Y-49403000D01*
X113812000Y-49403000D01*
X113812000Y-49657000D01*
X113792000Y-49657000D01*
X113792000Y-51000594D01*
X114037980Y-51120563D01*
X114256094Y-51049571D01*
X114531923Y-50905969D01*
X114774437Y-50711315D01*
X114929837Y-50526101D01*
X115077037Y-50705463D01*
X115295001Y-50884341D01*
X115295001Y-51058066D01*
X114958153Y-51394914D01*
X114923419Y-51423419D01*
X114838953Y-51526343D01*
X114809702Y-51561985D01*
X114782225Y-51613391D01*
X114725202Y-51720074D01*
X114673167Y-51891610D01*
X114667938Y-51944702D01*
X114655597Y-52070000D01*
X114660000Y-52114702D01*
X114660000Y-52328066D01*
X114302314Y-52685752D01*
X114083574Y-52595147D01*
X113806335Y-52540000D01*
X113523665Y-52540000D01*
X113246426Y-52595147D01*
X112985273Y-52703320D01*
X112750241Y-52860363D01*
X112550363Y-53060241D01*
X112416308Y-53260869D01*
X112401671Y-53233486D01*
X112157702Y-53161903D01*
X111344605Y-53975000D01*
X112157702Y-54788097D01*
X112401671Y-54716514D01*
X112415324Y-54687659D01*
X112550363Y-54889759D01*
X112750241Y-55089637D01*
X112985273Y-55246680D01*
X113246426Y-55354853D01*
X113523665Y-55410000D01*
X113806335Y-55410000D01*
X114083574Y-55354853D01*
X114344727Y-55246680D01*
X114579759Y-55089637D01*
X114660000Y-55009396D01*
X114660001Y-58678065D01*
X114441111Y-58896955D01*
X114370492Y-58890000D01*
X114229508Y-58890000D01*
X114018691Y-58910764D01*
X113748192Y-58992818D01*
X113498899Y-59126068D01*
X113280392Y-59305392D01*
X113190439Y-59415000D01*
X112439701Y-59415000D01*
X112394999Y-59410597D01*
X112350297Y-59415000D01*
X112350296Y-59415000D01*
X112216609Y-59428167D01*
X112045073Y-59480202D01*
X111886985Y-59564702D01*
X111748419Y-59678419D01*
X111719918Y-59713148D01*
X109478067Y-61955000D01*
X107854242Y-61955000D01*
X107735134Y-61809866D01*
X107705313Y-61785393D01*
X107774180Y-61764502D01*
X107884494Y-61705537D01*
X107981185Y-61626185D01*
X108060537Y-61529494D01*
X108119502Y-61419180D01*
X108155812Y-61299482D01*
X108168072Y-61175000D01*
X108165000Y-60610750D01*
X108006250Y-60452000D01*
X106807000Y-60452000D01*
X106807000Y-60472000D01*
X106553000Y-60472000D01*
X106553000Y-60452000D01*
X105353750Y-60452000D01*
X105195000Y-60610750D01*
X105191928Y-61175000D01*
X105204188Y-61299482D01*
X105240498Y-61419180D01*
X105299463Y-61529494D01*
X105378815Y-61626185D01*
X105475506Y-61705537D01*
X105585820Y-61764502D01*
X105654687Y-61785393D01*
X105624866Y-61809866D01*
X105439294Y-62035986D01*
X105301401Y-62293966D01*
X105216487Y-62573889D01*
X105187815Y-62865000D01*
X105216487Y-63156111D01*
X105301401Y-63436034D01*
X105439294Y-63694014D01*
X105624866Y-63920134D01*
X105850986Y-64105706D01*
X105905791Y-64135000D01*
X105850986Y-64164294D01*
X105624866Y-64349866D01*
X105587825Y-64395000D01*
X105193355Y-64395000D01*
X101816462Y-61018107D01*
X101822185Y-60960000D01*
X101793513Y-60668889D01*
X101708599Y-60388966D01*
X101570706Y-60130986D01*
X101385134Y-59904866D01*
X101159014Y-59719294D01*
X100901034Y-59581401D01*
X100621111Y-59496487D01*
X100402950Y-59475000D01*
X105191928Y-59475000D01*
X105195000Y-60039250D01*
X105353750Y-60198000D01*
X106553000Y-60198000D01*
X106553000Y-58998750D01*
X106807000Y-58998750D01*
X106807000Y-60198000D01*
X108006250Y-60198000D01*
X108165000Y-60039250D01*
X108168072Y-59475000D01*
X108155812Y-59350518D01*
X108119502Y-59230820D01*
X108060537Y-59120506D01*
X107981185Y-59023815D01*
X107884494Y-58944463D01*
X107774180Y-58885498D01*
X107654482Y-58849188D01*
X107530000Y-58836928D01*
X106965750Y-58840000D01*
X106807000Y-58998750D01*
X106553000Y-58998750D01*
X106394250Y-58840000D01*
X105830000Y-58836928D01*
X105705518Y-58849188D01*
X105585820Y-58885498D01*
X105475506Y-58944463D01*
X105378815Y-59023815D01*
X105299463Y-59120506D01*
X105240498Y-59230820D01*
X105204188Y-59350518D01*
X105191928Y-59475000D01*
X100402950Y-59475000D01*
X100257050Y-59475000D01*
X100038889Y-59496487D01*
X99758966Y-59581401D01*
X99500986Y-59719294D01*
X99274866Y-59904866D01*
X99089294Y-60130986D01*
X98951401Y-60388966D01*
X98866487Y-60668889D01*
X98837815Y-60960000D01*
X98866487Y-61251111D01*
X98951401Y-61531034D01*
X99089294Y-61789014D01*
X99274866Y-62015134D01*
X99304687Y-62039607D01*
X99235820Y-62060498D01*
X99125506Y-62119463D01*
X99028815Y-62198815D01*
X98949463Y-62295506D01*
X98890498Y-62405820D01*
X98854188Y-62525518D01*
X98841928Y-62650000D01*
X98841928Y-64350000D01*
X98854188Y-64474482D01*
X98890498Y-64594180D01*
X98949463Y-64704494D01*
X99028815Y-64801185D01*
X99125506Y-64880537D01*
X99235820Y-64939502D01*
X99355518Y-64975812D01*
X99480000Y-64988072D01*
X100389717Y-64988072D01*
X104025739Y-68624094D01*
X104057367Y-68662633D01*
X104211160Y-68788847D01*
X104386620Y-68882632D01*
X104577006Y-68940385D01*
X104725392Y-68955000D01*
X104725394Y-68955000D01*
X104774999Y-68959886D01*
X104824604Y-68955000D01*
X105587825Y-68955000D01*
X105624866Y-69000134D01*
X105850986Y-69185706D01*
X105905791Y-69215000D01*
X105850986Y-69244294D01*
X105624866Y-69429866D01*
X105587825Y-69475000D01*
X103923355Y-69475000D01*
X103619261Y-69170906D01*
X103587633Y-69132367D01*
X103433840Y-69006153D01*
X103258380Y-68912368D01*
X103067994Y-68854615D01*
X102919608Y-68840000D01*
X102870000Y-68835114D01*
X102820392Y-68840000D01*
X101422175Y-68840000D01*
X101385134Y-68794866D01*
X101159014Y-68609294D01*
X100901034Y-68471401D01*
X100621111Y-68386487D01*
X100402950Y-68365000D01*
X100257050Y-68365000D01*
X100038889Y-68386487D01*
X99758966Y-68471401D01*
X99500986Y-68609294D01*
X99274866Y-68794866D01*
X99089294Y-69020986D01*
X98951401Y-69278966D01*
X98866487Y-69558889D01*
X98837815Y-69850000D01*
X98866487Y-70141111D01*
X98951401Y-70421034D01*
X99089294Y-70679014D01*
X99274866Y-70905134D01*
X99304687Y-70929607D01*
X99235820Y-70950498D01*
X99125506Y-71009463D01*
X99028815Y-71088815D01*
X98949463Y-71185506D01*
X98890498Y-71295820D01*
X98854188Y-71415518D01*
X98841928Y-71540000D01*
X98841928Y-73240000D01*
X98854188Y-73364482D01*
X98890498Y-73484180D01*
X98949463Y-73594494D01*
X99028815Y-73691185D01*
X99125506Y-73770537D01*
X99235820Y-73829502D01*
X99355518Y-73865812D01*
X99480000Y-73878072D01*
X101180000Y-73878072D01*
X101304482Y-73865812D01*
X101424180Y-73829502D01*
X101534494Y-73770537D01*
X101631185Y-73691185D01*
X101710537Y-73594494D01*
X101769502Y-73484180D01*
X101795038Y-73400000D01*
X103086645Y-73400000D01*
X103390739Y-73704094D01*
X103422367Y-73742633D01*
X103576160Y-73868847D01*
X103751620Y-73962632D01*
X103942005Y-74020385D01*
X104140000Y-74039886D01*
X104189608Y-74035000D01*
X105587825Y-74035000D01*
X105624866Y-74080134D01*
X105850986Y-74265706D01*
X105905791Y-74295000D01*
X105850986Y-74324294D01*
X105624866Y-74509866D01*
X105439294Y-74735986D01*
X105301401Y-74993966D01*
X105216487Y-75273889D01*
X105187815Y-75565000D01*
X105216487Y-75856111D01*
X105301401Y-76136034D01*
X105439294Y-76394014D01*
X105624866Y-76620134D01*
X105850986Y-76805706D01*
X105915523Y-76840201D01*
X105798645Y-76909822D01*
X105582412Y-77104731D01*
X105408359Y-77338080D01*
X105283175Y-77600901D01*
X105238524Y-77748110D01*
X105359845Y-77978000D01*
X106553000Y-77978000D01*
X106553000Y-77958000D01*
X106807000Y-77958000D01*
X106807000Y-77978000D01*
X108000155Y-77978000D01*
X108121476Y-77748110D01*
X108076825Y-77600901D01*
X107951641Y-77338080D01*
X107777588Y-77104731D01*
X107561355Y-76909822D01*
X107444477Y-76840201D01*
X107509014Y-76805706D01*
X107735134Y-76620134D01*
X107920706Y-76394014D01*
X108058599Y-76136034D01*
X108143513Y-75856111D01*
X108172185Y-75565000D01*
X108143513Y-75273889D01*
X108120797Y-75199005D01*
X108461004Y-74858798D01*
X108490001Y-74835001D01*
X108584974Y-74719276D01*
X108655546Y-74587247D01*
X108699003Y-74443986D01*
X108710000Y-74332333D01*
X108710000Y-74332324D01*
X108713676Y-74295001D01*
X108710000Y-74257678D01*
X108710000Y-64172322D01*
X108713676Y-64134999D01*
X108710000Y-64097676D01*
X108710000Y-64097667D01*
X108699003Y-63986014D01*
X108655546Y-63842753D01*
X108619331Y-63775000D01*
X109810298Y-63775000D01*
X109855000Y-63779403D01*
X109899702Y-63775000D01*
X109899704Y-63775000D01*
X110033391Y-63761833D01*
X110204927Y-63709798D01*
X110363015Y-63625298D01*
X110501581Y-63511581D01*
X110530087Y-63476846D01*
X112771934Y-61235000D01*
X113190439Y-61235000D01*
X113280392Y-61344608D01*
X113498899Y-61523932D01*
X113748192Y-61657182D01*
X114018691Y-61739236D01*
X114229508Y-61760000D01*
X114370492Y-61760000D01*
X114581309Y-61739236D01*
X114851808Y-61657182D01*
X115101101Y-61523932D01*
X115319608Y-61344608D01*
X115498932Y-61126101D01*
X115632182Y-60876808D01*
X115714236Y-60606309D01*
X115725008Y-60496942D01*
X115930001Y-60701935D01*
X115930000Y-65995296D01*
X115925597Y-66040000D01*
X115930000Y-66084702D01*
X115930000Y-66084703D01*
X115930001Y-66084713D01*
X115930000Y-76034314D01*
X115887702Y-76021903D01*
X115074605Y-76835000D01*
X115887702Y-77648097D01*
X115930000Y-77635686D01*
X115930000Y-81235298D01*
X115925597Y-81280000D01*
X115930000Y-81324702D01*
X115930000Y-81324703D01*
X115943167Y-81458390D01*
X115977705Y-81572247D01*
X115995202Y-81629926D01*
X116079702Y-81788015D01*
X116105953Y-81820001D01*
X116193419Y-81926581D01*
X116228153Y-81955086D01*
X116487191Y-82214124D01*
X116399201Y-82302114D01*
X116247629Y-82528957D01*
X116206489Y-82628279D01*
X116191277Y-82586168D01*
X116130860Y-82473137D01*
X115891993Y-82407612D01*
X115114605Y-83185000D01*
X115128748Y-83199143D01*
X114949143Y-83378748D01*
X114935000Y-83364605D01*
X114157612Y-84141993D01*
X114223137Y-84380860D01*
X114470116Y-84496760D01*
X114734960Y-84562250D01*
X115007492Y-84574812D01*
X115277238Y-84533965D01*
X115295000Y-84527549D01*
X115295001Y-89158065D01*
X115152172Y-89300894D01*
X115157185Y-89250000D01*
X115128513Y-88958889D01*
X115043599Y-88678966D01*
X114905706Y-88420986D01*
X114720134Y-88194866D01*
X114494014Y-88009294D01*
X114236034Y-87871401D01*
X113956111Y-87786487D01*
X113737950Y-87765000D01*
X113592050Y-87765000D01*
X113373889Y-87786487D01*
X113093966Y-87871401D01*
X112835986Y-88009294D01*
X112609866Y-88194866D01*
X112424294Y-88420986D01*
X112395000Y-88475791D01*
X112365706Y-88420986D01*
X112180134Y-88194866D01*
X111954014Y-88009294D01*
X111696034Y-87871401D01*
X111416111Y-87786487D01*
X111197950Y-87765000D01*
X111052050Y-87765000D01*
X110833889Y-87786487D01*
X110615000Y-87852886D01*
X110615000Y-86674801D01*
X112716731Y-84573072D01*
X113145000Y-84573072D01*
X113269482Y-84560812D01*
X113389180Y-84524502D01*
X113499494Y-84465537D01*
X113596185Y-84386185D01*
X113675537Y-84289494D01*
X113734502Y-84179180D01*
X113770812Y-84059482D01*
X113783072Y-83935000D01*
X113783072Y-83908914D01*
X113978007Y-83962388D01*
X114755395Y-83185000D01*
X113978007Y-82407612D01*
X113783072Y-82461086D01*
X113783072Y-82435000D01*
X113770812Y-82310518D01*
X113745783Y-82228007D01*
X114157612Y-82228007D01*
X114935000Y-83005395D01*
X115712388Y-82228007D01*
X115646863Y-81989140D01*
X115399884Y-81873240D01*
X115135040Y-81807750D01*
X114862508Y-81795188D01*
X114592762Y-81836035D01*
X114336168Y-81928723D01*
X114223137Y-81989140D01*
X114157612Y-82228007D01*
X113745783Y-82228007D01*
X113734502Y-82190820D01*
X113675537Y-82080506D01*
X113596185Y-81983815D01*
X113499494Y-81904463D01*
X113389180Y-81845498D01*
X113269482Y-81809188D01*
X113155000Y-81797913D01*
X113155000Y-78053043D01*
X113309759Y-77949637D01*
X113431694Y-77827702D01*
X114081903Y-77827702D01*
X114153486Y-78071671D01*
X114408996Y-78192571D01*
X114683184Y-78261300D01*
X114965512Y-78275217D01*
X115245130Y-78233787D01*
X115511292Y-78138603D01*
X115636514Y-78071671D01*
X115708097Y-77827702D01*
X114895000Y-77014605D01*
X114081903Y-77827702D01*
X113431694Y-77827702D01*
X113509637Y-77749759D01*
X113643692Y-77549131D01*
X113658329Y-77576514D01*
X113902298Y-77648097D01*
X114715395Y-76835000D01*
X113902298Y-76021903D01*
X113658329Y-76093486D01*
X113644676Y-76122341D01*
X113509637Y-75920241D01*
X113431694Y-75842298D01*
X114081903Y-75842298D01*
X114895000Y-76655395D01*
X115708097Y-75842298D01*
X115636514Y-75598329D01*
X115381004Y-75477429D01*
X115106816Y-75408700D01*
X114824488Y-75394783D01*
X114544870Y-75436213D01*
X114278708Y-75531397D01*
X114153486Y-75598329D01*
X114081903Y-75842298D01*
X113431694Y-75842298D01*
X113309759Y-75720363D01*
X113074727Y-75563320D01*
X112813574Y-75455147D01*
X112536335Y-75400000D01*
X112253665Y-75400000D01*
X111976426Y-75455147D01*
X111885000Y-75493017D01*
X111885000Y-70343665D01*
X112865000Y-70343665D01*
X112865000Y-70626335D01*
X112920147Y-70903574D01*
X113028320Y-71164727D01*
X113185363Y-71399759D01*
X113385241Y-71599637D01*
X113620273Y-71756680D01*
X113881426Y-71864853D01*
X114158665Y-71920000D01*
X114441335Y-71920000D01*
X114718574Y-71864853D01*
X114979727Y-71756680D01*
X115214759Y-71599637D01*
X115414637Y-71399759D01*
X115571680Y-71164727D01*
X115679853Y-70903574D01*
X115735000Y-70626335D01*
X115735000Y-70343665D01*
X115679853Y-70066426D01*
X115571680Y-69805273D01*
X115414637Y-69570241D01*
X115214759Y-69370363D01*
X114979727Y-69213320D01*
X114718574Y-69105147D01*
X114441335Y-69050000D01*
X114158665Y-69050000D01*
X113881426Y-69105147D01*
X113620273Y-69213320D01*
X113385241Y-69370363D01*
X113185363Y-69570241D01*
X113028320Y-69805273D01*
X112920147Y-70066426D01*
X112865000Y-70343665D01*
X111885000Y-70343665D01*
X111885000Y-68259801D01*
X114451649Y-65693153D01*
X114572729Y-65669068D01*
X114742889Y-65598586D01*
X114896028Y-65496262D01*
X115026262Y-65366028D01*
X115128586Y-65212889D01*
X115199068Y-65042729D01*
X115235000Y-64862089D01*
X115235000Y-64677911D01*
X115199068Y-64497271D01*
X115128586Y-64327111D01*
X115026262Y-64173972D01*
X114896028Y-64043738D01*
X114742889Y-63941414D01*
X114572729Y-63870932D01*
X114392089Y-63835000D01*
X114207911Y-63835000D01*
X114027271Y-63870932D01*
X113857111Y-63941414D01*
X113703972Y-64043738D01*
X113573738Y-64173972D01*
X113471414Y-64327111D01*
X113400932Y-64497271D01*
X113376847Y-64618351D01*
X110614003Y-67381196D01*
X110584999Y-67404999D01*
X110540694Y-67458985D01*
X110490026Y-67520724D01*
X110446451Y-67602246D01*
X110419454Y-67652754D01*
X110375997Y-67796015D01*
X110365000Y-67907668D01*
X110365000Y-67907678D01*
X110361324Y-67945000D01*
X110365000Y-67982322D01*
X110365001Y-75250197D01*
X109344003Y-76271196D01*
X109314999Y-76294999D01*
X109270685Y-76348996D01*
X109220026Y-76410724D01*
X109180394Y-76484870D01*
X109149454Y-76542754D01*
X109105997Y-76686015D01*
X109095000Y-76797668D01*
X109095000Y-76797678D01*
X109091324Y-76835000D01*
X109095000Y-76872323D01*
X109095001Y-78829463D01*
X109026414Y-78932111D01*
X108955932Y-79102271D01*
X108920000Y-79282911D01*
X108920000Y-79467089D01*
X108955932Y-79647729D01*
X109026414Y-79817889D01*
X109128738Y-79971028D01*
X109258972Y-80101262D01*
X109412111Y-80203586D01*
X109582271Y-80274068D01*
X109762911Y-80310000D01*
X109947089Y-80310000D01*
X110127729Y-80274068D01*
X110297889Y-80203586D01*
X110451028Y-80101262D01*
X110581262Y-79971028D01*
X110683586Y-79817889D01*
X110754068Y-79647729D01*
X110790000Y-79467089D01*
X110790000Y-79282911D01*
X110754068Y-79102271D01*
X110683586Y-78932111D01*
X110615000Y-78829465D01*
X110615000Y-77149801D01*
X110960000Y-76804801D01*
X110960000Y-76976335D01*
X111015147Y-77253574D01*
X111123320Y-77514727D01*
X111280363Y-77749759D01*
X111480241Y-77949637D01*
X111635000Y-78053044D01*
X111635001Y-81797913D01*
X111520518Y-81809188D01*
X111400820Y-81845498D01*
X111290506Y-81904463D01*
X111193815Y-81983815D01*
X111114463Y-82080506D01*
X111055498Y-82190820D01*
X111019188Y-82310518D01*
X111007913Y-82425000D01*
X108653313Y-82425000D01*
X108507312Y-82206495D01*
X108293505Y-81992688D01*
X108042095Y-81824701D01*
X107762743Y-81708989D01*
X107466184Y-81650000D01*
X107163816Y-81650000D01*
X106867257Y-81708989D01*
X106587905Y-81824701D01*
X106336495Y-81992688D01*
X106270056Y-82059127D01*
X106264502Y-82040820D01*
X106205537Y-81930506D01*
X106126185Y-81833815D01*
X106029494Y-81754463D01*
X105919180Y-81695498D01*
X105799482Y-81659188D01*
X105675000Y-81646928D01*
X103875000Y-81646928D01*
X103750518Y-81659188D01*
X103630820Y-81695498D01*
X103520506Y-81754463D01*
X103423815Y-81833815D01*
X103344463Y-81930506D01*
X103285498Y-82040820D01*
X103249188Y-82160518D01*
X103236928Y-82285000D01*
X103236928Y-84085000D01*
X103249188Y-84209482D01*
X103285498Y-84329180D01*
X103344463Y-84439494D01*
X103423815Y-84536185D01*
X103520506Y-84615537D01*
X103630820Y-84674502D01*
X103750518Y-84710812D01*
X103875000Y-84723072D01*
X105675000Y-84723072D01*
X105799482Y-84710812D01*
X105919180Y-84674502D01*
X106029494Y-84615537D01*
X106126185Y-84536185D01*
X106205537Y-84439494D01*
X106264502Y-84329180D01*
X106270056Y-84310873D01*
X106336495Y-84377312D01*
X106587905Y-84545299D01*
X106867257Y-84661011D01*
X107163816Y-84720000D01*
X107466184Y-84720000D01*
X107762743Y-84661011D01*
X108042095Y-84545299D01*
X108293505Y-84377312D01*
X108507312Y-84163505D01*
X108653313Y-83945000D01*
X111007913Y-83945000D01*
X111019188Y-84059482D01*
X111033508Y-84106689D01*
X109344003Y-85796196D01*
X109314999Y-85819999D01*
X109265460Y-85880363D01*
X109220026Y-85935724D01*
X109191513Y-85989068D01*
X109149454Y-86067754D01*
X109105997Y-86211015D01*
X109095000Y-86322668D01*
X109095000Y-86322678D01*
X109091324Y-86360000D01*
X109095000Y-86397323D01*
X109095000Y-87852887D01*
X108876111Y-87786487D01*
X108657950Y-87765000D01*
X108512050Y-87765000D01*
X108293889Y-87786487D01*
X108013966Y-87871401D01*
X107755986Y-88009294D01*
X107529866Y-88194866D01*
X107344294Y-88420986D01*
X107315000Y-88475791D01*
X107285706Y-88420986D01*
X107100134Y-88194866D01*
X106874014Y-88009294D01*
X106616034Y-87871401D01*
X106336111Y-87786487D01*
X106117950Y-87765000D01*
X105972050Y-87765000D01*
X105753889Y-87786487D01*
X105473966Y-87871401D01*
X105215986Y-88009294D01*
X104989866Y-88194866D01*
X104965393Y-88224687D01*
X104944502Y-88155820D01*
X104885537Y-88045506D01*
X104806185Y-87948815D01*
X104709494Y-87869463D01*
X104599180Y-87810498D01*
X104479482Y-87774188D01*
X104355000Y-87761928D01*
X102655000Y-87761928D01*
X102530518Y-87774188D01*
X102410820Y-87810498D01*
X102300506Y-87869463D01*
X102203815Y-87948815D01*
X102124463Y-88045506D01*
X102065498Y-88155820D01*
X102029188Y-88275518D01*
X102016928Y-88400000D01*
X102016928Y-90100000D01*
X102029188Y-90224482D01*
X102065498Y-90344180D01*
X102124463Y-90454494D01*
X102203815Y-90551185D01*
X102300506Y-90630537D01*
X102410820Y-90689502D01*
X102486626Y-90712498D01*
X102309822Y-90908645D01*
X102160843Y-91158748D01*
X102158625Y-91165000D01*
X101976934Y-91165000D01*
X101640086Y-90828153D01*
X101611581Y-90793419D01*
X101473015Y-90679702D01*
X101314927Y-90595202D01*
X101143391Y-90543167D01*
X101009704Y-90530000D01*
X101009702Y-90530000D01*
X100965000Y-90525597D01*
X100920298Y-90530000D01*
X100071934Y-90530000D01*
X98700000Y-89158067D01*
X98700000Y-88029396D01*
X98780241Y-88109637D01*
X99015273Y-88266680D01*
X99276426Y-88374853D01*
X99553665Y-88430000D01*
X99836335Y-88430000D01*
X100113574Y-88374853D01*
X100374727Y-88266680D01*
X100609759Y-88109637D01*
X100809637Y-87909759D01*
X100966680Y-87674727D01*
X101074853Y-87413574D01*
X101130000Y-87136335D01*
X101130000Y-86853665D01*
X101074853Y-86576426D01*
X100966680Y-86315273D01*
X100809637Y-86080241D01*
X100609759Y-85880363D01*
X100374727Y-85723320D01*
X100113574Y-85615147D01*
X99836335Y-85560000D01*
X99553665Y-85560000D01*
X99276426Y-85615147D01*
X99015273Y-85723320D01*
X98780241Y-85880363D01*
X98700000Y-85960604D01*
X98700000Y-78461890D01*
X105238524Y-78461890D01*
X105283175Y-78609099D01*
X105408359Y-78871920D01*
X105582412Y-79105269D01*
X105798645Y-79300178D01*
X106048748Y-79449157D01*
X106323109Y-79546481D01*
X106553000Y-79425814D01*
X106553000Y-78232000D01*
X106807000Y-78232000D01*
X106807000Y-79425814D01*
X107036891Y-79546481D01*
X107311252Y-79449157D01*
X107561355Y-79300178D01*
X107777588Y-79105269D01*
X107951641Y-78871920D01*
X108076825Y-78609099D01*
X108121476Y-78461890D01*
X108000155Y-78232000D01*
X106807000Y-78232000D01*
X106553000Y-78232000D01*
X105359845Y-78232000D01*
X105238524Y-78461890D01*
X98700000Y-78461890D01*
X98700000Y-77863688D01*
X98731586Y-77898519D01*
X98957580Y-78066037D01*
X99211913Y-78186246D01*
X99345961Y-78226904D01*
X99568000Y-78104915D01*
X99568000Y-76962000D01*
X99822000Y-76962000D01*
X99822000Y-78104915D01*
X100044039Y-78226904D01*
X100178087Y-78186246D01*
X100432420Y-78066037D01*
X100658414Y-77898519D01*
X100847385Y-77690131D01*
X100992070Y-77448881D01*
X101086909Y-77184040D01*
X100965624Y-76962000D01*
X99822000Y-76962000D01*
X99568000Y-76962000D01*
X99548000Y-76962000D01*
X99548000Y-76708000D01*
X99568000Y-76708000D01*
X99568000Y-75565085D01*
X99822000Y-75565085D01*
X99822000Y-76708000D01*
X100965624Y-76708000D01*
X101086909Y-76485960D01*
X100992070Y-76221119D01*
X100847385Y-75979869D01*
X100658414Y-75771481D01*
X100432420Y-75603963D01*
X100178087Y-75483754D01*
X100044039Y-75443096D01*
X99822000Y-75565085D01*
X99568000Y-75565085D01*
X99345961Y-75443096D01*
X99211913Y-75483754D01*
X98957580Y-75603963D01*
X98731586Y-75771481D01*
X98700000Y-75806312D01*
X98700000Y-54967702D01*
X110351903Y-54967702D01*
X110423486Y-55211671D01*
X110678996Y-55332571D01*
X110953184Y-55401300D01*
X111235512Y-55415217D01*
X111515130Y-55373787D01*
X111781292Y-55278603D01*
X111906514Y-55211671D01*
X111978097Y-54967702D01*
X111165000Y-54154605D01*
X110351903Y-54967702D01*
X98700000Y-54967702D01*
X98700000Y-53061891D01*
X100793519Y-53061891D01*
X100890843Y-53336252D01*
X101039822Y-53586355D01*
X101234731Y-53802588D01*
X101468080Y-53976641D01*
X101730901Y-54101825D01*
X101878110Y-54146476D01*
X102108000Y-54025155D01*
X102108000Y-52832000D01*
X100914186Y-52832000D01*
X100793519Y-53061891D01*
X98700000Y-53061891D01*
X98700000Y-52348109D01*
X100793519Y-52348109D01*
X100914186Y-52578000D01*
X102108000Y-52578000D01*
X102108000Y-51384845D01*
X102362000Y-51384845D01*
X102362000Y-52578000D01*
X102382000Y-52578000D01*
X102382000Y-52832000D01*
X102362000Y-52832000D01*
X102362000Y-54025155D01*
X102591890Y-54146476D01*
X102739099Y-54101825D01*
X103001920Y-53976641D01*
X103235269Y-53802588D01*
X103311034Y-53718534D01*
X103335498Y-53799180D01*
X103394463Y-53909494D01*
X103473815Y-54006185D01*
X103570506Y-54085537D01*
X103680820Y-54144502D01*
X103800518Y-54180812D01*
X103925000Y-54193072D01*
X105625000Y-54193072D01*
X105749482Y-54180812D01*
X105869180Y-54144502D01*
X105979494Y-54085537D01*
X106028264Y-54045512D01*
X109724783Y-54045512D01*
X109766213Y-54325130D01*
X109861397Y-54591292D01*
X109928329Y-54716514D01*
X110172298Y-54788097D01*
X110985395Y-53975000D01*
X110172298Y-53161903D01*
X109928329Y-53233486D01*
X109807429Y-53488996D01*
X109738700Y-53763184D01*
X109724783Y-54045512D01*
X106028264Y-54045512D01*
X106076185Y-54006185D01*
X106155537Y-53909494D01*
X106214502Y-53799180D01*
X106250812Y-53679482D01*
X106263072Y-53555000D01*
X106263072Y-52982298D01*
X110351903Y-52982298D01*
X111165000Y-53795395D01*
X111978097Y-52982298D01*
X111906514Y-52738329D01*
X111651004Y-52617429D01*
X111376816Y-52548700D01*
X111094488Y-52534783D01*
X110814870Y-52576213D01*
X110548708Y-52671397D01*
X110423486Y-52738329D01*
X110351903Y-52982298D01*
X106263072Y-52982298D01*
X106263072Y-51855000D01*
X106250812Y-51730518D01*
X106214502Y-51610820D01*
X106155537Y-51500506D01*
X106076185Y-51403815D01*
X105979494Y-51324463D01*
X105869180Y-51265498D01*
X105749482Y-51229188D01*
X105625000Y-51216928D01*
X103925000Y-51216928D01*
X103800518Y-51229188D01*
X103680820Y-51265498D01*
X103570506Y-51324463D01*
X103473815Y-51403815D01*
X103394463Y-51500506D01*
X103335498Y-51610820D01*
X103311034Y-51691466D01*
X103235269Y-51607412D01*
X103001920Y-51433359D01*
X102739099Y-51308175D01*
X102591890Y-51263524D01*
X102362000Y-51384845D01*
X102108000Y-51384845D01*
X101878110Y-51263524D01*
X101730901Y-51308175D01*
X101468080Y-51433359D01*
X101234731Y-51607412D01*
X101039822Y-51823645D01*
X100890843Y-52073748D01*
X100793519Y-52348109D01*
X98700000Y-52348109D01*
X98700000Y-51811933D01*
X101917500Y-48594433D01*
X103464918Y-50141851D01*
X103493419Y-50176581D01*
X103583999Y-50250918D01*
X103631984Y-50290298D01*
X103790073Y-50374798D01*
X103961609Y-50426833D01*
X104095296Y-50440000D01*
X104095298Y-50440000D01*
X104140000Y-50444403D01*
X104184702Y-50440000D01*
X109534428Y-50440000D01*
X109534428Y-50530000D01*
X109546688Y-50654482D01*
X109582998Y-50774180D01*
X109641963Y-50884494D01*
X109721315Y-50981185D01*
X109818006Y-51060537D01*
X109928320Y-51119502D01*
X110048018Y-51155812D01*
X110172500Y-51168072D01*
X112077500Y-51168072D01*
X112201982Y-51155812D01*
X112321680Y-51119502D01*
X112431994Y-51060537D01*
X112528685Y-50981185D01*
X112608037Y-50884494D01*
X112657059Y-50792781D01*
X112798077Y-50905969D01*
X113073906Y-51049571D01*
X113292020Y-51120563D01*
X113538000Y-51000594D01*
X113538000Y-49657000D01*
X113518000Y-49657000D01*
X113518000Y-49403000D01*
X113538000Y-49403000D01*
X113538000Y-48059406D01*
X113292020Y-47939437D01*
X113073906Y-48010429D01*
X112798077Y-48154031D01*
X112657059Y-48267219D01*
X112608037Y-48175506D01*
X112528685Y-48078815D01*
X112431994Y-47999463D01*
X112321680Y-47940498D01*
X112201982Y-47904188D01*
X112077500Y-47891928D01*
X110172500Y-47891928D01*
X110048018Y-47904188D01*
X109928320Y-47940498D01*
X109818006Y-47999463D01*
X109721315Y-48078815D01*
X109641963Y-48175506D01*
X109582998Y-48285820D01*
X109546688Y-48405518D01*
X109534428Y-48530000D01*
X109534428Y-48620000D01*
X104516934Y-48620000D01*
X104375006Y-48478072D01*
X105625000Y-48478072D01*
X105749482Y-48465812D01*
X105869180Y-48429502D01*
X105979494Y-48370537D01*
X106076185Y-48291185D01*
X106155537Y-48194494D01*
X106214502Y-48084180D01*
X106250812Y-47964482D01*
X106263072Y-47840000D01*
X106263072Y-46140000D01*
X106250812Y-46015518D01*
X106214502Y-45895820D01*
X106155537Y-45785506D01*
X106076185Y-45688815D01*
X105979494Y-45609463D01*
X105869180Y-45550498D01*
X105749482Y-45514188D01*
X105625000Y-45501928D01*
X103925000Y-45501928D01*
X103800518Y-45514188D01*
X103680820Y-45550498D01*
X103570506Y-45609463D01*
X103473815Y-45688815D01*
X103394463Y-45785506D01*
X103335498Y-45895820D01*
X103314607Y-45964687D01*
X103290134Y-45934866D01*
X103145000Y-45815758D01*
X103145000Y-42702238D01*
X103159482Y-42700812D01*
X103279180Y-42664502D01*
X103389494Y-42605537D01*
X103486185Y-42526185D01*
X103496807Y-42513242D01*
X103748996Y-42632571D01*
X104023184Y-42701300D01*
X104305512Y-42715217D01*
X104585130Y-42673787D01*
X104851292Y-42578603D01*
X104976514Y-42511671D01*
X105048097Y-42267702D01*
X104235000Y-41454605D01*
X104220858Y-41468748D01*
X104041253Y-41289143D01*
X104055395Y-41275000D01*
X104414605Y-41275000D01*
X105227702Y-42088097D01*
X105471671Y-42016514D01*
X105592571Y-41761004D01*
X105661300Y-41486816D01*
X105675217Y-41204488D01*
X105633787Y-40924870D01*
X105538603Y-40658708D01*
X105471671Y-40533486D01*
X105227702Y-40461903D01*
X104414605Y-41275000D01*
X104055395Y-41275000D01*
X104041253Y-41260858D01*
X104220858Y-41081253D01*
X104235000Y-41095395D01*
X105048097Y-40282298D01*
X104976514Y-40038329D01*
X104721004Y-39917429D01*
X104446816Y-39848700D01*
X104164488Y-39834783D01*
X103884870Y-39876213D01*
X103618708Y-39971397D01*
X103496691Y-40036616D01*
X103486185Y-40023815D01*
X103389494Y-39944463D01*
X103279180Y-39885498D01*
X103159482Y-39849188D01*
X103145000Y-39847762D01*
X103145000Y-37312817D01*
X103149759Y-37309637D01*
X103271694Y-37187702D01*
X103921903Y-37187702D01*
X103993486Y-37431671D01*
X104248996Y-37552571D01*
X104523184Y-37621300D01*
X104805512Y-37635217D01*
X105085130Y-37593787D01*
X105351292Y-37498603D01*
X105476514Y-37431671D01*
X105548097Y-37187702D01*
X104735000Y-36374605D01*
X103921903Y-37187702D01*
X103271694Y-37187702D01*
X103349637Y-37109759D01*
X103483692Y-36909131D01*
X103498329Y-36936514D01*
X103742298Y-37008097D01*
X104555395Y-36195000D01*
X104914605Y-36195000D01*
X105727702Y-37008097D01*
X105971671Y-36936514D01*
X106092571Y-36681004D01*
X106161300Y-36406816D01*
X106175217Y-36124488D01*
X106133787Y-35844870D01*
X106038603Y-35578708D01*
X105971671Y-35453486D01*
X105727702Y-35381903D01*
X104914605Y-36195000D01*
X104555395Y-36195000D01*
X103742298Y-35381903D01*
X103498329Y-35453486D01*
X103484676Y-35482341D01*
X103349637Y-35280241D01*
X103271694Y-35202298D01*
X103921903Y-35202298D01*
X104735000Y-36015395D01*
X105548097Y-35202298D01*
X105476514Y-34958329D01*
X105221004Y-34837429D01*
X104946816Y-34768700D01*
X104664488Y-34754783D01*
X104384870Y-34796213D01*
X104118708Y-34891397D01*
X103993486Y-34958329D01*
X103921903Y-35202298D01*
X103271694Y-35202298D01*
X103149759Y-35080363D01*
X102914727Y-34923320D01*
X102653574Y-34815147D01*
X102376335Y-34760000D01*
X102093665Y-34760000D01*
X101816426Y-34815147D01*
X101555273Y-34923320D01*
X101320241Y-35080363D01*
X101120363Y-35280241D01*
X100963320Y-35515273D01*
X100855147Y-35776426D01*
X100800000Y-36053665D01*
X100800000Y-36336335D01*
X100855147Y-36613574D01*
X100963320Y-36874727D01*
X101120363Y-37109759D01*
X101320241Y-37309637D01*
X101325001Y-37312817D01*
X101325000Y-39847762D01*
X101310518Y-39849188D01*
X101190820Y-39885498D01*
X101080506Y-39944463D01*
X100983815Y-40023815D01*
X100904463Y-40120506D01*
X100845498Y-40230820D01*
X100809188Y-40350518D01*
X100796928Y-40475000D01*
X100796928Y-42075000D01*
X100809188Y-42199482D01*
X100845498Y-42319180D01*
X100904463Y-42429494D01*
X100983815Y-42526185D01*
X101080506Y-42605537D01*
X101190820Y-42664502D01*
X101310518Y-42700812D01*
X101325001Y-42702238D01*
X101325000Y-45815757D01*
X101179866Y-45934866D01*
X100994294Y-46160986D01*
X100856401Y-46418966D01*
X100771487Y-46698889D01*
X100742815Y-46990000D01*
X100761218Y-47176848D01*
X97178149Y-50759918D01*
X97143420Y-50788419D01*
X97077688Y-50868515D01*
X97029702Y-50926985D01*
X96945202Y-51085074D01*
X96893168Y-51256609D01*
X96875597Y-51435000D01*
X96595000Y-51435000D01*
X96595000Y-32214117D01*
X97325000Y-32214117D01*
X97325000Y-32555883D01*
X97391675Y-32891081D01*
X97522463Y-33206831D01*
X97712337Y-33490998D01*
X97954002Y-33732663D01*
X98238169Y-33922537D01*
X98553919Y-34053325D01*
X98889117Y-34120000D01*
X99230883Y-34120000D01*
X99566081Y-34053325D01*
X99881831Y-33922537D01*
X100165998Y-33732663D01*
X100407663Y-33490998D01*
X100597537Y-33206831D01*
X100728325Y-32891081D01*
X100732518Y-32870000D01*
X111268461Y-32870000D01*
X111314510Y-33337542D01*
X111450887Y-33787116D01*
X111672351Y-34201446D01*
X111970391Y-34564609D01*
X112333554Y-34862649D01*
X112747884Y-35084113D01*
X113197458Y-35220490D01*
X113547843Y-35255000D01*
X113782157Y-35255000D01*
X114132542Y-35220490D01*
X114582116Y-35084113D01*
X114996446Y-34862649D01*
X115359609Y-34564609D01*
X115657649Y-34201446D01*
X115879113Y-33787116D01*
X116015490Y-33337542D01*
X116061539Y-32870000D01*
X116015490Y-32402458D01*
X115879113Y-31952884D01*
X115657649Y-31538554D01*
X115359609Y-31175391D01*
X114996446Y-30877351D01*
X114582116Y-30655887D01*
X114132542Y-30519510D01*
X113782157Y-30485000D01*
X113547843Y-30485000D01*
X113197458Y-30519510D01*
X112747884Y-30655887D01*
X112333554Y-30877351D01*
X111970391Y-31175391D01*
X111672351Y-31538554D01*
X111450887Y-31952884D01*
X111314510Y-32402458D01*
X111268461Y-32870000D01*
X100732518Y-32870000D01*
X100795000Y-32555883D01*
X100795000Y-32214117D01*
X100728325Y-31878919D01*
X100597537Y-31563169D01*
X100407663Y-31279002D01*
X100165998Y-31037337D01*
X99881831Y-30847463D01*
X99566081Y-30716675D01*
X99230883Y-30650000D01*
X98889117Y-30650000D01*
X98553919Y-30716675D01*
X98238169Y-30847463D01*
X97954002Y-31037337D01*
X97712337Y-31279002D01*
X97522463Y-31563169D01*
X97391675Y-31878919D01*
X97325000Y-32214117D01*
X96595000Y-32214117D01*
X96595000Y-27798665D01*
X101435000Y-27798665D01*
X101435000Y-28081335D01*
X101490147Y-28358574D01*
X101598320Y-28619727D01*
X101755363Y-28854759D01*
X101955241Y-29054637D01*
X102190273Y-29211680D01*
X102451426Y-29319853D01*
X102728665Y-29375000D01*
X103011335Y-29375000D01*
X103288574Y-29319853D01*
X103549727Y-29211680D01*
X103784759Y-29054637D01*
X103984637Y-28854759D01*
X104141680Y-28619727D01*
X104249853Y-28358574D01*
X104305000Y-28081335D01*
X104305000Y-27940000D01*
X111588057Y-27940000D01*
X111615764Y-28221309D01*
X111697818Y-28491808D01*
X111831068Y-28741101D01*
X112010392Y-28959608D01*
X112228899Y-29138932D01*
X112478192Y-29272182D01*
X112748691Y-29354236D01*
X112959508Y-29375000D01*
X113100492Y-29375000D01*
X113311309Y-29354236D01*
X113581808Y-29272182D01*
X113831101Y-29138932D01*
X114049608Y-28959608D01*
X114228932Y-28741101D01*
X114362182Y-28491808D01*
X114444236Y-28221309D01*
X114471943Y-27940000D01*
X114444236Y-27658691D01*
X114362182Y-27388192D01*
X114228932Y-27138899D01*
X114049608Y-26920392D01*
X113831101Y-26741068D01*
X113581808Y-26607818D01*
X113311309Y-26525764D01*
X113100492Y-26505000D01*
X112959508Y-26505000D01*
X112748691Y-26525764D01*
X112478192Y-26607818D01*
X112228899Y-26741068D01*
X112010392Y-26920392D01*
X111831068Y-27138899D01*
X111697818Y-27388192D01*
X111615764Y-27658691D01*
X111588057Y-27940000D01*
X104305000Y-27940000D01*
X104305000Y-27798665D01*
X104249853Y-27521426D01*
X104141680Y-27260273D01*
X103984637Y-27025241D01*
X103784759Y-26825363D01*
X103549727Y-26668320D01*
X103288574Y-26560147D01*
X103011335Y-26505000D01*
X102728665Y-26505000D01*
X102451426Y-26560147D01*
X102190273Y-26668320D01*
X101955241Y-26825363D01*
X101755363Y-27025241D01*
X101598320Y-27260273D01*
X101490147Y-27521426D01*
X101435000Y-27798665D01*
X96595000Y-27798665D01*
X96595000Y-23760000D01*
X97521928Y-23760000D01*
X97534188Y-23884482D01*
X97570498Y-24004180D01*
X97629463Y-24114494D01*
X97708815Y-24211185D01*
X97805506Y-24290537D01*
X97915820Y-24349502D01*
X98035518Y-24385812D01*
X98160000Y-24398072D01*
X98774250Y-24395000D01*
X98933000Y-24236250D01*
X98933000Y-22987000D01*
X97683750Y-22987000D01*
X97525000Y-23145750D01*
X97521928Y-23760000D01*
X96595000Y-23760000D01*
X96595000Y-21960000D01*
X97521928Y-21960000D01*
X97525000Y-22574250D01*
X97683750Y-22733000D01*
X98933000Y-22733000D01*
X98933000Y-21483750D01*
X99187000Y-21483750D01*
X99187000Y-22733000D01*
X99207000Y-22733000D01*
X99207000Y-22987000D01*
X99187000Y-22987000D01*
X99187000Y-24236250D01*
X99345750Y-24395000D01*
X99960000Y-24398072D01*
X100084482Y-24385812D01*
X100204180Y-24349502D01*
X100314494Y-24290537D01*
X100411185Y-24211185D01*
X100490537Y-24114494D01*
X100549502Y-24004180D01*
X100555056Y-23985873D01*
X100621495Y-24052312D01*
X100872905Y-24220299D01*
X101152257Y-24336011D01*
X101448816Y-24395000D01*
X101751184Y-24395000D01*
X102047743Y-24336011D01*
X102327095Y-24220299D01*
X102578505Y-24052312D01*
X102792312Y-23838505D01*
X102960299Y-23587095D01*
X103076011Y-23307743D01*
X103135000Y-23011184D01*
X103135000Y-22708816D01*
X103076011Y-22412257D01*
X102960299Y-22132905D01*
X102792312Y-21881495D01*
X102578505Y-21667688D01*
X102327095Y-21499701D01*
X102047743Y-21383989D01*
X101751184Y-21325000D01*
X101448816Y-21325000D01*
X101152257Y-21383989D01*
X100872905Y-21499701D01*
X100621495Y-21667688D01*
X100555056Y-21734127D01*
X100549502Y-21715820D01*
X100490537Y-21605506D01*
X100411185Y-21508815D01*
X100314494Y-21429463D01*
X100204180Y-21370498D01*
X100084482Y-21334188D01*
X99960000Y-21321928D01*
X99345750Y-21325000D01*
X99187000Y-21483750D01*
X98933000Y-21483750D01*
X98774250Y-21325000D01*
X98160000Y-21321928D01*
X98035518Y-21334188D01*
X97915820Y-21370498D01*
X97805506Y-21429463D01*
X97708815Y-21508815D01*
X97629463Y-21605506D01*
X97570498Y-21715820D01*
X97534188Y-21835518D01*
X97521928Y-21960000D01*
X96595000Y-21960000D01*
X96595000Y-19760000D01*
X130100000Y-19760000D01*
X130100001Y-77435123D01*
X130100001Y-77435123D01*
G37*
X130100001Y-77435123D02*
X130100000Y-93945123D01*
X130100000Y-93945124D01*
X130100001Y-100890000D01*
X96595000Y-100890000D01*
X96595000Y-95079117D01*
X97325000Y-95079117D01*
X97325000Y-95420883D01*
X97391675Y-95756081D01*
X97522463Y-96071831D01*
X97712337Y-96355998D01*
X97954002Y-96597663D01*
X98238169Y-96787537D01*
X98553919Y-96918325D01*
X98889117Y-96985000D01*
X99230883Y-96985000D01*
X99566081Y-96918325D01*
X99881831Y-96787537D01*
X100165998Y-96597663D01*
X100407663Y-96355998D01*
X100597537Y-96071831D01*
X100728325Y-95756081D01*
X100795000Y-95420883D01*
X100795000Y-95079117D01*
X100728325Y-94743919D01*
X100597537Y-94428169D01*
X100407663Y-94144002D01*
X100165998Y-93902337D01*
X99881831Y-93712463D01*
X99566081Y-93581675D01*
X99230883Y-93515000D01*
X98889117Y-93515000D01*
X98553919Y-93581675D01*
X98238169Y-93712463D01*
X97954002Y-93902337D01*
X97712337Y-94144002D01*
X97522463Y-94428169D01*
X97391675Y-94743919D01*
X97325000Y-95079117D01*
X96595000Y-95079117D01*
X96595000Y-51435000D01*
X96875597Y-51435000D01*
X96880001Y-51479712D01*
X96880000Y-89490298D01*
X96875597Y-89535000D01*
X96880000Y-89579702D01*
X96880000Y-89579703D01*
X96893167Y-89713390D01*
X96925821Y-89821034D01*
X96945202Y-89884926D01*
X97029702Y-90043015D01*
X97058953Y-90078657D01*
X97143419Y-90181581D01*
X97178154Y-90210087D01*
X99019918Y-92051851D01*
X99048419Y-92086581D01*
X99121908Y-92146891D01*
X99186984Y-92200298D01*
X99345073Y-92284798D01*
X99516609Y-92336833D01*
X99650296Y-92350000D01*
X99650298Y-92350000D01*
X99695000Y-92354403D01*
X99739702Y-92350000D01*
X100588067Y-92350000D01*
X100924917Y-92686851D01*
X100953419Y-92721581D01*
X101091985Y-92835298D01*
X101250073Y-92919798D01*
X101421609Y-92971833D01*
X101555296Y-92985000D01*
X101555298Y-92985000D01*
X101600000Y-92989403D01*
X101644702Y-92985000D01*
X102635329Y-92985000D01*
X102738080Y-93061641D01*
X103000901Y-93186825D01*
X103148110Y-93231476D01*
X103378000Y-93110155D01*
X103378000Y-92985000D01*
X103632000Y-92985000D01*
X103632000Y-93110155D01*
X103861890Y-93231476D01*
X104009099Y-93186825D01*
X104271920Y-93061641D01*
X104374671Y-92985000D01*
X105175329Y-92985000D01*
X105278080Y-93061641D01*
X105540901Y-93186825D01*
X105688110Y-93231476D01*
X105918000Y-93110155D01*
X105918000Y-92985000D01*
X106089704Y-92985000D01*
X106172000Y-92976895D01*
X106172000Y-93110155D01*
X106401890Y-93231476D01*
X106549099Y-93186825D01*
X106811920Y-93061641D01*
X107045269Y-92887588D01*
X107240178Y-92671355D01*
X107315000Y-92545745D01*
X107389822Y-92671355D01*
X107584731Y-92887588D01*
X107818080Y-93061641D01*
X108080901Y-93186825D01*
X108228110Y-93231476D01*
X108458000Y-93110155D01*
X108458000Y-92826167D01*
X108585000Y-92838676D01*
X108712000Y-92826167D01*
X108712000Y-93110155D01*
X108941890Y-93231476D01*
X109089099Y-93186825D01*
X109351920Y-93061641D01*
X109585269Y-92887588D01*
X109780178Y-92671355D01*
X109855000Y-92545745D01*
X109929822Y-92671355D01*
X110124731Y-92887588D01*
X110358080Y-93061641D01*
X110620901Y-93186825D01*
X110768110Y-93231476D01*
X110998000Y-93110155D01*
X110998000Y-92976895D01*
X111080296Y-92985000D01*
X111252000Y-92985000D01*
X111252000Y-93110155D01*
X111481890Y-93231476D01*
X111629099Y-93186825D01*
X111891920Y-93061641D01*
X111994671Y-92985000D01*
X112795329Y-92985000D01*
X112898080Y-93061641D01*
X113160901Y-93186825D01*
X113308110Y-93231476D01*
X113538000Y-93110155D01*
X113538000Y-92985000D01*
X113620298Y-92985000D01*
X113665000Y-92989403D01*
X113709702Y-92985000D01*
X113709704Y-92985000D01*
X113792000Y-92976895D01*
X113792000Y-93110155D01*
X114021890Y-93231476D01*
X114169099Y-93186825D01*
X114431920Y-93061641D01*
X114665269Y-92887588D01*
X114825344Y-92710000D01*
X117252815Y-92710000D01*
X117281487Y-93001111D01*
X117366401Y-93281034D01*
X117504294Y-93539014D01*
X117689866Y-93765134D01*
X117719687Y-93789607D01*
X117650820Y-93810498D01*
X117540506Y-93869463D01*
X117443815Y-93948815D01*
X117364463Y-94045506D01*
X117305498Y-94155820D01*
X117269188Y-94275518D01*
X117256928Y-94400000D01*
X117256928Y-96100000D01*
X117269188Y-96224482D01*
X117305498Y-96344180D01*
X117364463Y-96454494D01*
X117443815Y-96551185D01*
X117540506Y-96630537D01*
X117650820Y-96689502D01*
X117770518Y-96725812D01*
X117895000Y-96738072D01*
X119595000Y-96738072D01*
X119719482Y-96725812D01*
X119839180Y-96689502D01*
X119949494Y-96630537D01*
X120046185Y-96551185D01*
X120125537Y-96454494D01*
X120184502Y-96344180D01*
X120220812Y-96224482D01*
X120233072Y-96100000D01*
X120233072Y-94400000D01*
X120220812Y-94275518D01*
X120184502Y-94155820D01*
X120125537Y-94045506D01*
X120046185Y-93948815D01*
X119949494Y-93869463D01*
X119839180Y-93810498D01*
X119770313Y-93789607D01*
X119800134Y-93765134D01*
X119985706Y-93539014D01*
X120123599Y-93281034D01*
X120208513Y-93001111D01*
X120237185Y-92710000D01*
X120208513Y-92418889D01*
X120123599Y-92138966D01*
X119985706Y-91880986D01*
X119800134Y-91654866D01*
X119574014Y-91469294D01*
X119316034Y-91331401D01*
X119036111Y-91246487D01*
X118817950Y-91225000D01*
X118672050Y-91225000D01*
X118453889Y-91246487D01*
X118173966Y-91331401D01*
X117915986Y-91469294D01*
X117689866Y-91654866D01*
X117504294Y-91880986D01*
X117366401Y-92138966D01*
X117281487Y-92418889D01*
X117252815Y-92710000D01*
X114825344Y-92710000D01*
X114860178Y-92671355D01*
X115009157Y-92421252D01*
X115106481Y-92146891D01*
X115028538Y-91998396D01*
X115109932Y-91917002D01*
X115150000Y-91917002D01*
X115150000Y-91876934D01*
X116816852Y-90210082D01*
X116851581Y-90181581D01*
X116939567Y-90074369D01*
X117546200Y-90681002D01*
X117569999Y-90710001D01*
X117685724Y-90804974D01*
X117817753Y-90875546D01*
X117961014Y-90919003D01*
X118072667Y-90930000D01*
X118072676Y-90930000D01*
X118109999Y-90933676D01*
X118147322Y-90930000D01*
X119700199Y-90930000D01*
X121114203Y-92344005D01*
X121091487Y-92418889D01*
X121062815Y-92710000D01*
X121091487Y-93001111D01*
X121176401Y-93281034D01*
X121314294Y-93539014D01*
X121499866Y-93765134D01*
X121529687Y-93789607D01*
X121460820Y-93810498D01*
X121350506Y-93869463D01*
X121253815Y-93948815D01*
X121174463Y-94045506D01*
X121115498Y-94155820D01*
X121079188Y-94275518D01*
X121066928Y-94400000D01*
X121066928Y-96100000D01*
X121079188Y-96224482D01*
X121115498Y-96344180D01*
X121174463Y-96454494D01*
X121253815Y-96551185D01*
X121350506Y-96630537D01*
X121460820Y-96689502D01*
X121580518Y-96725812D01*
X121705000Y-96738072D01*
X123405000Y-96738072D01*
X123529482Y-96725812D01*
X123649180Y-96689502D01*
X123759494Y-96630537D01*
X123856185Y-96551185D01*
X123935537Y-96454494D01*
X123994502Y-96344180D01*
X124030812Y-96224482D01*
X124043072Y-96100000D01*
X124043072Y-95904326D01*
X124079276Y-95884974D01*
X124195001Y-95790001D01*
X124218804Y-95760997D01*
X124900684Y-95079117D01*
X125900000Y-95079117D01*
X125900000Y-95420883D01*
X125966675Y-95756081D01*
X126097463Y-96071831D01*
X126287337Y-96355998D01*
X126529002Y-96597663D01*
X126813169Y-96787537D01*
X127128919Y-96918325D01*
X127464117Y-96985000D01*
X127805883Y-96985000D01*
X128141081Y-96918325D01*
X128456831Y-96787537D01*
X128740998Y-96597663D01*
X128982663Y-96355998D01*
X129172537Y-96071831D01*
X129303325Y-95756081D01*
X129370000Y-95420883D01*
X129370000Y-95079117D01*
X129303325Y-94743919D01*
X129172537Y-94428169D01*
X128982663Y-94144002D01*
X128740998Y-93902337D01*
X128456831Y-93712463D01*
X128141081Y-93581675D01*
X127805883Y-93515000D01*
X127464117Y-93515000D01*
X127128919Y-93581675D01*
X126813169Y-93712463D01*
X126529002Y-93902337D01*
X126287337Y-94144002D01*
X126097463Y-94428169D01*
X125966675Y-94743919D01*
X125900000Y-95079117D01*
X124900684Y-95079117D01*
X126241003Y-93738799D01*
X126270001Y-93715001D01*
X126296332Y-93682917D01*
X126364974Y-93599277D01*
X126435546Y-93467247D01*
X126459949Y-93386800D01*
X126479003Y-93323986D01*
X126490000Y-93212333D01*
X126490000Y-93212324D01*
X126493676Y-93175001D01*
X126490000Y-93137678D01*
X126490000Y-85635535D01*
X126558586Y-85532889D01*
X126629068Y-85362729D01*
X126665000Y-85182089D01*
X126665000Y-84997911D01*
X126629068Y-84817271D01*
X126558586Y-84647111D01*
X126456262Y-84493972D01*
X126326028Y-84363738D01*
X126172889Y-84261414D01*
X126002729Y-84190932D01*
X125822089Y-84155000D01*
X125637911Y-84155000D01*
X125457271Y-84190932D01*
X125287111Y-84261414D01*
X125133972Y-84363738D01*
X125003738Y-84493972D01*
X124901414Y-84647111D01*
X124830932Y-84817271D01*
X124795000Y-84997911D01*
X124795000Y-85182089D01*
X124830932Y-85362729D01*
X124901414Y-85532889D01*
X124970000Y-85635536D01*
X124970001Y-92860197D01*
X123867543Y-93962655D01*
X123856185Y-93948815D01*
X123759494Y-93869463D01*
X123649180Y-93810498D01*
X123580313Y-93789607D01*
X123610134Y-93765134D01*
X123795706Y-93539014D01*
X123933599Y-93281034D01*
X124018513Y-93001111D01*
X124047185Y-92710000D01*
X124018513Y-92418889D01*
X123933599Y-92138966D01*
X123795706Y-91880986D01*
X123610134Y-91654866D01*
X123384014Y-91469294D01*
X123126034Y-91331401D01*
X122846111Y-91246487D01*
X122627950Y-91225000D01*
X122482050Y-91225000D01*
X122263889Y-91246487D01*
X122189005Y-91269203D01*
X120578804Y-89659003D01*
X120555001Y-89629999D01*
X120439276Y-89535026D01*
X120307247Y-89464454D01*
X120163986Y-89420997D01*
X120052333Y-89410000D01*
X120052322Y-89410000D01*
X120015000Y-89406324D01*
X119977678Y-89410000D01*
X118424802Y-89410000D01*
X118029802Y-89015000D01*
X118246411Y-89015000D01*
X118513989Y-88961775D01*
X118766043Y-88857371D01*
X118992886Y-88705799D01*
X119185799Y-88512886D01*
X119337371Y-88286043D01*
X119380000Y-88183127D01*
X119422629Y-88286043D01*
X119574201Y-88512886D01*
X119767114Y-88705799D01*
X119993957Y-88857371D01*
X120246011Y-88961775D01*
X120513589Y-89015000D01*
X120786411Y-89015000D01*
X121053989Y-88961775D01*
X121306043Y-88857371D01*
X121532886Y-88705799D01*
X121725799Y-88512886D01*
X121803555Y-88396517D01*
X121814188Y-88504482D01*
X121850498Y-88624180D01*
X121909463Y-88734494D01*
X121988815Y-88831185D01*
X122085506Y-88910537D01*
X122195820Y-88969502D01*
X122315518Y-89005812D01*
X122440000Y-89018072D01*
X122904250Y-89015000D01*
X123063000Y-88856250D01*
X123063000Y-87757000D01*
X123317000Y-87757000D01*
X123317000Y-88856250D01*
X123475750Y-89015000D01*
X123940000Y-89018072D01*
X124064482Y-89005812D01*
X124184180Y-88969502D01*
X124294494Y-88910537D01*
X124391185Y-88831185D01*
X124470537Y-88734494D01*
X124529502Y-88624180D01*
X124565812Y-88504482D01*
X124578072Y-88380000D01*
X124575000Y-87915750D01*
X124416250Y-87757000D01*
X123317000Y-87757000D01*
X123063000Y-87757000D01*
X123043000Y-87757000D01*
X123043000Y-87503000D01*
X123063000Y-87503000D01*
X123063000Y-86403750D01*
X123317000Y-86403750D01*
X123317000Y-87503000D01*
X124416250Y-87503000D01*
X124575000Y-87344250D01*
X124578072Y-86880000D01*
X124565812Y-86755518D01*
X124529502Y-86635820D01*
X124470537Y-86525506D01*
X124391185Y-86428815D01*
X124294494Y-86349463D01*
X124184180Y-86290498D01*
X124064482Y-86254188D01*
X123940000Y-86241928D01*
X123475750Y-86245000D01*
X123317000Y-86403750D01*
X123063000Y-86403750D01*
X123007026Y-86347776D01*
X127511003Y-81843799D01*
X127540001Y-81820001D01*
X127593787Y-81754463D01*
X127634974Y-81704277D01*
X127705546Y-81572247D01*
X127740083Y-81458391D01*
X127749003Y-81428986D01*
X127760000Y-81317333D01*
X127760000Y-81317324D01*
X127763676Y-81280001D01*
X127760000Y-81242678D01*
X127760000Y-79960901D01*
X127801101Y-79938932D01*
X128019608Y-79759608D01*
X128198932Y-79541101D01*
X128332182Y-79291808D01*
X128414236Y-79021309D01*
X128441943Y-78740000D01*
X128414236Y-78458691D01*
X128332182Y-78188192D01*
X128198932Y-77938899D01*
X128019608Y-77720392D01*
X127801101Y-77541068D01*
X127551808Y-77407818D01*
X127281309Y-77325764D01*
X127070492Y-77305000D01*
X126929508Y-77305000D01*
X126718691Y-77325764D01*
X126448192Y-77407818D01*
X126198899Y-77541068D01*
X125980392Y-77720392D01*
X125801068Y-77938899D01*
X125667818Y-78188192D01*
X125585764Y-78458691D01*
X125558057Y-78740000D01*
X125585764Y-79021309D01*
X125667818Y-79291808D01*
X125801068Y-79541101D01*
X125980392Y-79759608D01*
X126198899Y-79938932D01*
X126240000Y-79960901D01*
X126240001Y-80965197D01*
X120931365Y-86273833D01*
X120786411Y-86245000D01*
X120569803Y-86245000D01*
X121161008Y-85653795D01*
X121190001Y-85630001D01*
X121213795Y-85601008D01*
X121213799Y-85601004D01*
X121284973Y-85514277D01*
X121284974Y-85514276D01*
X121355546Y-85382247D01*
X121399003Y-85238986D01*
X121410000Y-85127333D01*
X121410000Y-85127324D01*
X121413676Y-85090001D01*
X121410000Y-85052678D01*
X121410000Y-71792322D01*
X121413676Y-71754999D01*
X121410000Y-71717676D01*
X121410000Y-71717667D01*
X121399003Y-71606014D01*
X121355546Y-71462753D01*
X121284974Y-71330724D01*
X121190001Y-71214999D01*
X121161004Y-71191202D01*
X120652694Y-70682893D01*
X120672185Y-70485000D01*
X120643513Y-70193889D01*
X120558599Y-69913966D01*
X120420706Y-69655986D01*
X120235134Y-69429866D01*
X120009014Y-69244294D01*
X119954209Y-69215000D01*
X120009014Y-69185706D01*
X120235134Y-69000134D01*
X120420706Y-68774014D01*
X120558599Y-68516034D01*
X120643513Y-68236111D01*
X120672185Y-67945000D01*
X120643513Y-67653889D01*
X120558599Y-67373966D01*
X120420706Y-67115986D01*
X120235134Y-66889866D01*
X120009014Y-66704294D01*
X119954209Y-66675000D01*
X120009014Y-66645706D01*
X120235134Y-66460134D01*
X120420706Y-66234014D01*
X120558599Y-65976034D01*
X120567130Y-65947911D01*
X121620000Y-65947911D01*
X121620000Y-66132089D01*
X121655932Y-66312729D01*
X121726414Y-66482889D01*
X121828738Y-66636028D01*
X121958972Y-66766262D01*
X122112111Y-66868586D01*
X122282271Y-66939068D01*
X122403351Y-66963153D01*
X123065000Y-67624802D01*
X123065001Y-77559463D01*
X122996414Y-77662111D01*
X122925932Y-77832271D01*
X122890000Y-78012911D01*
X122890000Y-78197089D01*
X122925932Y-78377729D01*
X122996414Y-78547889D01*
X123098738Y-78701028D01*
X123228972Y-78831262D01*
X123382111Y-78933586D01*
X123552271Y-79004068D01*
X123732911Y-79040000D01*
X123917089Y-79040000D01*
X124097729Y-79004068D01*
X124267889Y-78933586D01*
X124421028Y-78831262D01*
X124551262Y-78701028D01*
X124653586Y-78547889D01*
X124724068Y-78377729D01*
X124760000Y-78197089D01*
X124760000Y-78012911D01*
X124724068Y-77832271D01*
X124653586Y-77662111D01*
X124585000Y-77559465D01*
X124585000Y-67347322D01*
X124588676Y-67309999D01*
X124585000Y-67272676D01*
X124585000Y-67272667D01*
X124574003Y-67161014D01*
X124530546Y-67017753D01*
X124459974Y-66885724D01*
X124365001Y-66769999D01*
X124336004Y-66746202D01*
X123488467Y-65898665D01*
X125565000Y-65898665D01*
X125565000Y-66181335D01*
X125620147Y-66458574D01*
X125728320Y-66719727D01*
X125885363Y-66954759D01*
X126085241Y-67154637D01*
X126317759Y-67310000D01*
X126085241Y-67465363D01*
X125885363Y-67665241D01*
X125728320Y-67900273D01*
X125620147Y-68161426D01*
X125565000Y-68438665D01*
X125565000Y-68721335D01*
X125620147Y-68998574D01*
X125728320Y-69259727D01*
X125885363Y-69494759D01*
X126085241Y-69694637D01*
X126320273Y-69851680D01*
X126581426Y-69959853D01*
X126858665Y-70015000D01*
X127141335Y-70015000D01*
X127418574Y-69959853D01*
X127679727Y-69851680D01*
X127914759Y-69694637D01*
X128114637Y-69494759D01*
X128271680Y-69259727D01*
X128379853Y-68998574D01*
X128435000Y-68721335D01*
X128435000Y-68438665D01*
X128379853Y-68161426D01*
X128271680Y-67900273D01*
X128114637Y-67665241D01*
X127914759Y-67465363D01*
X127682241Y-67310000D01*
X127914759Y-67154637D01*
X128114637Y-66954759D01*
X128271680Y-66719727D01*
X128379853Y-66458574D01*
X128435000Y-66181335D01*
X128435000Y-65898665D01*
X128379853Y-65621426D01*
X128271680Y-65360273D01*
X128114637Y-65125241D01*
X127914759Y-64925363D01*
X127679727Y-64768320D01*
X127418574Y-64660147D01*
X127141335Y-64605000D01*
X126858665Y-64605000D01*
X126581426Y-64660147D01*
X126320273Y-64768320D01*
X126085241Y-64925363D01*
X125885363Y-65125241D01*
X125728320Y-65360273D01*
X125620147Y-65621426D01*
X125565000Y-65898665D01*
X123488467Y-65898665D01*
X123478153Y-65888351D01*
X123454068Y-65767271D01*
X123383586Y-65597111D01*
X123281262Y-65443972D01*
X123151028Y-65313738D01*
X122997889Y-65211414D01*
X122827729Y-65140932D01*
X122647089Y-65105000D01*
X122462911Y-65105000D01*
X122282271Y-65140932D01*
X122112111Y-65211414D01*
X121958972Y-65313738D01*
X121828738Y-65443972D01*
X121726414Y-65597111D01*
X121655932Y-65767271D01*
X121620000Y-65947911D01*
X120567130Y-65947911D01*
X120643513Y-65696111D01*
X120672185Y-65405000D01*
X120652694Y-65207107D01*
X121161004Y-64698798D01*
X121190001Y-64675001D01*
X121284974Y-64559276D01*
X121355546Y-64427247D01*
X121399003Y-64283986D01*
X121410000Y-64172333D01*
X121410000Y-64172324D01*
X121413676Y-64135001D01*
X121410000Y-64097678D01*
X121410000Y-56829801D01*
X122359802Y-55880000D01*
X125558057Y-55880000D01*
X125585764Y-56161309D01*
X125667818Y-56431808D01*
X125801068Y-56681101D01*
X125980392Y-56899608D01*
X126198899Y-57078932D01*
X126448192Y-57212182D01*
X126718691Y-57294236D01*
X126929508Y-57315000D01*
X127070492Y-57315000D01*
X127281309Y-57294236D01*
X127551808Y-57212182D01*
X127801101Y-57078932D01*
X128019608Y-56899608D01*
X128198932Y-56681101D01*
X128332182Y-56431808D01*
X128414236Y-56161309D01*
X128441943Y-55880000D01*
X128414236Y-55598691D01*
X128332182Y-55328192D01*
X128198932Y-55078899D01*
X128019608Y-54860392D01*
X127888396Y-54752709D01*
X128053574Y-54719853D01*
X128314727Y-54611680D01*
X128549759Y-54454637D01*
X128749637Y-54254759D01*
X128906680Y-54019727D01*
X129014853Y-53758574D01*
X129070000Y-53481335D01*
X129070000Y-53198665D01*
X129014853Y-52921426D01*
X128906680Y-52660273D01*
X128749637Y-52425241D01*
X128549759Y-52225363D01*
X128314727Y-52068320D01*
X128053574Y-51960147D01*
X127776335Y-51905000D01*
X127493665Y-51905000D01*
X127216426Y-51960147D01*
X126955273Y-52068320D01*
X126720241Y-52225363D01*
X126520363Y-52425241D01*
X126363320Y-52660273D01*
X126255147Y-52921426D01*
X126200000Y-53198665D01*
X126200000Y-53481335D01*
X126255147Y-53758574D01*
X126363320Y-54019727D01*
X126520363Y-54254759D01*
X126720241Y-54454637D01*
X126734555Y-54464201D01*
X126718691Y-54465764D01*
X126448192Y-54547818D01*
X126198899Y-54681068D01*
X125980392Y-54860392D01*
X125801068Y-55078899D01*
X125667818Y-55328192D01*
X125585764Y-55598691D01*
X125558057Y-55880000D01*
X122359802Y-55880000D01*
X122908636Y-55331167D01*
X123053589Y-55360000D01*
X123326411Y-55360000D01*
X123593989Y-55306775D01*
X123846043Y-55202371D01*
X124072886Y-55050799D01*
X124265799Y-54857886D01*
X124417371Y-54631043D01*
X124521775Y-54378989D01*
X124575000Y-54111411D01*
X124575000Y-53838589D01*
X124521775Y-53571011D01*
X124417371Y-53318957D01*
X124265799Y-53092114D01*
X124072886Y-52899201D01*
X123846043Y-52747629D01*
X123593989Y-52643225D01*
X123326411Y-52590000D01*
X123053589Y-52590000D01*
X122786011Y-52643225D01*
X122533957Y-52747629D01*
X122307114Y-52899201D01*
X122114201Y-53092114D01*
X121962629Y-53318957D01*
X121920000Y-53421873D01*
X121877371Y-53318957D01*
X121725799Y-53092114D01*
X121532886Y-52899201D01*
X121306043Y-52747629D01*
X121053989Y-52643225D01*
X120786411Y-52590000D01*
X120513589Y-52590000D01*
X120246011Y-52643225D01*
X119993957Y-52747629D01*
X119767114Y-52899201D01*
X119574201Y-53092114D01*
X119496445Y-53208483D01*
X119485812Y-53100518D01*
X119449502Y-52980820D01*
X119390537Y-52870506D01*
X119311185Y-52773815D01*
X119214494Y-52694463D01*
X119104180Y-52635498D01*
X118984482Y-52599188D01*
X118860000Y-52586928D01*
X118395750Y-52590000D01*
X118237000Y-52748750D01*
X118237000Y-53848000D01*
X118257000Y-53848000D01*
X118257000Y-54102000D01*
X118237000Y-54102000D01*
X118237000Y-55201250D01*
X118395750Y-55360000D01*
X118860000Y-55363072D01*
X118984482Y-55350812D01*
X119104180Y-55314502D01*
X119214494Y-55255537D01*
X119311185Y-55176185D01*
X119390537Y-55079494D01*
X119449502Y-54969180D01*
X119485812Y-54849482D01*
X119496445Y-54741517D01*
X119574201Y-54857886D01*
X119767114Y-55050799D01*
X119993957Y-55202371D01*
X120246011Y-55306775D01*
X120513589Y-55360000D01*
X120730199Y-55360000D01*
X120138998Y-55951201D01*
X120110000Y-55974999D01*
X120086202Y-56003997D01*
X120086201Y-56003998D01*
X120015026Y-56090724D01*
X119944454Y-56222754D01*
X119900998Y-56366015D01*
X119886324Y-56515000D01*
X119890001Y-56552332D01*
X119890001Y-59013413D01*
X119883411Y-59009010D01*
X119613158Y-58897068D01*
X119326260Y-58840000D01*
X119033740Y-58840000D01*
X118746842Y-58897068D01*
X118476589Y-59009010D01*
X118233368Y-59171525D01*
X118026525Y-59378368D01*
X117864010Y-59621589D01*
X117752068Y-59891842D01*
X117715428Y-60076045D01*
X117684798Y-59975073D01*
X117600299Y-59816986D01*
X117600298Y-59816984D01*
X117560918Y-59768999D01*
X117486581Y-59678419D01*
X117451851Y-59649917D01*
X116480000Y-58678067D01*
X116480000Y-54725000D01*
X116721928Y-54725000D01*
X116734188Y-54849482D01*
X116770498Y-54969180D01*
X116829463Y-55079494D01*
X116908815Y-55176185D01*
X117005506Y-55255537D01*
X117115820Y-55314502D01*
X117235518Y-55350812D01*
X117360000Y-55363072D01*
X117824250Y-55360000D01*
X117983000Y-55201250D01*
X117983000Y-54102000D01*
X116883750Y-54102000D01*
X116725000Y-54260750D01*
X116721928Y-54725000D01*
X116480000Y-54725000D01*
X116480000Y-53225000D01*
X116721928Y-53225000D01*
X116725000Y-53689250D01*
X116883750Y-53848000D01*
X117983000Y-53848000D01*
X117983000Y-52748750D01*
X117824250Y-52590000D01*
X117360000Y-52586928D01*
X117235518Y-52599188D01*
X117115820Y-52635498D01*
X117005506Y-52694463D01*
X116908815Y-52773815D01*
X116829463Y-52870506D01*
X116770498Y-52980820D01*
X116734188Y-53100518D01*
X116721928Y-53225000D01*
X116480000Y-53225000D01*
X116480000Y-52749703D01*
X116484403Y-52705001D01*
X116480000Y-52660296D01*
X116480000Y-52446933D01*
X116816851Y-52110083D01*
X116851581Y-52081581D01*
X116965298Y-51943015D01*
X117049798Y-51784927D01*
X117101833Y-51613391D01*
X117115000Y-51479704D01*
X117115000Y-51479702D01*
X117119403Y-51435000D01*
X117115000Y-51390296D01*
X117115000Y-50884341D01*
X117332963Y-50705463D01*
X117531345Y-50463734D01*
X117544031Y-50440000D01*
X118065298Y-50440000D01*
X118110000Y-50444403D01*
X118154702Y-50440000D01*
X118154704Y-50440000D01*
X118288391Y-50426833D01*
X118459927Y-50374798D01*
X118618015Y-50290298D01*
X118756581Y-50176581D01*
X118785087Y-50141846D01*
X121896853Y-47030081D01*
X121931581Y-47001581D01*
X122043914Y-46864702D01*
X122045298Y-46863016D01*
X122129798Y-46704927D01*
X122149471Y-46640073D01*
X122181833Y-46533391D01*
X122195000Y-46399704D01*
X122195000Y-46399703D01*
X122199403Y-46355001D01*
X122195000Y-46310299D01*
X122195000Y-45877238D01*
X122209482Y-45875812D01*
X122329180Y-45839502D01*
X122439494Y-45780537D01*
X122536185Y-45701185D01*
X122546807Y-45688242D01*
X122798996Y-45807571D01*
X123073184Y-45876300D01*
X123355512Y-45890217D01*
X123635130Y-45848787D01*
X123901292Y-45753603D01*
X124026514Y-45686671D01*
X124098097Y-45442702D01*
X123285000Y-44629605D01*
X123270858Y-44643748D01*
X123091253Y-44464143D01*
X123105395Y-44450000D01*
X123464605Y-44450000D01*
X124277702Y-45263097D01*
X124521671Y-45191514D01*
X124642571Y-44936004D01*
X124711300Y-44661816D01*
X124725217Y-44379488D01*
X124683787Y-44099870D01*
X124588603Y-43833708D01*
X124521671Y-43708486D01*
X124277702Y-43636903D01*
X123464605Y-44450000D01*
X123105395Y-44450000D01*
X123091253Y-44435858D01*
X123270858Y-44256253D01*
X123285000Y-44270395D01*
X124098097Y-43457298D01*
X124026514Y-43213329D01*
X123771004Y-43092429D01*
X123496816Y-43023700D01*
X123214488Y-43009783D01*
X122934870Y-43051213D01*
X122668708Y-43146397D01*
X122546691Y-43211616D01*
X122536185Y-43198815D01*
X122439494Y-43119463D01*
X122329180Y-43060498D01*
X122209482Y-43024188D01*
X122195000Y-43022762D01*
X122195000Y-42589702D01*
X122199403Y-42545000D01*
X122195000Y-42500296D01*
X122195000Y-42286933D01*
X122931934Y-41550000D01*
X125353067Y-41550000D01*
X126347557Y-42544491D01*
X126302818Y-42628192D01*
X126220764Y-42898691D01*
X126193057Y-43180000D01*
X126220764Y-43461309D01*
X126302818Y-43731808D01*
X126436068Y-43981101D01*
X126615392Y-44199608D01*
X126833899Y-44378932D01*
X127083192Y-44512182D01*
X127353691Y-44594236D01*
X127564508Y-44615000D01*
X127705492Y-44615000D01*
X127916309Y-44594236D01*
X128186808Y-44512182D01*
X128436101Y-44378932D01*
X128654608Y-44199608D01*
X128833932Y-43981101D01*
X128967182Y-43731808D01*
X129049236Y-43461309D01*
X129076943Y-43180000D01*
X129049236Y-42898691D01*
X128967182Y-42628192D01*
X128833932Y-42378899D01*
X128654608Y-42160392D01*
X128436101Y-41981068D01*
X128281663Y-41898519D01*
X128281581Y-41898419D01*
X128246851Y-41869918D01*
X126405087Y-40028154D01*
X126376581Y-39993419D01*
X126238015Y-39879702D01*
X126079927Y-39795202D01*
X125908391Y-39743167D01*
X125774704Y-39730000D01*
X125774702Y-39730000D01*
X125730000Y-39725597D01*
X125685298Y-39730000D01*
X122599701Y-39730000D01*
X122554999Y-39725597D01*
X122510297Y-39730000D01*
X122510296Y-39730000D01*
X122376609Y-39743167D01*
X122205073Y-39795202D01*
X122104986Y-39848700D01*
X122046984Y-39879702D01*
X122039922Y-39885498D01*
X121908419Y-39993419D01*
X121879917Y-40028149D01*
X121560000Y-40348066D01*
X121560000Y-32214117D01*
X125900000Y-32214117D01*
X125900000Y-32555883D01*
X125966675Y-32891081D01*
X126097463Y-33206831D01*
X126287337Y-33490998D01*
X126529002Y-33732663D01*
X126813169Y-33922537D01*
X127128919Y-34053325D01*
X127464117Y-34120000D01*
X127805883Y-34120000D01*
X128141081Y-34053325D01*
X128456831Y-33922537D01*
X128740998Y-33732663D01*
X128982663Y-33490998D01*
X129172537Y-33206831D01*
X129303325Y-32891081D01*
X129370000Y-32555883D01*
X129370000Y-32214117D01*
X129303325Y-31878919D01*
X129172537Y-31563169D01*
X128982663Y-31279002D01*
X128740998Y-31037337D01*
X128456831Y-30847463D01*
X128141081Y-30716675D01*
X127805883Y-30650000D01*
X127464117Y-30650000D01*
X127128919Y-30716675D01*
X126813169Y-30847463D01*
X126529002Y-31037337D01*
X126287337Y-31279002D01*
X126097463Y-31563169D01*
X125966675Y-31878919D01*
X125900000Y-32214117D01*
X121560000Y-32214117D01*
X121560000Y-27984701D01*
X121564402Y-27940000D01*
X126828057Y-27940000D01*
X126855764Y-28221309D01*
X126937818Y-28491808D01*
X127071068Y-28741101D01*
X127250392Y-28959608D01*
X127468899Y-29138932D01*
X127718192Y-29272182D01*
X127988691Y-29354236D01*
X128199508Y-29375000D01*
X128340492Y-29375000D01*
X128551309Y-29354236D01*
X128821808Y-29272182D01*
X129071101Y-29138932D01*
X129289608Y-28959608D01*
X129468932Y-28741101D01*
X129602182Y-28491808D01*
X129684236Y-28221309D01*
X129711943Y-27940000D01*
X129684236Y-27658691D01*
X129602182Y-27388192D01*
X129468932Y-27138899D01*
X129289608Y-26920392D01*
X129071101Y-26741068D01*
X128821808Y-26607818D01*
X128551309Y-26525764D01*
X128340492Y-26505000D01*
X128199508Y-26505000D01*
X127988691Y-26525764D01*
X127718192Y-26607818D01*
X127468899Y-26741068D01*
X127250392Y-26920392D01*
X127071068Y-27138899D01*
X126937818Y-27388192D01*
X126855764Y-27658691D01*
X126828057Y-27940000D01*
X121564402Y-27940000D01*
X121564403Y-27939999D01*
X121560000Y-27895296D01*
X121546833Y-27761609D01*
X121494798Y-27590073D01*
X121410298Y-27431985D01*
X121296581Y-27293419D01*
X121261853Y-27264919D01*
X118785087Y-24788154D01*
X118756581Y-24753419D01*
X118618015Y-24639702D01*
X118459927Y-24555202D01*
X118288391Y-24503167D01*
X118154704Y-24490000D01*
X118154702Y-24490000D01*
X118110000Y-24485597D01*
X118065298Y-24490000D01*
X109566934Y-24490000D01*
X109144008Y-24067075D01*
X109151185Y-24061185D01*
X109230537Y-23964494D01*
X109289502Y-23854180D01*
X109325812Y-23734482D01*
X109336445Y-23626517D01*
X109414201Y-23742886D01*
X109607114Y-23935799D01*
X109833957Y-24087371D01*
X110086011Y-24191775D01*
X110353589Y-24245000D01*
X110626411Y-24245000D01*
X110893989Y-24191775D01*
X111146043Y-24087371D01*
X111372886Y-23935799D01*
X111565799Y-23742886D01*
X111717371Y-23516043D01*
X111760000Y-23413127D01*
X111802629Y-23516043D01*
X111954201Y-23742886D01*
X112147114Y-23935799D01*
X112373957Y-24087371D01*
X112626011Y-24191775D01*
X112893589Y-24245000D01*
X113166411Y-24245000D01*
X113433989Y-24191775D01*
X113686043Y-24087371D01*
X113912886Y-23935799D01*
X114105799Y-23742886D01*
X114257371Y-23516043D01*
X114361775Y-23263989D01*
X114415000Y-22996411D01*
X114415000Y-22723589D01*
X114414021Y-22718665D01*
X116675000Y-22718665D01*
X116675000Y-23001335D01*
X116730147Y-23278574D01*
X116838320Y-23539727D01*
X116995363Y-23774759D01*
X117195241Y-23974637D01*
X117430273Y-24131680D01*
X117691426Y-24239853D01*
X117968665Y-24295000D01*
X118251335Y-24295000D01*
X118528574Y-24239853D01*
X118789727Y-24131680D01*
X119024759Y-23974637D01*
X119224637Y-23774759D01*
X119381680Y-23539727D01*
X119489853Y-23278574D01*
X119545000Y-23001335D01*
X119545000Y-22860000D01*
X126828057Y-22860000D01*
X126855764Y-23141309D01*
X126937818Y-23411808D01*
X127071068Y-23661101D01*
X127250392Y-23879608D01*
X127468899Y-24058932D01*
X127718192Y-24192182D01*
X127988691Y-24274236D01*
X128199508Y-24295000D01*
X128340492Y-24295000D01*
X128551309Y-24274236D01*
X128821808Y-24192182D01*
X129071101Y-24058932D01*
X129289608Y-23879608D01*
X129468932Y-23661101D01*
X129602182Y-23411808D01*
X129684236Y-23141309D01*
X129711943Y-22860000D01*
X129684236Y-22578691D01*
X129602182Y-22308192D01*
X129468932Y-22058899D01*
X129289608Y-21840392D01*
X129071101Y-21661068D01*
X128821808Y-21527818D01*
X128551309Y-21445764D01*
X128340492Y-21425000D01*
X128199508Y-21425000D01*
X127988691Y-21445764D01*
X127718192Y-21527818D01*
X127468899Y-21661068D01*
X127250392Y-21840392D01*
X127071068Y-22058899D01*
X126937818Y-22308192D01*
X126855764Y-22578691D01*
X126828057Y-22860000D01*
X119545000Y-22860000D01*
X119545000Y-22718665D01*
X119489853Y-22441426D01*
X119381680Y-22180273D01*
X119224637Y-21945241D01*
X119024759Y-21745363D01*
X118789727Y-21588320D01*
X118528574Y-21480147D01*
X118251335Y-21425000D01*
X117968665Y-21425000D01*
X117691426Y-21480147D01*
X117430273Y-21588320D01*
X117195241Y-21745363D01*
X116995363Y-21945241D01*
X116838320Y-22180273D01*
X116730147Y-22441426D01*
X116675000Y-22718665D01*
X114414021Y-22718665D01*
X114361775Y-22456011D01*
X114257371Y-22203957D01*
X114105799Y-21977114D01*
X113912886Y-21784201D01*
X113686043Y-21632629D01*
X113433989Y-21528225D01*
X113166411Y-21475000D01*
X112893589Y-21475000D01*
X112626011Y-21528225D01*
X112373957Y-21632629D01*
X112147114Y-21784201D01*
X111954201Y-21977114D01*
X111802629Y-22203957D01*
X111760000Y-22306873D01*
X111717371Y-22203957D01*
X111565799Y-21977114D01*
X111372886Y-21784201D01*
X111146043Y-21632629D01*
X110893989Y-21528225D01*
X110626411Y-21475000D01*
X110353589Y-21475000D01*
X110086011Y-21528225D01*
X109833957Y-21632629D01*
X109607114Y-21784201D01*
X109414201Y-21977114D01*
X109336445Y-22093483D01*
X109325812Y-21985518D01*
X109289502Y-21865820D01*
X109230537Y-21755506D01*
X109151185Y-21658815D01*
X109054494Y-21579463D01*
X108944180Y-21520498D01*
X108824482Y-21484188D01*
X108700000Y-21471928D01*
X107200000Y-21471928D01*
X107075518Y-21484188D01*
X106955820Y-21520498D01*
X106845506Y-21579463D01*
X106748815Y-21658815D01*
X106669463Y-21755506D01*
X106610498Y-21865820D01*
X106574188Y-21985518D01*
X106561928Y-22110000D01*
X106561928Y-23610000D01*
X106574188Y-23734482D01*
X106610498Y-23854180D01*
X106669463Y-23964494D01*
X106748815Y-24061185D01*
X106845506Y-24140537D01*
X106955820Y-24199502D01*
X107042064Y-24225664D01*
X107053167Y-24338390D01*
X107103152Y-24503167D01*
X107105202Y-24509926D01*
X107189702Y-24668015D01*
X107218953Y-24703657D01*
X107303419Y-24806581D01*
X107338154Y-24835087D01*
X108514917Y-26011851D01*
X108543419Y-26046581D01*
X108633999Y-26120918D01*
X108681984Y-26160298D01*
X108840073Y-26244798D01*
X109011609Y-26296833D01*
X109145296Y-26310000D01*
X109145298Y-26310000D01*
X109190000Y-26314403D01*
X109234702Y-26310000D01*
X117733067Y-26310000D01*
X117934803Y-26511736D01*
X117691426Y-26560147D01*
X117430273Y-26668320D01*
X117195241Y-26825363D01*
X116995363Y-27025241D01*
X116838320Y-27260273D01*
X116730147Y-27521426D01*
X116675000Y-27798665D01*
X116675000Y-28081335D01*
X116730147Y-28358574D01*
X116838320Y-28619727D01*
X116995363Y-28854759D01*
X117195241Y-29054637D01*
X117430273Y-29211680D01*
X117691426Y-29319853D01*
X117968665Y-29375000D01*
X118251335Y-29375000D01*
X118528574Y-29319853D01*
X118789727Y-29211680D01*
X119024759Y-29054637D01*
X119224637Y-28854759D01*
X119381680Y-28619727D01*
X119489853Y-28358574D01*
X119538264Y-28115198D01*
X119740000Y-28316934D01*
X119740001Y-41865288D01*
X119735597Y-41910000D01*
X119753168Y-42088391D01*
X119805202Y-42259926D01*
X119889702Y-42418015D01*
X119899123Y-42429494D01*
X120003420Y-42556581D01*
X120038149Y-42585082D01*
X120375000Y-42921934D01*
X120375000Y-43022762D01*
X120360518Y-43024188D01*
X120240820Y-43060498D01*
X120130506Y-43119463D01*
X120033815Y-43198815D01*
X119954463Y-43295506D01*
X119895498Y-43405820D01*
X119859188Y-43525518D01*
X119846928Y-43650000D01*
X119846928Y-45250000D01*
X119859188Y-45374482D01*
X119895498Y-45494180D01*
X119954463Y-45604494D01*
X120033815Y-45701185D01*
X120130506Y-45780537D01*
X120240820Y-45839502D01*
X120360518Y-45875812D01*
X120375000Y-45877238D01*
X120375000Y-45978066D01*
X117733067Y-48620000D01*
X117544032Y-48620000D01*
X117531345Y-48596265D01*
X117332963Y-48354537D01*
X117091234Y-48156155D01*
X116815448Y-48008745D01*
X116516203Y-47917970D01*
X116205000Y-47887319D01*
X115893796Y-47917970D01*
X115594551Y-48008745D01*
X115318765Y-48156155D01*
X115077037Y-48354537D01*
X114929838Y-48533900D01*
X114774437Y-48348685D01*
X114531923Y-48154031D01*
X114256094Y-48010429D01*
X114037980Y-47939437D01*
X113792000Y-48059406D01*
X113792000Y-49403000D01*
X113812000Y-49403000D01*
X113812000Y-49657000D01*
X113792000Y-49657000D01*
X113792000Y-51000594D01*
X114037980Y-51120563D01*
X114256094Y-51049571D01*
X114531923Y-50905969D01*
X114774437Y-50711315D01*
X114929837Y-50526101D01*
X115077037Y-50705463D01*
X115295001Y-50884341D01*
X115295001Y-51058066D01*
X114958153Y-51394914D01*
X114923419Y-51423419D01*
X114838953Y-51526343D01*
X114809702Y-51561985D01*
X114782225Y-51613391D01*
X114725202Y-51720074D01*
X114673167Y-51891610D01*
X114667938Y-51944702D01*
X114655597Y-52070000D01*
X114660000Y-52114702D01*
X114660000Y-52328066D01*
X114302314Y-52685752D01*
X114083574Y-52595147D01*
X113806335Y-52540000D01*
X113523665Y-52540000D01*
X113246426Y-52595147D01*
X112985273Y-52703320D01*
X112750241Y-52860363D01*
X112550363Y-53060241D01*
X112416308Y-53260869D01*
X112401671Y-53233486D01*
X112157702Y-53161903D01*
X111344605Y-53975000D01*
X112157702Y-54788097D01*
X112401671Y-54716514D01*
X112415324Y-54687659D01*
X112550363Y-54889759D01*
X112750241Y-55089637D01*
X112985273Y-55246680D01*
X113246426Y-55354853D01*
X113523665Y-55410000D01*
X113806335Y-55410000D01*
X114083574Y-55354853D01*
X114344727Y-55246680D01*
X114579759Y-55089637D01*
X114660000Y-55009396D01*
X114660001Y-58678065D01*
X114441111Y-58896955D01*
X114370492Y-58890000D01*
X114229508Y-58890000D01*
X114018691Y-58910764D01*
X113748192Y-58992818D01*
X113498899Y-59126068D01*
X113280392Y-59305392D01*
X113190439Y-59415000D01*
X112439701Y-59415000D01*
X112394999Y-59410597D01*
X112350297Y-59415000D01*
X112350296Y-59415000D01*
X112216609Y-59428167D01*
X112045073Y-59480202D01*
X111886985Y-59564702D01*
X111748419Y-59678419D01*
X111719918Y-59713148D01*
X109478067Y-61955000D01*
X107854242Y-61955000D01*
X107735134Y-61809866D01*
X107705313Y-61785393D01*
X107774180Y-61764502D01*
X107884494Y-61705537D01*
X107981185Y-61626185D01*
X108060537Y-61529494D01*
X108119502Y-61419180D01*
X108155812Y-61299482D01*
X108168072Y-61175000D01*
X108165000Y-60610750D01*
X108006250Y-60452000D01*
X106807000Y-60452000D01*
X106807000Y-60472000D01*
X106553000Y-60472000D01*
X106553000Y-60452000D01*
X105353750Y-60452000D01*
X105195000Y-60610750D01*
X105191928Y-61175000D01*
X105204188Y-61299482D01*
X105240498Y-61419180D01*
X105299463Y-61529494D01*
X105378815Y-61626185D01*
X105475506Y-61705537D01*
X105585820Y-61764502D01*
X105654687Y-61785393D01*
X105624866Y-61809866D01*
X105439294Y-62035986D01*
X105301401Y-62293966D01*
X105216487Y-62573889D01*
X105187815Y-62865000D01*
X105216487Y-63156111D01*
X105301401Y-63436034D01*
X105439294Y-63694014D01*
X105624866Y-63920134D01*
X105850986Y-64105706D01*
X105905791Y-64135000D01*
X105850986Y-64164294D01*
X105624866Y-64349866D01*
X105587825Y-64395000D01*
X105193355Y-64395000D01*
X101816462Y-61018107D01*
X101822185Y-60960000D01*
X101793513Y-60668889D01*
X101708599Y-60388966D01*
X101570706Y-60130986D01*
X101385134Y-59904866D01*
X101159014Y-59719294D01*
X100901034Y-59581401D01*
X100621111Y-59496487D01*
X100402950Y-59475000D01*
X105191928Y-59475000D01*
X105195000Y-60039250D01*
X105353750Y-60198000D01*
X106553000Y-60198000D01*
X106553000Y-58998750D01*
X106807000Y-58998750D01*
X106807000Y-60198000D01*
X108006250Y-60198000D01*
X108165000Y-60039250D01*
X108168072Y-59475000D01*
X108155812Y-59350518D01*
X108119502Y-59230820D01*
X108060537Y-59120506D01*
X107981185Y-59023815D01*
X107884494Y-58944463D01*
X107774180Y-58885498D01*
X107654482Y-58849188D01*
X107530000Y-58836928D01*
X106965750Y-58840000D01*
X106807000Y-58998750D01*
X106553000Y-58998750D01*
X106394250Y-58840000D01*
X105830000Y-58836928D01*
X105705518Y-58849188D01*
X105585820Y-58885498D01*
X105475506Y-58944463D01*
X105378815Y-59023815D01*
X105299463Y-59120506D01*
X105240498Y-59230820D01*
X105204188Y-59350518D01*
X105191928Y-59475000D01*
X100402950Y-59475000D01*
X100257050Y-59475000D01*
X100038889Y-59496487D01*
X99758966Y-59581401D01*
X99500986Y-59719294D01*
X99274866Y-59904866D01*
X99089294Y-60130986D01*
X98951401Y-60388966D01*
X98866487Y-60668889D01*
X98837815Y-60960000D01*
X98866487Y-61251111D01*
X98951401Y-61531034D01*
X99089294Y-61789014D01*
X99274866Y-62015134D01*
X99304687Y-62039607D01*
X99235820Y-62060498D01*
X99125506Y-62119463D01*
X99028815Y-62198815D01*
X98949463Y-62295506D01*
X98890498Y-62405820D01*
X98854188Y-62525518D01*
X98841928Y-62650000D01*
X98841928Y-64350000D01*
X98854188Y-64474482D01*
X98890498Y-64594180D01*
X98949463Y-64704494D01*
X99028815Y-64801185D01*
X99125506Y-64880537D01*
X99235820Y-64939502D01*
X99355518Y-64975812D01*
X99480000Y-64988072D01*
X100389717Y-64988072D01*
X104025739Y-68624094D01*
X104057367Y-68662633D01*
X104211160Y-68788847D01*
X104386620Y-68882632D01*
X104577006Y-68940385D01*
X104725392Y-68955000D01*
X104725394Y-68955000D01*
X104774999Y-68959886D01*
X104824604Y-68955000D01*
X105587825Y-68955000D01*
X105624866Y-69000134D01*
X105850986Y-69185706D01*
X105905791Y-69215000D01*
X105850986Y-69244294D01*
X105624866Y-69429866D01*
X105587825Y-69475000D01*
X103923355Y-69475000D01*
X103619261Y-69170906D01*
X103587633Y-69132367D01*
X103433840Y-69006153D01*
X103258380Y-68912368D01*
X103067994Y-68854615D01*
X102919608Y-68840000D01*
X102870000Y-68835114D01*
X102820392Y-68840000D01*
X101422175Y-68840000D01*
X101385134Y-68794866D01*
X101159014Y-68609294D01*
X100901034Y-68471401D01*
X100621111Y-68386487D01*
X100402950Y-68365000D01*
X100257050Y-68365000D01*
X100038889Y-68386487D01*
X99758966Y-68471401D01*
X99500986Y-68609294D01*
X99274866Y-68794866D01*
X99089294Y-69020986D01*
X98951401Y-69278966D01*
X98866487Y-69558889D01*
X98837815Y-69850000D01*
X98866487Y-70141111D01*
X98951401Y-70421034D01*
X99089294Y-70679014D01*
X99274866Y-70905134D01*
X99304687Y-70929607D01*
X99235820Y-70950498D01*
X99125506Y-71009463D01*
X99028815Y-71088815D01*
X98949463Y-71185506D01*
X98890498Y-71295820D01*
X98854188Y-71415518D01*
X98841928Y-71540000D01*
X98841928Y-73240000D01*
X98854188Y-73364482D01*
X98890498Y-73484180D01*
X98949463Y-73594494D01*
X99028815Y-73691185D01*
X99125506Y-73770537D01*
X99235820Y-73829502D01*
X99355518Y-73865812D01*
X99480000Y-73878072D01*
X101180000Y-73878072D01*
X101304482Y-73865812D01*
X101424180Y-73829502D01*
X101534494Y-73770537D01*
X101631185Y-73691185D01*
X101710537Y-73594494D01*
X101769502Y-73484180D01*
X101795038Y-73400000D01*
X103086645Y-73400000D01*
X103390739Y-73704094D01*
X103422367Y-73742633D01*
X103576160Y-73868847D01*
X103751620Y-73962632D01*
X103942005Y-74020385D01*
X104140000Y-74039886D01*
X104189608Y-74035000D01*
X105587825Y-74035000D01*
X105624866Y-74080134D01*
X105850986Y-74265706D01*
X105905791Y-74295000D01*
X105850986Y-74324294D01*
X105624866Y-74509866D01*
X105439294Y-74735986D01*
X105301401Y-74993966D01*
X105216487Y-75273889D01*
X105187815Y-75565000D01*
X105216487Y-75856111D01*
X105301401Y-76136034D01*
X105439294Y-76394014D01*
X105624866Y-76620134D01*
X105850986Y-76805706D01*
X105915523Y-76840201D01*
X105798645Y-76909822D01*
X105582412Y-77104731D01*
X105408359Y-77338080D01*
X105283175Y-77600901D01*
X105238524Y-77748110D01*
X105359845Y-77978000D01*
X106553000Y-77978000D01*
X106553000Y-77958000D01*
X106807000Y-77958000D01*
X106807000Y-77978000D01*
X108000155Y-77978000D01*
X108121476Y-77748110D01*
X108076825Y-77600901D01*
X107951641Y-77338080D01*
X107777588Y-77104731D01*
X107561355Y-76909822D01*
X107444477Y-76840201D01*
X107509014Y-76805706D01*
X107735134Y-76620134D01*
X107920706Y-76394014D01*
X108058599Y-76136034D01*
X108143513Y-75856111D01*
X108172185Y-75565000D01*
X108143513Y-75273889D01*
X108120797Y-75199005D01*
X108461004Y-74858798D01*
X108490001Y-74835001D01*
X108584974Y-74719276D01*
X108655546Y-74587247D01*
X108699003Y-74443986D01*
X108710000Y-74332333D01*
X108710000Y-74332324D01*
X108713676Y-74295001D01*
X108710000Y-74257678D01*
X108710000Y-64172322D01*
X108713676Y-64134999D01*
X108710000Y-64097676D01*
X108710000Y-64097667D01*
X108699003Y-63986014D01*
X108655546Y-63842753D01*
X108619331Y-63775000D01*
X109810298Y-63775000D01*
X109855000Y-63779403D01*
X109899702Y-63775000D01*
X109899704Y-63775000D01*
X110033391Y-63761833D01*
X110204927Y-63709798D01*
X110363015Y-63625298D01*
X110501581Y-63511581D01*
X110530087Y-63476846D01*
X112771934Y-61235000D01*
X113190439Y-61235000D01*
X113280392Y-61344608D01*
X113498899Y-61523932D01*
X113748192Y-61657182D01*
X114018691Y-61739236D01*
X114229508Y-61760000D01*
X114370492Y-61760000D01*
X114581309Y-61739236D01*
X114851808Y-61657182D01*
X115101101Y-61523932D01*
X115319608Y-61344608D01*
X115498932Y-61126101D01*
X115632182Y-60876808D01*
X115714236Y-60606309D01*
X115725008Y-60496942D01*
X115930001Y-60701935D01*
X115930000Y-65995296D01*
X115925597Y-66040000D01*
X115930000Y-66084702D01*
X115930000Y-66084703D01*
X115930001Y-66084713D01*
X115930000Y-76034314D01*
X115887702Y-76021903D01*
X115074605Y-76835000D01*
X115887702Y-77648097D01*
X115930000Y-77635686D01*
X115930000Y-81235298D01*
X115925597Y-81280000D01*
X115930000Y-81324702D01*
X115930000Y-81324703D01*
X115943167Y-81458390D01*
X115977705Y-81572247D01*
X115995202Y-81629926D01*
X116079702Y-81788015D01*
X116105953Y-81820001D01*
X116193419Y-81926581D01*
X116228153Y-81955086D01*
X116487191Y-82214124D01*
X116399201Y-82302114D01*
X116247629Y-82528957D01*
X116206489Y-82628279D01*
X116191277Y-82586168D01*
X116130860Y-82473137D01*
X115891993Y-82407612D01*
X115114605Y-83185000D01*
X115128748Y-83199143D01*
X114949143Y-83378748D01*
X114935000Y-83364605D01*
X114157612Y-84141993D01*
X114223137Y-84380860D01*
X114470116Y-84496760D01*
X114734960Y-84562250D01*
X115007492Y-84574812D01*
X115277238Y-84533965D01*
X115295000Y-84527549D01*
X115295001Y-89158065D01*
X115152172Y-89300894D01*
X115157185Y-89250000D01*
X115128513Y-88958889D01*
X115043599Y-88678966D01*
X114905706Y-88420986D01*
X114720134Y-88194866D01*
X114494014Y-88009294D01*
X114236034Y-87871401D01*
X113956111Y-87786487D01*
X113737950Y-87765000D01*
X113592050Y-87765000D01*
X113373889Y-87786487D01*
X113093966Y-87871401D01*
X112835986Y-88009294D01*
X112609866Y-88194866D01*
X112424294Y-88420986D01*
X112395000Y-88475791D01*
X112365706Y-88420986D01*
X112180134Y-88194866D01*
X111954014Y-88009294D01*
X111696034Y-87871401D01*
X111416111Y-87786487D01*
X111197950Y-87765000D01*
X111052050Y-87765000D01*
X110833889Y-87786487D01*
X110615000Y-87852886D01*
X110615000Y-86674801D01*
X112716731Y-84573072D01*
X113145000Y-84573072D01*
X113269482Y-84560812D01*
X113389180Y-84524502D01*
X113499494Y-84465537D01*
X113596185Y-84386185D01*
X113675537Y-84289494D01*
X113734502Y-84179180D01*
X113770812Y-84059482D01*
X113783072Y-83935000D01*
X113783072Y-83908914D01*
X113978007Y-83962388D01*
X114755395Y-83185000D01*
X113978007Y-82407612D01*
X113783072Y-82461086D01*
X113783072Y-82435000D01*
X113770812Y-82310518D01*
X113745783Y-82228007D01*
X114157612Y-82228007D01*
X114935000Y-83005395D01*
X115712388Y-82228007D01*
X115646863Y-81989140D01*
X115399884Y-81873240D01*
X115135040Y-81807750D01*
X114862508Y-81795188D01*
X114592762Y-81836035D01*
X114336168Y-81928723D01*
X114223137Y-81989140D01*
X114157612Y-82228007D01*
X113745783Y-82228007D01*
X113734502Y-82190820D01*
X113675537Y-82080506D01*
X113596185Y-81983815D01*
X113499494Y-81904463D01*
X113389180Y-81845498D01*
X113269482Y-81809188D01*
X113155000Y-81797913D01*
X113155000Y-78053043D01*
X113309759Y-77949637D01*
X113431694Y-77827702D01*
X114081903Y-77827702D01*
X114153486Y-78071671D01*
X114408996Y-78192571D01*
X114683184Y-78261300D01*
X114965512Y-78275217D01*
X115245130Y-78233787D01*
X115511292Y-78138603D01*
X115636514Y-78071671D01*
X115708097Y-77827702D01*
X114895000Y-77014605D01*
X114081903Y-77827702D01*
X113431694Y-77827702D01*
X113509637Y-77749759D01*
X113643692Y-77549131D01*
X113658329Y-77576514D01*
X113902298Y-77648097D01*
X114715395Y-76835000D01*
X113902298Y-76021903D01*
X113658329Y-76093486D01*
X113644676Y-76122341D01*
X113509637Y-75920241D01*
X113431694Y-75842298D01*
X114081903Y-75842298D01*
X114895000Y-76655395D01*
X115708097Y-75842298D01*
X115636514Y-75598329D01*
X115381004Y-75477429D01*
X115106816Y-75408700D01*
X114824488Y-75394783D01*
X114544870Y-75436213D01*
X114278708Y-75531397D01*
X114153486Y-75598329D01*
X114081903Y-75842298D01*
X113431694Y-75842298D01*
X113309759Y-75720363D01*
X113074727Y-75563320D01*
X112813574Y-75455147D01*
X112536335Y-75400000D01*
X112253665Y-75400000D01*
X111976426Y-75455147D01*
X111885000Y-75493017D01*
X111885000Y-70343665D01*
X112865000Y-70343665D01*
X112865000Y-70626335D01*
X112920147Y-70903574D01*
X113028320Y-71164727D01*
X113185363Y-71399759D01*
X113385241Y-71599637D01*
X113620273Y-71756680D01*
X113881426Y-71864853D01*
X114158665Y-71920000D01*
X114441335Y-71920000D01*
X114718574Y-71864853D01*
X114979727Y-71756680D01*
X115214759Y-71599637D01*
X115414637Y-71399759D01*
X115571680Y-71164727D01*
X115679853Y-70903574D01*
X115735000Y-70626335D01*
X115735000Y-70343665D01*
X115679853Y-70066426D01*
X115571680Y-69805273D01*
X115414637Y-69570241D01*
X115214759Y-69370363D01*
X114979727Y-69213320D01*
X114718574Y-69105147D01*
X114441335Y-69050000D01*
X114158665Y-69050000D01*
X113881426Y-69105147D01*
X113620273Y-69213320D01*
X113385241Y-69370363D01*
X113185363Y-69570241D01*
X113028320Y-69805273D01*
X112920147Y-70066426D01*
X112865000Y-70343665D01*
X111885000Y-70343665D01*
X111885000Y-68259801D01*
X114451649Y-65693153D01*
X114572729Y-65669068D01*
X114742889Y-65598586D01*
X114896028Y-65496262D01*
X115026262Y-65366028D01*
X115128586Y-65212889D01*
X115199068Y-65042729D01*
X115235000Y-64862089D01*
X115235000Y-64677911D01*
X115199068Y-64497271D01*
X115128586Y-64327111D01*
X115026262Y-64173972D01*
X114896028Y-64043738D01*
X114742889Y-63941414D01*
X114572729Y-63870932D01*
X114392089Y-63835000D01*
X114207911Y-63835000D01*
X114027271Y-63870932D01*
X113857111Y-63941414D01*
X113703972Y-64043738D01*
X113573738Y-64173972D01*
X113471414Y-64327111D01*
X113400932Y-64497271D01*
X113376847Y-64618351D01*
X110614003Y-67381196D01*
X110584999Y-67404999D01*
X110540694Y-67458985D01*
X110490026Y-67520724D01*
X110446451Y-67602246D01*
X110419454Y-67652754D01*
X110375997Y-67796015D01*
X110365000Y-67907668D01*
X110365000Y-67907678D01*
X110361324Y-67945000D01*
X110365000Y-67982322D01*
X110365001Y-75250197D01*
X109344003Y-76271196D01*
X109314999Y-76294999D01*
X109270685Y-76348996D01*
X109220026Y-76410724D01*
X109180394Y-76484870D01*
X109149454Y-76542754D01*
X109105997Y-76686015D01*
X109095000Y-76797668D01*
X109095000Y-76797678D01*
X109091324Y-76835000D01*
X109095000Y-76872323D01*
X109095001Y-78829463D01*
X109026414Y-78932111D01*
X108955932Y-79102271D01*
X108920000Y-79282911D01*
X108920000Y-79467089D01*
X108955932Y-79647729D01*
X109026414Y-79817889D01*
X109128738Y-79971028D01*
X109258972Y-80101262D01*
X109412111Y-80203586D01*
X109582271Y-80274068D01*
X109762911Y-80310000D01*
X109947089Y-80310000D01*
X110127729Y-80274068D01*
X110297889Y-80203586D01*
X110451028Y-80101262D01*
X110581262Y-79971028D01*
X110683586Y-79817889D01*
X110754068Y-79647729D01*
X110790000Y-79467089D01*
X110790000Y-79282911D01*
X110754068Y-79102271D01*
X110683586Y-78932111D01*
X110615000Y-78829465D01*
X110615000Y-77149801D01*
X110960000Y-76804801D01*
X110960000Y-76976335D01*
X111015147Y-77253574D01*
X111123320Y-77514727D01*
X111280363Y-77749759D01*
X111480241Y-77949637D01*
X111635000Y-78053044D01*
X111635001Y-81797913D01*
X111520518Y-81809188D01*
X111400820Y-81845498D01*
X111290506Y-81904463D01*
X111193815Y-81983815D01*
X111114463Y-82080506D01*
X111055498Y-82190820D01*
X111019188Y-82310518D01*
X111007913Y-82425000D01*
X108653313Y-82425000D01*
X108507312Y-82206495D01*
X108293505Y-81992688D01*
X108042095Y-81824701D01*
X107762743Y-81708989D01*
X107466184Y-81650000D01*
X107163816Y-81650000D01*
X106867257Y-81708989D01*
X106587905Y-81824701D01*
X106336495Y-81992688D01*
X106270056Y-82059127D01*
X106264502Y-82040820D01*
X106205537Y-81930506D01*
X106126185Y-81833815D01*
X106029494Y-81754463D01*
X105919180Y-81695498D01*
X105799482Y-81659188D01*
X105675000Y-81646928D01*
X103875000Y-81646928D01*
X103750518Y-81659188D01*
X103630820Y-81695498D01*
X103520506Y-81754463D01*
X103423815Y-81833815D01*
X103344463Y-81930506D01*
X103285498Y-82040820D01*
X103249188Y-82160518D01*
X103236928Y-82285000D01*
X103236928Y-84085000D01*
X103249188Y-84209482D01*
X103285498Y-84329180D01*
X103344463Y-84439494D01*
X103423815Y-84536185D01*
X103520506Y-84615537D01*
X103630820Y-84674502D01*
X103750518Y-84710812D01*
X103875000Y-84723072D01*
X105675000Y-84723072D01*
X105799482Y-84710812D01*
X105919180Y-84674502D01*
X106029494Y-84615537D01*
X106126185Y-84536185D01*
X106205537Y-84439494D01*
X106264502Y-84329180D01*
X106270056Y-84310873D01*
X106336495Y-84377312D01*
X106587905Y-84545299D01*
X106867257Y-84661011D01*
X107163816Y-84720000D01*
X107466184Y-84720000D01*
X107762743Y-84661011D01*
X108042095Y-84545299D01*
X108293505Y-84377312D01*
X108507312Y-84163505D01*
X108653313Y-83945000D01*
X111007913Y-83945000D01*
X111019188Y-84059482D01*
X111033508Y-84106689D01*
X109344003Y-85796196D01*
X109314999Y-85819999D01*
X109265460Y-85880363D01*
X109220026Y-85935724D01*
X109191513Y-85989068D01*
X109149454Y-86067754D01*
X109105997Y-86211015D01*
X109095000Y-86322668D01*
X109095000Y-86322678D01*
X109091324Y-86360000D01*
X109095000Y-86397323D01*
X109095000Y-87852887D01*
X108876111Y-87786487D01*
X108657950Y-87765000D01*
X108512050Y-87765000D01*
X108293889Y-87786487D01*
X108013966Y-87871401D01*
X107755986Y-88009294D01*
X107529866Y-88194866D01*
X107344294Y-88420986D01*
X107315000Y-88475791D01*
X107285706Y-88420986D01*
X107100134Y-88194866D01*
X106874014Y-88009294D01*
X106616034Y-87871401D01*
X106336111Y-87786487D01*
X106117950Y-87765000D01*
X105972050Y-87765000D01*
X105753889Y-87786487D01*
X105473966Y-87871401D01*
X105215986Y-88009294D01*
X104989866Y-88194866D01*
X104965393Y-88224687D01*
X104944502Y-88155820D01*
X104885537Y-88045506D01*
X104806185Y-87948815D01*
X104709494Y-87869463D01*
X104599180Y-87810498D01*
X104479482Y-87774188D01*
X104355000Y-87761928D01*
X102655000Y-87761928D01*
X102530518Y-87774188D01*
X102410820Y-87810498D01*
X102300506Y-87869463D01*
X102203815Y-87948815D01*
X102124463Y-88045506D01*
X102065498Y-88155820D01*
X102029188Y-88275518D01*
X102016928Y-88400000D01*
X102016928Y-90100000D01*
X102029188Y-90224482D01*
X102065498Y-90344180D01*
X102124463Y-90454494D01*
X102203815Y-90551185D01*
X102300506Y-90630537D01*
X102410820Y-90689502D01*
X102486626Y-90712498D01*
X102309822Y-90908645D01*
X102160843Y-91158748D01*
X102158625Y-91165000D01*
X101976934Y-91165000D01*
X101640086Y-90828153D01*
X101611581Y-90793419D01*
X101473015Y-90679702D01*
X101314927Y-90595202D01*
X101143391Y-90543167D01*
X101009704Y-90530000D01*
X101009702Y-90530000D01*
X100965000Y-90525597D01*
X100920298Y-90530000D01*
X100071934Y-90530000D01*
X98700000Y-89158067D01*
X98700000Y-88029396D01*
X98780241Y-88109637D01*
X99015273Y-88266680D01*
X99276426Y-88374853D01*
X99553665Y-88430000D01*
X99836335Y-88430000D01*
X100113574Y-88374853D01*
X100374727Y-88266680D01*
X100609759Y-88109637D01*
X100809637Y-87909759D01*
X100966680Y-87674727D01*
X101074853Y-87413574D01*
X101130000Y-87136335D01*
X101130000Y-86853665D01*
X101074853Y-86576426D01*
X100966680Y-86315273D01*
X100809637Y-86080241D01*
X100609759Y-85880363D01*
X100374727Y-85723320D01*
X100113574Y-85615147D01*
X99836335Y-85560000D01*
X99553665Y-85560000D01*
X99276426Y-85615147D01*
X99015273Y-85723320D01*
X98780241Y-85880363D01*
X98700000Y-85960604D01*
X98700000Y-78461890D01*
X105238524Y-78461890D01*
X105283175Y-78609099D01*
X105408359Y-78871920D01*
X105582412Y-79105269D01*
X105798645Y-79300178D01*
X106048748Y-79449157D01*
X106323109Y-79546481D01*
X106553000Y-79425814D01*
X106553000Y-78232000D01*
X106807000Y-78232000D01*
X106807000Y-79425814D01*
X107036891Y-79546481D01*
X107311252Y-79449157D01*
X107561355Y-79300178D01*
X107777588Y-79105269D01*
X107951641Y-78871920D01*
X108076825Y-78609099D01*
X108121476Y-78461890D01*
X108000155Y-78232000D01*
X106807000Y-78232000D01*
X106553000Y-78232000D01*
X105359845Y-78232000D01*
X105238524Y-78461890D01*
X98700000Y-78461890D01*
X98700000Y-77863688D01*
X98731586Y-77898519D01*
X98957580Y-78066037D01*
X99211913Y-78186246D01*
X99345961Y-78226904D01*
X99568000Y-78104915D01*
X99568000Y-76962000D01*
X99822000Y-76962000D01*
X99822000Y-78104915D01*
X100044039Y-78226904D01*
X100178087Y-78186246D01*
X100432420Y-78066037D01*
X100658414Y-77898519D01*
X100847385Y-77690131D01*
X100992070Y-77448881D01*
X101086909Y-77184040D01*
X100965624Y-76962000D01*
X99822000Y-76962000D01*
X99568000Y-76962000D01*
X99548000Y-76962000D01*
X99548000Y-76708000D01*
X99568000Y-76708000D01*
X99568000Y-75565085D01*
X99822000Y-75565085D01*
X99822000Y-76708000D01*
X100965624Y-76708000D01*
X101086909Y-76485960D01*
X100992070Y-76221119D01*
X100847385Y-75979869D01*
X100658414Y-75771481D01*
X100432420Y-75603963D01*
X100178087Y-75483754D01*
X100044039Y-75443096D01*
X99822000Y-75565085D01*
X99568000Y-75565085D01*
X99345961Y-75443096D01*
X99211913Y-75483754D01*
X98957580Y-75603963D01*
X98731586Y-75771481D01*
X98700000Y-75806312D01*
X98700000Y-54967702D01*
X110351903Y-54967702D01*
X110423486Y-55211671D01*
X110678996Y-55332571D01*
X110953184Y-55401300D01*
X111235512Y-55415217D01*
X111515130Y-55373787D01*
X111781292Y-55278603D01*
X111906514Y-55211671D01*
X111978097Y-54967702D01*
X111165000Y-54154605D01*
X110351903Y-54967702D01*
X98700000Y-54967702D01*
X98700000Y-53061891D01*
X100793519Y-53061891D01*
X100890843Y-53336252D01*
X101039822Y-53586355D01*
X101234731Y-53802588D01*
X101468080Y-53976641D01*
X101730901Y-54101825D01*
X101878110Y-54146476D01*
X102108000Y-54025155D01*
X102108000Y-52832000D01*
X100914186Y-52832000D01*
X100793519Y-53061891D01*
X98700000Y-53061891D01*
X98700000Y-52348109D01*
X100793519Y-52348109D01*
X100914186Y-52578000D01*
X102108000Y-52578000D01*
X102108000Y-51384845D01*
X102362000Y-51384845D01*
X102362000Y-52578000D01*
X102382000Y-52578000D01*
X102382000Y-52832000D01*
X102362000Y-52832000D01*
X102362000Y-54025155D01*
X102591890Y-54146476D01*
X102739099Y-54101825D01*
X103001920Y-53976641D01*
X103235269Y-53802588D01*
X103311034Y-53718534D01*
X103335498Y-53799180D01*
X103394463Y-53909494D01*
X103473815Y-54006185D01*
X103570506Y-54085537D01*
X103680820Y-54144502D01*
X103800518Y-54180812D01*
X103925000Y-54193072D01*
X105625000Y-54193072D01*
X105749482Y-54180812D01*
X105869180Y-54144502D01*
X105979494Y-54085537D01*
X106028264Y-54045512D01*
X109724783Y-54045512D01*
X109766213Y-54325130D01*
X109861397Y-54591292D01*
X109928329Y-54716514D01*
X110172298Y-54788097D01*
X110985395Y-53975000D01*
X110172298Y-53161903D01*
X109928329Y-53233486D01*
X109807429Y-53488996D01*
X109738700Y-53763184D01*
X109724783Y-54045512D01*
X106028264Y-54045512D01*
X106076185Y-54006185D01*
X106155537Y-53909494D01*
X106214502Y-53799180D01*
X106250812Y-53679482D01*
X106263072Y-53555000D01*
X106263072Y-52982298D01*
X110351903Y-52982298D01*
X111165000Y-53795395D01*
X111978097Y-52982298D01*
X111906514Y-52738329D01*
X111651004Y-52617429D01*
X111376816Y-52548700D01*
X111094488Y-52534783D01*
X110814870Y-52576213D01*
X110548708Y-52671397D01*
X110423486Y-52738329D01*
X110351903Y-52982298D01*
X106263072Y-52982298D01*
X106263072Y-51855000D01*
X106250812Y-51730518D01*
X106214502Y-51610820D01*
X106155537Y-51500506D01*
X106076185Y-51403815D01*
X105979494Y-51324463D01*
X105869180Y-51265498D01*
X105749482Y-51229188D01*
X105625000Y-51216928D01*
X103925000Y-51216928D01*
X103800518Y-51229188D01*
X103680820Y-51265498D01*
X103570506Y-51324463D01*
X103473815Y-51403815D01*
X103394463Y-51500506D01*
X103335498Y-51610820D01*
X103311034Y-51691466D01*
X103235269Y-51607412D01*
X103001920Y-51433359D01*
X102739099Y-51308175D01*
X102591890Y-51263524D01*
X102362000Y-51384845D01*
X102108000Y-51384845D01*
X101878110Y-51263524D01*
X101730901Y-51308175D01*
X101468080Y-51433359D01*
X101234731Y-51607412D01*
X101039822Y-51823645D01*
X100890843Y-52073748D01*
X100793519Y-52348109D01*
X98700000Y-52348109D01*
X98700000Y-51811933D01*
X101917500Y-48594433D01*
X103464918Y-50141851D01*
X103493419Y-50176581D01*
X103583999Y-50250918D01*
X103631984Y-50290298D01*
X103790073Y-50374798D01*
X103961609Y-50426833D01*
X104095296Y-50440000D01*
X104095298Y-50440000D01*
X104140000Y-50444403D01*
X104184702Y-50440000D01*
X109534428Y-50440000D01*
X109534428Y-50530000D01*
X109546688Y-50654482D01*
X109582998Y-50774180D01*
X109641963Y-50884494D01*
X109721315Y-50981185D01*
X109818006Y-51060537D01*
X109928320Y-51119502D01*
X110048018Y-51155812D01*
X110172500Y-51168072D01*
X112077500Y-51168072D01*
X112201982Y-51155812D01*
X112321680Y-51119502D01*
X112431994Y-51060537D01*
X112528685Y-50981185D01*
X112608037Y-50884494D01*
X112657059Y-50792781D01*
X112798077Y-50905969D01*
X113073906Y-51049571D01*
X113292020Y-51120563D01*
X113538000Y-51000594D01*
X113538000Y-49657000D01*
X113518000Y-49657000D01*
X113518000Y-49403000D01*
X113538000Y-49403000D01*
X113538000Y-48059406D01*
X113292020Y-47939437D01*
X113073906Y-48010429D01*
X112798077Y-48154031D01*
X112657059Y-48267219D01*
X112608037Y-48175506D01*
X112528685Y-48078815D01*
X112431994Y-47999463D01*
X112321680Y-47940498D01*
X112201982Y-47904188D01*
X112077500Y-47891928D01*
X110172500Y-47891928D01*
X110048018Y-47904188D01*
X109928320Y-47940498D01*
X109818006Y-47999463D01*
X109721315Y-48078815D01*
X109641963Y-48175506D01*
X109582998Y-48285820D01*
X109546688Y-48405518D01*
X109534428Y-48530000D01*
X109534428Y-48620000D01*
X104516934Y-48620000D01*
X104375006Y-48478072D01*
X105625000Y-48478072D01*
X105749482Y-48465812D01*
X105869180Y-48429502D01*
X105979494Y-48370537D01*
X106076185Y-48291185D01*
X106155537Y-48194494D01*
X106214502Y-48084180D01*
X106250812Y-47964482D01*
X106263072Y-47840000D01*
X106263072Y-46140000D01*
X106250812Y-46015518D01*
X106214502Y-45895820D01*
X106155537Y-45785506D01*
X106076185Y-45688815D01*
X105979494Y-45609463D01*
X105869180Y-45550498D01*
X105749482Y-45514188D01*
X105625000Y-45501928D01*
X103925000Y-45501928D01*
X103800518Y-45514188D01*
X103680820Y-45550498D01*
X103570506Y-45609463D01*
X103473815Y-45688815D01*
X103394463Y-45785506D01*
X103335498Y-45895820D01*
X103314607Y-45964687D01*
X103290134Y-45934866D01*
X103145000Y-45815758D01*
X103145000Y-42702238D01*
X103159482Y-42700812D01*
X103279180Y-42664502D01*
X103389494Y-42605537D01*
X103486185Y-42526185D01*
X103496807Y-42513242D01*
X103748996Y-42632571D01*
X104023184Y-42701300D01*
X104305512Y-42715217D01*
X104585130Y-42673787D01*
X104851292Y-42578603D01*
X104976514Y-42511671D01*
X105048097Y-42267702D01*
X104235000Y-41454605D01*
X104220858Y-41468748D01*
X104041253Y-41289143D01*
X104055395Y-41275000D01*
X104414605Y-41275000D01*
X105227702Y-42088097D01*
X105471671Y-42016514D01*
X105592571Y-41761004D01*
X105661300Y-41486816D01*
X105675217Y-41204488D01*
X105633787Y-40924870D01*
X105538603Y-40658708D01*
X105471671Y-40533486D01*
X105227702Y-40461903D01*
X104414605Y-41275000D01*
X104055395Y-41275000D01*
X104041253Y-41260858D01*
X104220858Y-41081253D01*
X104235000Y-41095395D01*
X105048097Y-40282298D01*
X104976514Y-40038329D01*
X104721004Y-39917429D01*
X104446816Y-39848700D01*
X104164488Y-39834783D01*
X103884870Y-39876213D01*
X103618708Y-39971397D01*
X103496691Y-40036616D01*
X103486185Y-40023815D01*
X103389494Y-39944463D01*
X103279180Y-39885498D01*
X103159482Y-39849188D01*
X103145000Y-39847762D01*
X103145000Y-37312817D01*
X103149759Y-37309637D01*
X103271694Y-37187702D01*
X103921903Y-37187702D01*
X103993486Y-37431671D01*
X104248996Y-37552571D01*
X104523184Y-37621300D01*
X104805512Y-37635217D01*
X105085130Y-37593787D01*
X105351292Y-37498603D01*
X105476514Y-37431671D01*
X105548097Y-37187702D01*
X104735000Y-36374605D01*
X103921903Y-37187702D01*
X103271694Y-37187702D01*
X103349637Y-37109759D01*
X103483692Y-36909131D01*
X103498329Y-36936514D01*
X103742298Y-37008097D01*
X104555395Y-36195000D01*
X104914605Y-36195000D01*
X105727702Y-37008097D01*
X105971671Y-36936514D01*
X106092571Y-36681004D01*
X106161300Y-36406816D01*
X106175217Y-36124488D01*
X106133787Y-35844870D01*
X106038603Y-35578708D01*
X105971671Y-35453486D01*
X105727702Y-35381903D01*
X104914605Y-36195000D01*
X104555395Y-36195000D01*
X103742298Y-35381903D01*
X103498329Y-35453486D01*
X103484676Y-35482341D01*
X103349637Y-35280241D01*
X103271694Y-35202298D01*
X103921903Y-35202298D01*
X104735000Y-36015395D01*
X105548097Y-35202298D01*
X105476514Y-34958329D01*
X105221004Y-34837429D01*
X104946816Y-34768700D01*
X104664488Y-34754783D01*
X104384870Y-34796213D01*
X104118708Y-34891397D01*
X103993486Y-34958329D01*
X103921903Y-35202298D01*
X103271694Y-35202298D01*
X103149759Y-35080363D01*
X102914727Y-34923320D01*
X102653574Y-34815147D01*
X102376335Y-34760000D01*
X102093665Y-34760000D01*
X101816426Y-34815147D01*
X101555273Y-34923320D01*
X101320241Y-35080363D01*
X101120363Y-35280241D01*
X100963320Y-35515273D01*
X100855147Y-35776426D01*
X100800000Y-36053665D01*
X100800000Y-36336335D01*
X100855147Y-36613574D01*
X100963320Y-36874727D01*
X101120363Y-37109759D01*
X101320241Y-37309637D01*
X101325001Y-37312817D01*
X101325000Y-39847762D01*
X101310518Y-39849188D01*
X101190820Y-39885498D01*
X101080506Y-39944463D01*
X100983815Y-40023815D01*
X100904463Y-40120506D01*
X100845498Y-40230820D01*
X100809188Y-40350518D01*
X100796928Y-40475000D01*
X100796928Y-42075000D01*
X100809188Y-42199482D01*
X100845498Y-42319180D01*
X100904463Y-42429494D01*
X100983815Y-42526185D01*
X101080506Y-42605537D01*
X101190820Y-42664502D01*
X101310518Y-42700812D01*
X101325001Y-42702238D01*
X101325000Y-45815757D01*
X101179866Y-45934866D01*
X100994294Y-46160986D01*
X100856401Y-46418966D01*
X100771487Y-46698889D01*
X100742815Y-46990000D01*
X100761218Y-47176848D01*
X97178149Y-50759918D01*
X97143420Y-50788419D01*
X97077688Y-50868515D01*
X97029702Y-50926985D01*
X96945202Y-51085074D01*
X96893168Y-51256609D01*
X96875597Y-51435000D01*
X96595000Y-51435000D01*
X96595000Y-32214117D01*
X97325000Y-32214117D01*
X97325000Y-32555883D01*
X97391675Y-32891081D01*
X97522463Y-33206831D01*
X97712337Y-33490998D01*
X97954002Y-33732663D01*
X98238169Y-33922537D01*
X98553919Y-34053325D01*
X98889117Y-34120000D01*
X99230883Y-34120000D01*
X99566081Y-34053325D01*
X99881831Y-33922537D01*
X100165998Y-33732663D01*
X100407663Y-33490998D01*
X100597537Y-33206831D01*
X100728325Y-32891081D01*
X100732518Y-32870000D01*
X111268461Y-32870000D01*
X111314510Y-33337542D01*
X111450887Y-33787116D01*
X111672351Y-34201446D01*
X111970391Y-34564609D01*
X112333554Y-34862649D01*
X112747884Y-35084113D01*
X113197458Y-35220490D01*
X113547843Y-35255000D01*
X113782157Y-35255000D01*
X114132542Y-35220490D01*
X114582116Y-35084113D01*
X114996446Y-34862649D01*
X115359609Y-34564609D01*
X115657649Y-34201446D01*
X115879113Y-33787116D01*
X116015490Y-33337542D01*
X116061539Y-32870000D01*
X116015490Y-32402458D01*
X115879113Y-31952884D01*
X115657649Y-31538554D01*
X115359609Y-31175391D01*
X114996446Y-30877351D01*
X114582116Y-30655887D01*
X114132542Y-30519510D01*
X113782157Y-30485000D01*
X113547843Y-30485000D01*
X113197458Y-30519510D01*
X112747884Y-30655887D01*
X112333554Y-30877351D01*
X111970391Y-31175391D01*
X111672351Y-31538554D01*
X111450887Y-31952884D01*
X111314510Y-32402458D01*
X111268461Y-32870000D01*
X100732518Y-32870000D01*
X100795000Y-32555883D01*
X100795000Y-32214117D01*
X100728325Y-31878919D01*
X100597537Y-31563169D01*
X100407663Y-31279002D01*
X100165998Y-31037337D01*
X99881831Y-30847463D01*
X99566081Y-30716675D01*
X99230883Y-30650000D01*
X98889117Y-30650000D01*
X98553919Y-30716675D01*
X98238169Y-30847463D01*
X97954002Y-31037337D01*
X97712337Y-31279002D01*
X97522463Y-31563169D01*
X97391675Y-31878919D01*
X97325000Y-32214117D01*
X96595000Y-32214117D01*
X96595000Y-27798665D01*
X101435000Y-27798665D01*
X101435000Y-28081335D01*
X101490147Y-28358574D01*
X101598320Y-28619727D01*
X101755363Y-28854759D01*
X101955241Y-29054637D01*
X102190273Y-29211680D01*
X102451426Y-29319853D01*
X102728665Y-29375000D01*
X103011335Y-29375000D01*
X103288574Y-29319853D01*
X103549727Y-29211680D01*
X103784759Y-29054637D01*
X103984637Y-28854759D01*
X104141680Y-28619727D01*
X104249853Y-28358574D01*
X104305000Y-28081335D01*
X104305000Y-27940000D01*
X111588057Y-27940000D01*
X111615764Y-28221309D01*
X111697818Y-28491808D01*
X111831068Y-28741101D01*
X112010392Y-28959608D01*
X112228899Y-29138932D01*
X112478192Y-29272182D01*
X112748691Y-29354236D01*
X112959508Y-29375000D01*
X113100492Y-29375000D01*
X113311309Y-29354236D01*
X113581808Y-29272182D01*
X113831101Y-29138932D01*
X114049608Y-28959608D01*
X114228932Y-28741101D01*
X114362182Y-28491808D01*
X114444236Y-28221309D01*
X114471943Y-27940000D01*
X114444236Y-27658691D01*
X114362182Y-27388192D01*
X114228932Y-27138899D01*
X114049608Y-26920392D01*
X113831101Y-26741068D01*
X113581808Y-26607818D01*
X113311309Y-26525764D01*
X113100492Y-26505000D01*
X112959508Y-26505000D01*
X112748691Y-26525764D01*
X112478192Y-26607818D01*
X112228899Y-26741068D01*
X112010392Y-26920392D01*
X111831068Y-27138899D01*
X111697818Y-27388192D01*
X111615764Y-27658691D01*
X111588057Y-27940000D01*
X104305000Y-27940000D01*
X104305000Y-27798665D01*
X104249853Y-27521426D01*
X104141680Y-27260273D01*
X103984637Y-27025241D01*
X103784759Y-26825363D01*
X103549727Y-26668320D01*
X103288574Y-26560147D01*
X103011335Y-26505000D01*
X102728665Y-26505000D01*
X102451426Y-26560147D01*
X102190273Y-26668320D01*
X101955241Y-26825363D01*
X101755363Y-27025241D01*
X101598320Y-27260273D01*
X101490147Y-27521426D01*
X101435000Y-27798665D01*
X96595000Y-27798665D01*
X96595000Y-23760000D01*
X97521928Y-23760000D01*
X97534188Y-23884482D01*
X97570498Y-24004180D01*
X97629463Y-24114494D01*
X97708815Y-24211185D01*
X97805506Y-24290537D01*
X97915820Y-24349502D01*
X98035518Y-24385812D01*
X98160000Y-24398072D01*
X98774250Y-24395000D01*
X98933000Y-24236250D01*
X98933000Y-22987000D01*
X97683750Y-22987000D01*
X97525000Y-23145750D01*
X97521928Y-23760000D01*
X96595000Y-23760000D01*
X96595000Y-21960000D01*
X97521928Y-21960000D01*
X97525000Y-22574250D01*
X97683750Y-22733000D01*
X98933000Y-22733000D01*
X98933000Y-21483750D01*
X99187000Y-21483750D01*
X99187000Y-22733000D01*
X99207000Y-22733000D01*
X99207000Y-22987000D01*
X99187000Y-22987000D01*
X99187000Y-24236250D01*
X99345750Y-24395000D01*
X99960000Y-24398072D01*
X100084482Y-24385812D01*
X100204180Y-24349502D01*
X100314494Y-24290537D01*
X100411185Y-24211185D01*
X100490537Y-24114494D01*
X100549502Y-24004180D01*
X100555056Y-23985873D01*
X100621495Y-24052312D01*
X100872905Y-24220299D01*
X101152257Y-24336011D01*
X101448816Y-24395000D01*
X101751184Y-24395000D01*
X102047743Y-24336011D01*
X102327095Y-24220299D01*
X102578505Y-24052312D01*
X102792312Y-23838505D01*
X102960299Y-23587095D01*
X103076011Y-23307743D01*
X103135000Y-23011184D01*
X103135000Y-22708816D01*
X103076011Y-22412257D01*
X102960299Y-22132905D01*
X102792312Y-21881495D01*
X102578505Y-21667688D01*
X102327095Y-21499701D01*
X102047743Y-21383989D01*
X101751184Y-21325000D01*
X101448816Y-21325000D01*
X101152257Y-21383989D01*
X100872905Y-21499701D01*
X100621495Y-21667688D01*
X100555056Y-21734127D01*
X100549502Y-21715820D01*
X100490537Y-21605506D01*
X100411185Y-21508815D01*
X100314494Y-21429463D01*
X100204180Y-21370498D01*
X100084482Y-21334188D01*
X99960000Y-21321928D01*
X99345750Y-21325000D01*
X99187000Y-21483750D01*
X98933000Y-21483750D01*
X98774250Y-21325000D01*
X98160000Y-21321928D01*
X98035518Y-21334188D01*
X97915820Y-21370498D01*
X97805506Y-21429463D01*
X97708815Y-21508815D01*
X97629463Y-21605506D01*
X97570498Y-21715820D01*
X97534188Y-21835518D01*
X97521928Y-21960000D01*
X96595000Y-21960000D01*
X96595000Y-19760000D01*
X130100000Y-19760000D01*
X130100001Y-77435123D01*
G36*
X119307000Y-77978000D02*
G01*
X119327000Y-77978000D01*
X119327000Y-78232000D01*
X119307000Y-78232000D01*
X119307000Y-79425814D01*
X119536891Y-79546481D01*
X119811252Y-79449157D01*
X119890001Y-79402249D01*
X119890001Y-84775196D01*
X118391365Y-86273833D01*
X118246411Y-86245000D01*
X118029801Y-86245000D01*
X119256003Y-85018799D01*
X119285001Y-84995001D01*
X119379974Y-84879276D01*
X119450546Y-84747247D01*
X119494003Y-84603986D01*
X119505000Y-84492333D01*
X119505000Y-84492323D01*
X119508676Y-84455000D01*
X119505000Y-84417677D01*
X119505000Y-80682322D01*
X119508676Y-80644999D01*
X119505000Y-80607676D01*
X119505000Y-80607667D01*
X119494003Y-80496014D01*
X119450546Y-80352753D01*
X119379974Y-80220724D01*
X119285001Y-80104999D01*
X119256004Y-80081202D01*
X118665305Y-79490503D01*
X118823109Y-79546481D01*
X119053000Y-79425814D01*
X119053000Y-78232000D01*
X119033000Y-78232000D01*
X119033000Y-77978000D01*
X119053000Y-77978000D01*
X119053000Y-77958000D01*
X119307000Y-77958000D01*
X119307000Y-77978000D01*
X119307000Y-77978000D01*
G37*
X119307000Y-77978000D02*
X119327000Y-77978000D01*
X119327000Y-78232000D01*
X119307000Y-78232000D01*
X119307000Y-79425814D01*
X119536891Y-79546481D01*
X119811252Y-79449157D01*
X119890001Y-79402249D01*
X119890001Y-84775196D01*
X118391365Y-86273833D01*
X118246411Y-86245000D01*
X118029801Y-86245000D01*
X119256003Y-85018799D01*
X119285001Y-84995001D01*
X119379974Y-84879276D01*
X119450546Y-84747247D01*
X119494003Y-84603986D01*
X119505000Y-84492333D01*
X119505000Y-84492323D01*
X119508676Y-84455000D01*
X119505000Y-84417677D01*
X119505000Y-80682322D01*
X119508676Y-80644999D01*
X119505000Y-80607676D01*
X119505000Y-80607667D01*
X119494003Y-80496014D01*
X119450546Y-80352753D01*
X119379974Y-80220724D01*
X119285001Y-80104999D01*
X119256004Y-80081202D01*
X118665305Y-79490503D01*
X118823109Y-79546481D01*
X119053000Y-79425814D01*
X119053000Y-78232000D01*
X119033000Y-78232000D01*
X119033000Y-77978000D01*
X119053000Y-77978000D01*
X119053000Y-77958000D01*
X119307000Y-77958000D01*
X119307000Y-77978000D01*
M02*
